<?xml version="1.0" standalone="no"?>
<!DOCTYPE svg PUBLIC "-//W3C//DTD SVG 1.1//EN" "http://www.w3.org/Graphics/SVG/1.1/DTD/svg11.dtd" >
<svg>
<metadata>
Created by FontForge 20090622 at Thu Nov 14 15:13:08 2019
 By deploy user
(C) 2016 Sharp Type Corporation
</metadata>
<defs>
<font id="SharpGroteskLight25-Regular" horiz-adv-x="867" >
  <font-face 
    font-family="Sharp Grotesk Light 25"
    font-weight="300"
    font-stretch="ultra-expanded"
    units-per-em="1000"
    panose-1="2 11 4 7 5 7 2 3 2 4"
    ascent="800"
    descent="-200"
    x-height="567"
    cap-height="708"
    bbox="-96 -329 2001 1186"
    underline-thickness="50"
    underline-position="-50"
    unicode-range="U+0020-U+3009"
  />
<missing-glyph horiz-adv-x="61" 
 />
    <glyph glyph-name=".notdef" horiz-adv-x="61" 
 />
    <glyph glyph-name="space" unicode=" " horiz-adv-x="323" 
 />
    <glyph glyph-name="uni00A0" unicode="&#xa0;" horiz-adv-x="323" 
 />
    <glyph glyph-name="A" unicode="A" horiz-adv-x="884" 
d="M633 268h-385l191 366zM776 0h87l-384 708h-82l-375 -708h87l105 202h455z" />
    <glyph glyph-name="B" unicode="B" horiz-adv-x="869" 
d="M461 0q118 0 199 18t122 60q21 21 31.5 50t10.5 65v1q0 80 -46.5 117.5t-139.5 49.5q82 14 124 52t42 112v2q0 99 -81 140t-252 41h-359v-708h349zM475 392h-285v250h284q130 0 191 -25.5t61 -96.5v-1q0 -53 -31.5 -80.5t-87.5 -37.5q-28 -5 -61 -7t-71 -2zM468 328
q88 0 149.5 -9t93.5 -37q17 -14 25 -35t8 -49v-1q0 -51 -30.5 -79t-94.5 -38q-32 -6 -73.5 -8.5t-91.5 -2.5h-264v259h278z" />
    <glyph glyph-name="C" unicode="C" horiz-adv-x="953" 
d="M902 261h-85q-13 -57 -51.5 -104t-105.5 -75q-34 -14 -75.5 -21t-91.5 -7q-166 0 -255 76t-89 215v1q0 98 43.5 166t121.5 103q40 18 86 27t99 9q132 0 212 -50.5t102 -142.5h84q-19 88 -75 146.5t-139 88.5q-42 15 -88 22.5t-96 7.5q-127 0 -224 -46t-152 -131
q-28 -42 -41.5 -92t-13.5 -108v-2q0 -177 111.5 -270t309.5 -93q122 0 208 36t137 99q26 31 43 67.5t25 77.5z" />
    <glyph glyph-name="D" unicode="D" horiz-adv-x="916" 
d="M112 0h327q119 0 212.5 35t146.5 113q27 39 40.5 91t13.5 116v2q0 95 -33 162t-92 108q-59 42 -137 61.5t-167 19.5h-311v-708zM421 638q102 0 181 -27t124 -88q22 -31 33.5 -72.5t11.5 -93.5v-1q0 -108 -42.5 -170t-117.5 -89q-38 -13 -81.5 -19.5t-93.5 -6.5h-245v567
h230z" />
    <glyph glyph-name="E" unicode="E" horiz-adv-x="830" 
d="M791 71h-602v241h492v69h-492v258h583v69h-660v-708h679v71z" />
    <glyph glyph-name="F" unicode="F" horiz-adv-x="798" 
d="M722 288v71h-532v278h566v71h-644v-708h78v288h532z" />
    <glyph glyph-name="G" unicode="G" horiz-adv-x="984" 
d="M831 0h68v348h-420v-69h344q-3 -40 -21.5 -80t-58.5 -74q-39 -33 -103.5 -53.5t-157.5 -20.5q-157 0 -245 74t-88 219q0 103 42.5 171t119.5 102q39 17 84.5 25.5t98.5 8.5q127 0 208.5 -44t106.5 -145h88q-20 94 -76 151t-140 84q-42 13 -89.5 19.5t-99.5 6.5
q-124 0 -220 -44t-150 -128q-27 -42 -40.5 -93.5t-13.5 -112.5v-1q0 -121 49 -201.5t139 -121.5q45 -20 98.5 -30t115.5 -10q117 0 191 31t114 81q20 25 33 52t20 56z" />
    <glyph glyph-name="H" unicode="H" horiz-adv-x="942" 
d="M751 0h79v708h-79v-316h-560v316h-79v-708h79v316h560v-316z" />
    <glyph glyph-name="I" unicode="I" horiz-adv-x="586" 
d="M522 0v74h-191v563h191v71h-458v-71h191v-563h-191v-74h458z" />
    <glyph glyph-name="J" unicode="J" horiz-adv-x="725" 
d="M328 -20q145 0 223.5 77t78.5 246v405h-82v-404q0 -138 -56.5 -194.5t-163.5 -56.5q-102 0 -152 49.5t-59 139.5v5h-82v-6q11 -125 81.5 -193t211.5 -68z" />
    <glyph glyph-name="K" unicode="K" horiz-adv-x="885" 
d="M769 0h98l-359 447l336 261h-112l-541 -418v418h-79v-708h79v210l257 195z" />
    <glyph glyph-name="L" unicode="L" horiz-adv-x="747" 
d="M716 0v75h-524v633h-80v-708h604z" />
    <glyph glyph-name="M" unicode="M" horiz-adv-x="1072" 
d="M527 277h13l343 329v-606h77v708h-75l-350 -335l-345 335h-78v-708h77v603z" />
    <glyph glyph-name="N" unicode="N" horiz-adv-x="947" 
d="M237 558l526 -558h74v708h-77v-600l-50 56l-514 544h-84v-708h77v611z" />
    <glyph glyph-name="O" unicode="O" horiz-adv-x="966" 
d="M481 -19q88 0 164.5 22.5t133.5 68.5q58 45 90.5 113.5t32.5 160.5v2q0 92 -32 162t-89 117q-58 48 -134.5 72t-165.5 24q-118 0 -212.5 -43.5t-149.5 -126.5q-28 -42 -41.5 -93t-13.5 -112v-2q0 -123 55 -204t150 -121q47 -20 100 -30t112 -10zM481 55q-96 0 -172 31.5
t-119 96.5q-22 33 -33 74t-11 90q0 101 42 168.5t118 101.5q38 17 82 25.5t94 8.5q100 0 176 -33.5t119 -101.5q22 -34 32.5 -76t10.5 -93v-1q0 -102 -45 -166.5t-121 -94.5q-39 -15 -82 -22.5t-91 -7.5z" />
    <glyph glyph-name="P" unicode="P" horiz-adv-x="857" 
d="M473 297h-282v342h273q137 0 201.5 -38.5t64.5 -132.5q0 -93 -64.5 -132.5t-192.5 -38.5zM477 228q166 -1 249 60.5t83 179.5q0 122 -82 181t-264 59h-351v-708h79v228h286z" />
    <glyph glyph-name="Q" unicode="Q" horiz-adv-x="966" 
d="M779 -139l-117 148q71 24 125 69.5t85 112.5q15 33 22.5 72t7.5 83v2q0 92 -32 162t-89 117q-58 48 -134.5 72t-165.5 24q-118 0 -212.5 -43.5t-149.5 -126.5q-28 -42 -41.5 -93t-13.5 -112v-2q0 -123 55 -204t150 -121q47 -20 100 -30t112 -10q26 0 51.5 2t49.5 6
l97 -128h100zM481 55q-96 0 -172 31.5t-119 96.5q-22 33 -33 74t-11 90q0 101 42 168.5t118 101.5q38 17 82 25.5t94 8.5q100 0 176 -33.5t119 -101.5q22 -34 32.5 -76t10.5 -93v-1q0 -102 -45 -166.5t-121 -94.5q-39 -15 -82 -22.5t-91 -7.5z" />
    <glyph glyph-name="R" unicode="R" horiz-adv-x="914" 
d="M485 343h-294v296h298q133 0 194 -31.5t61 -112.5v-5q0 -60 -32.5 -92t-90.5 -44q-29 -6 -63 -8.5t-73 -2.5zM497 274q86 0 135 -17.5t70 -58.5q10 -20 15 -48t5 -63v-43q0 -15 2.5 -27t9.5 -17h86q-8 5 -11.5 17t-3.5 26v45q0 101 -35.5 152t-124.5 68q89 16 134 60.5
t45 129.5q0 110 -78 160t-256 50h-378v-708h79v274h306z" />
    <glyph glyph-name="S" unicode="S" horiz-adv-x="868" 
d="M456 -20q182 0 268.5 57t86.5 159q0 73 -40.5 112.5t-122.5 57.5q-41 9 -92 15t-113 10q-105 7 -168 19t-91 36q-14 13 -21 30t-7 39q0 68 62.5 103.5t195.5 35.5q135 0 214.5 -40.5t91.5 -126.5h83q-17 114 -114 174.5t-273 60.5q-171 0 -255.5 -57t-84.5 -152
q0 -68 37.5 -106.5t112.5 -56.5q37 -9 83.5 -15.5t102.5 -10.5q112 -7 182.5 -17.5t104.5 -35.5q16 -13 24.5 -32.5t8.5 -46.5q0 -67 -64.5 -104t-210.5 -37q-158 0 -237 44.5t-94 154.5h-86q12 -92 57 -152t132 -89q44 -15 101 -22t126 -7z" />
    <glyph glyph-name="T" unicode="T" horiz-adv-x="766" 
d="M725 639v69h-684v-69h294v-639h82v639h308z" />
    <glyph glyph-name="U" unicode="U" horiz-adv-x="919" 
d="M460 -20q180 0 272 94t92 297v337h-82v-335q0 -165 -67.5 -241t-213.5 -76q-151 0 -217.5 77.5t-66.5 238.5v336h-82v-338q0 -201 88 -295.5t277 -94.5z" />
    <glyph glyph-name="V" unicode="V" horiz-adv-x="860" 
d="M469 0l371 708h-87l-322 -627l-317 627h-89l363 -708h81z" />
    <glyph glyph-name="W" unicode="W" horiz-adv-x="1297" 
d="M908 0h77l282 708h-81l-241 -616l-273 616h-65l-302 -611l-194 611h-81l225 -708h78l304 613z" />
    <glyph glyph-name="X" unicode="X" horiz-adv-x="849" 
d="M727 0h101l-347 376l320 332h-102l-269 -287l-265 287h-101l312 -333l-365 -375h106l311 325z" />
    <glyph glyph-name="Y" unicode="Y" horiz-adv-x="806" 
d="M431 0v295l357 413h-98l-298 -343l-276 343h-98l332 -411v-297h81z" />
    <glyph glyph-name="Z" unicode="Z" horiz-adv-x="789" 
d="M742 0v72h-586l593 563v73h-678v-69h574l-602 -569v-70h699z" />
    <glyph glyph-name="Aacute" unicode="&#xc1;" horiz-adv-x="884" 
d="M22 0zM633 268h-385l191 366zM776 0h87l-384 708h-82l-375 -708h87l105 202h455zM398 814h72l195 216h-91z" />
    <glyph glyph-name="Abreve" unicode="&#x102;" horiz-adv-x="884" 
d="M22 0zM633 268h-385l191 366zM776 0h87l-384 708h-82l-375 -708h87l105 202h455zM431 805q76 0 125.5 28.5t74.5 74.5q12 23 19 48t8 52h-63q-4 -59 -45 -101.5t-118 -43.5q-54 1 -88 20.5t-51 52.5q-8 16 -13 34t-6 38h-63q3 -54 24 -100t68 -75q24 -14 56 -21t72 -7z
" />
    <glyph glyph-name="Acircumflex" unicode="&#xc2;" horiz-adv-x="884" 
d="M22 0zM633 268h-385l191 366zM776 0h87l-384 708h-82l-375 -708h87l105 202h455zM552 805h77l-164 191h-68l-164 -191h79l120 141z" />
    <glyph glyph-name="Adieresis" unicode="&#xc4;" horiz-adv-x="884" 
d="M22 0zM633 268h-385l191 366zM776 0h87l-384 708h-82l-375 -708h87l105 202h455zM543 804q29 0 45.5 13.5t16.5 43.5t-15 45t-46 15t-46.5 -14.5t-15.5 -44.5q0 -31 15 -44.5t46 -13.5zM328 804q31 0 46 14.5t15 42.5q0 30 -15 45t-45 15q-31 0 -47 -14.5t-16 -44.5
q0 -31 15.5 -44.5t46.5 -13.5z" />
    <glyph glyph-name="Agrave" unicode="&#xc0;" horiz-adv-x="884" 
d="M22 0zM633 268h-385l191 366zM776 0h87l-384 708h-82l-375 -708h87l105 202h455zM408 811h71l-162 189h-96z" />
    <glyph glyph-name="Amacron" unicode="&#x100;" horiz-adv-x="884" 
d="M22 0zM633 268h-385l191 366zM776 0h87l-384 708h-82l-375 -708h87l105 202h455zM257 824h363v64h-363v-64z" />
    <glyph glyph-name="uni0245" unicode="&#x245;" horiz-adv-x="884" 
d="M777 0h86l-384 708h-82l-375 -708h86l330 635z" />
    <glyph glyph-name="Aogonek" unicode="&#x104;" horiz-adv-x="884" 
d="M633 268h-385l191 366zM989 -134h-72q-16 -29 -43.5 -46.5t-68.5 -17.5q-40 0 -66 18t-26 49q0 21 12.5 40t45.5 40q16 11 39 23.5l52 27.5h1l-384 708h-82l-375 -708h87l105 202h455l102 -193q-70 -36 -96.5 -72t-26.5 -73q0 -53 41 -84t113 -31q68 0 115 30.5t72 86.5z
" />
    <glyph glyph-name="Aring" unicode="&#xc5;" horiz-adv-x="884" 
d="M22 0zM633 268h-385l191 366zM776 0h87l-384 708h-82l-375 -708h87l105 202h455zM441 792q56 0 90 33.5t34 88.5q0 60 -34 91.5t-90 31.5q-53 0 -87.5 -33t-34.5 -90q0 -54 32.5 -88t89.5 -34zM441 847q-34 0 -51 18.5t-17 48.5q0 33 19 51.5t49 18.5q32 0 50 -18.5
t18 -51.5t-19.5 -50t-48.5 -17z" />
    <glyph glyph-name="Aringacute" unicode="&#x1fa;" horiz-adv-x="884" 
d="M405 958h72l195 216h-91zM373 773q0 33 19 51.5t49 18.5q32 0 50 -18.5t18 -51.5q0 -28 -14 -44t-35 -21h-39q-24 5 -36 22.5t-12 42.5zM633 268h-385l191 366zM214 202h455l107 -202h87l-360 664q29 15 45.5 43.5t16.5 65.5q0 60 -34 91.5t-90 31.5q-53 0 -87.5 -33
t-34.5 -90q0 -37 14 -63.5t42 -42.5l-353 -667h87z" />
    <glyph glyph-name="Atilde" unicode="&#xc3;" horiz-adv-x="884" 
d="M22 0zM633 268h-385l191 366zM776 0h87l-384 708h-82l-375 -708h87l105 202h455zM207 806h54q0 36 16.5 54t49.5 18q25 0 50 -11t51 -25q26 -15 54.5 -26t59.5 -11q63 0 91 35.5t28 93.5h-54q-1 -36 -17 -54t-48 -18q-24 0 -48 11t-50 26t-55 26t-62 11q-61 0 -90.5 -36
t-29.5 -94z" />
    <glyph glyph-name="Aumlaut" horiz-adv-x="884" 
d="M719 601q32 0 48 15t16 45q0 31 -15.5 46.5t-47.5 15.5t-48.5 -15.5t-16.5 -46.5q0 -32 16 -46t48 -14zM164 601q30 0 47 14.5t17 45.5t-15.5 46.5t-47.5 15.5q-33 0 -49.5 -15.5t-16.5 -46.5q0 -32 16 -46t49 -14zM633 268h-385l191 366zM776 0h87l-384 708h-82
l-375 -708h87l105 202h455z" />
    <glyph glyph-name="AE" unicode="&#xc6;" horiz-adv-x="1288" 
d="M620 313h-307l236 323zM688 0h561v71h-502l-56 253h448v68h-463l-55 247h608v69h-707l-526 -708h89l179 245h371z" />
    <glyph glyph-name="AEacute" unicode="&#x1fc;" horiz-adv-x="1288" 
d="M0 0zM620 313h-307l236 323zM688 0h561v71h-502l-56 253h448v68h-463l-55 247h608v69h-707l-526 -708h89l179 245h371zM526 814h72l195 216h-91z" />
    <glyph glyph-name="Cacute" unicode="&#x106;" horiz-adv-x="953" 
d="M68 0zM902 261h-85q-13 -57 -51.5 -104t-105.5 -75q-34 -14 -75.5 -21t-91.5 -7q-166 0 -255 76t-89 215v1q0 98 43.5 166t121.5 103q40 18 86 27t99 9q132 0 212 -50.5t102 -142.5h84q-19 88 -75 146.5t-139 88.5q-42 15 -88 22.5t-96 7.5q-127 0 -224 -46t-152 -131
q-28 -42 -41.5 -92t-13.5 -108v-2q0 -177 111.5 -270t309.5 -93q122 0 208 36t137 99q26 31 43 67.5t25 77.5zM460 828h72l195 216h-91z" />
    <glyph glyph-name="Ccaron" unicode="&#x10c;" horiz-adv-x="953" 
d="M68 0zM902 261h-85q-13 -57 -51.5 -104t-105.5 -75q-34 -14 -75.5 -21t-91.5 -7q-166 0 -255 76t-89 215v1q0 98 43.5 166t121.5 103q40 18 86 27t99 9q132 0 212 -50.5t102 -142.5h84q-19 88 -75 146.5t-139 88.5q-42 15 -88 22.5t-96 7.5q-127 0 -224 -46t-152 -131
q-28 -42 -41.5 -92t-13.5 -108v-2q0 -177 111.5 -270t309.5 -93q122 0 208 36t137 99q26 31 43 67.5t25 77.5zM522 824l169 187h-81l-118 -131l-113 131h-80l163 -187h60z" />
    <glyph glyph-name="Ccedilla" unicode="&#xc7;" horiz-adv-x="953" 
d="M505 -293q81 0 122.5 34.5t41.5 87.5q0 49 -35.5 76t-110.5 28v49q111 5 190 42t126 98q24 30 39.5 65t23.5 74h-85q-13 -57 -51.5 -104t-105.5 -75q-34 -14 -75.5 -21t-91.5 -7q-166 0 -255 76t-89 215v1q0 98 43.5 166t121.5 103q40 18 86 27t99 9q132 0 212 -50.5
t102 -142.5h84q-19 88 -75 146.5t-139 88.5q-42 15 -88 22.5t-96 7.5q-127 0 -224 -46t-152 -131q-28 -42 -41.5 -92t-13.5 -108v-2q0 -170 104 -262.5t288 -99.5v-97h42q61 0 83 -14t22 -44q0 -32 -26.5 -49.5t-76.5 -17.5q-46 0 -75.5 19t-34.5 53h-71q10 -56 52.5 -90.5
t129.5 -34.5z" />
    <glyph glyph-name="Ccircumflex" unicode="&#x108;" horiz-adv-x="953" 
d="M68 0zM902 261h-85q-13 -57 -51.5 -104t-105.5 -75q-34 -14 -75.5 -21t-91.5 -7q-166 0 -255 76t-89 215v1q0 98 43.5 166t121.5 103q40 18 86 27t99 9q132 0 212 -50.5t102 -142.5h84q-19 88 -75 146.5t-139 88.5q-42 15 -88 22.5t-96 7.5q-127 0 -224 -46t-152 -131
q-28 -42 -41.5 -92t-13.5 -108v-2q0 -177 111.5 -270t309.5 -93q122 0 208 36t137 99q26 31 43 67.5t25 77.5zM614 824h77l-164 191h-68l-164 -191h79l120 141z" />
    <glyph glyph-name="Cdotaccent" unicode="&#x10a;" horiz-adv-x="953" 
d="M68 0zM902 261h-85q-13 -57 -51.5 -104t-105.5 -75q-34 -14 -75.5 -21t-91.5 -7q-166 0 -255 76t-89 215v1q0 98 43.5 166t121.5 103q40 18 86 27t99 9q132 0 212 -50.5t102 -142.5h84q-19 88 -75 146.5t-139 88.5q-42 15 -88 22.5t-96 7.5q-127 0 -224 -46t-152 -131
q-28 -42 -41.5 -92t-13.5 -108v-2q0 -177 111.5 -270t309.5 -93q122 0 208 36t137 99q26 31 43 67.5t25 77.5zM495 827q32 0 49 14.5t17 46.5t-16 48t-49 16t-50 -15.5t-17 -47.5q0 -34 16.5 -48t49.5 -14z" />
    <glyph glyph-name="Dcaron" unicode="&#x10e;" horiz-adv-x="916" 
d="M112 0zM112 0h327q119 0 212.5 35t146.5 113q27 39 40.5 91t13.5 116v2q0 95 -33 162t-92 108q-59 42 -137 61.5t-167 19.5h-311v-708zM421 638q102 0 181 -27t124 -88q22 -31 33.5 -72.5t11.5 -93.5v-1q0 -108 -42.5 -170t-117.5 -89q-38 -13 -81.5 -19.5t-93.5 -6.5
h-245v567h230zM482 811l169 187h-81l-118 -131l-113 131h-80l163 -187h60z" />
    <glyph glyph-name="Dcroat" unicode="&#x110;" horiz-adv-x="937" 
d="M0 0zM458 0q89 0 164.5 19.5t131.5 61.5t87 110t31 164v2q0 95 -33 162t-92 108q-59 42 -137 61.5t-167 19.5h-312v-324h-146v-68h146v-316h327zM397 316v68h-187v253h230q102 0 181 -26.5t125 -88.5q22 -30 33.5 -71.5t11.5 -93.5v-1q0 -108 -42.5 -170.5t-118.5 -88.5
q-38 -14 -81.5 -20.5t-93.5 -6.5h-245v246h187z" />
    <glyph glyph-name="Eth" unicode="&#xd0;" horiz-adv-x="937" 
d="M458 0q89 0 164.5 19.5t131.5 61.5t87 110t31 164v2q0 95 -33 162t-92 108q-59 42 -137 61.5t-167 19.5h-312v-324h-146v-68h146v-316h327zM397 316v68h-187v253h230q102 0 181 -26.5t125 -88.5q22 -30 33.5 -71.5t11.5 -93.5v-1q0 -108 -42.5 -170.5t-118.5 -88.5
q-38 -14 -81.5 -20.5t-93.5 -6.5h-245v246h187z" />
    <glyph glyph-name="Eacute" unicode="&#xc9;" horiz-adv-x="830" 
d="M112 0zM791 71h-602v241h492v69h-492v258h583v69h-660v-708h679v71zM415 814h72l195 216h-91z" />
    <glyph glyph-name="Ebreve" unicode="&#x114;" horiz-adv-x="830" 
d="M112 0zM791 71h-602v241h492v69h-492v258h583v69h-660v-708h679v71zM449 805q76 0 125.5 28.5t74.5 74.5q12 23 19 48t8 52h-63q-4 -59 -45 -101.5t-118 -43.5q-54 1 -88 20.5t-51 52.5q-8 16 -13 34t-6 38h-63q3 -54 24 -100t68 -75q24 -14 56 -21t72 -7z" />
    <glyph glyph-name="Ecaron" unicode="&#x11a;" horiz-adv-x="830" 
d="M112 0zM791 71h-602v241h492v69h-492v258h583v69h-660v-708h679v71zM478 810l169 187h-81l-118 -131l-113 131h-80l163 -187h60z" />
    <glyph glyph-name="Ecircumflex" unicode="&#xca;" horiz-adv-x="830" 
d="M112 0zM791 71h-602v241h492v69h-492v258h583v69h-660v-708h679v71zM570 810h77l-164 191h-68l-164 -191h79l120 141z" />
    <glyph glyph-name="Edieresis" unicode="&#xcb;" horiz-adv-x="830" 
d="M112 0zM791 71h-602v241h492v69h-492v258h583v69h-660v-708h679v71zM560 806q29 0 45.5 13.5t16.5 43.5t-15 45t-46 15t-46.5 -14.5t-15.5 -44.5q0 -31 15 -44.5t46 -13.5zM345 806q31 0 46 14.5t15 42.5q0 30 -15 45t-45 15q-31 0 -47 -14.5t-16 -44.5q0 -31 15.5 -44.5
t46.5 -13.5z" />
    <glyph glyph-name="Edotaccent" unicode="&#x116;" horiz-adv-x="830" 
d="M112 0zM791 71h-602v241h492v69h-492v258h583v69h-660v-708h679v71zM451 813q32 0 49 14.5t17 46.5t-16 48t-49 16t-50 -15.5t-17 -47.5q0 -34 16.5 -48t49.5 -14z" />
    <glyph glyph-name="Egrave" unicode="&#xc8;" horiz-adv-x="830" 
d="M112 0zM791 71h-602v241h492v69h-492v258h583v69h-660v-708h679v71zM426 811h71l-162 189h-96z" />
    <glyph glyph-name="Emacron" unicode="&#x112;" horiz-adv-x="830" 
d="M112 0zM791 71h-602v241h492v69h-492v258h583v69h-660v-708h679v71zM274 824h363v64h-363v-64z" />
    <glyph glyph-name="Eogonek" unicode="&#x118;" horiz-adv-x="830" 
d="M916 -134h-72q-16 -29 -43.5 -46.5t-68.5 -17.5q-40 0 -66 18t-26 49q0 21 12.5 40t45.5 40q16 11 39 23.5l52 27.5h2v71h-602v241h492v69h-492v258h583v69h-660v-708h569q-60 -34 -83 -68t-23 -68q0 -53 41 -84t113 -31q68 0 115 30.5t72 86.5z" />
    <glyph glyph-name="Gbreve" unicode="&#x11e;" horiz-adv-x="984" 
d="M68 0zM831 0h68v348h-420v-69h344q-3 -40 -21.5 -80t-58.5 -74q-39 -33 -103.5 -53.5t-157.5 -20.5q-157 0 -245 74t-88 219q0 103 42.5 171t119.5 102q39 17 84.5 25.5t98.5 8.5q127 0 208.5 -44t106.5 -145h88q-20 94 -76 151t-140 84q-42 13 -89.5 19.5t-99.5 6.5
q-124 0 -220 -44t-150 -128q-27 -42 -40.5 -93.5t-13.5 -112.5v-1q0 -121 49 -201.5t139 -121.5q45 -20 98.5 -30t115.5 -10q117 0 191 31t114 81q20 25 33 52t20 56zM493 819q76 0 125.5 28.5t74.5 74.5q12 23 19 48t8 52h-63q-4 -59 -45 -101.5t-118 -43.5q-54 1 -88 20.5
t-51 52.5q-8 16 -13 34t-6 38h-63q3 -54 24 -100t68 -75q24 -14 56 -21t72 -7z" />
    <glyph glyph-name="Gcircumflex" unicode="&#x11c;" horiz-adv-x="984" 
d="M68 0zM831 0h68v348h-420v-69h344q-3 -40 -21.5 -80t-58.5 -74q-39 -33 -103.5 -53.5t-157.5 -20.5q-157 0 -245 74t-88 219q0 103 42.5 171t119.5 102q39 17 84.5 25.5t98.5 8.5q127 0 208.5 -44t106.5 -145h88q-20 94 -76 151t-140 84q-42 13 -89.5 19.5t-99.5 6.5
q-124 0 -220 -44t-150 -128q-27 -42 -40.5 -93.5t-13.5 -112.5v-1q0 -121 49 -201.5t139 -121.5q45 -20 98.5 -30t115.5 -10q117 0 191 31t114 81q20 25 33 52t20 56zM614 820h77l-164 191h-68l-164 -191h79l120 141z" />
    <glyph glyph-name="uni0122" unicode="&#x122;" horiz-adv-x="984" 
d="M68 0zM831 0h68v348h-420v-69h344q-3 -40 -21.5 -80t-58.5 -74q-39 -33 -103.5 -53.5t-157.5 -20.5q-157 0 -245 74t-88 219q0 103 42.5 171t119.5 102q39 17 84.5 25.5t98.5 8.5q127 0 208.5 -44t106.5 -145h88q-20 94 -76 151t-140 84q-42 13 -89.5 19.5t-99.5 6.5
q-124 0 -220 -44t-150 -128q-27 -42 -40.5 -93.5t-13.5 -112.5v-1q0 -121 49 -201.5t139 -121.5q45 -20 98.5 -30t115.5 -10q117 0 191 31t114 81q20 25 33 52t20 56zM421 -328q73 16 106 56.5t33 90.5q0 39 -18 56t-55 17q-34 0 -51 -13t-17 -39q0 -28 14 -37.5t44 -9.5
q9 0 17.5 2t15.5 5q-4 -32 -29.5 -56t-68.5 -35z" />
    <glyph glyph-name="Gdotaccent" unicode="&#x120;" horiz-adv-x="984" 
d="M68 0zM831 0h68v348h-420v-69h344q-3 -40 -21.5 -80t-58.5 -74q-39 -33 -103.5 -53.5t-157.5 -20.5q-157 0 -245 74t-88 219q0 103 42.5 171t119.5 102q39 17 84.5 25.5t98.5 8.5q127 0 208.5 -44t106.5 -145h88q-20 94 -76 151t-140 84q-42 13 -89.5 19.5t-99.5 6.5
q-124 0 -220 -44t-150 -128q-27 -42 -40.5 -93.5t-13.5 -112.5v-1q0 -121 49 -201.5t139 -121.5q45 -20 98.5 -30t115.5 -10q117 0 191 31t114 81q20 25 33 52t20 56zM495 827q32 0 49 14.5t17 46.5t-16 48t-49 16t-50 -15.5t-17 -47.5q0 -34 16.5 -48t49.5 -14z" />
    <glyph glyph-name="Hbar" unicode="&#x126;" horiz-adv-x="970" 
d="M765 343h-559v148h559v-148zM765 0h79v491h135v66h-135v151h-79v-151h-559v151h-80v-151h-135v-66h135v-491h80v276h559v-276z" />
    <glyph glyph-name="Hcircumflex" unicode="&#x124;" horiz-adv-x="942" 
d="M112 0zM751 0h79v708h-79v-316h-560v316h-79v-708h79v316h560v-316zM590 795h77l-164 191h-68l-164 -191h79l120 141z" />
    <glyph glyph-name="Iacute" unicode="&#xcd;" horiz-adv-x="586" 
d="M64 0zM522 0v74h-191v563h191v71h-458v-71h191v-563h-191v-74h458zM258 814h72l195 216h-91z" />
    <glyph glyph-name="Ibreve" unicode="&#x12c;" horiz-adv-x="586" 
d="M64 0zM522 0v74h-191v563h191v71h-458v-71h191v-563h-191v-74h458zM291 805q76 0 125.5 28.5t74.5 74.5q12 23 19 48t8 52h-63q-4 -59 -45 -101.5t-118 -43.5q-54 1 -88 20.5t-51 52.5q-8 16 -13 34t-6 38h-63q3 -54 24 -100t68 -75q24 -14 56 -21t72 -7z" />
    <glyph glyph-name="Icircumflex" unicode="&#xce;" horiz-adv-x="586" 
d="M64 0zM522 0v74h-191v563h191v71h-458v-71h191v-563h-191v-74h458zM412 810h77l-164 191h-68l-164 -191h79l120 141z" />
    <glyph glyph-name="Idieresis" unicode="&#xcf;" horiz-adv-x="586" 
d="M64 0zM522 0v74h-191v563h191v71h-458v-71h191v-563h-191v-74h458zM403 806q29 0 45.5 13.5t16.5 43.5t-15 45t-46 15t-46.5 -14.5t-15.5 -44.5q0 -31 15 -44.5t46 -13.5zM188 806q31 0 46 14.5t15 42.5q0 30 -15 45t-45 15q-31 0 -47 -14.5t-16 -44.5q0 -31 15.5 -44.5
t46.5 -13.5z" />
    <glyph glyph-name="Idotaccent" unicode="&#x130;" horiz-adv-x="586" 
d="M64 0zM522 0v74h-191v563h191v71h-458v-71h191v-563h-191v-74h458zM294 813q32 0 49 14.5t17 46.5t-16 48t-49 16t-50 -15.5t-17 -47.5q0 -34 16.5 -48t49.5 -14z" />
    <glyph glyph-name="Igrave" unicode="&#xcc;" horiz-adv-x="586" 
d="M64 0zM522 0v74h-191v563h191v71h-458v-71h191v-563h-191v-74h458zM268 811h71l-162 189h-96z" />
    <glyph glyph-name="Imacron" unicode="&#x12a;" horiz-adv-x="586" 
d="M64 0zM522 0v74h-191v563h191v71h-458v-71h191v-563h-191v-74h458zM117 824h363v64h-363v-64z" />
    <glyph glyph-name="Iogonek" unicode="&#x12e;" horiz-adv-x="586" 
d="M646 -134h-72q-16 -29 -43.5 -46.5t-68.5 -17.5q-40 0 -66 18t-26 49q0 21 12.5 40t45.5 40q16 11 39 23.5l52 27.5h3v74h-191v563h191v71h-458v-71h191v-563h-191v-74h347q-60 -34 -83 -68t-23 -68q0 -53 41 -84t113 -31q68 0 115 30.5t72 86.5z" />
    <glyph glyph-name="Itilde" unicode="&#x128;" horiz-adv-x="586" 
d="M61 0zM522 0v74h-191v563h191v71h-458v-71h191v-563h-191v-74h458zM61 808h54q0 36 16.5 54t49.5 18q25 0 50 -11t51 -25q26 -15 54.5 -26t59.5 -11q63 0 91 35.5t28 93.5h-54q-1 -36 -17 -54t-48 -18q-24 0 -48 11t-50 26t-55 26t-62 11q-61 0 -90.5 -36t-29.5 -94z" />
    <glyph glyph-name="Jcircumflex" unicode="&#x134;" horiz-adv-x="725" 
d="M35 0zM328 -20q145 0 223.5 77t78.5 246v405h-82v-404q0 -138 -56.5 -194.5t-163.5 -56.5q-102 0 -152 49.5t-59 139.5v5h-82v-6q11 -125 81.5 -193t211.5 -68zM707 806h77l-164 191h-68l-164 -191h79l120 141z" />
    <glyph glyph-name="uni0136" unicode="&#x136;" horiz-adv-x="885" 
d="M112 0zM769 0h98l-359 447l336 261h-112l-541 -418v418h-79v-708h79v210l257 195zM406 -292q73 16 106 56.5t33 90.5q0 39 -18 56t-55 17q-34 0 -51 -13t-17 -39q0 -28 14 -37.5t44 -9.5q9 0 17.5 2t15.5 5q-4 -32 -29.5 -56t-68.5 -35z" />
    <glyph glyph-name="Lacute" unicode="&#x139;" horiz-adv-x="747" 
d="M112 0zM716 0v75h-524v633h-80v-708h604zM119 814h72l195 216h-91z" />
    <glyph glyph-name="Lcaron" unicode="&#x13d;" horiz-adv-x="747" 
d="M112 0zM716 0v75h-524v633h-80v-708h604zM491 522h61l84 193h-79z" />
    <glyph glyph-name="uni013B" unicode="&#x13b;" horiz-adv-x="747" 
d="M112 0zM716 0v75h-524v633h-80v-708h604zM349 -315q73 16 106 56.5t33 90.5q0 39 -18 56t-55 17q-34 0 -51 -13t-17 -39q0 -28 14 -37.5t44 -9.5q9 0 17.5 2t15.5 5q-4 -32 -29.5 -56t-68.5 -35z" />
    <glyph glyph-name="Ldot" unicode="&#x13f;" horiz-adv-x="747" 
d="M716 0v74h-524v634h-80v-708h604zM645 285q32 0 49 14.5t17 46.5t-16 48t-49 16t-50 -15.5t-17 -47.5q0 -34 16.5 -48t49.5 -14z" />
    <glyph glyph-name="Lslash" unicode="&#x141;" horiz-adv-x="766" 
d="M734 0v75h-524v261l219 61l-21 61l-198 -56v306h-80v-328l-137 -39l17 -61l120 34v-314h604z" />
    <glyph glyph-name="Nacute" unicode="&#x143;" horiz-adv-x="947" 
d="M112 0zM237 558l526 -558h74v708h-77v-600l-50 56l-514 544h-84v-708h77v611zM447 793h72l195 216h-91z" />
    <glyph glyph-name="Ncaron" unicode="&#x147;" horiz-adv-x="947" 
d="M112 0zM237 558l526 -558h74v708h-77v-600l-50 56l-514 544h-84v-708h77v611zM509 789l169 187h-81l-118 -131l-113 131h-80l163 -187h60z" />
    <glyph glyph-name="uni0145" unicode="&#x145;" horiz-adv-x="947" 
d="M112 0zM237 558l526 -558h74v708h-77v-600l-50 56l-514 544h-84v-708h77v611zM402 -298q73 16 106 56.5t33 90.5q0 39 -18 56t-55 17q-34 0 -51 -13t-17 -39q0 -28 14 -37.5t44 -9.5q9 0 17.5 2t15.5 5q-4 -32 -29.5 -56t-68.5 -35z" />
    <glyph glyph-name="Ntilde" unicode="&#xd1;" horiz-adv-x="947" 
d="M112 0zM237 558l526 -558h74v708h-77v-600l-50 56l-514 544h-84v-708h77v611zM261 807h54q0 36 16.5 54t49.5 18q25 0 50 -11t51 -25q26 -15 54.5 -26t59.5 -11q63 0 91 35.5t28 93.5h-54q-1 -36 -17 -54t-48 -18q-24 0 -48 11t-50 26t-55 26t-62 11q-61 0 -90.5 -36
t-29.5 -94z" />
    <glyph glyph-name="Eng" unicode="&#x14a;" horiz-adv-x="947" 
d="M593 -260q73 0 120.5 10t74.5 38q27 27 38 78.5t10 133.5v708h-77v-600l-66 73l-497 527h-84v-708h77v611l60 -66l510 -541v-5q0 -61 -6.5 -98t-24.5 -56q-19 -18 -52.5 -24.5t-87.5 -6.5h-31v-74h36z" />
    <glyph glyph-name="Oacute" unicode="&#xd3;" horiz-adv-x="966" 
d="M64 0zM481 -19q88 0 164.5 22.5t133.5 68.5q58 45 90.5 113.5t32.5 160.5v2q0 92 -32 162t-89 117q-58 48 -134.5 72t-165.5 24q-118 0 -212.5 -43.5t-149.5 -126.5q-28 -42 -41.5 -93t-13.5 -112v-2q0 -123 55 -204t150 -121q47 -20 100 -30t112 -10zM481 55
q-96 0 -172 31.5t-119 96.5q-22 33 -33 74t-11 90q0 101 42 168.5t118 101.5q38 17 82 25.5t94 8.5q100 0 176 -33.5t119 -101.5q22 -34 32.5 -76t10.5 -93v-1q0 -102 -45 -166.5t-121 -94.5q-39 -15 -82 -22.5t-91 -7.5zM450 827h72l195 216h-91z" />
    <glyph glyph-name="Obreve" unicode="&#x14e;" horiz-adv-x="966" 
d="M64 0zM481 -19q88 0 164.5 22.5t133.5 68.5q58 45 90.5 113.5t32.5 160.5v2q0 92 -32 162t-89 117q-58 48 -134.5 72t-165.5 24q-118 0 -212.5 -43.5t-149.5 -126.5q-28 -42 -41.5 -93t-13.5 -112v-2q0 -123 55 -204t150 -121q47 -20 100 -30t112 -10zM481 55
q-96 0 -172 31.5t-119 96.5q-22 33 -33 74t-11 90q0 101 42 168.5t118 101.5q38 17 82 25.5t94 8.5q100 0 176 -33.5t119 -101.5q22 -34 32.5 -76t10.5 -93v-1q0 -102 -45 -166.5t-121 -94.5q-39 -15 -82 -22.5t-91 -7.5zM478 819q76 0 125.5 28.5t74.5 74.5q12 23 19 48
t8 52h-63q-4 -59 -45 -101.5t-118 -43.5q-54 1 -88 20.5t-51 52.5q-8 16 -13 34t-6 38h-63q3 -54 24 -100t68 -75q24 -14 56 -21t72 -7z" />
    <glyph glyph-name="Ocircumflex" unicode="&#xd4;" horiz-adv-x="966" 
d="M64 0zM481 -19q88 0 164.5 22.5t133.5 68.5q58 45 90.5 113.5t32.5 160.5v2q0 92 -32 162t-89 117q-58 48 -134.5 72t-165.5 24q-118 0 -212.5 -43.5t-149.5 -126.5q-28 -42 -41.5 -93t-13.5 -112v-2q0 -123 55 -204t150 -121q47 -20 100 -30t112 -10zM481 55
q-96 0 -172 31.5t-119 96.5q-22 33 -33 74t-11 90q0 101 42 168.5t118 101.5q38 17 82 25.5t94 8.5q100 0 176 -33.5t119 -101.5q22 -34 32.5 -76t10.5 -93v-1q0 -102 -45 -166.5t-121 -94.5q-39 -15 -82 -22.5t-91 -7.5zM599 819h77l-164 191h-68l-164 -191h79l120 141z
" />
    <glyph glyph-name="Odieresis" unicode="&#xd6;" horiz-adv-x="966" 
d="M64 0zM481 -19q88 0 164.5 22.5t133.5 68.5q58 45 90.5 113.5t32.5 160.5v2q0 92 -32 162t-89 117q-58 48 -134.5 72t-165.5 24q-118 0 -212.5 -43.5t-149.5 -126.5q-28 -42 -41.5 -93t-13.5 -112v-2q0 -123 55 -204t150 -121q47 -20 100 -30t112 -10zM481 55
q-96 0 -172 31.5t-119 96.5q-22 33 -33 74t-11 90q0 101 42 168.5t118 101.5q38 17 82 25.5t94 8.5q100 0 176 -33.5t119 -101.5q22 -34 32.5 -76t10.5 -93v-1q0 -102 -45 -166.5t-121 -94.5q-39 -15 -82 -22.5t-91 -7.5zM589 820q29 0 45.5 13.5t16.5 43.5t-15 45t-46 15
t-46.5 -14.5t-15.5 -44.5q0 -31 15 -44.5t46 -13.5zM374 820q31 0 46 14.5t15 42.5q0 30 -15 45t-45 15q-31 0 -47 -14.5t-16 -44.5q0 -31 15.5 -44.5t46.5 -13.5z" />
    <glyph glyph-name="Ograve" unicode="&#xd2;" horiz-adv-x="966" 
d="M64 0zM481 -19q88 0 164.5 22.5t133.5 68.5q58 45 90.5 113.5t32.5 160.5v2q0 92 -32 162t-89 117q-58 48 -134.5 72t-165.5 24q-118 0 -212.5 -43.5t-149.5 -126.5q-28 -42 -41.5 -93t-13.5 -112v-2q0 -123 55 -204t150 -121q47 -20 100 -30t112 -10zM481 55
q-96 0 -172 31.5t-119 96.5q-22 33 -33 74t-11 90q0 101 42 168.5t118 101.5q38 17 82 25.5t94 8.5q100 0 176 -33.5t119 -101.5q22 -34 32.5 -76t10.5 -93v-1q0 -102 -45 -166.5t-121 -94.5q-39 -15 -82 -22.5t-91 -7.5zM455 826h71l-162 189h-96z" />
    <glyph glyph-name="Ohungarumlaut" unicode="&#x150;" horiz-adv-x="966" 
d="M64 0zM481 -19q88 0 164.5 22.5t133.5 68.5q58 45 90.5 113.5t32.5 160.5v2q0 92 -32 162t-89 117q-58 48 -134.5 72t-165.5 24q-118 0 -212.5 -43.5t-149.5 -126.5q-28 -42 -41.5 -93t-13.5 -112v-2q0 -123 55 -204t150 -121q47 -20 100 -30t112 -10zM481 55
q-96 0 -172 31.5t-119 96.5q-22 33 -33 74t-11 90q0 101 42 168.5t118 101.5q38 17 82 25.5t94 8.5q100 0 176 -33.5t119 -101.5q22 -34 32.5 -76t10.5 -93v-1q0 -102 -45 -166.5t-121 -94.5q-39 -15 -82 -22.5t-91 -7.5zM609 1017h-92l-162 -189h65zM801 1017h-91
l-177 -189h68z" />
    <glyph glyph-name="Omacron" unicode="&#x14c;" horiz-adv-x="966" 
d="M64 0zM481 -19q88 0 164.5 22.5t133.5 68.5q58 45 90.5 113.5t32.5 160.5v2q0 92 -32 162t-89 117q-58 48 -134.5 72t-165.5 24q-118 0 -212.5 -43.5t-149.5 -126.5q-28 -42 -41.5 -93t-13.5 -112v-2q0 -123 55 -204t150 -121q47 -20 100 -30t112 -10zM481 55
q-96 0 -172 31.5t-119 96.5q-22 33 -33 74t-11 90q0 101 42 168.5t118 101.5q38 17 82 25.5t94 8.5q100 0 176 -33.5t119 -101.5q22 -34 32.5 -76t10.5 -93v-1q0 -102 -45 -166.5t-121 -94.5q-39 -15 -82 -22.5t-91 -7.5zM303 838h363v64h-363v-64z" />
    <glyph glyph-name="Oslash" unicode="&#xd8;" horiz-adv-x="966" 
d="M146 347q0 101 42 168.5t118 101.5q38 17 82 25.5t94 8.5q40 0 76 -5t68 -16l-340 -532q-64 34 -102 96t-38 153zM481 55q-38 0 -72.5 5t-65.5 14l339 531q65 -36 101.5 -100.5t36.5 -157.5v-1q0 -102 -45 -166.5t-121 -94.5q-39 -15 -82 -22.5t-91 -7.5zM481 -19
q88 0 164.5 22.5t133.5 68.5q58 45 90.5 113.5t32.5 160.5v2q0 114 -48.5 194t-131.5 125l81 125h-75l-63 -99q-41 15 -87 22.5t-97 7.5q-118 0 -212.5 -43.5t-149.5 -126.5q-28 -42 -41.5 -93t-13.5 -112v-2q0 -115 48.5 -193t130.5 -120l-81 -123h75l64 98
q41 -14 86 -20.5t94 -6.5z" />
    <glyph glyph-name="Oslashacute" unicode="&#x1fe;" horiz-adv-x="966" 
d="M64 0zM146 347q0 101 42 168.5t118 101.5q38 17 82 25.5t94 8.5q40 0 76 -5t68 -16l-340 -532q-64 34 -102 96t-38 153zM481 55q-38 0 -72.5 5t-65.5 14l339 531q65 -36 101.5 -100.5t36.5 -157.5v-1q0 -102 -45 -166.5t-121 -94.5q-39 -15 -82 -22.5t-91 -7.5zM481 -19
q88 0 164.5 22.5t133.5 68.5q58 45 90.5 113.5t32.5 160.5v2q0 114 -48.5 194t-131.5 125l81 125h-75l-63 -99q-41 15 -87 22.5t-97 7.5q-118 0 -212.5 -43.5t-149.5 -126.5q-28 -42 -41.5 -93t-13.5 -112v-2q0 -115 48.5 -193t130.5 -120l-81 -123h75l64 98
q41 -14 86 -20.5t94 -6.5zM468 836h72l195 216h-91z" />
    <glyph glyph-name="Otilde" unicode="&#xd5;" horiz-adv-x="966" 
d="M64 0zM481 -19q88 0 164.5 22.5t133.5 68.5q58 45 90.5 113.5t32.5 160.5v2q0 92 -32 162t-89 117q-58 48 -134.5 72t-165.5 24q-118 0 -212.5 -43.5t-149.5 -126.5q-28 -42 -41.5 -93t-13.5 -112v-2q0 -123 55 -204t150 -121q47 -20 100 -30t112 -10zM481 55
q-96 0 -172 31.5t-119 96.5q-22 33 -33 74t-11 90q0 101 42 168.5t118 101.5q38 17 82 25.5t94 8.5q100 0 176 -33.5t119 -101.5q22 -34 32.5 -76t10.5 -93v-1q0 -102 -45 -166.5t-121 -94.5q-39 -15 -82 -22.5t-91 -7.5zM248 823h54q0 36 16.5 54t49.5 18q25 0 50 -11
t51 -25q26 -15 54.5 -26t59.5 -11q63 0 91 35.5t28 93.5h-54q-1 -36 -17 -54t-48 -18q-24 0 -48 11t-50 26t-55 26t-62 11q-61 0 -90.5 -36t-29.5 -94z" />
    <glyph glyph-name="Oumlaut" horiz-adv-x="966" 
d="M853 651q23 0 36.5 12t13.5 36t-12 36t-36 12q-25 0 -37.5 -11.5t-12.5 -35.5q0 -25 13 -37t35 -12zM109 651q20 0 33.5 12.5t13.5 35.5q0 24 -11.5 36t-35.5 12t-36 -11.5t-12 -35.5t12 -36.5t36 -12.5zM481 -19q88 0 164.5 22.5t133.5 68.5q58 45 90.5 113.5
t32.5 160.5v2q0 92 -32 162t-89 117q-58 48 -134.5 72t-165.5 24q-118 0 -212.5 -43.5t-149.5 -126.5q-28 -42 -41.5 -93t-13.5 -112v-2q0 -123 55 -204t150 -121q47 -20 100 -30t112 -10zM481 55q-96 0 -172 31.5t-119 96.5q-22 33 -33 74t-11 90q0 101 42 168.5t118 101.5
q38 17 82 25.5t94 8.5q100 0 176 -33.5t119 -101.5q22 -34 32.5 -76t10.5 -93v-1q0 -102 -45 -166.5t-121 -94.5q-39 -15 -82 -22.5t-91 -7.5z" />
    <glyph glyph-name="OE" unicode="&#x152;" horiz-adv-x="1525" 
d="M481 55q-96 0 -172 31.5t-119 96.5q-22 33 -33 74t-11 90q0 101 42 168.5t118 101.5q38 17 82 25.5t94 8.5q100 0 176 -33t119 -100q22 -34 32.5 -76t10.5 -93v-1q0 -102 -45 -167t-121 -95q-39 -16 -82 -23.5t-91 -7.5zM812 0h667v70h-590v242h479v69h-479v258h570v69
h-647v-131q-50 73 -135 109.5t-196 36.5q-118 0 -212.5 -43.5t-149.5 -126.5q-28 -42 -41.5 -93t-13.5 -112v-2q0 -123 55 -204t150 -121q47 -20 100 -30t112 -10q110 0 195.5 35.5t135.5 106.5v-123z" />
    <glyph glyph-name="Racute" unicode="&#x154;" horiz-adv-x="914" 
d="M112 0zM485 343h-294v296h298q133 0 194 -31.5t61 -112.5v-5q0 -60 -32.5 -92t-90.5 -44q-29 -6 -63 -8.5t-73 -2.5zM497 274q86 0 135 -17.5t70 -58.5q10 -20 15 -48t5 -63v-43q0 -15 2.5 -27t9.5 -17h86q-8 5 -11.5 17t-3.5 26v45q0 101 -35.5 152t-124.5 68
q89 16 134 60.5t45 129.5q0 110 -78 160t-256 50h-378v-708h79v274h306zM431 813h72l195 216h-91z" />
    <glyph glyph-name="Rcaron" unicode="&#x158;" horiz-adv-x="914" 
d="M112 0zM485 343h-294v296h298q133 0 194 -31.5t61 -112.5v-5q0 -60 -32.5 -92t-90.5 -44q-29 -6 -63 -8.5t-73 -2.5zM497 274q86 0 135 -17.5t70 -58.5q10 -20 15 -48t5 -63v-43q0 -15 2.5 -27t9.5 -17h86q-8 5 -11.5 17t-3.5 26v45q0 101 -35.5 152t-124.5 68
q89 16 134 60.5t45 129.5q0 110 -78 160t-256 50h-378v-708h79v274h306zM493 809l169 187h-81l-118 -131l-113 131h-80l163 -187h60z" />
    <glyph glyph-name="uni0156" unicode="&#x156;" horiz-adv-x="914" 
d="M112 0zM485 343h-294v296h298q133 0 194 -31.5t61 -112.5v-5q0 -60 -32.5 -92t-90.5 -44q-29 -6 -63 -8.5t-73 -2.5zM497 274q86 0 135 -17.5t70 -58.5q10 -20 15 -48t5 -63v-43q0 -15 2.5 -27t9.5 -17h86q-8 5 -11.5 17t-3.5 26v45q0 101 -35.5 152t-124.5 68
q89 16 134 60.5t45 129.5q0 110 -78 160t-256 50h-378v-708h79v274h306zM406 -276q73 16 106 56.5t33 90.5q0 39 -18 56t-55 17q-34 0 -51 -13t-17 -39q0 -28 14 -37.5t44 -9.5q9 0 17.5 2t15.5 5q-4 -32 -29.5 -56t-68.5 -35z" />
    <glyph glyph-name="Sacute" unicode="&#x15a;" horiz-adv-x="868" 
d="M40 0zM456 -20q182 0 268.5 57t86.5 159q0 73 -40.5 112.5t-122.5 57.5q-41 9 -92 15t-113 10q-105 7 -168 19t-91 36q-14 13 -21 30t-7 39q0 68 62.5 103.5t195.5 35.5q135 0 214.5 -40.5t91.5 -126.5h83q-17 114 -114 174.5t-273 60.5q-171 0 -255.5 -57t-84.5 -152
q0 -68 37.5 -106.5t112.5 -56.5q37 -9 83.5 -15.5t102.5 -10.5q112 -7 182.5 -17.5t104.5 -35.5q16 -13 24.5 -32.5t8.5 -46.5q0 -67 -64.5 -104t-210.5 -37q-158 0 -237 44.5t-94 154.5h-86q12 -92 57 -152t132 -89q44 -15 101 -22t126 -7zM383 827h72l195 216h-91z" />
    <glyph glyph-name="Scaron" unicode="&#x160;" horiz-adv-x="868" 
d="M40 0zM456 -20q182 0 268.5 57t86.5 159q0 73 -40.5 112.5t-122.5 57.5q-41 9 -92 15t-113 10q-105 7 -168 19t-91 36q-14 13 -21 30t-7 39q0 68 62.5 103.5t195.5 35.5q135 0 214.5 -40.5t91.5 -126.5h83q-17 114 -114 174.5t-273 60.5q-171 0 -255.5 -57t-84.5 -152
q0 -68 37.5 -106.5t112.5 -56.5q37 -9 83.5 -15.5t102.5 -10.5q112 -7 182.5 -17.5t104.5 -35.5q16 -13 24.5 -32.5t8.5 -46.5q0 -67 -64.5 -104t-210.5 -37q-158 0 -237 44.5t-94 154.5h-86q12 -92 57 -152t132 -89q44 -15 101 -22t126 -7zM454 823l169 187h-81l-118 -131
l-113 131h-80l163 -187h60z" />
    <glyph glyph-name="uni015E" unicode="&#x15e;" horiz-adv-x="868" 
d="M459 -294q81 0 122.5 34.5t41.5 87.5q0 49 -35.5 76t-110.5 28v48q171 4 252.5 60.5t81.5 155.5q0 73 -40.5 112.5t-122.5 57.5q-41 9 -92 15t-113 10q-105 7 -168 19t-91 36q-14 13 -21 30t-7 39q0 68 62.5 103.5t195.5 35.5q135 0 214.5 -40.5t91.5 -126.5h83
q-17 114 -114 174.5t-273 60.5q-171 0 -255.5 -57t-84.5 -152q0 -68 37.5 -106.5t112.5 -56.5q37 -9 83.5 -15.5t102.5 -10.5q112 -7 182.5 -17.5t104.5 -35.5q16 -13 24.5 -32.5t8.5 -46.5q0 -67 -64.5 -104t-210.5 -37q-158 0 -237 44.5t-94 154.5h-86q11 -87 52 -145.5
t119 -89.5q40 -15 90.5 -23.5t112.5 -10.5v-97h42q61 0 83 -14t22 -44q0 -32 -26.5 -49.5t-76.5 -17.5q-46 0 -75.5 19t-34.5 53h-71q10 -56 52.5 -90.5t129.5 -34.5z" />
    <glyph glyph-name="Scircumflex" unicode="&#x15c;" horiz-adv-x="868" 
d="M40 0zM456 -20q182 0 268.5 57t86.5 159q0 73 -40.5 112.5t-122.5 57.5q-41 9 -92 15t-113 10q-105 7 -168 19t-91 36q-14 13 -21 30t-7 39q0 68 62.5 103.5t195.5 35.5q135 0 214.5 -40.5t91.5 -126.5h83q-17 114 -114 174.5t-273 60.5q-171 0 -255.5 -57t-84.5 -152
q0 -68 37.5 -106.5t112.5 -56.5q37 -9 83.5 -15.5t102.5 -10.5q112 -7 182.5 -17.5t104.5 -35.5q16 -13 24.5 -32.5t8.5 -46.5q0 -67 -64.5 -104t-210.5 -37q-158 0 -237 44.5t-94 154.5h-86q12 -92 57 -152t132 -89q44 -15 101 -22t126 -7zM537 823h77l-164 191h-68
l-164 -191h79l120 141z" />
    <glyph glyph-name="uni0218" unicode="&#x218;" horiz-adv-x="868" 
d="M40 0zM456 -20q182 0 268.5 57t86.5 159q0 73 -40.5 112.5t-122.5 57.5q-41 9 -92 15t-113 10q-105 7 -168 19t-91 36q-14 13 -21 30t-7 39q0 68 62.5 103.5t195.5 35.5q135 0 214.5 -40.5t91.5 -126.5h83q-17 114 -114 174.5t-273 60.5q-171 0 -255.5 -57t-84.5 -152
q0 -68 37.5 -106.5t112.5 -56.5q37 -9 83.5 -15.5t102.5 -10.5q112 -7 182.5 -17.5t104.5 -35.5q16 -13 24.5 -32.5t8.5 -46.5q0 -67 -64.5 -104t-210.5 -37q-158 0 -237 44.5t-94 154.5h-86q12 -92 57 -152t132 -89q44 -15 101 -22t126 -7zM383 -329q73 16 106 56.5
t33 90.5q0 39 -18 56t-55 17q-34 0 -51 -13t-17 -39q0 -28 14 -37.5t44 -9.5q9 0 17.5 2t15.5 5q-4 -32 -29.5 -56t-68.5 -35z" />
    <glyph glyph-name="Tbar" unicode="&#x166;" horiz-adv-x="766" 
d="M585 304v63h-168v272h308v69h-684v-69h294v-272h-161v-63h161v-304h82v304h168z" />
    <glyph glyph-name="Tcaron" unicode="&#x164;" horiz-adv-x="766" 
d="M41 0zM725 639v69h-684v-69h294v-639h82v639h308zM407 810l169 187h-81l-118 -131l-113 131h-80l163 -187h60z" />
    <glyph glyph-name="uni0162" unicode="&#x162;" horiz-adv-x="766" 
d="M41 0zM725 639v69h-684v-69h294v-639h82v639h308zM307 -310q73 16 106 56.5t33 90.5q0 39 -18 56t-55 17q-34 0 -51 -13t-17 -39q0 -28 14 -37.5t44 -9.5q9 0 17.5 2t15.5 5q-4 -32 -29.5 -56t-68.5 -35z" />
    <glyph glyph-name="Uacute" unicode="&#xda;" horiz-adv-x="919" 
d="M95 0zM460 -20q180 0 272 94t92 297v337h-82v-335q0 -165 -67.5 -241t-213.5 -76q-151 0 -217.5 77.5t-66.5 238.5v336h-82v-338q0 -201 88 -295.5t277 -94.5zM417 789h72l195 216h-91z" />
    <glyph glyph-name="Ubreve" unicode="&#x16c;" horiz-adv-x="919" 
d="M95 0zM460 -20q180 0 272 94t92 297v337h-82v-335q0 -165 -67.5 -241t-213.5 -76q-151 0 -217.5 77.5t-66.5 238.5v336h-82v-338q0 -201 88 -295.5t277 -94.5zM456 780q76 0 125.5 28.5t74.5 74.5q12 23 19 48t8 52h-63q-4 -59 -45 -101.5t-118 -43.5q-54 1 -88 20.5
t-51 52.5q-8 16 -13 34t-6 38h-63q3 -54 24 -100t68 -75q24 -14 56 -21t72 -7z" />
    <glyph glyph-name="Ucircumflex" unicode="&#xdb;" horiz-adv-x="919" 
d="M95 0zM460 -20q180 0 272 94t92 297v337h-82v-335q0 -165 -67.5 -241t-213.5 -76q-151 0 -217.5 77.5t-66.5 238.5v336h-82v-338q0 -201 88 -295.5t277 -94.5zM577 785h77l-164 191h-68l-164 -191h79l120 141z" />
    <glyph glyph-name="Udieresis" unicode="&#xdc;" horiz-adv-x="919" 
d="M95 0zM460 -20q180 0 272 94t92 297v337h-82v-335q0 -165 -67.5 -241t-213.5 -76q-151 0 -217.5 77.5t-66.5 238.5v336h-82v-338q0 -201 88 -295.5t277 -94.5zM568 781q29 0 45.5 13.5t16.5 43.5t-15 45t-46 15t-46.5 -14.5t-15.5 -44.5q0 -31 15 -44.5t46 -13.5z
M353 781q31 0 46 14.5t15 42.5q0 30 -15 45t-45 15q-31 0 -47 -14.5t-16 -44.5q0 -31 15.5 -44.5t46.5 -13.5z" />
    <glyph glyph-name="Ugrave" unicode="&#xd9;" horiz-adv-x="919" 
d="M95 0zM460 -20q180 0 272 94t92 297v337h-82v-335q0 -165 -67.5 -241t-213.5 -76q-151 0 -217.5 77.5t-66.5 238.5v336h-82v-338q0 -201 88 -295.5t277 -94.5zM436 781h71l-162 189h-96z" />
    <glyph glyph-name="Uhungarumlaut" unicode="&#x170;" horiz-adv-x="919" 
d="M95 0zM460 -20q180 0 272 94t92 297v337h-82v-335q0 -165 -67.5 -241t-213.5 -76q-151 0 -217.5 77.5t-66.5 238.5v336h-82v-338q0 -201 88 -295.5t277 -94.5zM587 978h-92l-162 -189h65zM779 978h-91l-177 -189h68z" />
    <glyph glyph-name="Umacron" unicode="&#x16a;" horiz-adv-x="919" 
d="M95 0zM460 -20q180 0 272 94t92 297v337h-82v-335q0 -165 -67.5 -241t-213.5 -76q-151 0 -217.5 77.5t-66.5 238.5v336h-82v-338q0 -201 88 -295.5t277 -94.5zM282 799h363v64h-363v-64z" />
    <glyph glyph-name="Uogonek" unicode="&#x172;" horiz-adv-x="919" 
d="M572 -242q68 0 115 30.5t72 86.5h-72q-16 -29 -43.5 -46.5t-68.5 -17.5q-40 0 -66 18t-26 49q0 20 12 39t43 40q15 10 36.5 22t49.5 26q99 36 149.5 126t50.5 240v337h-82v-335q0 -165 -67.5 -241t-213.5 -76q-151 0 -217.5 77.5t-66.5 238.5v336h-82v-338
q0 -201 88 -295.5t277 -94.5h20q-34 -26 -48 -53t-14 -54q0 -53 41 -84t113 -31z" />
    <glyph glyph-name="Uring" unicode="&#x16e;" horiz-adv-x="919" 
d="M95 0zM460 -20q180 0 272 94t92 297v337h-82v-335q0 -165 -67.5 -241t-213.5 -76q-151 0 -217.5 77.5t-66.5 238.5v336h-82v-338q0 -201 88 -295.5t277 -94.5zM459 783q56 0 90 33.5t34 88.5q0 60 -34 91.5t-90 31.5q-53 0 -87.5 -33t-34.5 -90q0 -54 32.5 -88t89.5 -34z
M459 838q-34 0 -51 18.5t-17 48.5q0 33 19 51.5t49 18.5q32 0 50 -18.5t18 -51.5t-19.5 -50t-48.5 -17z" />
    <glyph glyph-name="Utilde" unicode="&#x168;" horiz-adv-x="919" 
d="M95 0zM460 -20q180 0 272 94t92 297v337h-82v-335q0 -165 -67.5 -241t-213.5 -76q-151 0 -217.5 77.5t-66.5 238.5v336h-82v-338q0 -201 88 -295.5t277 -94.5zM226 784h54q0 36 16.5 54t49.5 18q25 0 50 -11t51 -25q26 -15 54.5 -26t59.5 -11q63 0 91 35.5t28 93.5h-54
q-1 -36 -17 -54t-48 -18q-24 0 -48 11t-50 26t-55 26t-62 11q-61 0 -90.5 -36t-29.5 -94z" />
    <glyph glyph-name="Uumlaut" horiz-adv-x="919" 
d="M564 592q26 0 41 15t15 46q0 32 -13.5 48t-41.5 16t-42 -15.5t-14 -47.5q0 -33 13.5 -47.5t41.5 -14.5zM365 592q28 0 42 15.5t14 45.5q0 32 -13.5 48t-41.5 16t-42 -15.5t-14 -47.5q0 -33 13.5 -47.5t41.5 -14.5zM460 -20q180 0 272 94t92 297v337h-82v-335
q0 -165 -67.5 -241t-213.5 -76q-151 0 -217.5 77.5t-66.5 238.5v336h-82v-338q0 -201 88 -295.5t277 -94.5z" />
    <glyph glyph-name="Wacute" unicode="&#x1e82;" horiz-adv-x="1297" 
d="M30 0zM908 0h77l282 708h-81l-241 -616l-273 616h-65l-302 -611l-194 611h-81l225 -708h78l304 613zM604 814h72l195 216h-91z" />
    <glyph glyph-name="Wcircumflex" unicode="&#x174;" horiz-adv-x="1297" 
d="M30 0zM908 0h77l282 708h-81l-241 -616l-273 616h-65l-302 -611l-194 611h-81l225 -708h78l304 613zM759 810h77l-164 191h-68l-164 -191h79l120 141z" />
    <glyph glyph-name="Wdieresis" unicode="&#x1e84;" horiz-adv-x="1297" 
d="M30 0zM908 0h77l282 708h-81l-241 -616l-273 616h-65l-302 -611l-194 611h-81l225 -708h78l304 613zM749 806q29 0 45.5 13.5t16.5 43.5t-15 45t-46 15t-46.5 -14.5t-15.5 -44.5q0 -31 15 -44.5t46 -13.5zM534 806q31 0 46 14.5t15 42.5q0 30 -15 45t-45 15
q-31 0 -47 -14.5t-16 -44.5q0 -31 15.5 -44.5t46.5 -13.5z" />
    <glyph glyph-name="Wgrave" unicode="&#x1e80;" horiz-adv-x="1297" 
d="M30 0zM908 0h77l282 708h-81l-241 -616l-273 616h-65l-302 -611l-194 611h-81l225 -708h78l304 613zM615 811h71l-162 189h-96z" />
    <glyph glyph-name="Yacute" unicode="&#xdd;" horiz-adv-x="806" 
d="M15 0zM428 0v295l357 413h-98l-298 -343l-276 343h-98l332 -411v-297h81zM360 778h72l195 216h-91z" />
    <glyph glyph-name="Ycircumflex" unicode="&#x176;" horiz-adv-x="806" 
d="M15 0zM428 0v295l357 413h-98l-298 -343l-276 343h-98l332 -411v-297h81zM512 802h77l-164 191h-68l-164 -191h79l120 141z" />
    <glyph glyph-name="Ydieresis" unicode="&#x178;" horiz-adv-x="806" 
d="M15 0zM428 0v295l357 413h-98l-298 -343l-276 343h-98l332 -411v-297h81zM502 798q29 0 45.5 13.5t16.5 43.5t-15 45t-46 15t-46.5 -14.5t-15.5 -44.5q0 -31 15 -44.5t46 -13.5zM287 798q31 0 46 14.5t15 42.5q0 30 -15 45t-45 15q-31 0 -47 -14.5t-16 -44.5
q0 -31 15.5 -44.5t46.5 -13.5z" />
    <glyph glyph-name="Ygrave" unicode="&#x1ef2;" horiz-adv-x="806" 
d="M15 0zM428 0v295l357 413h-98l-298 -343l-276 343h-98l332 -411v-297h81zM378 773h71l-162 189h-96z" />
    <glyph glyph-name="IJ" unicode="&#x132;" horiz-adv-x="976" 
d="M616 0h9q81 0 131 10t76 37q27 27 36.5 77t9.5 130v454h-82v-452q0 -59 -5 -95t-22 -55t-51.5 -25.5t-92.5 -6.5h-9v-74zM516 0v75h-191v561h184v72h-445v-72h184v-561h-184v-75h452z" />
    <glyph glyph-name="Zacute" unicode="&#x179;" horiz-adv-x="789" 
d="M43 0zM742 0v72h-586l593 563v73h-678v-69h574l-602 -569v-70h699zM371 813h72l195 216h-91z" />
    <glyph glyph-name="Zcaron" unicode="&#x17d;" horiz-adv-x="789" 
d="M43 0zM742 0v72h-586l593 563v73h-678v-69h574l-602 -569v-70h699zM434 809l169 187h-81l-118 -131l-113 131h-80l163 -187h60z" />
    <glyph glyph-name="Zdotaccent" unicode="&#x17b;" horiz-adv-x="789" 
d="M43 0zM742 0v72h-586l593 563v73h-678v-69h574l-602 -569v-70h699zM407 812q32 0 49 14.5t17 46.5t-16 48t-49 16t-50 -15.5t-17 -47.5q0 -34 16.5 -48t49.5 -14z" />
    <glyph glyph-name="Thorn" unicode="&#xde;" horiz-adv-x="824" 
d="M440 210h-249v303h239q92 0 151 -13t87 -46q15 -17 22 -40t7 -53q0 -88 -64.5 -120t-192.5 -31zM443 141q166 -1 249.5 52.5t83.5 167.5q0 117 -82.5 169t-263.5 52h-239v126h-79v-708h79v141h252z" />
    <glyph glyph-name="I.alt" horiz-adv-x="309" 
d="M194 0v708h-79v-708h79z" />
    <glyph glyph-name="Iacute.alt" horiz-adv-x="309" 
d="M115 0zM194 0v708h-79v-708h79zM120 821h72l195 216h-91z" />
    <glyph glyph-name="Ibreve.alt" horiz-adv-x="309" 
d="M0 0zM194 0v708h-79v-708h79zM153 812q76 0 125.5 28.5t74.5 74.5q12 23 19 48t8 52h-63q-4 -59 -45 -101.5t-118 -43.5q-54 1 -88 20.5t-51 52.5q-8 16 -13 34t-6 38h-63q3 -54 24 -100t68 -75q24 -14 56 -21t72 -7z" />
    <glyph glyph-name="Icircumflex.alt" horiz-adv-x="309" 
d="M0 0zM194 0v708h-79v-708h79zM274 817h77l-164 191h-68l-164 -191h79l120 141z" />
    <glyph glyph-name="Idieresis.alt" horiz-adv-x="309" 
d="M0 0zM194 0v708h-79v-708h79zM264 813q29 0 45.5 13.5t16.5 43.5t-15 45t-46 15t-46.5 -14.5t-15.5 -44.5q0 -31 15 -44.5t46 -13.5zM49 813q31 0 46 14.5t15 42.5q0 30 -15 45t-45 15q-31 0 -47 -14.5t-16 -44.5q0 -31 15.5 -44.5t46.5 -13.5z" />
    <glyph glyph-name="Idotaccent.alt" horiz-adv-x="309" 
d="M89 0zM194 0v708h-79v-708h79zM155 820q32 0 49 14.5t17 46.5t-16 48t-49 16t-50 -15.5t-17 -47.5q0 -34 16.5 -48t49.5 -14z" />
    <glyph glyph-name="Igrave.alt" horiz-adv-x="309" 
d="M0 0zM194 0v708h-79v-708h79zM130 818h71l-162 189h-96z" />
    <glyph glyph-name="Imacron.alt" horiz-adv-x="309" 
d="M0 0zM194 0v708h-79v-708h79zM-22 831h363v64h-363v-64z" />
    <glyph glyph-name="Iogonek.alt" horiz-adv-x="309" 
d="M320 -134h-72q-16 -29 -43.5 -46.5t-68.5 -17.5q-40 0 -66 18t-26 49q0 21 12.5 40t45.5 40q16 11 39 23.5l52 27.5h1v708h-79v-693q-78 -37 -107 -75t-29 -76q0 -53 41 -84t113 -31q68 0 115 30.5t72 86.5z" />
    <glyph glyph-name="Itilde.alt" horiz-adv-x="309" 
d="M0 0zM194 0v708h-79v-708h79zM-77 815h54q0 36 16.5 54t49.5 18q25 0 50 -11t51 -25q26 -15 54.5 -26t59.5 -11q63 0 91 35.5t28 93.5h-54q-1 -36 -17 -54t-48 -18q-24 0 -48 11t-50 26t-55 26t-62 11q-61 0 -90.5 -36t-29.5 -94z" />
    <glyph glyph-name="a" unicode="a" horiz-adv-x="847" 
d="M312 41q-89 0 -124.5 28t-35.5 71v1q0 25 10.5 45.5t31.5 36.5q30 23 90 36t173 20q104 6 153 18.5t66 34.5v-42q0 -43 -25 -86.5t-72 -80.5t-114.5 -59.5t-152.5 -22.5zM683 0h66l2 396q0 89 -73 142t-237 53q-166 0 -256 -55.5t-105 -172.5h80q13 86 78 126.5t208 40.5
q87 0 137 -18t70 -45q11 -14 16 -27.5t5 -27.5q0 -31 -21 -46.5t-70 -22.5q-25 -4 -58 -7t-75 -6q-90 -5 -149.5 -13.5t-97.5 -21.5q-19 -6 -35.5 -14t-30.5 -17q-34 -22 -51.5 -54t-17.5 -74v-1q0 -71 51.5 -112t175.5 -41q104 0 180.5 27.5t126.5 72.5q25 22 43.5 47
t30.5 51z" />
    <glyph glyph-name="b" unicode="b" horiz-adv-x="904" 
d="M487 -18q106 0 186.5 34t125.5 101q22 33 33.5 74.5t11.5 91.5q0 101 -45.5 169.5t-124.5 103.5q-40 17 -85.5 26t-97.5 9q-106 0 -188.5 -42t-123.5 -119v326h-78v-756h68l6 134q36 -72 115 -112t197 -40zM468 49q-137 0 -216.5 60.5t-79.5 172.5q0 78 39.5 132.5
t107.5 83.5q34 15 72 22t80 7q87 0 153 -28t103 -83q18 -27 27.5 -60t9.5 -73q0 -118 -76.5 -176t-219.5 -58z" />
    <glyph glyph-name="c" unicode="c" 
d="M805 234h-84q-25 -97 -96 -140.5t-184 -43.5q-145 0 -222.5 57.5t-77.5 175.5q0 83 39.5 136.5t107.5 79.5q34 13 72 19.5t81 6.5q110 0 184.5 -46t94.5 -141h83q-22 124 -119 189t-244 65q-108 0 -194 -35.5t-136 -104.5q-25 -34 -37.5 -76.5t-12.5 -92.5
q0 -145 95.5 -223t284.5 -78q96 0 172.5 27t126.5 83q25 28 41.5 63.5t24.5 78.5z" />
    <glyph glyph-name="d" unicode="d" horiz-adv-x="905" 
d="M435 49q-141 0 -218 57.5t-77 176.5q0 78 37.5 132.5t103.5 83.5q33 14 71.5 21t81.5 7q86 0 153 -28t106 -82q20 -27 29.5 -60t9.5 -72q0 -112 -80 -174t-217 -62zM735 0h67v756h-77v-317q-40 74 -120 113t-186 39q-104 0 -185.5 -35.5t-127.5 -104.5
q-23 -35 -34.5 -76.5t-11.5 -91.5q0 -101 44.5 -168t124.5 -100q40 -17 87.5 -25t101.5 -8q117 0 196 42t114 116z" />
    <glyph glyph-name="e" unicode="e" horiz-adv-x="861" 
d="M440 528q129 0 203 -54.5t81 -159.5h-587q8 72 48.5 119.5t106.5 71.5q33 11 70 17t78 6zM788 153h-87v-1q-32 -53 -96.5 -79t-166.5 -26q-139 0 -215.5 51.5t-86.5 155.5h665v38q0 91 -43 158.5t-124 104.5q-40 18 -89 27.5t-106 9.5q-112 0 -197.5 -37.5t-133.5 -106.5
q-24 -35 -36 -76.5t-12 -90.5q0 -142 93.5 -220.5t278.5 -78.5q128 0 220 38.5t136 132.5z" />
    <glyph glyph-name="f" unicode="f" horiz-adv-x="497" 
d="M477 500v67h-236v19q0 72 13.5 107.5t48.5 46.5q17 6 41.5 9t55.5 3h77v65h-82q-85 0 -135.5 -18.5t-71.5 -68.5q-11 -25 -16.5 -61t-5.5 -84v-18h-157v-67h157v-500h75v500h236z" />
    <glyph glyph-name="g" unicode="g" horiz-adv-x="781" 
d="M398 -263q139 0 221.5 24t119.5 66q18 21 27 45.5t9 51.5v2q0 82 -67 119.5t-203 37.5h-224q-85 -1 -116 17.5t-31 42.5q0 33 47 55.5t157 22.5h70q158 0 242 42t84 136q0 81 -59.5 122.5t-165.5 47.5h-2q71 3 114 10t65 22t29.5 41.5t7.5 68.5v6h-82v-7q0 -47 -14.5 -73
t-55.5 -37q-21 -5 -50.5 -8.5t-69.5 -4.5q-45 -1 -81 -3t-67 -7q-111 -9 -173.5 -54.5t-62.5 -121.5q0 -74 51.5 -112.5t151.5 -49.5q-105 -2 -155.5 -36t-50.5 -82q0 -46 36.5 -70t109.5 -27q-82 -11 -130 -42.5t-48 -92.5q0 -48 31.5 -82t105.5 -52q36 -9 86 -13.5
t112 -4.5h31zM403 279q-78 0 -135.5 10.5t-89.5 37.5q-16 13 -24 31.5t-8 41.5q0 52 40.5 82.5t120.5 38.5q31 5 55.5 5.5t48.5 0.5q129 0 188 -32.5t59 -94.5q0 -68 -64 -94.5t-191 -26.5zM375 -198q-144 0 -205 29t-61 79v1q0 40 30.5 64.5t85.5 36.5q27 5 58.5 8t67.5 3
h148q110 0 156 -24.5t46 -74.5v-2q0 -34 -25 -61t-89 -43q-32 -8 -77.5 -12t-104.5 -4h-30z" />
    <glyph glyph-name="h" unicode="h" horiz-adv-x="883" 
d="M177 251q0 87 34.5 148.5t97.5 94.5q32 16 69 24t80 8q91 0 146 -31.5t80 -87.5q12 -28 18.5 -59.5t6.5 -67.5v-280h78v296q0 87 -34 154t-103 104q-34 19 -77.5 28.5t-96.5 9.5q-113 0 -190.5 -52t-108.5 -141v357h-76v-756h76v251z" />
    <glyph glyph-name="i" unicode="i" horiz-adv-x="288" 
d="M146 673q29 0 42 14.5t13 42.5t-13.5 42t-41.5 14q-27 0 -41 -14t-14 -42q0 -31 13 -44t42 -13zM184 0v567h-80v-567h80z" />
    <glyph glyph-name="j" unicode="j" horiz-adv-x="286" 
d="M145 673q28 0 41.5 14.5t13.5 42.5t-14 42t-42 14q-27 0 -40.5 -14t-13.5 -42q0 -31 12.5 -44t42.5 -13zM-61 -261q73 0 120.5 10t74.5 37t38 78t10 133v570h-77v-562q0 -65 -7 -104.5t-25 -59.5t-51.5 -26.5t-86.5 -6.5h-31v-69h35z" />
    <glyph glyph-name="k" unicode="k" horiz-adv-x="800" 
d="M688 0h97l-304 339l282 228h-111l-474 -385v574h-77v-756h77v104l241 192z" />
    <glyph glyph-name="l" unicode="l" horiz-adv-x="286" 
d="M182 0v756h-79v-756h79z" />
    <glyph glyph-name="m" unicode="m" horiz-adv-x="1349" 
d="M179 271q0 80 30.5 137t86.5 87q27 15 59.5 22.5t69.5 7.5q82 0 129 -32t66 -83q10 -26 15 -54t5 -58v-298h79v287q0 72 27.5 125.5t78.5 82.5q26 15 56.5 22.5t66.5 7.5q82 0 131.5 -28.5t71.5 -80.5q11 -26 16.5 -56.5t5.5 -66.5v-293h79v303q0 133 -69.5 210.5
t-212.5 77.5q-100 0 -169 -50t-98 -133q-22 82 -84 133t-174 51q-103 0 -171.5 -49.5t-97.5 -126.5l-6 151h-69v-567h78v271z" />
    <glyph glyph-name="n" unicode="n" horiz-adv-x="886" 
d="M180 251q0 87 34.5 148t96.5 94q32 16 69 24t79 8q91 0 146 -30.5t80 -85.5q13 -27 19 -58.5t6 -67.5v-283h79v296q0 87 -34 154t-103 104q-34 19 -77.5 28.5t-96.5 9.5q-112 0 -190.5 -52t-110.5 -141l-6 168h-70v-567h79v251z" />
    <glyph glyph-name="o" unicode="o" horiz-adv-x="878" 
d="M435 -18q184 0 283 79t99 222q0 100 -49 168.5t-135 104.5q-42 18 -90.5 27t-103.5 9q-107 0 -193 -35.5t-136 -104.5q-25 -34 -37.5 -76.5t-12.5 -92.5q0 -145 95 -223t280 -78zM437 50q-141 0 -218.5 57.5t-77.5 175.5q0 83 39.5 136.5t106.5 79.5q34 13 72 19.5
t80 6.5q87 0 154.5 -27.5t105.5 -81.5q20 -27 29.5 -60t9.5 -73q0 -118 -79 -175.5t-222 -57.5z" />
    <glyph glyph-name="p" unicode="p" horiz-adv-x="904" 
d="M465 49q-135 0 -214 59t-79 174q0 73 37 128t104 86q34 15 73 23t83 8q87 0 153.5 -28.5t103.5 -83.5q19 -27 28.5 -60t9.5 -72q0 -115 -78 -174.5t-221 -59.5zM482 -18q103 0 184.5 34t129.5 101q24 33 36 74.5t12 91.5q0 98 -45 166.5t-125 105.5q-40 18 -86 27t-99 9
q-110 0 -191.5 -42.5t-121.5 -115.5l-7 134h-68v-769h77v328q38 -68 115 -106t189 -38z" />
    <glyph glyph-name="q" unicode="q" horiz-adv-x="904" 
d="M803 -202v769h-68l-7 -133q-38 72 -118.5 114.5t-193.5 42.5q-105 0 -185.5 -37t-125.5 -106q-22 -34 -33.5 -75.5t-11.5 -89.5q0 -101 46 -168t126 -100q40 -17 86 -25t98 -8q113 0 192.5 39t117.5 109v-332h77zM434 49q-142 0 -218 58.5t-76 175.5q0 77 37.5 131.5
t103.5 83.5q33 15 71.5 22t81.5 7q91 0 158 -31t103 -86q19 -28 28 -60t9 -68q0 -114 -80.5 -173.5t-217.5 -59.5z" />
    <glyph glyph-name="r" unicode="r" horiz-adv-x="558" 
d="M180 0v194q0 97 28 163.5t91 100.5q32 18 73.5 26.5t93.5 8.5h54v76h-51q-124 0 -194 -54.5t-96 -145.5l-9 198h-69v-567h79z" />
    <glyph glyph-name="s" unicode="s" horiz-adv-x="788" 
d="M409 -18q115 0 186.5 24.5t104.5 65.5q16 21 24.5 44t8.5 48v1q0 56 -33 89t-104 49q-36 8 -82.5 13t-104.5 7q-101 4 -158.5 13.5t-81.5 28.5q-12 10 -18 23.5t-6 30.5q0 46 50 78.5t167 32.5q110 0 182 -30.5t98 -105.5h84q-34 104 -125 151t-239 47q-97 0 -163 -23.5
t-99 -63.5q-16 -20 -24.5 -42.5t-8.5 -47.5q0 -55 32 -87.5t102 -48.5q35 -8 80.5 -13t102.5 -7q103 -3 162 -12t84 -29q12 -10 18.5 -23.5t6.5 -31.5q0 -31 -22.5 -57.5t-75.5 -42.5q-26 -8 -62.5 -12t-82.5 -4q-69 0 -128.5 12t-100.5 44q-21 16 -35 39.5t-21 54.5h-89
q17 -82 68.5 -128.5t129.5 -66.5q39 -10 82 -15t91 -5z" />
    <glyph glyph-name="t" unicode="t" horiz-adv-x="531" 
d="M491 71h-70q-72 0 -113 15t-59 58q-8 21 -12.5 52t-4.5 72v232h259v67h-259v162h-65q0 -30 -1 -58t-4 -52q-3 -22 -8 -32.5t-17 -14.5q-7 -2 -16.5 -3t-22.5 -2q-5 -1 -25 -1.5t-41 -0.5h-16.5h-9.5v-65h151v-241q0 -98 24 -155t79 -80q28 -12 64.5 -18t82.5 -6h84v71z
" />
    <glyph glyph-name="u" unicode="u" 
d="M696 0h70v567h-79v-254q0 -124 -71.5 -193.5t-193.5 -69.5q-128 0 -187.5 60.5t-59.5 172.5v284h-80v-294q0 -141 75 -216t229 -75q113 0 188 51.5t103 139.5z" />
    <glyph glyph-name="v" unicode="v" horiz-adv-x="766" 
d="M417 0l333 567h-88l-282 -487l-265 487h-88l314 -567h76z" />
    <glyph glyph-name="w" unicode="w" horiz-adv-x="1155" 
d="M807 0h71l246 567h-80l-204 -479l-232 479h-68l-251 -478l-175 478h-82l212 -567h72l256 485z" />
    <glyph glyph-name="x" unicode="x" horiz-adv-x="759" 
d="M637 0h103l-304 294l288 273h-100l-239 -229l-233 229h-103l284 -272l-318 -295h105l265 250z" />
    <glyph glyph-name="y" unicode="y" horiz-adv-x="789" 
d="M84 -251q65 0 108 7t77 29q33 23 66.5 67.5t78.5 119.5l359 595h-86l-286 -476l-289 476h-86l333 -549l-17 -28q-35 -57 -60.5 -91t-51.5 -52q-25 -17 -59 -23t-85 -6h-39v-69h37z" />
    <glyph glyph-name="z" unicode="z" horiz-adv-x="755" 
d="M720 0v64h-569l563 445v58h-642v-61h532l-564 -443v-63h680z" />
    <glyph glyph-name="aacute" unicode="&#xe1;" horiz-adv-x="847" 
d="M68 0zM312 41q-89 0 -124.5 28t-35.5 71v1q0 25 10.5 45.5t31.5 36.5q30 23 90 36t173 20q104 6 153 18.5t66 34.5v-42q0 -43 -25 -86.5t-72 -80.5t-114.5 -59.5t-152.5 -22.5zM683 0h66l2 396q0 89 -73 142t-237 53q-166 0 -256 -55.5t-105 -172.5h80q13 86 78 126.5
t208 40.5q87 0 137 -18t70 -45q11 -14 16 -27.5t5 -27.5q0 -31 -21 -46.5t-70 -22.5q-25 -4 -58 -7t-75 -6q-90 -5 -149.5 -13.5t-97.5 -21.5q-19 -6 -35.5 -14t-30.5 -17q-34 -22 -51.5 -54t-17.5 -74v-1q0 -71 51.5 -112t175.5 -41q104 0 180.5 27.5t126.5 72.5
q25 22 43.5 47t30.5 51zM402 697h72l195 216h-91z" />
    <glyph glyph-name="abreve" unicode="&#x103;" horiz-adv-x="847" 
d="M68 0zM312 41q-89 0 -124.5 28t-35.5 71v1q0 25 10.5 45.5t31.5 36.5q30 23 90 36t173 20q104 6 153 18.5t66 34.5v-42q0 -43 -25 -86.5t-72 -80.5t-114.5 -59.5t-152.5 -22.5zM683 0h66l2 396q0 89 -73 142t-237 53q-166 0 -256 -55.5t-105 -172.5h80q13 86 78 126.5
t208 40.5q87 0 137 -18t70 -45q11 -14 16 -27.5t5 -27.5q0 -31 -21 -46.5t-70 -22.5q-25 -4 -58 -7t-75 -6q-90 -5 -149.5 -13.5t-97.5 -21.5q-19 -6 -35.5 -14t-30.5 -17q-34 -22 -51.5 -54t-17.5 -74v-1q0 -71 51.5 -112t175.5 -41q104 0 180.5 27.5t126.5 72.5
q25 22 43.5 47t30.5 51zM436 688q76 0 125.5 28.5t74.5 74.5q12 23 19 48t8 52h-63q-4 -59 -45 -101.5t-118 -43.5q-54 1 -88 20.5t-51 52.5q-8 16 -13 34t-6 38h-63q3 -54 24 -100t68 -75q24 -14 56 -21t72 -7z" />
    <glyph glyph-name="acircumflex" unicode="&#xe2;" horiz-adv-x="847" 
d="M68 0zM312 41q-89 0 -124.5 28t-35.5 71v1q0 25 10.5 45.5t31.5 36.5q30 23 90 36t173 20q104 6 153 18.5t66 34.5v-42q0 -43 -25 -86.5t-72 -80.5t-114.5 -59.5t-152.5 -22.5zM683 0h66l2 396q0 89 -73 142t-237 53q-166 0 -256 -55.5t-105 -172.5h80q13 86 78 126.5
t208 40.5q87 0 137 -18t70 -45q11 -14 16 -27.5t5 -27.5q0 -31 -21 -46.5t-70 -22.5q-25 -4 -58 -7t-75 -6q-90 -5 -149.5 -13.5t-97.5 -21.5q-19 -6 -35.5 -14t-30.5 -17q-34 -22 -51.5 -54t-17.5 -74v-1q0 -71 51.5 -112t175.5 -41q104 0 180.5 27.5t126.5 72.5
q25 22 43.5 47t30.5 51zM557 693h77l-164 191h-68l-164 -191h79l120 141z" />
    <glyph glyph-name="adieresis" unicode="&#xe4;" horiz-adv-x="847" 
d="M68 0zM312 41q-89 0 -124.5 28t-35.5 71v1q0 25 10.5 45.5t31.5 36.5q30 23 90 36t173 20q104 6 153 18.5t66 34.5v-42q0 -43 -25 -86.5t-72 -80.5t-114.5 -59.5t-152.5 -22.5zM683 0h66l2 396q0 89 -73 142t-237 53q-166 0 -256 -55.5t-105 -172.5h80q13 86 78 126.5
t208 40.5q87 0 137 -18t70 -45q11 -14 16 -27.5t5 -27.5q0 -31 -21 -46.5t-70 -22.5q-25 -4 -58 -7t-75 -6q-90 -5 -149.5 -13.5t-97.5 -21.5q-19 -6 -35.5 -14t-30.5 -17q-34 -22 -51.5 -54t-17.5 -74v-1q0 -71 51.5 -112t175.5 -41q104 0 180.5 27.5t126.5 72.5
q25 22 43.5 47t30.5 51zM547 689q29 0 45.5 13.5t16.5 43.5t-15 45t-46 15t-46.5 -14.5t-15.5 -44.5q0 -31 15 -44.5t46 -13.5zM332 689q31 0 46 14.5t15 42.5q0 30 -15 45t-45 15q-31 0 -47 -14.5t-16 -44.5q0 -31 15.5 -44.5t46.5 -13.5z" />
    <glyph glyph-name="agrave" unicode="&#xe0;" horiz-adv-x="847" 
d="M68 0zM312 41q-89 0 -124.5 28t-35.5 71v1q0 25 10.5 45.5t31.5 36.5q30 23 90 36t173 20q104 6 153 18.5t66 34.5v-42q0 -43 -25 -86.5t-72 -80.5t-114.5 -59.5t-152.5 -22.5zM683 0h66l2 396q0 89 -73 142t-237 53q-166 0 -256 -55.5t-105 -172.5h80q13 86 78 126.5
t208 40.5q87 0 137 -18t70 -45q11 -14 16 -27.5t5 -27.5q0 -31 -21 -46.5t-70 -22.5q-25 -4 -58 -7t-75 -6q-90 -5 -149.5 -13.5t-97.5 -21.5q-19 -6 -35.5 -14t-30.5 -17q-34 -22 -51.5 -54t-17.5 -74v-1q0 -71 51.5 -112t175.5 -41q104 0 180.5 27.5t126.5 72.5
q25 22 43.5 47t30.5 51zM413 695h71l-162 189h-96z" />
    <glyph glyph-name="amacron" unicode="&#x101;" horiz-adv-x="847" 
d="M68 0zM312 41q-89 0 -124.5 28t-35.5 71v1q0 25 10.5 45.5t31.5 36.5q30 23 90 36t173 20q104 6 153 18.5t66 34.5v-42q0 -43 -25 -86.5t-72 -80.5t-114.5 -59.5t-152.5 -22.5zM683 0h66l2 396q0 89 -73 142t-237 53q-166 0 -256 -55.5t-105 -172.5h80q13 86 78 126.5
t208 40.5q87 0 137 -18t70 -45q11 -14 16 -27.5t5 -27.5q0 -31 -21 -46.5t-70 -22.5q-25 -4 -58 -7t-75 -6q-90 -5 -149.5 -13.5t-97.5 -21.5q-19 -6 -35.5 -14t-30.5 -17q-34 -22 -51.5 -54t-17.5 -74v-1q0 -71 51.5 -112t175.5 -41q104 0 180.5 27.5t126.5 72.5
q25 22 43.5 47t30.5 51zM261 707h363v64h-363v-64z" />
    <glyph glyph-name="aogonek" unicode="&#x105;" horiz-adv-x="847" 
d="M312 41q-89 0 -124.5 28t-35.5 71v1q0 25 10.5 45.5t31.5 36.5q30 23 90 36t173 20q104 6 153 18.5t66 34.5v-42q0 -43 -25 -86.5t-72 -80.5t-114.5 -59.5t-152.5 -22.5zM876 -134h-72q-16 -29 -43.5 -46.5t-68.5 -17.5q-40 0 -66 18t-26 49q0 21 12.5 40t45.5 40
q16 11 39 23.5l52 27.5l2 396q0 89 -73 142t-237 53q-166 0 -256 -55.5t-105 -172.5h80q13 86 78 126.5t208 40.5q87 0 137 -18t70 -45q11 -14 16 -27.5t5 -27.5q0 -31 -21 -46.5t-70 -22.5q-25 -4 -58 -7t-75 -6q-90 -5 -149.5 -13.5t-97.5 -21.5q-19 -6 -35.5 -14
t-30.5 -17q-34 -22 -51.5 -54t-17.5 -74v-1q0 -71 51.5 -112t175.5 -41q104 0 180.5 27.5t126.5 72.5q25 22 43.5 47t30.5 51l6 -160q-85 -38 -116 -77t-31 -79q0 -53 41 -84t113 -31q68 0 115 30.5t72 86.5z" />
    <glyph glyph-name="aring" unicode="&#xe5;" horiz-adv-x="847" 
d="M68 0zM312 41q-89 0 -124.5 28t-35.5 71v1q0 25 10.5 45.5t31.5 36.5q30 23 90 36t173 20q104 6 153 18.5t66 34.5v-42q0 -43 -25 -86.5t-72 -80.5t-114.5 -59.5t-152.5 -22.5zM683 0h66l2 396q0 89 -73 142t-237 53q-166 0 -256 -55.5t-105 -172.5h80q13 86 78 126.5
t208 40.5q87 0 137 -18t70 -45q11 -14 16 -27.5t5 -27.5q0 -31 -21 -46.5t-70 -22.5q-25 -4 -58 -7t-75 -6q-90 -5 -149.5 -13.5t-97.5 -21.5q-19 -6 -35.5 -14t-30.5 -17q-34 -22 -51.5 -54t-17.5 -74v-1q0 -71 51.5 -112t175.5 -41q104 0 180.5 27.5t126.5 72.5
q25 22 43.5 47t30.5 51zM438 691q56 0 90 33.5t34 88.5q0 60 -34 91.5t-90 31.5q-53 0 -87.5 -33t-34.5 -90q0 -54 32.5 -88t89.5 -34zM438 746q-34 0 -51 18.5t-17 48.5q0 33 19 51.5t49 18.5q32 0 50 -18.5t18 -51.5t-19.5 -50t-48.5 -17z" />
    <glyph glyph-name="aringacute" unicode="&#x1fb;" horiz-adv-x="847" 
d="M68 0zM312 41q-89 0 -124.5 28t-35.5 71v1q0 25 10.5 45.5t31.5 36.5q30 23 90 36t173 20q104 6 153 18.5t66 34.5v-42q0 -43 -25 -86.5t-72 -80.5t-114.5 -59.5t-152.5 -22.5zM683 0h66l2 396q0 89 -73 142t-237 53q-166 0 -256 -55.5t-105 -172.5h80q13 86 78 126.5
t208 40.5q87 0 137 -18t70 -45q11 -14 16 -27.5t5 -27.5q0 -31 -21 -46.5t-70 -22.5q-25 -4 -58 -7t-75 -6q-90 -5 -149.5 -13.5t-97.5 -21.5q-19 -6 -35.5 -14t-30.5 -17q-34 -22 -51.5 -54t-17.5 -74v-1q0 -71 51.5 -112t175.5 -41q104 0 180.5 27.5t126.5 72.5
q25 22 43.5 47t30.5 51zM397 970h72l195 216h-91zM428 661q56 0 90 33.5t34 88.5q0 60 -34 91.5t-90 31.5q-53 0 -87.5 -33t-34.5 -90q0 -54 32.5 -88t89.5 -34zM428 716q-34 0 -51 18.5t-17 48.5q0 33 19 51.5t49 18.5q32 0 50 -18.5t18 -51.5t-19.5 -50t-48.5 -17z" />
    <glyph glyph-name="atilde" unicode="&#xe3;" horiz-adv-x="847" 
d="M68 0zM312 41q-89 0 -124.5 28t-35.5 71v1q0 25 10.5 45.5t31.5 36.5q30 23 90 36t173 20q104 6 153 18.5t66 34.5v-42q0 -43 -25 -86.5t-72 -80.5t-114.5 -59.5t-152.5 -22.5zM683 0h66l2 396q0 89 -73 142t-237 53q-166 0 -256 -55.5t-105 -172.5h80q13 86 78 126.5
t208 40.5q87 0 137 -18t70 -45q11 -14 16 -27.5t5 -27.5q0 -31 -21 -46.5t-70 -22.5q-25 -4 -58 -7t-75 -6q-90 -5 -149.5 -13.5t-97.5 -21.5q-19 -6 -35.5 -14t-30.5 -17q-34 -22 -51.5 -54t-17.5 -74v-1q0 -71 51.5 -112t175.5 -41q104 0 180.5 27.5t126.5 72.5
q25 22 43.5 47t30.5 51zM205 692h54q0 36 16.5 54t49.5 18q25 0 50 -11t51 -25q26 -15 54.5 -26t59.5 -11q63 0 91 35.5t28 93.5h-54q-1 -36 -17 -54t-48 -18q-24 0 -48 11t-50 26t-55 26t-62 11q-61 0 -90.5 -36t-29.5 -94z" />
    <glyph glyph-name="ae" unicode="&#xe6;" horiz-adv-x="1481" 
d="M1054 527q131 0 204.5 -54t80.5 -158h-588q8 72 48 119t105 70q33 12 70.5 17.5t79.5 5.5zM317 44q-88 0 -124.5 25.5t-36.5 71.5q0 25 11 45.5t32 36.5q30 23 89.5 35t173.5 19q99 6 150 18t70 32q-1 -10 -1.5 -19.5t-0.5 -17.5q-1 -42 -25.5 -85.5t-70.5 -79.5
t-113.5 -58.5t-153.5 -22.5zM1403 154h-90v-1q-32 -55 -96 -80.5t-165 -25.5q-142 0 -217.5 52t-84.5 155h665v38q0 91 -43 158.5t-124 104.5q-40 18 -89 27.5t-106 9.5q-104 0 -184.5 -32t-129.5 -94q-23 56 -92.5 90.5t-197.5 34.5q-167 0 -258.5 -57.5t-106.5 -172.5h79
q14 88 80 128.5t211 40.5q87 0 137 -18t70 -45q11 -14 16 -27.5t5 -27.5q0 -31 -22 -46.5t-72 -22.5q-25 -4 -58 -7t-75 -6q-90 -5 -149.5 -13.5t-98.5 -21.5q-19 -6 -35.5 -14t-30.5 -17q-34 -22 -51.5 -54t-17.5 -74q0 -71 52.5 -112.5t177.5 -41.5q105 0 183.5 27.5
t130.5 73.5q26 22 45.5 47t32.5 51q27 -97 115.5 -148t236.5 -51q127 0 219.5 38t137.5 134z" />
    <glyph glyph-name="aeacute" unicode="&#x1fd;" horiz-adv-x="1481" 
d="M72 0zM1054 527q131 0 204.5 -54t80.5 -158h-588q8 72 48 119t105 70q33 12 70.5 17.5t79.5 5.5zM317 44q-88 0 -124.5 25.5t-36.5 71.5q0 25 11 45.5t32 36.5q30 23 89.5 35t173.5 19q99 6 150 18t70 32q-1 -10 -1.5 -19.5t-0.5 -17.5q-1 -42 -25.5 -85.5t-70.5 -79.5
t-113.5 -58.5t-153.5 -22.5zM1403 154h-90v-1q-32 -55 -96 -80.5t-165 -25.5q-142 0 -217.5 52t-84.5 155h665v38q0 91 -43 158.5t-124 104.5q-40 18 -89 27.5t-106 9.5q-104 0 -184.5 -32t-129.5 -94q-23 56 -92.5 90.5t-197.5 34.5q-167 0 -258.5 -57.5t-106.5 -172.5h79
q14 88 80 128.5t211 40.5q87 0 137 -18t70 -45q11 -14 16 -27.5t5 -27.5q0 -31 -22 -46.5t-72 -22.5q-25 -4 -58 -7t-75 -6q-90 -5 -149.5 -13.5t-98.5 -21.5q-19 -6 -35.5 -14t-30.5 -17q-34 -22 -51.5 -54t-17.5 -74q0 -71 52.5 -112.5t177.5 -41.5q105 0 183.5 27.5
t130.5 73.5q26 22 45.5 47t32.5 51q27 -97 115.5 -148t236.5 -51q127 0 219.5 38t137.5 134zM722 641h72l195 216h-91z" />
    <glyph glyph-name="cacute" unicode="&#x107;" 
d="M60 0zM805 234h-84q-25 -97 -96 -140.5t-184 -43.5q-145 0 -222.5 57.5t-77.5 175.5q0 83 39.5 136.5t107.5 79.5q34 13 72 19.5t81 6.5q110 0 184.5 -46t94.5 -141h83q-22 124 -119 189t-244 65q-108 0 -194 -35.5t-136 -104.5q-25 -34 -37.5 -76.5t-12.5 -92.5
q0 -145 95.5 -223t284.5 -78q96 0 172.5 27t126.5 83q25 28 41.5 63.5t24.5 78.5zM404 697h72l195 216h-91z" />
    <glyph glyph-name="ccaron" unicode="&#x10d;" 
d="M60 0zM805 234h-84q-25 -97 -96 -140.5t-184 -43.5q-145 0 -222.5 57.5t-77.5 175.5q0 83 39.5 136.5t107.5 79.5q34 13 72 19.5t81 6.5q110 0 184.5 -46t94.5 -141h83q-22 124 -119 189t-244 65q-108 0 -194 -35.5t-136 -104.5q-25 -34 -37.5 -76.5t-12.5 -92.5
q0 -145 95.5 -223t284.5 -78q96 0 172.5 27t126.5 83q25 28 41.5 63.5t24.5 78.5zM466 693l169 187h-81l-118 -131l-113 131h-80l163 -187h60z" />
    <glyph glyph-name="ccedilla" unicode="&#xe7;" 
d="M452 -301q81 0 122.5 34.5t41.5 87.5q0 49 -35.5 76t-110.5 28v58q133 6 222.5 67.5t112.5 183.5h-84q-25 -97 -96 -140.5t-184 -43.5q-145 0 -222.5 57.5t-77.5 175.5q0 83 39.5 136.5t107.5 79.5q34 13 72 19.5t81 6.5q110 0 184.5 -46t94.5 -141h83q-22 124 -119 189
t-244 65q-108 0 -194 -35.5t-136 -104.5q-25 -34 -37.5 -76.5t-12.5 -92.5q0 -139 87.5 -216t259.5 -84v-106h42q61 0 83 -14t22 -44q0 -32 -26.5 -49.5t-76.5 -17.5q-46 0 -75.5 19t-34.5 53h-71q10 -56 52.5 -90.5t129.5 -34.5z" />
    <glyph glyph-name="ccircumflex" unicode="&#x109;" 
d="M60 0zM805 234h-84q-25 -97 -96 -140.5t-184 -43.5q-145 0 -222.5 57.5t-77.5 175.5q0 83 39.5 136.5t107.5 79.5q34 13 72 19.5t81 6.5q110 0 184.5 -46t94.5 -141h83q-22 124 -119 189t-244 65q-108 0 -194 -35.5t-136 -104.5q-25 -34 -37.5 -76.5t-12.5 -92.5
q0 -145 95.5 -223t284.5 -78q96 0 172.5 27t126.5 83q25 28 41.5 63.5t24.5 78.5zM558 693h77l-164 191h-68l-164 -191h79l120 141z" />
    <glyph glyph-name="cdotaccent" unicode="&#x10b;" 
d="M60 0zM805 234h-84q-25 -97 -96 -140.5t-184 -43.5q-145 0 -222.5 57.5t-77.5 175.5q0 83 39.5 136.5t107.5 79.5q34 13 72 19.5t81 6.5q110 0 184.5 -46t94.5 -141h83q-22 124 -119 189t-244 65q-108 0 -194 -35.5t-136 -104.5q-25 -34 -37.5 -76.5t-12.5 -92.5
q0 -145 95.5 -223t284.5 -78q96 0 172.5 27t126.5 83q25 28 41.5 63.5t24.5 78.5zM440 696q32 0 49 14.5t17 46.5t-16 48t-49 16t-50 -15.5t-17 -47.5q0 -34 16.5 -48t49.5 -14z" />
    <glyph glyph-name="dcaron" unicode="&#x10f;" horiz-adv-x="904" 
d="M60 0zM435 49q-141 0 -218 57.5t-77 176.5q0 78 37.5 132.5t103.5 83.5q33 14 71.5 21t81.5 7q86 0 153 -28t106 -82q20 -27 29.5 -60t9.5 -72q0 -112 -80 -174t-217 -62zM735 0h67v756h-77v-317q-40 74 -120 113t-186 39q-104 0 -185.5 -35.5t-127.5 -104.5
q-23 -35 -34.5 -76.5t-11.5 -91.5q0 -101 44.5 -168t124.5 -100q40 -17 87.5 -25t101.5 -8q117 0 196 42t114 116zM898 595h61l84 193h-79z" />
    <glyph glyph-name="dcroat" unicode="&#x111;" horiz-adv-x="905" 
d="M435 49q-141 0 -218 57.5t-77 176.5q0 78 37.5 132.5t103.5 83.5q33 14 71.5 21t81.5 7q86 0 153 -28t106 -82q20 -27 29.5 -60t9.5 -72q0 -112 -80 -174t-217 -62zM728 140l7 -140h67v636h99v46h-99v74h-77v-74h-173v-46h173v-197q-40 74 -120 113t-186 39
q-104 0 -185.5 -35.5t-127.5 -104.5q-23 -35 -34.5 -76.5t-11.5 -91.5q0 -101 44.5 -168t124.5 -100q40 -17 87.5 -25t101.5 -8q117 0 196 42t114 116z" />
    <glyph glyph-name="eth" unicode="&#xf0;" horiz-adv-x="910" 
d="M451 -20q192 0 294.5 72t102.5 207q0 124 -74.5 231.5t-223.5 198.5l163 90h-97l-113 -62q-29 16 -60.5 31.5t-65.5 30.5h-129l103.5 -48.5t91.5 -46.5l-187 -103h99l136 75q116 -69 182 -139t90 -149q-37 80 -122 121t-208 41q-108 0 -192 -32t-133 -94q-24 -31 -36 -69
t-12 -83q0 -131 99 -201.5t292 -70.5zM453 50q-149 0 -230.5 48.5t-81.5 154.5q0 74 41 120t112 67q35 11 75 16.5t85 5.5q91 0 162.5 -23.5t112.5 -69.5q20 -23 30.5 -52t10.5 -64q0 -106 -83.5 -154.5t-233.5 -48.5z" />
    <glyph glyph-name="eacute" unicode="&#xe9;" horiz-adv-x="861" 
d="M60 0zM440 528q129 0 203 -54.5t81 -159.5h-587q8 72 48.5 119.5t106.5 71.5q33 11 70 17t78 6zM788 153h-87v-1q-32 -53 -96.5 -79t-166.5 -26q-139 0 -215.5 51.5t-86.5 155.5h665v38q0 91 -43 158.5t-124 104.5q-40 18 -89 27.5t-106 9.5q-112 0 -197.5 -37.5
t-133.5 -106.5q-24 -35 -36 -76.5t-12 -90.5q0 -142 93.5 -220.5t278.5 -78.5q128 0 220 38.5t136 132.5zM408 696h72l195 216h-91z" />
    <glyph glyph-name="ebreve" unicode="&#x115;" horiz-adv-x="861" 
d="M60 0zM440 528q129 0 203 -54.5t81 -159.5h-587q8 72 48.5 119.5t106.5 71.5q33 11 70 17t78 6zM788 153h-87v-1q-32 -53 -96.5 -79t-166.5 -26q-139 0 -215.5 51.5t-86.5 155.5h665v38q0 91 -43 158.5t-124 104.5q-40 18 -89 27.5t-106 9.5q-112 0 -197.5 -37.5
t-133.5 -106.5q-24 -35 -36 -76.5t-12 -90.5q0 -142 93.5 -220.5t278.5 -78.5q128 0 220 38.5t136 132.5zM442 687q76 0 125.5 28.5t74.5 74.5q12 23 19 48t8 52h-63q-4 -59 -45 -101.5t-118 -43.5q-54 1 -88 20.5t-51 52.5q-8 16 -13 34t-6 38h-63q3 -54 24 -100t68 -75
q24 -14 56 -21t72 -7z" />
    <glyph glyph-name="ecaron" unicode="&#x11b;" horiz-adv-x="861" 
d="M60 0zM440 528q129 0 203 -54.5t81 -159.5h-587q8 72 48.5 119.5t106.5 71.5q33 11 70 17t78 6zM788 153h-87v-1q-32 -53 -96.5 -79t-166.5 -26q-139 0 -215.5 51.5t-86.5 155.5h665v38q0 91 -43 158.5t-124 104.5q-40 18 -89 27.5t-106 9.5q-112 0 -197.5 -37.5
t-133.5 -106.5q-24 -35 -36 -76.5t-12 -90.5q0 -142 93.5 -220.5t278.5 -78.5q128 0 220 38.5t136 132.5zM471 692l169 187h-81l-118 -131l-113 131h-80l163 -187h60z" />
    <glyph glyph-name="ecircumflex" unicode="&#xea;" horiz-adv-x="861" 
d="M60 0zM440 528q129 0 203 -54.5t81 -159.5h-587q8 72 48.5 119.5t106.5 71.5q33 11 70 17t78 6zM788 153h-87v-1q-32 -53 -96.5 -79t-166.5 -26q-139 0 -215.5 51.5t-86.5 155.5h665v38q0 91 -43 158.5t-124 104.5q-40 18 -89 27.5t-106 9.5q-112 0 -197.5 -37.5
t-133.5 -106.5q-24 -35 -36 -76.5t-12 -90.5q0 -142 93.5 -220.5t278.5 -78.5q128 0 220 38.5t136 132.5zM563 691h77l-164 191h-68l-164 -191h79l120 141z" />
    <glyph glyph-name="edieresis" unicode="&#xeb;" horiz-adv-x="861" 
d="M60 0zM440 528q129 0 203 -54.5t81 -159.5h-587q8 72 48.5 119.5t106.5 71.5q33 11 70 17t78 6zM788 153h-87v-1q-32 -53 -96.5 -79t-166.5 -26q-139 0 -215.5 51.5t-86.5 155.5h665v38q0 91 -43 158.5t-124 104.5q-40 18 -89 27.5t-106 9.5q-112 0 -197.5 -37.5
t-133.5 -106.5q-24 -35 -36 -76.5t-12 -90.5q0 -142 93.5 -220.5t278.5 -78.5q128 0 220 38.5t136 132.5zM553 687q29 0 45.5 13.5t16.5 43.5t-15 45t-46 15t-46.5 -14.5t-15.5 -44.5q0 -31 15 -44.5t46 -13.5zM338 687q31 0 46 14.5t15 42.5q0 30 -15 45t-45 15
q-31 0 -47 -14.5t-16 -44.5q0 -31 15.5 -44.5t46.5 -13.5z" />
    <glyph glyph-name="edotaccent" unicode="&#x117;" horiz-adv-x="861" 
d="M60 0zM440 528q129 0 203 -54.5t81 -159.5h-587q8 72 48.5 119.5t106.5 71.5q33 11 70 17t78 6zM788 153h-87v-1q-32 -53 -96.5 -79t-166.5 -26q-139 0 -215.5 51.5t-86.5 155.5h665v38q0 91 -43 158.5t-124 104.5q-40 18 -89 27.5t-106 9.5q-112 0 -197.5 -37.5
t-133.5 -106.5q-24 -35 -36 -76.5t-12 -90.5q0 -142 93.5 -220.5t278.5 -78.5q128 0 220 38.5t136 132.5zM444 695q32 0 49 14.5t17 46.5t-16 48t-49 16t-50 -15.5t-17 -47.5q0 -34 16.5 -48t49.5 -14z" />
    <glyph glyph-name="egrave" unicode="&#xe8;" horiz-adv-x="861" 
d="M60 0zM440 528q129 0 203 -54.5t81 -159.5h-587q8 72 48.5 119.5t106.5 71.5q33 11 70 17t78 6zM788 153h-87v-1q-32 -53 -96.5 -79t-166.5 -26q-139 0 -215.5 51.5t-86.5 155.5h665v38q0 91 -43 158.5t-124 104.5q-40 18 -89 27.5t-106 9.5q-112 0 -197.5 -37.5
t-133.5 -106.5q-24 -35 -36 -76.5t-12 -90.5q0 -142 93.5 -220.5t278.5 -78.5q128 0 220 38.5t136 132.5zM419 694h71l-162 189h-96z" />
    <glyph glyph-name="emacron" unicode="&#x113;" horiz-adv-x="861" 
d="M60 0zM440 528q129 0 203 -54.5t81 -159.5h-587q8 72 48.5 119.5t106.5 71.5q33 11 70 17t78 6zM788 153h-87v-1q-32 -53 -96.5 -79t-166.5 -26q-139 0 -215.5 51.5t-86.5 155.5h665v38q0 91 -43 158.5t-124 104.5q-40 18 -89 27.5t-106 9.5q-112 0 -197.5 -37.5
t-133.5 -106.5q-24 -35 -36 -76.5t-12 -90.5q0 -142 93.5 -220.5t278.5 -78.5q128 0 220 38.5t136 132.5zM267 706h363v64h-363v-64z" />
    <glyph glyph-name="eogonek" unicode="&#x119;" horiz-adv-x="861" 
d="M582 -233q68 0 115 30.5t72 86.5h-72q-16 -29 -43.5 -46.5t-68.5 -17.5q-40 0 -66 18t-26 49q0 20 11.5 38t40.5 39q14 10 35 21.5l47 25.5q55 20 95.5 54.5t65.5 87.5h-87v-1q-32 -53 -96.5 -79t-166.5 -26q-139 0 -215.5 51.5t-86.5 155.5h665v38q0 91 -43 158.5
t-124 104.5q-40 18 -89 27.5t-106 9.5q-112 0 -197.5 -37.5t-133.5 -106.5q-24 -35 -36 -76.5t-12 -90.5q0 -142 93.5 -220.5t278.5 -78.5h25.5t25.5 1q-31 -25 -43 -50.5t-12 -50.5q0 -53 41 -84t113 -31zM440 528q129 0 203 -54.5t81 -159.5h-587q8 72 48.5 119.5
t106.5 71.5q33 11 70 17t78 6z" />
    <glyph glyph-name="gbreve" unicode="&#x11f;" horiz-adv-x="782" 
d="M32 0zM399 -263q139 0 221.5 24t118.5 66q18 21 27 45.5t9 51.5v2q0 82 -67 119.5t-202 37.5h-225q-85 -1 -116 17.5t-31 42.5q0 33 47 55.5t157 22.5h70q158 0 242 42t84 136q0 81 -59.5 122.5t-164.5 47.5q70 2 112.5 6t64.5 14q21 10 28.5 29.5t7.5 52.5v6h-82v-7
q0 -27 -6 -42.5t-25 -24.5q-19 -8 -57 -11t-102 -5q-45 -1 -81 -3t-67 -7q-111 -9 -173.5 -54.5t-62.5 -121.5q0 -74 51.5 -112.5t151.5 -49.5q-105 -2 -155.5 -36t-50.5 -82q0 -46 36.5 -70t109.5 -27q-82 -11 -130 -42.5t-48 -92.5q0 -48 31.5 -82t105.5 -52
q36 -9 86 -13.5t112 -4.5h32zM403 279q-78 0 -135.5 10.5t-89.5 37.5q-16 13 -24 31.5t-8 41.5q0 52 40.5 82.5t120.5 38.5q31 5 55.5 5.5t48.5 0.5q129 0 188 -32.5t59 -94.5q0 -68 -64 -94.5t-191 -26.5zM375 -198q-144 0 -205 29t-61 79v1q0 40 30.5 64.5t85.5 36.5
q27 5 58.5 8t67.5 3h148q110 0 156 -24.5t46 -74.5v-2q0 -34 -25 -61t-89 -43q-32 -8 -77.5 -12t-104.5 -4h-30zM412 687q76 0 125.5 28.5t74.5 74.5q12 23 19 48t8 52h-63q-4 -59 -45 -101.5t-118 -43.5q-54 1 -88 20.5t-51 52.5q-8 16 -13 34t-6 38h-63q3 -54 24 -100
t68 -75q24 -14 56 -21t72 -7z" />
    <glyph glyph-name="gcircumflex" unicode="&#x11d;" horiz-adv-x="782" 
d="M32 0zM399 -263q139 0 221.5 24t118.5 66q18 21 27 45.5t9 51.5v2q0 82 -67 119.5t-202 37.5h-225q-85 -1 -116 17.5t-31 42.5q0 33 47 55.5t157 22.5h70q158 0 242 42t84 136q0 81 -59.5 122.5t-164.5 47.5q70 2 112.5 6t64.5 14q21 10 28.5 29.5t7.5 52.5v6h-82v-7
q0 -27 -6 -42.5t-25 -24.5q-19 -8 -57 -11t-102 -5q-45 -1 -81 -3t-67 -7q-111 -9 -173.5 -54.5t-62.5 -121.5q0 -74 51.5 -112.5t151.5 -49.5q-105 -2 -155.5 -36t-50.5 -82q0 -46 36.5 -70t109.5 -27q-82 -11 -130 -42.5t-48 -92.5q0 -48 31.5 -82t105.5 -52
q36 -9 86 -13.5t112 -4.5h32zM403 279q-78 0 -135.5 10.5t-89.5 37.5q-16 13 -24 31.5t-8 41.5q0 52 40.5 82.5t120.5 38.5q31 5 55.5 5.5t48.5 0.5q129 0 188 -32.5t59 -94.5q0 -68 -64 -94.5t-191 -26.5zM375 -198q-144 0 -205 29t-61 79v1q0 40 30.5 64.5t85.5 36.5
q27 5 58.5 8t67.5 3h148q110 0 156 -24.5t46 -74.5v-2q0 -34 -25 -61t-89 -43q-32 -8 -77.5 -12t-104.5 -4h-30zM521 702h77l-164 191h-68l-164 -191h79l120 141z" />
    <glyph glyph-name="uni0123" unicode="&#x123;" horiz-adv-x="782" 
d="M32 0zM399 -263q139 0 221.5 24t118.5 66q18 21 27 45.5t9 51.5v2q0 82 -67 119.5t-202 37.5h-225q-85 -1 -116 17.5t-31 42.5q0 33 47 55.5t157 22.5h70q158 0 242 42t84 136q0 81 -59.5 122.5t-164.5 47.5q70 2 112.5 6t64.5 14q21 10 28.5 29.5t7.5 52.5v6h-82v-7
q0 -27 -6 -42.5t-25 -24.5q-19 -8 -57 -11t-102 -5q-45 -1 -81 -3t-67 -7q-111 -9 -173.5 -54.5t-62.5 -121.5q0 -74 51.5 -112.5t151.5 -49.5q-105 -2 -155.5 -36t-50.5 -82q0 -46 36.5 -70t109.5 -27q-82 -11 -130 -42.5t-48 -92.5q0 -48 31.5 -82t105.5 -52
q36 -9 86 -13.5t112 -4.5h32zM403 279q-78 0 -135.5 10.5t-89.5 37.5q-16 13 -24 31.5t-8 41.5q0 52 40.5 82.5t120.5 38.5q31 5 55.5 5.5t48.5 0.5q129 0 188 -32.5t59 -94.5q0 -68 -64 -94.5t-191 -26.5zM375 -198q-144 0 -205 29t-61 79v1q0 40 30.5 64.5t85.5 36.5
q27 5 58.5 8t67.5 3h148q110 0 156 -24.5t46 -74.5v-2q0 -34 -25 -61t-89 -43q-32 -8 -77.5 -12t-104.5 -4h-30zM404 688q35 0 52 13t17 39q0 29 -14.5 38.5t-44.5 9.5q-8 0 -16 -2t-16 -5q5 33 30 56.5t67 34.5l-8 37q-73 -16 -106 -56.5t-33 -90.5q0 -39 18 -56.5
t54 -17.5z" />
    <glyph glyph-name="gdotaccent" unicode="&#x121;" horiz-adv-x="782" 
d="M32 0zM399 -263q139 0 221.5 24t118.5 66q18 21 27 45.5t9 51.5v2q0 82 -67 119.5t-202 37.5h-225q-85 -1 -116 17.5t-31 42.5q0 33 47 55.5t157 22.5h70q158 0 242 42t84 136q0 81 -59.5 122.5t-164.5 47.5q70 2 112.5 6t64.5 14q21 10 28.5 29.5t7.5 52.5v6h-82v-7
q0 -27 -6 -42.5t-25 -24.5q-19 -8 -57 -11t-102 -5q-45 -1 -81 -3t-67 -7q-111 -9 -173.5 -54.5t-62.5 -121.5q0 -74 51.5 -112.5t151.5 -49.5q-105 -2 -155.5 -36t-50.5 -82q0 -46 36.5 -70t109.5 -27q-82 -11 -130 -42.5t-48 -92.5q0 -48 31.5 -82t105.5 -52
q36 -9 86 -13.5t112 -4.5h32zM403 279q-78 0 -135.5 10.5t-89.5 37.5q-16 13 -24 31.5t-8 41.5q0 52 40.5 82.5t120.5 38.5q31 5 55.5 5.5t48.5 0.5q129 0 188 -32.5t59 -94.5q0 -68 -64 -94.5t-191 -26.5zM375 -198q-144 0 -205 29t-61 79v1q0 40 30.5 64.5t85.5 36.5
q27 5 58.5 8t67.5 3h148q110 0 156 -24.5t46 -74.5v-2q0 -34 -25 -61t-89 -43q-32 -8 -77.5 -12t-104.5 -4h-30zM410 699q32 0 49 14.5t17 46.5t-16 48t-49 16t-50 -15.5t-17 -47.5q0 -34 16.5 -48t49.5 -14z" />
    <glyph glyph-name="germandbls" unicode="&#xdf;" horiz-adv-x="894" 
d="M528 -6q162 0 237 51.5t75 161.5q0 93 -56.5 133t-160.5 50q86 14 132.5 51.5t46.5 113.5q0 108 -87.5 156t-251.5 48q-170 0 -264.5 -61t-94.5 -192v-506h79v504q0 102 70.5 145.5t209.5 43.5q131 0 195 -34t64 -111q0 -52 -34.5 -80.5t-94.5 -38.5q-30 -6 -64.5 -8.5
t-73.5 -2.5h-45v-62h85q86 0 145 -12t89 -42q15 -16 22.5 -37.5t7.5 -49.5q0 -80 -60 -117t-182 -37q-54 0 -92.5 5.5t-58.5 9.5v-66q21 -5 58.5 -10.5t103.5 -5.5z" />
    <glyph glyph-name="hbar" unicode="&#x127;" horiz-adv-x="884" 
d="M177 251q0 87 34.5 148.5t97.5 94.5q32 16 69 24t80 8q91 0 146 -31.5t80 -87.5q12 -28 18.5 -59.5t6.5 -67.5v-280h78v296q0 87 -34 154t-103 104q-34 19 -77.5 28.5t-96.5 9.5q-113 0 -190.5 -52t-108.5 -141v234h176v44h-176v79h-76v-79h-75v-44h75v-633h76v251z" />
    <glyph glyph-name="hcircumflex" unicode="&#x125;" horiz-adv-x="883" 
d="M0 0zM177 251q0 87 34.5 148.5t97.5 94.5q32 16 69 24t80 8q91 0 146 -31.5t80 -87.5q12 -28 18.5 -59.5t6.5 -67.5v-280h78v296q0 87 -34 154t-103 104q-34 19 -77.5 28.5t-96.5 9.5q-113 0 -190.5 -52t-108.5 -141v357h-76v-756h76v251zM258 840h77l-164 191h-68
l-164 -191h79l120 141z" />
    <glyph glyph-name="iacute" unicode="&#xed;" horiz-adv-x="290" 
d="M105 0zM185 0v567h-80v-567h80zM110 673h72l195 216h-91z" />
    <glyph glyph-name="ibreve" unicode="&#x12d;" horiz-adv-x="290" 
d="M0 0zM185 0v567h-80v-567h80zM142 664q76 0 125.5 28.5t74.5 74.5q12 23 19 48t8 52h-63q-4 -59 -45 -101.5t-118 -43.5q-54 1 -88 20.5t-51 52.5q-8 16 -13 34t-6 38h-63q3 -54 24 -100t68 -75q24 -14 56 -21t72 -7z" />
    <glyph glyph-name="icircumflex" unicode="&#xee;" horiz-adv-x="290" 
d="M0 0zM185 0v567h-80v-567h80zM265 669h77l-164 191h-68l-164 -191h79l120 141z" />
    <glyph glyph-name="idieresis" unicode="&#xef;" horiz-adv-x="290" 
d="M0 0zM185 0v567h-80v-567h80zM255 665q29 0 45.5 13.5t16.5 43.5t-15 45t-46 15t-46.5 -14.5t-15.5 -44.5q0 -31 15 -44.5t46 -13.5zM40 665q31 0 46 14.5t15 42.5q0 30 -15 45t-45 15q-31 0 -47 -14.5t-16 -44.5q0 -31 15.5 -44.5t46.5 -13.5z" />
    <glyph glyph-name="i.dot" horiz-adv-x="288" 
d="M91 0zM146 673q29 0 42 14.5t13 42.5t-13.5 42t-41.5 14q-27 0 -41 -14t-14 -42q0 -31 13 -44t42 -13zM184 0v567h-80v-567h80z" />
    <glyph glyph-name="igrave" unicode="&#xec;" horiz-adv-x="290" 
d="M0 0zM185 0v567h-80v-567h80zM113 670h71l-162 189h-96z" />
    <glyph glyph-name="imacron" unicode="&#x12b;" horiz-adv-x="290" 
d="M0 0zM185 0v567h-80v-567h80zM-34 683h363v64h-363v-64z" />
    <glyph glyph-name="iogonek" unicode="&#x12f;" horiz-adv-x="288" 
d="M146 673q29 0 42 14.5t13 42.5t-13.5 42t-41.5 14q-27 0 -41 -14t-14 -42q0 -31 13 -44t42 -13zM310 -134h-72q-16 -29 -43.5 -46.5t-68.5 -17.5q-40 0 -66 18t-26 49q0 21 12.5 40t45.5 40q16 11 39 23.5l52 27.5h1v567h-80v-552q-77 -38 -106 -75.5t-29 -75.5
q0 -53 41 -84t113 -31q68 0 115 30.5t72 86.5z" />
    <glyph glyph-name="itilde" unicode="&#x129;" horiz-adv-x="290" 
d="M0 0zM185 0v567h-80v-567h80zM-84 667h54q0 36 16.5 54t49.5 18q25 0 50 -11t51 -25q26 -15 54.5 -26t59.5 -11q63 0 91 35.5t28 93.5h-54q-1 -36 -17 -54t-48 -18q-24 0 -48 11t-50 26t-55 26t-62 11q-61 0 -90.5 -36t-29.5 -94z" />
    <glyph glyph-name="dotlessi" unicode="&#x131;" horiz-adv-x="290" 
d="M185 0v567h-80v-567h80z" />
    <glyph glyph-name="jcircumflex" unicode="&#x135;" horiz-adv-x="288" 
d="M0 0zM-96 -261h36q73 0 120.5 10t75.5 37q27 27 37.5 78t10.5 133v570h-78v-562q0 -65 -7 -104.5t-25 -59.5q-19 -20 -52.5 -26.5t-86.5 -6.5h-31v-69zM261 671h77l-164 191h-68l-164 -191h79l120 141z" />
    <glyph glyph-name="uni0237" unicode="&#x237;" horiz-adv-x="288" 
d="M-96 -261h36q73 0 120.5 10t75.5 37q27 27 37.5 78t10.5 133v570h-78v-562q0 -65 -7 -104.5t-25 -59.5q-19 -20 -52.5 -26.5t-86.5 -6.5h-31v-69z" />
    <glyph glyph-name="uni0137" unicode="&#x137;" horiz-adv-x="801" 
d="M101 0zM688 0h97l-304 339l282 228h-111l-474 -385v574h-77v-756h77v104l241 192zM367 -295q73 16 106 56.5t33 90.5q0 39 -18 56t-55 17q-34 0 -51 -13t-17 -39q0 -28 14 -37.5t44 -9.5q9 0 17.5 2t15.5 5q-4 -32 -29.5 -56t-68.5 -35z" />
    <glyph glyph-name="kgreenlandic" unicode="&#x138;" horiz-adv-x="801" 
d="M688 0h98l-304 339l282 228h-111l-474 -385v385h-76v-567h76v104l241 192z" />
    <glyph glyph-name="lacute" unicode="&#x13a;" horiz-adv-x="286" 
d="M103 0zM182 0v756h-79v-756h79zM108 854h72l195 216h-91z" />
    <glyph glyph-name="lcaron" unicode="&#x13e;" horiz-adv-x="286" 
d="M103 0zM182 0v756h-79v-756h79zM281 597h61l84 193h-79z" />
    <glyph glyph-name="uni013C" unicode="&#x13c;" horiz-adv-x="286" 
d="M63 0zM182 0v756h-79v-756h79zM72 -310q73 16 106 56.5t33 90.5q0 39 -18 56t-55 17q-34 0 -51 -13t-17 -39q0 -28 14 -37.5t44 -9.5q9 0 17.5 2t15.5 5q-4 -32 -29.5 -56t-68.5 -35z" />
    <glyph glyph-name="ldot" unicode="&#x140;" horiz-adv-x="502" 
d="M103 0zM182 0v756h-79v-756h79zM406 213q32 0 49 14.5t17 46.5t-16 48t-49 16t-50 -15.5t-17 -47.5q0 -34 16.5 -48t49.5 -14z" />
    <glyph glyph-name="lslash" unicode="&#x142;" horiz-adv-x="343" 
d="M208 0v352l131 42l-13 46l-118 -38v354h-79v-379l-123 -40l13 -46l110 35v-326h79z" />
    <glyph glyph-name="nacute" unicode="&#x144;" horiz-adv-x="886" 
d="M101 0zM180 251q0 87 34.5 148t96.5 94q32 16 69 24t79 8q91 0 146 -30.5t80 -85.5q13 -27 19 -58.5t6 -67.5v-283h79v296q0 87 -34 154t-103 104q-34 19 -77.5 28.5t-96.5 9.5q-112 0 -190.5 -52t-110.5 -141l-6 168h-70v-567h79v251zM405 694h72l195 216h-91z" />
    <glyph glyph-name="ncaron" unicode="&#x148;" horiz-adv-x="886" 
d="M101 0zM180 251q0 87 34.5 148t96.5 94q32 16 69 24t79 8q91 0 146 -30.5t80 -85.5q13 -27 19 -58.5t6 -67.5v-283h79v296q0 87 -34 154t-103 104q-34 19 -77.5 28.5t-96.5 9.5q-112 0 -190.5 -52t-110.5 -141l-6 168h-70v-567h79v251zM467 690l169 187h-81l-118 -131
l-113 131h-80l163 -187h60z" />
    <glyph glyph-name="uni0146" unicode="&#x146;" horiz-adv-x="886" 
d="M101 0zM180 251q0 87 34.5 148t96.5 94q32 16 69 24t79 8q91 0 146 -30.5t80 -85.5q13 -27 19 -58.5t6 -67.5v-283h79v296q0 87 -34 154t-103 104q-34 19 -77.5 28.5t-96.5 9.5q-112 0 -190.5 -52t-110.5 -141l-6 168h-70v-567h79v251zM398 -299q73 16 106 56.5t33 90.5
q0 39 -18 56t-55 17q-34 0 -51 -13t-17 -39q0 -28 14 -37.5t44 -9.5q9 0 17.5 2t15.5 5q-4 -32 -29.5 -56t-68.5 -35z" />
    <glyph glyph-name="ntilde" unicode="&#xf1;" horiz-adv-x="886" 
d="M101 0zM180 251q0 87 34.5 148t96.5 94q32 16 69 24t79 8q91 0 146 -30.5t80 -85.5q13 -27 19 -58.5t6 -67.5v-283h79v296q0 87 -34 154t-103 104q-34 19 -77.5 28.5t-96.5 9.5q-112 0 -190.5 -52t-110.5 -141l-6 168h-70v-567h79v251zM208 688h54q0 36 16.5 54t49.5 18
q25 0 50 -11t51 -25q26 -15 54.5 -26t59.5 -11q63 0 91 35.5t28 93.5h-54q-1 -36 -17 -54t-48 -18q-24 0 -48 11t-50 26t-55 26t-62 11q-61 0 -90.5 -36t-29.5 -94z" />
    <glyph glyph-name="eng" unicode="&#x14b;" horiz-adv-x="887" 
d="M543 -265q73 0 121 11t76 40q27 28 38 79.5t11 131.5v298q0 87 -34 154t-103 105q-34 19 -77.5 28.5t-96.5 9.5q-112 0 -190.5 -52t-110.5 -141l-6 168h-70v-567h79v251q0 87 34.5 148.5t97.5 93.5q31 17 68 25t80 8q91 0 145.5 -31.5t79.5 -87.5q13 -28 19 -59.5
t6 -67.5v-275q0 -65 -7 -104.5t-26 -59.5q-18 -20 -52 -26.5t-87 -6.5h-31v-73h36z" />
    <glyph glyph-name="oacute" unicode="&#xf3;" horiz-adv-x="878" 
d="M60 0zM435 -18q184 0 283 79t99 222q0 100 -49 168.5t-135 104.5q-42 18 -90.5 27t-103.5 9q-107 0 -193 -35.5t-136 -104.5q-25 -34 -37.5 -76.5t-12.5 -92.5q0 -145 95 -223t280 -78zM437 50q-141 0 -218.5 57.5t-77.5 175.5q0 83 39.5 136.5t106.5 79.5q34 13 72 19.5
t80 6.5q87 0 154.5 -27.5t105.5 -81.5q20 -27 29.5 -60t9.5 -73q0 -118 -79 -175.5t-222 -57.5zM401 693h72l195 216h-91z" />
    <glyph glyph-name="obreve" unicode="&#x14f;" horiz-adv-x="878" 
d="M60 0zM435 -18q184 0 283 79t99 222q0 100 -49 168.5t-135 104.5q-42 18 -90.5 27t-103.5 9q-107 0 -193 -35.5t-136 -104.5q-25 -34 -37.5 -76.5t-12.5 -92.5q0 -145 95 -223t280 -78zM437 50q-141 0 -218.5 57.5t-77.5 175.5q0 83 39.5 136.5t106.5 79.5q34 13 72 19.5
t80 6.5q87 0 154.5 -27.5t105.5 -81.5q20 -27 29.5 -60t9.5 -73q0 -118 -79 -175.5t-222 -57.5zM433 684q76 0 125.5 28.5t74.5 74.5q12 23 19 48t8 52h-63q-4 -59 -45 -101.5t-118 -43.5q-54 1 -88 20.5t-51 52.5q-8 16 -13 34t-6 38h-63q3 -54 24 -100t68 -75
q24 -14 56 -21t72 -7z" />
    <glyph glyph-name="ocircumflex" unicode="&#xf4;" horiz-adv-x="878" 
d="M60 0zM435 -18q184 0 283 79t99 222q0 100 -49 168.5t-135 104.5q-42 18 -90.5 27t-103.5 9q-107 0 -193 -35.5t-136 -104.5q-25 -34 -37.5 -76.5t-12.5 -92.5q0 -145 95 -223t280 -78zM437 50q-141 0 -218.5 57.5t-77.5 175.5q0 83 39.5 136.5t106.5 79.5q34 13 72 19.5
t80 6.5q87 0 154.5 -27.5t105.5 -81.5q20 -27 29.5 -60t9.5 -73q0 -118 -79 -175.5t-222 -57.5zM555 688h77l-164 191h-68l-164 -191h79l120 141z" />
    <glyph glyph-name="odieresis" unicode="&#xf6;" horiz-adv-x="878" 
d="M60 0zM435 -18q184 0 283 79t99 222q0 100 -49 168.5t-135 104.5q-42 18 -90.5 27t-103.5 9q-107 0 -193 -35.5t-136 -104.5q-25 -34 -37.5 -76.5t-12.5 -92.5q0 -145 95 -223t280 -78zM437 50q-141 0 -218.5 57.5t-77.5 175.5q0 83 39.5 136.5t106.5 79.5q34 13 72 19.5
t80 6.5q87 0 154.5 -27.5t105.5 -81.5q20 -27 29.5 -60t9.5 -73q0 -118 -79 -175.5t-222 -57.5zM548 685q29 0 45.5 13.5t16.5 43.5t-15 45t-46 15t-46.5 -14.5t-15.5 -44.5q0 -31 15 -44.5t46 -13.5zM333 685q31 0 46 14.5t15 42.5q0 30 -15 45t-45 15q-31 0 -47 -14.5
t-16 -44.5q0 -31 15.5 -44.5t46.5 -13.5z" />
    <glyph glyph-name="oe" unicode="&#x153;" horiz-adv-x="1542" 
d="M1117 527q131 0 204 -54t80 -158h-588q8 72 48 119t106 70q33 12 70.5 17.5t79.5 5.5zM437 50q-141 0 -218.5 57.5t-77.5 175.5q0 83 39.5 136.5t106.5 79.5q34 13 72 19.5t80 6.5q87 0 154.5 -27.5t105.5 -81.5q20 -27 29.5 -60t9.5 -73q0 -118 -79 -175.5t-222 -57.5z
M1466 154l-89 -1q-33 -55 -97 -80.5t-166 -25.5q-140 0 -216.5 51.5t-85.5 155.5h666v38q0 91 -43 158.5t-125 104.5q-40 18 -89 27.5t-106 9.5q-118 0 -206.5 -42t-130.5 -121q-43 80 -133 121.5t-206 41.5q-107 0 -193 -35.5t-136 -104.5q-25 -34 -37.5 -76.5t-12.5 -92.5
q0 -145 95 -223t280 -78q127 0 213 38t128 110q39 -72 122 -110t210 -38q128 0 220.5 38t137.5 134z" />
    <glyph glyph-name="ograve" unicode="&#xf2;" horiz-adv-x="878" 
d="M60 0zM435 -18q184 0 283 79t99 222q0 100 -49 168.5t-135 104.5q-42 18 -90.5 27t-103.5 9q-107 0 -193 -35.5t-136 -104.5q-25 -34 -37.5 -76.5t-12.5 -92.5q0 -145 95 -223t280 -78zM437 50q-141 0 -218.5 57.5t-77.5 175.5q0 83 39.5 136.5t106.5 79.5q34 13 72 19.5
t80 6.5q87 0 154.5 -27.5t105.5 -81.5q20 -27 29.5 -60t9.5 -73q0 -118 -79 -175.5t-222 -57.5zM410 695h71l-162 189h-96z" />
    <glyph glyph-name="ohungarumlaut" unicode="&#x151;" horiz-adv-x="878" 
d="M60 0zM435 -18q184 0 283 79t99 222q0 100 -49 168.5t-135 104.5q-42 18 -90.5 27t-103.5 9q-107 0 -193 -35.5t-136 -104.5q-25 -34 -37.5 -76.5t-12.5 -92.5q0 -145 95 -223t280 -78zM437 50q-141 0 -218.5 57.5t-77.5 175.5q0 83 39.5 136.5t106.5 79.5q34 13 72 19.5
t80 6.5q87 0 154.5 -27.5t105.5 -81.5q20 -27 29.5 -60t9.5 -73q0 -118 -79 -175.5t-222 -57.5zM564 885h-92l-162 -189h65zM756 885h-91l-177 -189h68z" />
    <glyph glyph-name="omacron" unicode="&#x14d;" horiz-adv-x="878" 
d="M60 0zM435 -18q184 0 283 79t99 222q0 100 -49 168.5t-135 104.5q-42 18 -90.5 27t-103.5 9q-107 0 -193 -35.5t-136 -104.5q-25 -34 -37.5 -76.5t-12.5 -92.5q0 -145 95 -223t280 -78zM437 50q-141 0 -218.5 57.5t-77.5 175.5q0 83 39.5 136.5t106.5 79.5q34 13 72 19.5
t80 6.5q87 0 154.5 -27.5t105.5 -81.5q20 -27 29.5 -60t9.5 -73q0 -118 -79 -175.5t-222 -57.5zM260 709h363v64h-363v-64z" />
    <glyph glyph-name="oslash" unicode="&#xf8;" horiz-adv-x="883" 
d="M141 284q0 83 39.5 136t107.5 79q34 13 72.5 19.5t81.5 6.5q30 0 58.5 -3t53.5 -10l-270 -439q-70 25 -106.5 77.5t-36.5 133.5zM440 50q-25 0 -48 1.5t-44 5.5l266 433q60 -29 95 -80.5t35 -125.5q0 -119 -80 -176.5t-224 -57.5zM438 -18q185 0 285 79t100 223
q0 95 -46 162.5t-125 103.5l65 104h-75l-51 -81q-34 9 -71 14t-78 5q-108 0 -194.5 -35.5t-136.5 -104.5q-26 -34 -38.5 -76.5t-12.5 -92.5q0 -102 46 -170t138 -102l-66 -101h79l52 84q29 -6 61.5 -9t67.5 -3z" />
    <glyph glyph-name="oslashacute" unicode="&#x1ff;" horiz-adv-x="883" 
d="M60 0zM141 284q0 83 39.5 136t107.5 79q34 13 72.5 19.5t81.5 6.5q30 0 58.5 -3t53.5 -10l-270 -439q-70 25 -106.5 77.5t-36.5 133.5zM440 50q-25 0 -48 1.5t-44 5.5l266 433q60 -29 95 -80.5t35 -125.5q0 -119 -80 -176.5t-224 -57.5zM438 -18q185 0 285 79t100 223
q0 95 -46 162.5t-125 103.5l65 104h-75l-51 -81q-34 9 -71 14t-78 5q-108 0 -194.5 -35.5t-136.5 -104.5q-26 -34 -38.5 -76.5t-12.5 -92.5q0 -102 46 -170t138 -102l-66 -101h79l52 84q29 -6 61.5 -9t67.5 -3zM406 680h72l195 216h-91z" />
    <glyph glyph-name="otilde" unicode="&#xf5;" horiz-adv-x="878" 
d="M60 0zM435 -18q184 0 283 79t99 222q0 100 -49 168.5t-135 104.5q-42 18 -90.5 27t-103.5 9q-107 0 -193 -35.5t-136 -104.5q-25 -34 -37.5 -76.5t-12.5 -92.5q0 -145 95 -223t280 -78zM437 50q-141 0 -218.5 57.5t-77.5 175.5q0 83 39.5 136.5t106.5 79.5q34 13 72 19.5
t80 6.5q87 0 154.5 -27.5t105.5 -81.5q20 -27 29.5 -60t9.5 -73q0 -118 -79 -175.5t-222 -57.5zM207 687h54q0 36 16.5 54t49.5 18q25 0 50 -11t51 -25q26 -15 54.5 -26t59.5 -11q63 0 91 35.5t28 93.5h-54q-1 -36 -17 -54t-48 -18q-24 0 -48 11t-50 26t-55 26t-62 11
q-61 0 -90.5 -36t-29.5 -94z" />
    <glyph glyph-name="racute" unicode="&#x155;" horiz-adv-x="559" 
d="M101 0zM180 0v194q0 97 28 163.5t91 100.5q32 18 73.5 26.5t93.5 8.5h54v76h-51q-124 0 -194 -54.5t-96 -145.5l-9 198h-69v-567h79zM268 664h72l195 216h-91z" />
    <glyph glyph-name="rcaron" unicode="&#x159;" horiz-adv-x="559" 
d="M101 0zM180 0v194q0 97 28 163.5t91 100.5q32 18 73.5 26.5t93.5 8.5h54v76h-51q-124 0 -194 -54.5t-96 -145.5l-9 198h-69v-567h79zM331 660l169 187h-81l-118 -131l-113 131h-80l163 -187h60z" />
    <glyph glyph-name="uni0157" unicode="&#x157;" horiz-adv-x="559" 
d="M66 0zM180 0v194q0 97 28 163.5t91 100.5q32 18 73.5 26.5t93.5 8.5h54v76h-51q-124 0 -194 -54.5t-96 -145.5l-9 198h-69v-567h79zM75 -311q73 16 106 56.5t33 90.5q0 39 -18 56t-55 17q-34 0 -51 -13t-17 -39q0 -28 14 -37.5t44 -9.5q9 0 17.5 2t15.5 5
q-4 -32 -29.5 -56t-68.5 -35z" />
    <glyph glyph-name="sacute" unicode="&#x15b;" horiz-adv-x="788" 
d="M38 0zM409 -18q115 0 186.5 24.5t104.5 65.5q16 21 24.5 44t8.5 48v1q0 56 -33 89t-104 49q-36 8 -82.5 13t-104.5 7q-101 4 -158.5 13.5t-81.5 28.5q-12 10 -18 23.5t-6 30.5q0 46 50 78.5t167 32.5q110 0 182 -30.5t98 -105.5h84q-34 104 -125 151t-239 47
q-97 0 -163 -23.5t-99 -63.5q-16 -20 -24.5 -42.5t-8.5 -47.5q0 -55 32 -87.5t102 -48.5q35 -8 80.5 -13t102.5 -7q103 -3 162 -12t84 -29q12 -10 18.5 -23.5t6.5 -31.5q0 -31 -22.5 -57.5t-75.5 -42.5q-26 -8 -62.5 -12t-82.5 -4q-69 0 -128.5 12t-100.5 44
q-21 16 -35 39.5t-21 54.5h-89q17 -82 68.5 -128.5t129.5 -66.5q39 -10 82 -15t91 -5zM365 693h72l195 216h-91z" />
    <glyph glyph-name="scaron" unicode="&#x161;" horiz-adv-x="788" 
d="M38 0zM409 -18q115 0 186.5 24.5t104.5 65.5q16 21 24.5 44t8.5 48v1q0 56 -33 89t-104 49q-36 8 -82.5 13t-104.5 7q-101 4 -158.5 13.5t-81.5 28.5q-12 10 -18 23.5t-6 30.5q0 46 50 78.5t167 32.5q110 0 182 -30.5t98 -105.5h84q-34 104 -125 151t-239 47
q-97 0 -163 -23.5t-99 -63.5q-16 -20 -24.5 -42.5t-8.5 -47.5q0 -55 32 -87.5t102 -48.5q35 -8 80.5 -13t102.5 -7q103 -3 162 -12t84 -29q12 -10 18.5 -23.5t6.5 -31.5q0 -31 -22.5 -57.5t-75.5 -42.5q-26 -8 -62.5 -12t-82.5 -4q-69 0 -128.5 12t-100.5 44
q-21 16 -35 39.5t-21 54.5h-89q17 -82 68.5 -128.5t129.5 -66.5q39 -10 82 -15t91 -5zM433 687l169 187h-81l-118 -131l-113 131h-80l163 -187h60z" />
    <glyph glyph-name="uni015F" unicode="&#x15f;" horiz-adv-x="788" 
d="M403 -294q81 0 122.5 34.5t41.5 87.5q0 49 -35.5 76t-110.5 28v50q111 1 179.5 26t100.5 66q16 20 24 42.5t8 47.5v1q0 56 -33 89t-104 49q-36 8 -82.5 13t-104.5 7q-101 4 -158.5 13.5t-81.5 28.5q-12 10 -18 23.5t-6 30.5q0 46 50 78.5t167 32.5q110 0 182 -30.5
t98 -105.5h84q-34 104 -125 151t-239 47q-97 0 -163 -23.5t-99 -63.5q-16 -20 -24.5 -42.5t-8.5 -47.5q0 -55 32 -87.5t102 -48.5q35 -8 80.5 -13t102.5 -7q103 -3 162 -12t84 -29q12 -10 18.5 -23.5t6.5 -31.5q0 -31 -22.5 -57.5t-75.5 -42.5q-26 -8 -62.5 -12t-82.5 -4
q-69 0 -128.5 12t-100.5 44q-21 16 -35 39.5t-21 54.5h-89q15 -74 59 -119.5t111 -67.5q34 -11 71.5 -18t78.5 -9v-99h42q61 0 83 -14t22 -44q0 -32 -26.5 -49.5t-76.5 -17.5q-46 0 -75.5 19t-34.5 53h-71q10 -56 52.5 -90.5t129.5 -34.5z" />
    <glyph glyph-name="scircumflex" unicode="&#x15d;" horiz-adv-x="788" 
d="M38 0zM409 -18q115 0 186.5 24.5t104.5 65.5q16 21 24.5 44t8.5 48v1q0 56 -33 89t-104 49q-36 8 -82.5 13t-104.5 7q-101 4 -158.5 13.5t-81.5 28.5q-12 10 -18 23.5t-6 30.5q0 46 50 78.5t167 32.5q110 0 182 -30.5t98 -105.5h84q-34 104 -125 151t-239 47
q-97 0 -163 -23.5t-99 -63.5q-16 -20 -24.5 -42.5t-8.5 -47.5q0 -55 32 -87.5t102 -48.5q35 -8 80.5 -13t102.5 -7q103 -3 162 -12t84 -29q12 -10 18.5 -23.5t6.5 -31.5q0 -31 -22.5 -57.5t-75.5 -42.5q-26 -8 -62.5 -12t-82.5 -4q-69 0 -128.5 12t-100.5 44
q-21 16 -35 39.5t-21 54.5h-89q17 -82 68.5 -128.5t129.5 -66.5q39 -10 82 -15t91 -5zM507 693h77l-164 191h-68l-164 -191h79l120 141z" />
    <glyph glyph-name="uni0219" unicode="&#x219;" horiz-adv-x="788" 
d="M38 0zM409 -18q115 0 186.5 24.5t104.5 65.5q16 21 24.5 44t8.5 48v1q0 56 -33 89t-104 49q-36 8 -82.5 13t-104.5 7q-101 4 -158.5 13.5t-81.5 28.5q-12 10 -18 23.5t-6 30.5q0 46 50 78.5t167 32.5q110 0 182 -30.5t98 -105.5h84q-34 104 -125 151t-239 47
q-97 0 -163 -23.5t-99 -63.5q-16 -20 -24.5 -42.5t-8.5 -47.5q0 -55 32 -87.5t102 -48.5q35 -8 80.5 -13t102.5 -7q103 -3 162 -12t84 -29q12 -10 18.5 -23.5t6.5 -31.5q0 -31 -22.5 -57.5t-75.5 -42.5q-26 -8 -62.5 -12t-82.5 -4q-69 0 -128.5 12t-100.5 44
q-21 16 -35 39.5t-21 54.5h-89q17 -82 68.5 -128.5t129.5 -66.5q39 -10 82 -15t91 -5zM338 -328q73 16 106 56.5t33 90.5q0 39 -18 56t-55 17q-34 0 -51 -13t-17 -39q0 -28 14 -37.5t44 -9.5q9 0 17.5 2t15.5 5q-4 -32 -29.5 -56t-68.5 -35z" />
    <glyph glyph-name="tbar" unicode="&#x167;" horiz-adv-x="531" 
d="M491 72h-70q-72 0 -113 15t-59 57q-8 21 -12.5 52t-4.5 72v6h196v55h-196v170h259v68h-259v164h-64q0 -30 -1 -59t-5 -53q-2 -22 -7 -32.5t-18 -14.5q-6 -2 -16 -3t-23 -2q-5 -1 -25 -1.5t-41 -0.5h-16.5h-9.5v-66h152v-170h-120v-55h120v-15q0 -98 24 -155t78 -80
q28 -12 64.5 -18t82.5 -6h84v72z" />
    <glyph glyph-name="tcaron" unicode="&#x165;" horiz-adv-x="531" 
d="M6 0zM491 71h-70q-72 0 -113 15t-59 58q-8 21 -12.5 52t-4.5 72v232h259v67h-259v162h-65q0 -30 -1 -58t-4 -52q-3 -22 -8 -32.5t-17 -14.5q-7 -2 -16.5 -3t-22.5 -2q-5 -1 -25 -1.5t-41 -0.5h-16.5h-9.5v-65h151v-241q0 -98 24 -155t79 -80q28 -12 64.5 -18t82.5 -6h84
v71zM374 671h61l84 193h-79z" />
    <glyph glyph-name="uni0163" unicode="&#x163;" horiz-adv-x="531" 
d="M6 0zM491 71h-70q-72 0 -113 15t-59 58q-8 21 -12.5 52t-4.5 72v232h259v67h-259v162h-65q0 -30 -1 -58t-4 -52q-3 -22 -8 -32.5t-17 -14.5q-7 -2 -16.5 -3t-22.5 -2q-5 -1 -25 -1.5t-41 -0.5h-16.5h-9.5v-65h151v-241q0 -98 24 -155t79 -80q28 -12 64.5 -18t82.5 -6h84
v71zM242 -308q73 16 106 56.5t33 90.5q0 39 -18 56t-55 17q-34 0 -51 -13t-17 -39q0 -28 14 -37.5t44 -9.5q9 0 17.5 2t15.5 5q-4 -32 -29.5 -56t-68.5 -35z" />
    <glyph glyph-name="uacute" unicode="&#xfa;" 
d="M95 0zM696 0h70v567h-79v-254q0 -124 -71.5 -193.5t-193.5 -69.5q-128 0 -187.5 60.5t-59.5 172.5v284h-80v-294q0 -141 75 -216t229 -75q113 0 188 51.5t103 139.5zM391 644h72l195 216h-91z" />
    <glyph glyph-name="ubreve" unicode="&#x16d;" 
d="M95 0zM696 0h70v567h-79v-254q0 -124 -71.5 -193.5t-193.5 -69.5q-128 0 -187.5 60.5t-59.5 172.5v284h-80v-294q0 -141 75 -216t229 -75q113 0 188 51.5t103 139.5zM426 647q76 0 125.5 28.5t74.5 74.5q12 23 19 48t8 52h-63q-4 -59 -45 -101.5t-118 -43.5
q-54 1 -88 20.5t-51 52.5q-8 16 -13 34t-6 38h-63q3 -54 24 -100t68 -75q24 -14 56 -21t72 -7z" />
    <glyph glyph-name="ucircumflex" unicode="&#xfb;" 
d="M95 0zM696 0h70v567h-79v-254q0 -124 -71.5 -193.5t-193.5 -69.5q-128 0 -187.5 60.5t-59.5 172.5v284h-80v-294q0 -141 75 -216t229 -75q113 0 188 51.5t103 139.5zM547 652h77l-164 191h-68l-164 -191h79l120 141z" />
    <glyph glyph-name="udieresis" unicode="&#xfc;" 
d="M95 0zM696 0h70v567h-79v-254q0 -124 -71.5 -193.5t-193.5 -69.5q-128 0 -187.5 60.5t-59.5 172.5v284h-80v-294q0 -141 75 -216t229 -75q113 0 188 51.5t103 139.5zM538 648q29 0 45.5 13.5t16.5 43.5t-15 45t-46 15t-46.5 -14.5t-15.5 -44.5q0 -31 15 -44.5t46 -13.5z
M323 648q31 0 46 14.5t15 42.5q0 30 -15 45t-45 15q-31 0 -47 -14.5t-16 -44.5q0 -31 15.5 -44.5t46.5 -13.5z" />
    <glyph glyph-name="ugrave" unicode="&#xf9;" 
d="M95 0zM696 0h70v567h-79v-254q0 -124 -71.5 -193.5t-193.5 -69.5q-128 0 -187.5 60.5t-59.5 172.5v284h-80v-294q0 -141 75 -216t229 -75q113 0 188 51.5t103 139.5zM412 637h71l-162 189h-96z" />
    <glyph glyph-name="uhungarumlaut" unicode="&#x171;" 
d="M95 0zM696 0h70v567h-79v-254q0 -124 -71.5 -193.5t-193.5 -69.5q-128 0 -187.5 60.5t-59.5 172.5v284h-80v-294q0 -141 75 -216t229 -75q113 0 188 51.5t103 139.5zM557 845h-92l-162 -189h65zM749 845h-91l-177 -189h68z" />
    <glyph glyph-name="umacron" unicode="&#x16b;" 
d="M95 0zM696 0h70v567h-79v-254q0 -124 -71.5 -193.5t-193.5 -69.5q-128 0 -187.5 60.5t-59.5 172.5v284h-80v-294q0 -141 75 -216t229 -75q113 0 188 51.5t103 139.5zM252 666h363v64h-363v-64z" />
    <glyph glyph-name="uogonek" unicode="&#x173;" 
d="M893 -134h-72q-16 -29 -43.5 -46.5t-68.5 -17.5q-40 0 -66 18t-26 49q0 21 12.5 40t45.5 40q16 11 39 23.5l52 27.5v567h-79v-254q0 -124 -71.5 -193.5t-193.5 -69.5q-128 0 -187.5 60.5t-59.5 172.5v284h-80v-294q0 -141 75 -216t229 -75q113 0 188 51.5t103 139.5
l5 -154q-82 -38 -112.5 -77t-30.5 -78q0 -53 41 -84t113 -31q68 0 115 30.5t72 86.5z" />
    <glyph glyph-name="uring" unicode="&#x16f;" 
d="M95 0zM696 0h70v567h-79v-254q0 -124 -71.5 -193.5t-193.5 -69.5q-128 0 -187.5 60.5t-59.5 172.5v284h-80v-294q0 -141 75 -216t229 -75q113 0 188 51.5t103 139.5zM432 632q56 0 90 33.5t34 88.5q0 60 -34 91.5t-90 31.5q-53 0 -87.5 -33t-34.5 -90q0 -54 32.5 -88
t89.5 -34zM432 687q-34 0 -51 18.5t-17 48.5q0 33 19 51.5t49 18.5q32 0 50 -18.5t18 -51.5t-19.5 -50t-48.5 -17z" />
    <glyph glyph-name="utilde" unicode="&#x169;" 
d="M95 0zM696 0h70v567h-79v-254q0 -124 -71.5 -193.5t-193.5 -69.5q-128 0 -187.5 60.5t-59.5 172.5v284h-80v-294q0 -141 75 -216t229 -75q113 0 188 51.5t103 139.5zM196 650h54q0 36 16.5 54t49.5 18q25 0 50 -11t51 -25q26 -15 54.5 -26t59.5 -11q63 0 91 35.5t28 93.5
h-54q-1 -36 -17 -54t-48 -18q-24 0 -48 11t-50 26t-55 26t-62 11q-61 0 -90.5 -36t-29.5 -94z" />
    <glyph glyph-name="wacute" unicode="&#x1e83;" horiz-adv-x="1155" 
d="M32 0zM807 0h71l246 567h-80l-204 -479l-232 479h-68l-251 -478l-175 478h-82l212 -567h72l256 485zM540 673h72l195 216h-91z" />
    <glyph glyph-name="wcircumflex" unicode="&#x175;" horiz-adv-x="1155" 
d="M32 0zM807 0h71l246 567h-80l-204 -479l-232 479h-68l-251 -478l-175 478h-82l212 -567h72l256 485zM695 669h77l-164 191h-68l-164 -191h79l120 141z" />
    <glyph glyph-name="wdieresis" unicode="&#x1e85;" horiz-adv-x="1155" 
d="M32 0zM807 0h71l246 567h-80l-204 -479l-232 479h-68l-251 -478l-175 478h-82l212 -567h72l256 485zM685 665q29 0 45.5 13.5t16.5 43.5t-15 45t-46 15t-46.5 -14.5t-15.5 -44.5q0 -31 15 -44.5t46 -13.5zM470 665q31 0 46 14.5t15 42.5q0 30 -15 45t-45 15
q-31 0 -47 -14.5t-16 -44.5q0 -31 15.5 -44.5t46.5 -13.5z" />
    <glyph glyph-name="wgrave" unicode="&#x1e81;" horiz-adv-x="1155" 
d="M32 0zM807 0h71l246 567h-80l-204 -479l-232 479h-68l-251 -478l-175 478h-82l212 -567h72l256 485zM551 670h71l-162 189h-96z" />
    <glyph glyph-name="yacute" unicode="&#xfd;" horiz-adv-x="789" 
d="M26 0zM84 -251q65 0 108 7t77 29q33 23 66.5 67.5t78.5 119.5l359 595h-86l-286 -476l-289 476h-86l333 -549l-17 -28q-35 -57 -60.5 -91t-51.5 -52q-25 -17 -59 -23t-85 -6h-39v-69h37zM365 659h72l195 216h-91z" />
    <glyph glyph-name="ycircumflex" unicode="&#x177;" horiz-adv-x="789" 
d="M26 0zM84 -251q65 0 108 7t77 29q33 23 66.5 67.5t78.5 119.5l359 595h-86l-286 -476l-289 476h-86l333 -549l-17 -28q-35 -57 -60.5 -91t-51.5 -52q-25 -17 -59 -23t-85 -6h-39v-69h37zM519 655h77l-164 191h-68l-164 -191h79l120 141z" />
    <glyph glyph-name="ydieresis" unicode="&#xff;" horiz-adv-x="789" 
d="M26 0zM84 -251q65 0 108 7t77 29q33 23 66.5 67.5t78.5 119.5l359 595h-86l-286 -476l-289 476h-86l333 -549l-17 -28q-35 -57 -60.5 -91t-51.5 -52q-25 -17 -59 -23t-85 -6h-39v-69h37zM509 651q29 0 45.5 13.5t16.5 43.5t-15 45t-46 15t-46.5 -14.5t-15.5 -44.5
q0 -31 15 -44.5t46 -13.5zM294 651q31 0 46 14.5t15 42.5q0 30 -15 45t-45 15q-31 0 -47 -14.5t-16 -44.5q0 -31 15.5 -44.5t46.5 -13.5z" />
    <glyph glyph-name="ygrave" unicode="&#x1ef3;" horiz-adv-x="789" 
d="M26 0zM84 -251q65 0 108 7t77 29q33 23 66.5 67.5t78.5 119.5l359 595h-86l-286 -476l-289 476h-86l333 -549l-17 -28q-35 -57 -60.5 -91t-51.5 -52q-25 -17 -59 -23t-85 -6h-39v-69h37zM375 657h71l-162 189h-96z" />
    <glyph glyph-name="ij" unicode="&#x133;" horiz-adv-x="616" 
d="M146 673q29 0 42 14.5t13 42.5t-13.5 42t-41.5 14q-27 0 -41 -14t-14 -42q0 -31 13 -44t42 -13zM471 673q29 0 42 14.5t13 42.5t-13.5 42t-41.5 14q-27 0 -41 -14t-14 -42q0 -31 13 -44t42 -13zM185 0v567h-80v-567h80zM264 -261q73 0 120.5 10t75.5 37q27 27 37.5 78
t10.5 133v570h-78v-562q0 -65 -7 -104.5t-25 -59.5q-19 -20 -52.5 -26.5t-86.5 -6.5h-31v-69h36z" />
    <glyph glyph-name="zacute" unicode="&#x17a;" horiz-adv-x="755" 
d="M40 0zM720 0v64h-569l563 445v58h-642v-61h532l-564 -443v-63h680zM360 673h72l195 216h-91z" />
    <glyph glyph-name="zcaron" unicode="&#x17e;" horiz-adv-x="755" 
d="M40 0zM720 0v64h-569l563 445v58h-642v-61h532l-564 -443v-63h680zM422 669l169 187h-81l-118 -131l-113 131h-80l163 -187h60z" />
    <glyph glyph-name="zdotaccent" unicode="&#x17c;" horiz-adv-x="755" 
d="M40 0zM720 0v64h-569l563 445v58h-642v-61h532l-564 -443v-63h680zM396 672q32 0 49 14.5t17 46.5t-16 48t-49 16t-50 -15.5t-17 -47.5q0 -34 16.5 -48t49.5 -14z" />
    <glyph glyph-name="thorn" unicode="&#xfe;" horiz-adv-x="905" 
d="M467 49q-135 0 -214 59t-79 174q0 73 37 128t104 86q34 15 73 23t84 8q86 0 152.5 -28.5t104.5 -83.5q19 -27 28.5 -60t9.5 -72q0 -115 -78.5 -174.5t-221.5 -59.5zM485 -18q103 0 184.5 34t128.5 101q24 33 36 74.5t12 91.5q0 98 -44.5 166.5t-124.5 105.5
q-40 18 -86 27t-99 9q-112 0 -192.5 -43t-118.5 -117v317h-78v-950h78v326q38 -67 115 -104.5t189 -37.5z" />
    <glyph glyph-name="ordfeminine" unicode="&#xaa;" horiz-adv-x="564" 
d="M208 358q-56 0 -81.5 16.5t-25.5 43.5q0 16 6 29t21 23q20 14 62.5 22.5t120.5 13.5q71 5 104 15.5t43 26.5v-26q0 -38 -29.5 -76t-85.5 -63q-28 -12 -61.5 -18.5t-73.5 -6.5zM464 320h54l1 275q0 61 -50.5 99t-166.5 38q-117 0 -183.5 -40.5t-77.5 -119.5h66
q9 54 55 81.5t143 27.5q59 0 92 -11t47 -28q7 -9 10.5 -18t3.5 -18q0 -21 -14 -32t-47 -16q-16 -3 -38.5 -5t-51.5 -4q-94 -6 -145.5 -16t-80.5 -30q-25 -15 -36.5 -38t-11.5 -51q0 -49 38.5 -77.5t125.5 -28.5q106 0 170.5 37t92.5 88z" />
    <glyph glyph-name="ordmasculine" unicode="&#xba;" horiz-adv-x="601" 
d="M298 307q129 0 199 54.5t70 154.5q0 70 -34.5 117.5t-94.5 72.5q-30 13 -64.5 19t-72.5 6q-75 0 -135.5 -24.5t-95.5 -72.5q-17 -24 -26 -53.5t-9 -64.5q0 -101 66.5 -155t196.5 -54zM299 364q-92 0 -145 38t-53 114q0 54 26.5 89t72.5 53q22 8 47.5 12.5t53.5 4.5
q89 0 145 -41t56 -118q0 -76 -54.5 -114t-148.5 -38z" />
    <glyph glyph-name="cordinal" horiz-adv-x="587" 
d="M567 487h-67q-10 -61 -62 -92t-139 -31q-92 0 -145 38t-53 114q0 54 26.5 89t72.5 53q22 8 47.5 12.5t53.5 4.5q80 0 131.5 -30.5t63.5 -88.5h69q-14 85 -85.5 130t-178.5 45q-75 0 -135.5 -24.5t-95.5 -72.5q-17 -24 -26 -53.5t-9 -64.5q0 -101 66.5 -155t196.5 -54
q123 0 190 46.5t79 133.5z" />
    <glyph glyph-name="g.alt" horiz-adv-x="782" 
d="M399 -263q139 0 221.5 24t118.5 66q18 21 27 45.5t9 51.5v2q0 82 -67 119.5t-202 37.5h-225q-85 -1 -116 17.5t-31 42.5q0 33 47 55.5t157 22.5h70q158 0 242 42t84 136q0 81 -59.5 122.5t-164.5 47.5q70 2 112.5 6t64.5 14q21 10 28.5 29.5t7.5 52.5v6h-82v-7
q0 -27 -6 -42.5t-25 -24.5q-19 -8 -57 -11t-102 -5q-45 -1 -81 -3t-67 -7q-111 -9 -173.5 -54.5t-62.5 -121.5q0 -74 51.5 -112.5t151.5 -49.5q-105 -2 -155.5 -36t-50.5 -82q0 -46 36.5 -70t109.5 -27q-82 -11 -130 -42.5t-48 -92.5q0 -48 31.5 -82t105.5 -52
q36 -9 86 -13.5t112 -4.5h32zM403 279q-78 0 -135.5 10.5t-89.5 37.5q-16 13 -24 31.5t-8 41.5q0 52 40.5 82.5t120.5 38.5q31 5 55.5 5.5t48.5 0.5q129 0 188 -32.5t59 -94.5q0 -68 -64 -94.5t-191 -26.5zM375 -198q-144 0 -205 29t-61 79v1q0 40 30.5 64.5t85.5 36.5
q27 5 58.5 8t67.5 3h148q110 0 156 -24.5t46 -74.5v-2q0 -34 -25 -61t-89 -43q-32 -8 -77.5 -12t-104.5 -4h-30z" />
    <glyph glyph-name="g.alt2" horiz-adv-x="908" 
d="M434 51q-142 0 -218 58.5t-76 174.5q0 77 37.5 131.5t103.5 82.5q33 15 71.5 22t81.5 7q91 0 158 -30.5t103 -85.5q19 -28 28 -59.5t9 -67.5q0 -114 -80.5 -173.5t-217.5 -59.5zM430 -241q185 0 279 69.5t94 184.5v554h-68l-7 -133q-38 72 -118.5 114.5t-193.5 42.5
q-105 0 -185.5 -36.5t-125.5 -105.5q-22 -34 -33.5 -75.5t-11.5 -89.5q0 -100 46 -166t126 -99q40 -16 86 -24t98 -8q113 0 192.5 38t117.5 107v-119q0 -56 -29.5 -99t-93.5 -68q-32 -13 -74 -19t-94 -6q-121 0 -183 26t-88 90h-85q18 -64 59.5 -103t113.5 -57
q35 -9 80 -13.5t98 -4.5z" />
    <glyph glyph-name="uni0123.alt" horiz-adv-x="908" 
d="M60 0zM434 51q-142 0 -218 58.5t-76 174.5q0 77 37.5 131.5t103.5 82.5q33 15 71.5 22t81.5 7q91 0 158 -30.5t103 -85.5q19 -28 28 -59.5t9 -67.5q0 -114 -80.5 -173.5t-217.5 -59.5zM430 -241q185 0 279 69.5t94 184.5v554h-68l-7 -133q-38 72 -118.5 114.5
t-193.5 42.5q-105 0 -185.5 -36.5t-125.5 -105.5q-22 -34 -33.5 -75.5t-11.5 -89.5q0 -100 46 -166t126 -99q40 -16 86 -24t98 -8q113 0 192.5 38t117.5 107v-119q0 -56 -29.5 -99t-93.5 -68q-32 -13 -74 -19t-94 -6q-121 0 -183 26t-88 90h-85q18 -64 59.5 -103t113.5 -57
q35 -9 80 -13.5t98 -4.5zM436 689q35 0 52 13t17 39q0 29 -14.5 38.5t-44.5 9.5q-8 0 -16 -2t-16 -5q5 33 30 56.5t67 34.5l-8 37q-73 -16 -106 -56.5t-33 -90.5q0 -39 18 -56.5t54 -17.5z" />
    <glyph glyph-name="gcircumflex.alt" horiz-adv-x="908" 
d="M60 0zM434 51q-142 0 -218 58.5t-76 174.5q0 77 37.5 131.5t103.5 82.5q33 15 71.5 22t81.5 7q91 0 158 -30.5t103 -85.5q19 -28 28 -59.5t9 -67.5q0 -114 -80.5 -173.5t-217.5 -59.5zM430 -241q185 0 279 69.5t94 184.5v554h-68l-7 -133q-38 72 -118.5 114.5
t-193.5 42.5q-105 0 -185.5 -36.5t-125.5 -105.5q-22 -34 -33.5 -75.5t-11.5 -89.5q0 -100 46 -166t126 -99q40 -16 86 -24t98 -8q113 0 192.5 38t117.5 107v-119q0 -56 -29.5 -99t-93.5 -68q-32 -13 -74 -19t-94 -6q-121 0 -183 26t-88 90h-85q18 -64 59.5 -103t113.5 -57
q35 -9 80 -13.5t98 -4.5zM559 691h77l-164 191h-68l-164 -191h79l120 141z" />
    <glyph glyph-name="gdotaccent.alt" horiz-adv-x="908" 
d="M60 0zM434 51q-142 0 -218 58.5t-76 174.5q0 77 37.5 131.5t103.5 82.5q33 15 71.5 22t81.5 7q91 0 158 -30.5t103 -85.5q19 -28 28 -59.5t9 -67.5q0 -114 -80.5 -173.5t-217.5 -59.5zM430 -241q185 0 279 69.5t94 184.5v554h-68l-7 -133q-38 72 -118.5 114.5
t-193.5 42.5q-105 0 -185.5 -36.5t-125.5 -105.5q-22 -34 -33.5 -75.5t-11.5 -89.5q0 -100 46 -166t126 -99q40 -16 86 -24t98 -8q113 0 192.5 38t117.5 107v-119q0 -56 -29.5 -99t-93.5 -68q-32 -13 -74 -19t-94 -6q-121 0 -183 26t-88 90h-85q18 -64 59.5 -103t113.5 -57
q35 -9 80 -13.5t98 -4.5zM440 694q32 0 49 14.5t17 46.5t-16 48t-49 16t-50 -15.5t-17 -47.5q0 -34 16.5 -48t49.5 -14z" />
    <glyph glyph-name="gbreve.alt" horiz-adv-x="908" 
d="M60 0zM434 51q-142 0 -218 58.5t-76 174.5q0 77 37.5 131.5t103.5 82.5q33 15 71.5 22t81.5 7q91 0 158 -30.5t103 -85.5q19 -28 28 -59.5t9 -67.5q0 -114 -80.5 -173.5t-217.5 -59.5zM430 -241q185 0 279 69.5t94 184.5v554h-68l-7 -133q-38 72 -118.5 114.5
t-193.5 42.5q-105 0 -185.5 -36.5t-125.5 -105.5q-22 -34 -33.5 -75.5t-11.5 -89.5q0 -100 46 -166t126 -99q40 -16 86 -24t98 -8q113 0 192.5 38t117.5 107v-119q0 -56 -29.5 -99t-93.5 -68q-32 -13 -74 -19t-94 -6q-121 0 -183 26t-88 90h-85q18 -64 59.5 -103t113.5 -57
q35 -9 80 -13.5t98 -4.5zM438 686q76 0 125.5 28.5t74.5 74.5q12 23 19 48t8 52h-63q-4 -59 -45 -101.5t-118 -43.5q-54 1 -88 20.5t-51 52.5q-8 16 -13 34t-6 38h-63q3 -54 24 -100t68 -75q24 -14 56 -21t72 -7z" />
    <glyph glyph-name="ampersand" unicode="&#x26;" horiz-adv-x="1024" 
d="M355 516q0 66 41 105.5t108 39.5q57 0 88.5 -27.5t31.5 -71.5q0 -43 -25 -71t-80 -47q-27 -9 -62.5 -18t-79.5 -17q-11 26 -16.5 53t-5.5 54zM305 48q-56 0 -100.5 13.5t-69.5 42.5q-13 14 -19.5 33t-6.5 42q1 44 23 75t72 52q25 11 59 20.5t76 17.5q21 -37 51 -74.5
t68 -76.5l45 -42.5t44 -38.5q-58 -31 -119 -47.5t-123 -16.5zM880 -9q35 0 63 6.5t46 16.5v71q-22 -13 -48.5 -21.5t-63.5 -8.5q-59 0 -112.5 15t-102.5 43q105 74 195.5 182t151.5 241h-77q-52 -116 -136.5 -218t-187.5 -170q-26 19 -51.5 41t-49.5 46q-33 33 -58.5 63.5
t-43.5 58.5q99 20 162 45.5t93 63.5q15 19 22.5 42.5t7.5 52.5q0 70 -49 115.5t-134 45.5q-61 0 -110.5 -25t-78.5 -72q-15 -24 -22 -52t-7 -61q0 -28 6 -56.5t17 -57.5q-144 -27 -210 -81.5t-66 -143.5q0 -65 34 -107t94 -62q30 -10 64.5 -15t73.5 -5q74 0 149.5 23
t149.5 66q62 -40 129.5 -61t149.5 -21z" />
    <glyph glyph-name="acute" unicode="&#xb4;" horiz-adv-x="639" 
d="M262 675h72l195 216h-91z" />
    <glyph glyph-name="breve" unicode="&#x2d8;" horiz-adv-x="639" 
d="M316 666q76 0 125.5 28.5t74.5 74.5q12 23 19 48t8 52h-63q-4 -59 -45 -101.5t-118 -43.5q-54 1 -88 20.5t-51 52.5q-8 16 -13 34t-6 38h-63q3 -54 24 -100t68 -75q24 -14 56 -21t72 -7z" />
    <glyph glyph-name="caron" unicode="&#x2c7;" horiz-adv-x="639" 
d="M347 671l169 187h-81l-118 -131l-113 131h-80l163 -187h60z" />
    <glyph glyph-name="caronSlovak" horiz-adv-x="639" 
d="M264 667h61l84 193h-79z" />
    <glyph glyph-name="cedilla" unicode="&#xb8;" horiz-adv-x="639" 
d="M315 -275q81 0 122.5 34.5t41.5 87.5q0 49 -35.5 76t-110.5 28v59h-63v-107h42q61 0 83 -14t22 -44q0 -32 -26.5 -49.5t-76.5 -17.5q-46 0 -75.5 19t-34.5 53h-71q10 -56 52.5 -90.5t129.5 -34.5z" />
    <glyph glyph-name="altcedilla" horiz-adv-x="639" 
d="M317 -291q90 0 131 37t41 92t-39 86t-123 30h-57v-51h45q62 0 84.5 -18.5t22.5 -49.5q0 -32 -25 -51t-81 -19q-49 0 -79 20t-35 55h-76q11 -58 55 -94.5t136 -36.5z" />
    <glyph glyph-name="circumflex" unicode="&#x2c6;" horiz-adv-x="639" 
d="M439 671h77l-164 191h-68l-164 -191h79l120 141z" />
    <glyph glyph-name="uni00200326" horiz-adv-x="643" 
d="M249 -310q73 16 106 56.5t33 90.5q0 39 -18 56t-55 17q-34 0 -51 -13t-17 -39q0 -28 14 -37.5t44 -9.5q9 0 17.5 2t15.5 5q-4 -32 -29.5 -56t-68.5 -35z" />
    <glyph glyph-name="dieresis" unicode="&#xa8;" horiz-adv-x="643" 
d="M423 667q29 0 45.5 13.5t16.5 43.5t-15 45t-46 15t-46.5 -14.5t-15.5 -44.5q0 -31 15 -44.5t46 -13.5zM208 667q31 0 46 14.5t15 42.5q0 30 -15 45t-45 15q-31 0 -47 -14.5t-16 -44.5q0 -31 15.5 -44.5t46.5 -13.5z" />
    <glyph glyph-name="dotaccent" unicode="&#x2d9;" horiz-adv-x="643" 
d="M308 674q32 0 49 14.5t17 46.5t-16 48t-49 16t-50 -15.5t-17 -47.5q0 -34 16.5 -48t49.5 -14z" />
    <glyph glyph-name="uni00200323" horiz-adv-x="643" 
d="M308 -248q34 0 52 15t18 50q0 33 -17 50t-52 17t-53 -16.5t-18 -49.5q0 -37 17.5 -51.5t52.5 -14.5z" />
    <glyph glyph-name="doublegrave" horiz-adv-x="639" 
d="M450 671h66l-147 189h-94zM264 671h67l-154 189h-94z" />
    <glyph glyph-name="grave" unicode="`" horiz-adv-x="639" 
d="M348 673h71l-162 189h-96z" />
    <glyph glyph-name="hungarumlaut" unicode="&#x2dd;" horiz-adv-x="639" 
d="M380 864h-92l-162 -189h65zM572 864h-91l-177 -189h68z" />
    <glyph glyph-name="invertedbreve" horiz-adv-x="639" 
d="M321 874q-109 0 -165.5 -52t-61.5 -151h62q7 80 48.5 112t114.5 33q80 -1 116 -33t42 -112h64q-6 99 -55 151t-165 52z" />
    <glyph glyph-name="macron" unicode="&#xaf;" horiz-adv-x="639" 
d="M139 685h363v64h-363v-64z" />
    <glyph glyph-name="ogonek" unicode="&#x2db;" horiz-adv-x="639" 
d="M303 -251q68 0 115 30.5t72 86.5h-72q-16 -29 -43.5 -46.5t-68.5 -17.5q-40 0 -66 18t-26 49q0 21 12.5 40t45.5 40q16 11 39 23.5l52 27.5l-47 29q-97 -41 -132 -82t-35 -83q0 -53 41 -84t113 -31z" />
    <glyph glyph-name="ring" unicode="&#x2da;" horiz-adv-x="639" 
d="M314 669q56 0 90 33.5t34 88.5q0 60 -34 91.5t-90 31.5q-53 0 -87.5 -33t-34.5 -90q0 -54 32.5 -88t89.5 -34zM314 724q-34 0 -51 18.5t-17 48.5q0 33 19 51.5t49 18.5q32 0 50 -18.5t18 -51.5t-19.5 -50t-48.5 -17z" />
    <glyph glyph-name="tilde" unicode="&#x2dc;" horiz-adv-x="639" 
d="M86 670h54q0 36 16.5 54t49.5 18q25 0 50 -11t51 -25q26 -15 54.5 -26t59.5 -11q63 0 91 35.5t28 93.5h-54q-1 -36 -17 -54t-48 -18q-24 0 -48 11t-50 26t-55 26t-62 11q-61 0 -90.5 -36t-29.5 -94z" />
    <glyph glyph-name="uni00200326.alt" horiz-adv-x="643" 
d="M312 669q35 0 52 13t17 39q0 29 -14.5 38.5t-44.5 9.5q-8 0 -16 -2t-16 -5q5 33 30 56.5t67 34.5l-8 37q-73 -16 -106 -56.5t-33 -90.5q0 -39 18 -56.5t54 -17.5z" />
    <glyph glyph-name="period" unicode="." horiz-adv-x="344" 
d="M172 -14q33 0 52 16t19 50t-17.5 51t-52.5 17q-36 0 -54 -17t-18 -51q0 -35 18 -50.5t53 -15.5z" />
    <glyph glyph-name="comma" unicode="," horiz-adv-x="345" 
d="M103 -158q70 19 108 68t38 110q0 47 -17 69.5t-58 22.5q-34 0 -53 -15.5t-19 -47.5q0 -34 15.5 -45.5t45.5 -11.5q8 0 15.5 1.5t14.5 4.5q-4 -40 -32 -69t-70 -43z" />
    <glyph glyph-name="colon" unicode=":" horiz-adv-x="358" 
d="M177 433q35 0 53.5 15t18.5 51q0 35 -17 51t-55 16q-37 0 -54 -16t-17 -51q0 -37 17 -51.5t54 -14.5zM179 55q35 0 52.5 15t17.5 50t-16.5 50.5t-54.5 15.5q-37 0 -54 -15.5t-17 -50.5q0 -37 17.5 -51t54.5 -14z" />
    <glyph glyph-name="semicolon" unicode=";" horiz-adv-x="359" 
d="M177 433q35 0 53.5 15t18.5 51q0 35 -17 51t-55 16q-37 0 -54 -16t-17 -51q0 -37 17 -51.5t54 -14.5zM106 -155q70 19 107.5 66.5t37.5 108.5q0 47 -16.5 69.5t-57.5 22.5q-34 0 -53 -15.5t-19 -47.5q0 -34 15.5 -45.5t45.5 -11.5q7 0 13.5 1t13.5 4q-5 -40 -31.5 -69
t-67.5 -42z" />
    <glyph glyph-name="ellipsis" unicode="&#x2026;" horiz-adv-x="871" 
d="M702 -11q32 0 48 14.5t16 48.5q0 33 -15 47.5t-49 14.5t-50 -14.5t-16 -47.5q0 -36 16.5 -49.5t49.5 -13.5zM436 -11q32 0 48.5 14.5t16.5 48.5q0 33 -15 47.5t-50 14.5q-34 0 -50 -14.5t-16 -47.5q0 -36 16.5 -49.5t49.5 -13.5zM169 -11q33 0 49 14.5t16 48.5
q0 33 -15 47.5t-50 14.5q-34 0 -49.5 -14.5t-15.5 -47.5q0 -36 16.5 -49.5t48.5 -13.5z" />
    <glyph glyph-name="exclam" unicode="!" horiz-adv-x="384" 
d="M138 721v-136q0 -97 4 -178t9 -134l5 -43l3 -25q2 1 11.5 1.5t15.5 0.5t14.5 -0.5t12.5 -1.5q2 15 6.5 68t7.5 134q2 40 3 84.5t1 93.5v136h-93zM184 -12q35 0 52 16.5t17 48.5t-17 48t-52 16q-34 0 -51.5 -16t-17.5 -48q0 -35 17.5 -50t51.5 -15z" />
    <glyph glyph-name="exclamdown" unicode="&#xa1;" horiz-adv-x="384" 
d="M186 590q-34 0 -51.5 -16t-17.5 -49q0 -32 17.5 -48.5t51.5 -16.5q35 0 52 16.5t17 48.5q0 35 -17 50t-52 15zM232 -140v134q0 97 -4 177.5t-9 133.5q-2 26 -4 43t-3 24q-3 0 -12 -0.5t-15 -0.5q-7 0 -15 0.5t-12 0.5q-2 -14 -6.5 -67t-8.5 -134q-2 -41 -3 -85.5
t-1 -93.5v-132h93z" />
    <glyph glyph-name="exclamdown.cap" horiz-adv-x="384" 
d="M186 733q-34 0 -51.5 -16t-17.5 -49q0 -32 17.5 -48t51.5 -16q35 0 52 16t17 48q0 35 -17 50t-52 15zM232 0v136q0 98 -4 178.5t-9 133.5l-5 43.5t-3 24.5q-2 -1 -11.5 -1.5t-15.5 -0.5t-14.5 0.5t-12.5 1.5q-2 -15 -6.5 -68t-7.5 -134q-2 -40 -3 -84.5t-1 -93.5v-136h93
z" />
    <glyph glyph-name="question" unicode="?" horiz-adv-x="894" 
d="M466 175l1 48q1 34 21.5 54t52.5 33q16 7 33.5 13.5t35.5 12.5q42 14 82 33.5t66 53.5q13 17 19.5 40.5t6.5 53.5q0 61 -31 107t-102 72q-35 13 -81.5 19.5t-105.5 6.5q-177 0 -269 -66.5t-92 -204.5h80q0 110 71 156t210 46q91 0 143.5 -16t74.5 -47q11 -15 16.5 -33.5
t5.5 -40.5q0 -39 -22 -63t-57 -39q-18 -8 -36.5 -15l-37.5 -14q-40 -14 -78 -31t-62 -45q-12 -14 -18 -32.5t-6 -41.5v-29v-18t1 -13q2 2 15.5 3.5t23.5 1.5q11 0 23 -1.5t16 -3.5zM432 -14q33 0 52 16t19 50t-17.5 51t-53.5 17t-54 -17t-18 -51q0 -35 18 -50.5t54 -15.5z
" />
    <glyph glyph-name="questiondown" unicode="&#xbf;" horiz-adv-x="894" 
d="M468 286l-1 -48q0 -33 -20.5 -53.5t-53.5 -33.5q-16 -7 -33.5 -13.5t-35.5 -12.5q-42 -14 -82 -33.5t-66 -53.5q-13 -17 -19.5 -40.5t-6.5 -53.5q0 -61 31.5 -107t101.5 -72q35 -13 82 -19.5t105 -6.5q177 0 269 66.5t92 204.5h-80q0 -110 -71 -156t-210 -46
q-91 0 -143.5 16t-74.5 47q-11 15 -16.5 33.5t-5.5 40.5q0 39 22 63t57 39q18 8 36.5 15l37.5 14q41 14 78.5 31t61.5 45q12 14 18 32.5t6 41.5v29v18t-1 13q-2 -2 -15.5 -3.5t-23.5 -1.5t-22.5 1.5t-16.5 3.5zM502 475q-33 0 -52 -15.5t-19 -50.5q0 -34 18 -51t53 -17
q36 0 54 17t18 51q0 35 -18 50.5t-54 15.5z" />
    <glyph glyph-name="questiondown.cap" horiz-adv-x="894" 
d="M468 534l-1 -48q0 -33 -20.5 -53.5t-53.5 -33.5q-16 -7 -33.5 -13.5t-35.5 -12.5q-42 -14 -82 -33.5t-66 -53.5q-13 -17 -19.5 -40.5t-6.5 -53.5q0 -61 31.5 -107t101.5 -72q35 -13 82 -19.5t105 -6.5q177 0 269 66.5t92 204.5h-80q0 -110 -71 -156t-210 -46
q-91 0 -143.5 16t-74.5 47q-11 15 -16.5 33.5t-5.5 40.5q0 40 22 63.5t57 38.5q18 8 36.5 15l37.5 14q41 14 78.5 31t61.5 45q12 14 18 32.5t6 41.5v29v18t-1 13q-2 -2 -15.5 -3.5t-23.5 -1.5t-22.5 1.5t-16.5 3.5zM502 723q-33 0 -52 -15.5t-19 -50.5q0 -34 18 -51t53 -17
q36 0 54 17t18 51q0 35 -18 50.5t-54 15.5z" />
    <glyph glyph-name="uni203D" unicode="&#x203d;" horiz-adv-x="894" 
d="M468 180l1 47q1 37 24 58t59 35l76 26.5t76 32.5q35 19 57.5 52t22.5 86q0 95 -77 150t-247 55q-175 0 -266 -66.5t-91 -204.5h80q0 97 54 144.5t165 55.5v-84q0 -39 0.5 -88t1.5 -96q1 -24 1.5 -44t0.5 -37q2 -46 2.5 -78t1.5 -44q3 1 13.5 1h15.5q6 0 15.5 -0.5
t13.5 -0.5zM476 605v48q123 -2 175.5 -36.5t52.5 -102.5q0 -37 -17 -60.5t-44 -37.5q-27 -15 -59 -27t-61 -27q-15 -7 -28 -16.5t-24 -21.5q2 39 3 86.5t1 98.5q1 25 1 49v47zM441 -14q33 0 52 16t19 50t-17.5 51t-53.5 17t-54 -17t-18 -51q0 -35 18 -50.5t54 -15.5z" />
    <glyph glyph-name="uni2E18" unicode="&#x2e18;" horiz-adv-x="885" 
d="M451 475q-33 0 -52 -15.5t-19 -49.5t17.5 -51t52.5 -17q36 0 54 17t18 50q0 36 -18 51t-53 15zM432 -260q176 0 266 66.5t90 204.5h-79q0 -98 -54.5 -145.5t-165.5 -55.5v85q0 39 -0.5 87.5t-1.5 95.5q0 24 -0.5 44t-1.5 37q-1 47 -1.5 79t-1.5 43q-3 0 -13.5 -0.5
t-16.5 -0.5t-15 0.5t-13 0.5l-1 -46q-1 -37 -24 -58.5t-59 -34.5q-36 -14 -76.5 -27t-75.5 -32q-36 -19 -58.5 -51.5t-22.5 -86.5q0 -95 78 -150t247 -55zM187 -53q0 37 17 60.5t44 37.5q27 15 59 26.5t61 26.5q15 7 28 16.5t24 21.5q-1 -38 -2.5 -85.5t-1.5 -97.5
q-1 -25 -1 -49v-47v-49q-122 2 -175 37t-53 102z" />
    <glyph glyph-name="uni2E18.cap" horiz-adv-x="885" 
d="M451 722q-33 0 -52 -15.5t-19 -49.5t17.5 -51t52.5 -17q36 0 54 17t18 50q0 36 -18 51t-53 15zM432 -13q176 0 266 66.5t90 204.5h-79q0 -97 -54.5 -145t-165.5 -56v85q0 39 -0.5 87.5t-1.5 95.5q0 24 -0.5 44t-1.5 37q-1 47 -1.5 79t-1.5 43q-3 0 -13.5 -0.5t-16.5 -0.5
t-15 0.5t-13 0.5l-1 -46q-1 -37 -24 -58.5t-59 -34.5q-36 -14 -76.5 -27t-75.5 -32q-36 -19 -58.5 -51.5t-22.5 -86.5q0 -95 78 -150t247 -55zM187 194q0 38 17 61t44 37q27 15 59 26.5t61 26.5q15 7 28 16.5t24 21.5q-1 -38 -2.5 -85.5t-1.5 -97.5q-1 -25 -1 -49v-47v-49
q-122 2 -175 37t-53 102z" />
    <glyph glyph-name="quoteleft" unicode="&#x2018;" horiz-adv-x="343" 
d="M176 451q31 0 48 14.5t17 43.5t-14 41.5t-43 12.5q-9 0 -17 -2t-15 -6q2 41 22 69t64 52l-20 35q-57 -27 -85.5 -71.5t-28.5 -99.5q0 -46 17.5 -67.5t54.5 -21.5z" />
    <glyph glyph-name="quoteright" unicode="&#x2019;" horiz-adv-x="343" 
d="M130 457q57 27 85.5 71.5t28.5 99.5q0 47 -17 68t-55 21q-31 0 -48 -14.5t-17 -43.5t14 -41.5t43 -12.5q9 0 17 2t15 6q-2 -40 -22 -68.5t-64 -52.5z" />
    <glyph glyph-name="quotedblleft" unicode="&#x201c;" horiz-adv-x="577" 
d="M410 451q30 0 47 14.5t17 43.5t-13.5 41.5t-42.5 12.5q-9 0 -17 -2t-15 -6q2 41 22 69t63 52l-19 35q-58 -27 -86 -71.5t-28 -99.5q0 -46 17.5 -67.5t54.5 -21.5zM176 451q31 0 48 14.5t17 43.5t-14 41.5t-43 12.5q-9 0 -17 -2t-15 -6q2 41 22 69t64 52l-20 35
q-57 -27 -85.5 -71.5t-28.5 -99.5q0 -46 17.5 -67.5t54.5 -21.5z" />
    <glyph glyph-name="quotedblright" unicode="&#x201d;" horiz-adv-x="577" 
d="M129 457q57 27 85.5 71.5t28.5 99.5q0 47 -17 68t-55 21q-31 0 -48 -14.5t-17 -43.5t14 -41.5t43 -12.5q9 0 17 2t15 6q-2 -40 -22 -68.5t-64 -52.5zM362 457q58 27 86.5 71.5t28.5 99.5q0 47 -17.5 68t-54.5 21q-31 0 -48 -14.5t-17 -43.5t13.5 -41.5t43.5 -12.5
q9 0 16.5 2t14.5 5q-2 -40 -22 -68t-63 -52z" />
    <glyph glyph-name="quotesinglbase" unicode="&#x201a;" horiz-adv-x="355" 
d="M110 -150q65 20 101 66.5t36 104.5q0 43 -17 64.5t-52 21.5q-31 0 -48 -15t-17 -44q0 -31 14.5 -42t42.5 -11q6 0 11.5 1t10.5 3q-5 -39 -32 -69t-65 -42z" />
    <glyph glyph-name="quotedblbase" unicode="&#x201e;" horiz-adv-x="583" 
d="M127 -154q58 28 86.5 72t28.5 99q0 47 -17.5 68.5t-54.5 21.5q-31 0 -48 -14.5t-17 -43.5q0 -30 13.5 -42t43.5 -12q9 0 16.5 2t14.5 5q-2 -40 -22 -68.5t-63 -52.5zM361 -154q58 28 86 72t28 99q0 47 -17 68.5t-55 21.5q-30 0 -47 -14.5t-17 -43.5q0 -30 13.5 -42
t42.5 -12q9 0 17 2t15 5q-2 -40 -21.5 -68t-63.5 -53z" />
    <glyph glyph-name="uni201B" unicode="&#x201b;" horiz-adv-x="343" 
d="M232 491q-38 21 -58 49.5t-23 70.5q7 -3 14 -4.5t14 -1.5q28 0 42.5 13t14.5 43q0 28 -15.5 42t-47.5 14q-37 0 -55 -24t-18 -64q0 -57 27.5 -101t84.5 -71z" />
    <glyph glyph-name="uni201F" unicode="&#x201f;" horiz-adv-x="577" 
d="M463 491q-39 21 -58 49.5t-22 70.5q7 -3 14 -4.5t14 -1.5q28 0 43 13t15 43q0 28 -16 42t-48 14q-37 0 -55 -24t-18 -64q0 -57 27 -101t85 -71zM229 491q-38 21 -57.5 49.5t-21.5 70.5q6 -3 13 -4.5t14 -1.5q28 0 43 13t15 43q0 28 -15.5 42t-47.5 14q-37 0 -55 -24
t-18 -64q0 -57 26.5 -101t84.5 -71z" />
    <glyph glyph-name="guilsinglleft" unicode="&#x2039;" horiz-adv-x="486" 
d="M406 65l-235 239l223 240h-81l-221 -234v-19l228 -226h86z" />
    <glyph glyph-name="guilsinglright" unicode="&#x203a;" horiz-adv-x="486" 
d="M166 65l228 232v19l-218 228h-83l223 -236l-237 -243h87z" />
    <glyph glyph-name="guillemotleft" unicode="&#xab;" horiz-adv-x="792" 
d="M719 65l-241 243l223 236h-81l-221 -230v-18l234 -231h86zM406 65l-238 241l224 238h-80l-222 -233v-18l230 -228h86z" />
    <glyph glyph-name="guillemotright" unicode="&#xbb;" horiz-adv-x="792" 
d="M163 65l235 231v18l-221 230h-81l224 -235l-243 -244h86zM476 65l230 228v18l-221 233h-81l224 -237l-237 -242h85z" />
    <glyph glyph-name="guilsinglleft.cap" horiz-adv-x="496" 
d="M411 116l-235 238l223 241h-81l-221 -234v-19l228 -226h86z" />
    <glyph glyph-name="guilsinglright.cap" horiz-adv-x="496" 
d="M171 116l228 232v19l-218 228h-83l223 -236l-237 -243h87z" />
    <glyph glyph-name="guillemotleft.cap" horiz-adv-x="802" 
d="M724 116l-242 243l224 236h-81l-221 -230v-19l234 -230h86zM411 116l-237 241l223 238h-80l-222 -233v-18l230 -228h86z" />
    <glyph glyph-name="guillemotright.cap" horiz-adv-x="802" 
d="M168 116l235 230v19l-221 230h-81l224 -235l-243 -244h86zM481 116l230 228v18l-221 233h-81l224 -238l-237 -241h85z" />
    <glyph glyph-name="slash" unicode="/" horiz-adv-x="376" 
d="M106 0l254 708h-89l-253 -708h88z" />
    <glyph glyph-name="backslash" unicode="\" horiz-adv-x="376" 
d="M14 708l257 -708h87l-257 708h-87z" />
    <glyph glyph-name="bar" unicode="|" horiz-adv-x="322" 
d="M201 -142v905h-80v-905h80z" />
    <glyph glyph-name="uni2016" unicode="&#x2016;" horiz-adv-x="634" 
d="M512 -142v905h-79v-905h79zM201 -142v905h-80v-905h80z" />
    <glyph glyph-name="brokenbar" unicode="&#xa6;" horiz-adv-x="322" 
d="M121 392h80v371h-80v-371zM121 265v-407h80v407h-80z" />
    <glyph glyph-name="bullet" unicode="&#x2022;" horiz-adv-x="371" 
d="M185 208q41 0 61 20.5t20 60.5q0 44 -20.5 62.5t-60.5 18.5q-39 0 -60 -19t-21 -62t19 -62t62 -19z" />
    <glyph glyph-name="slash.cap" horiz-adv-x="376" 
d="M106 0l254 708h-89l-253 -708h88z" />
    <glyph glyph-name="backslash.cap" horiz-adv-x="376" 
d="M14 708l257 -708h87l-257 708h-87z" />
    <glyph glyph-name="bar.cap" horiz-adv-x="322" 
d="M201 -142v905h-80v-905h80z" />
    <glyph glyph-name="uni2016.cap" horiz-adv-x="634" 
d="M512 -142v905h-79v-905h79zM201 -142v905h-80v-905h80z" />
    <glyph glyph-name="brokenbar.cap" horiz-adv-x="322" 
d="M121 392h80v371h-80v-371zM201 265h-80v-407h80v407z" />
    <glyph glyph-name="bullet.cap" horiz-adv-x="371" 
d="M185 146q41 0 61 20.5t20 60.5q0 45 -20.5 63t-60.5 18q-39 0 -60 -19t-21 -62q0 -42 19 -61.5t62 -19.5z" />
    <glyph glyph-name="periodcentered" unicode="&#xb7;" horiz-adv-x="343" 
d="M171 258q34 0 52.5 15.5t18.5 49.5q0 35 -17.5 52t-52.5 17q-36 0 -54 -16.5t-18 -50.5q0 -36 18 -51.5t53 -15.5z" />
    <glyph glyph-name="hyphen" unicode="-" horiz-adv-x="746" 
d="M660 366h-572v-78h572v78z" />
    <glyph glyph-name="uni00AD" unicode="&#xad;" horiz-adv-x="746" 
d="M660 366h-572v-78h572v78z" />
    <glyph glyph-name="onethirdemdash" horiz-adv-x="572" 
d="M484 366h-396v-78h396v78z" />
    <glyph glyph-name="endash" unicode="&#x2013;" horiz-adv-x="672" 
d="M584 366h-496v-78h496v78z" />
    <glyph glyph-name="threequarteremdash" horiz-adv-x="805" 
d="M717 366h-629v-78h629v78z" />
    <glyph glyph-name="emdash" unicode="&#x2014;" horiz-adv-x="938" 
d="M851 366h-763v-78h763v78z" />
    <glyph glyph-name="figuredash" unicode="&#x2012;" horiz-adv-x="877" 
d="M789 366h-701v-78h701v78z" />
    <glyph glyph-name="uni2015" unicode="&#x2015;" horiz-adv-x="1352" 
d="M1264 366h-1176v-78h1176v78z" />
    <glyph glyph-name="periodcentered.cap" horiz-adv-x="343" 
d="M171 284q34 0 52.5 15.5t18.5 49.5q0 35 -17.5 52t-52.5 17q-36 0 -54 -17t-18 -51q0 -36 18 -51t53 -15z" />
    <glyph glyph-name="hyphen.cap" horiz-adv-x="746" 
d="M660 392h-572v-78h572v78z" />
    <glyph glyph-name="onethirdemdash.cap" horiz-adv-x="746" 
d="M660 392h-572v-78h572v78z" />
    <glyph glyph-name="endash.cap" horiz-adv-x="572" 
d="M484 392h-396v-78h396v78z" />
    <glyph glyph-name="threequarteremdash.cap" horiz-adv-x="672" 
d="M584 392h-496v-78h496v78z" />
    <glyph glyph-name="emdash.cap" horiz-adv-x="805" 
d="M717 392h-629v-78h629v78z" />
    <glyph glyph-name="figuredash.cap" horiz-adv-x="938" 
d="M851 392h-763v-78h763v78z" />
    <glyph glyph-name="uni2015.cap" horiz-adv-x="877" 
d="M789 392h-701v-78h701v78z" />
    <glyph glyph-name="periodcentered.smcp" horiz-adv-x="1352" 
d="M1264 392h-1176v-78h1176v78z" />
    <glyph glyph-name="parenleft" unicode="(" horiz-adv-x="548" 
d="M481 -218v77q-61 9 -115 35.5t-95 74.5q-42 48 -65 121t-23 175q0 104 23 177.5t63 122.5q41 48 95 75.5t117 39.5v76q-79 -13 -148 -46.5t-121 -91.5t-81.5 -145t-29.5 -207q0 -124 29 -211.5t82 -143.5q52 -57 121 -87.5t148 -41.5z" />
    <glyph glyph-name="parenright" unicode=")" horiz-adv-x="548" 
d="M67 -218q80 11 149 42t121 87q52 57 81.5 144.5t29.5 210.5q0 120 -29.5 207t-82.5 145q-52 58 -121 91.5t-148 46.5v-76q63 -12 117 -39.5t95 -75.5q41 -49 64 -122.5t23 -177.5q0 -103 -23.5 -176t-64.5 -120q-41 -48 -95 -74.5t-116 -35.5v-77z" />
    <glyph glyph-name="bracketleft" unicode="[" horiz-adv-x="511" 
d="M444 -149h-233v837h233v66h-312v-970h312v67z" />
    <glyph glyph-name="bracketright" unicode="]" horiz-adv-x="511" 
d="M380 -216v968h-312v-65h232v-836h-232v-67h312z" />
    <glyph glyph-name="braceleft" unicode="{" horiz-adv-x="522" 
d="M456 -215v66h-102q-72 0 -99 25.5t-27 64.5q0 17 10 47.5t24 65.5q13 35 23 69t10 58q0 41 -32 72.5t-110 31.5q74 0 104.5 26t30.5 75q0 24 -8 53.5t-19 58.5q-11 30 -19 55t-8 40q0 45 26.5 70t99.5 25h96v65h-128q-98 0 -137 -39t-39 -102q0 -21 8.5 -49.5t19.5 -59.5
l18.5 -59t8.5 -49q0 -34 -19.5 -54.5t-67.5 -20.5h-91v-70h93q45 0 69.5 -21t24.5 -57q0 -20 -11 -52.5t-25 -69.5q-15 -36 -26 -69.5t-11 -55.5q0 -41 15.5 -72.5t53.5 -49.5q19 -9 46 -13.5t61 -4.5h137z" />
    <glyph glyph-name="braceright" unicode="}" horiz-adv-x="522" 
d="M201 -215q69 0 107 18t54 49q7 16 11 34t4 39q0 22 -10.5 55.5t-23.5 69.5q-14 37 -24.5 70t-10.5 53q0 35 24.5 56t69.5 21h91v70h-95q-47 0 -67 20.5t-20 55.5q0 20 9 48.5t22 58.5q12 31 21 59.5t9 49.5q0 62 -39 101.5t-137 39.5h-129v-65h96q74 0 99.5 -24.5
t25.5 -67.5q0 -17 -8 -42.5t-18 -54.5q-11 -30 -19 -59t-8 -53q0 -49 30 -76t105 -27q-79 -1 -110 -31t-31 -71q0 -24 10 -58t23 -69l23 -65.5t10 -45.5q0 -41 -27.5 -67t-99.5 -26h-101v-66h134z" />
    <glyph glyph-name="uni3008" unicode="&#x3008;" horiz-adv-x="516" 
d="M464 -211l-299 487l293 487h-87l-296 -489l298 -485h91z" />
    <glyph glyph-name="uni3009" unicode="&#x3009;" horiz-adv-x="516" 
d="M143 -211l298 485l-296 489h-87l294 -487l-300 -487h91z" />
    <glyph glyph-name="parenleft.cap" horiz-adv-x="548" 
d="M481 -161v77q-61 9 -115 35.5t-95 74.5q-42 48 -65 121t-23 175q0 104 23 177.5t63 122.5q41 48 95 75.5t117 39.5v76q-79 -13 -148 -46t-121 -92q-52 -58 -81.5 -145t-29.5 -207q0 -124 29 -211.5t82 -143.5q52 -56 121 -87t148 -42z" />
    <glyph glyph-name="parenright.cap" horiz-adv-x="548" 
d="M67 -161q80 11 149 42t121 88q52 56 81.5 143.5t29.5 210.5q0 120 -29.5 207t-82.5 145q-52 59 -121 92t-148 46v-76q63 -12 117 -39.5t95 -75.5q41 -49 64 -122.5t23 -177.5q0 -103 -23.5 -176t-64.5 -120q-41 -48 -95 -74.5t-116 -35.5v-77z" />
    <glyph glyph-name="bracketleft.cap" horiz-adv-x="511" 
d="M444 -92h-233v837h233v67h-312v-970h312v66z" />
    <glyph glyph-name="bracketright.cap" horiz-adv-x="511" 
d="M380 -158v968h-312v-65h232v-837h-232v-66h312z" />
    <glyph glyph-name="braceleft.cap" horiz-adv-x="522" 
d="M456 -158v66h-102q-72 0 -99 26t-27 65q0 17 10 47.5t24 65.5q13 35 23 69t10 58q0 41 -32 72t-110 31v1q74 -1 104.5 25t30.5 75q0 24 -8 53.5t-19 58.5q-11 30 -19 55t-8 40q0 45 26.5 70t99.5 25h96v66h-128q-98 0 -137 -39.5t-39 -101.5q0 -21 8.5 -50t19.5 -60
q10 -30 18.5 -58.5t8.5 -48.5q0 -35 -19.5 -55.5t-67.5 -20.5h-91v-70h93q45 0 69.5 -21t24.5 -57q0 -20 -11 -52.5t-25 -69.5q-15 -36 -26 -69.5t-11 -55.5q0 -41 15.5 -72.5t53.5 -49.5q19 -9 46 -13.5t61 -4.5h137z" />
    <glyph glyph-name="braceright.cap" horiz-adv-x="522" 
d="M201 -158q69 0 107 18t54 49q7 16 11 34t4 39q0 22 -10.5 55.5t-23.5 70.5q-14 37 -24.5 69.5t-10.5 52.5q0 35 24.5 56t69.5 21h91v70h-95q-47 0 -67 20.5t-20 56.5q0 20 9 48t22 59q12 30 21 58.5t9 49.5q0 63 -39 102.5t-137 39.5h-129v-66h96q74 0 99.5 -24.5
t25.5 -67.5q0 -17 -8 -42.5t-18 -54.5q-11 -30 -19 -59t-8 -53q0 -45 26.5 -72t90.5 -31q-68 -4 -95.5 -33t-27.5 -68q0 -25 10 -59t23 -69t23 -64.5t10 -45.5q0 -41 -27.5 -67.5t-99.5 -26.5h-101v-66h134z" />
    <glyph glyph-name="anglebracketleft.cap" horiz-adv-x="516" 
d="M464 -154l-299 488l293 486h-87l-296 -488l298 -486h91z" />
    <glyph glyph-name="anglebracketright.cap" horiz-adv-x="516" 
d="M143 -154l298 486l-296 488h-87l294 -486l-300 -488h91z" />
    <glyph glyph-name="asterisk" unicode="*" horiz-adv-x="520" 
d="M413 423l33 56l-161 71l161 67l-33 57l-141 -104l22 174h-66l20 -172l-140 102l-32 -57l158 -68l-159 -68l33 -57l139 103l-19 -172h66l-21 173z" />
    <glyph glyph-name="dagger" unicode="&#x2020;" horiz-adv-x="712" 
d="M632 474v74h-237v186h-79v-186h-236v-74h236v-495h79v495h237z" />
    <glyph glyph-name="daggerdbl" unicode="&#x2021;" horiz-adv-x="712" 
d="M632 161v74h-237v238h237v75h-237v186h-80v-186h-235v-75h235v-238h-235v-74h235v-182h80v182h237z" />
    <glyph glyph-name="section" unicode="&#xa7;" horiz-adv-x="951" 
d="M481 245l-121 15.5t-106 21.5q-47 13 -75 35t-28 58q0 31 20.5 56.5t65.5 41.5q45 -20 104.5 -30t120.5 -17l115.5 -13.5t101.5 -18.5q45 -11 71.5 -31.5t26.5 -55.5q0 -28 -20.5 -56t-65.5 -47q-45 16 -99.5 25t-110.5 16zM486 -116q116 0 187.5 26.5t103.5 69.5
q17 22 25 45t8 47q0 42 -23 70t-62 47q62 17 95.5 47.5t33.5 75.5q0 46 -26.5 76t-71.5 48q-45 17 -101.5 27.5t-115.5 17.5l-115 13.5t-101 18.5q-45 11 -71.5 31t-26.5 53q0 34 22 62t70 44q24 9 56 13t71 4q113 0 183.5 -34.5t96.5 -111.5h84q-33 109 -124 158t-240 49
q-148 0 -223 -53.5t-75 -134.5q0 -37 17.5 -63t46.5 -43q-68 -16 -102 -47t-34 -78t28 -77.5t75 -49.5q47 -18 106 -29t120 -18q62 -7 120.5 -14.5t105.5 -18.5q47 -12 75 -31.5t28 -52.5q0 -29 -22.5 -57t-75.5 -46q-26 -9 -62.5 -13.5t-82.5 -4.5q-69 0 -129.5 13
t-102.5 47q-21 18 -35 43t-21 57h-87q16 -84 67.5 -133.5t130.5 -71.5q39 -10 82.5 -15.5t91.5 -5.5z" />
    <glyph glyph-name="paragraph" unicode="&#xb6;" horiz-adv-x="848" 
d="M527 0v641h133v-641h75v708h-340q-121 0 -196.5 -32.5t-110.5 -90.5q-18 -29 -26.5 -63.5t-8.5 -73.5q0 -124 80 -189.5t250 -64.5h69v-194h75zM385 261q-133 -1 -194.5 45.5t-61.5 143.5q0 91 61 141t204 50h58v-380h-67z" />
    <glyph glyph-name="asciicircum" unicode="^" horiz-adv-x="630" 
d="M441 429h76l-172 279h-65l-170 -279h77l126 214z" />
    <glyph glyph-name="asciitilde" unicode="~" horiz-adv-x="631" 
d="M64 437h60q0 44 19 68.5t56 24.5q30 0 55.5 -14.5t50.5 -33.5t54.5 -33.5t68.5 -14.5q70 0 100.5 43t30.5 113h-59q-1 -46 -18.5 -71.5t-52.5 -25.5q-31 0 -56.5 15t-50.5 34t-54.5 34t-68.5 15q-69 0 -102 -43.5t-33 -110.5z" />
    <glyph glyph-name="underscore" horiz-adv-x="816" 
d="M768 79h-719v-79h719v79z" />
    <glyph glyph-name="uni005F" unicode="_" horiz-adv-x="816" 
d="M768 -91h-719v-79h719v79z" />
    <glyph glyph-name="quotesingle" unicode="'" horiz-adv-x="202" 
d="M73 467h57q2 11 4.5 39t4.5 64q1 18 1.5 35.5t0.5 34.5v68h-80v-68q0 -34 2 -69.5t4 -63.5l3.5 -24t2.5 -16z" />
    <glyph glyph-name="quotedbl" unicode="&#x22;" horiz-adv-x="373" 
d="M246 467h55q2 11 4.5 37.5t4.5 61.5q1 17 1.5 34t0.5 34v74h-79v-74q0 -34 2 -68.5t5 -60.5q2 -14 3.5 -23zM73 467h56q3 11 5.5 37.5t4.5 61.5q1 17 1.5 34t0.5 34v74h-80v-74q0 -34 2 -68.5t5 -60.5q1 -14 2.5 -23z" />
    <glyph glyph-name="uni2034" unicode="&#x2034;" horiz-adv-x="545" 
d="M407 708v-67q0 -30 1.5 -66.5t4.5 -66.5q1 -15 2.5 -25t2.5 -16h53q3 11 5 40.5t4 66.5q0 18 0.5 35t0.5 32v67h-74zM235 708v-67q0 -30 1.5 -66.5t4.5 -66.5q1 -15 2.5 -25t2.5 -16h53q3 11 5.5 40.5t3.5 66.5q1 18 1.5 35t0.5 32v67h-75zM64 708v-67q0 -30 1.5 -66.5
t4.5 -66.5q1 -15 2.5 -25t2.5 -16h52q3 11 5.5 40.5t3.5 66.5q1 18 1.5 35t0.5 32v67h-74z" />
    <glyph glyph-name="at" unicode="@" horiz-adv-x="1068" 
d="M541 -108q107 0 195.5 32.5t145.5 92.5l-57 36q-48 -49 -119.5 -75.5t-164.5 -26.5q-117 0 -207 39t-140 115q-26 38 -38.5 84t-12.5 101q0 109 50.5 191.5t142.5 128.5q46 24 99.5 35.5t114.5 11.5q101 0 172 -24.5t116 -66.5q44 -42 65 -96t21 -113q0 -67 -26 -109
t-85 -42q-44 0 -64 21.5t-20 68.5v172h-46l-9 -71q-20 35 -61 55.5t-100 20.5q-100 0 -148.5 -48t-48.5 -122q0 -72 45.5 -118t142.5 -46q66 0 110.5 23.5t63.5 63.5q12 -39 45.5 -59t88.5 -20q52 0 91.5 25.5t62.5 72.5q12 23 17.5 51.5t5.5 60.5q0 69 -26 133.5t-80 115.5
t-137 81t-196 30q-105 0 -191.5 -31.5t-148.5 -88.5q-63 -58 -97 -136t-34 -171q0 -103 36 -178t100 -124q63 -49 147 -72.5t179 -23.5zM516 199q-68 0 -101.5 27.5t-33.5 76.5q0 54 35.5 83t107.5 29q65 0 104.5 -26.5t39.5 -82.5q0 -50 -40.5 -78.5t-111.5 -28.5z" />
    <glyph glyph-name="at.cap" horiz-adv-x="1068" 
d="M541 -64q107 0 195.5 32.5t145.5 92.5l-57 36q-48 -49 -119.5 -75.5t-164.5 -26.5q-117 0 -207 39t-140 115q-26 38 -38.5 84t-12.5 101q0 109 50.5 191.5t142.5 128.5q46 24 99.5 35.5t114.5 11.5q101 0 172 -24.5t116 -66.5q44 -42 65 -96t21 -113q0 -67 -26 -109
t-85 -42q-44 0 -64 21.5t-20 68.5v172h-46l-9 -71q-20 35 -61 55.5t-100 20.5q-100 0 -148.5 -48t-48.5 -122q0 -72 45.5 -118t142.5 -46q66 0 110.5 23.5t63.5 63.5q12 -39 45.5 -59t88.5 -20q52 0 91.5 25.5t62.5 72.5q12 23 17.5 51.5t5.5 60.5q0 69 -26 133.5t-80 115.5
t-137 81t-196 30q-105 0 -191.5 -31.5t-148.5 -88.5q-63 -58 -97 -136t-34 -171q0 -103 36 -178t100 -124q63 -49 147 -72.5t179 -23.5zM516 243q-68 0 -101.5 27.5t-33.5 76.5q0 54 35.5 83t107.5 29q65 0 104.5 -26.5t39.5 -82.5q0 -50 -40.5 -78.5t-111.5 -28.5z" />
    <glyph glyph-name="copyright" unicode="&#xa9;" horiz-adv-x="1029" 
d="M516 -19q97 0 180 21.5t145 66.5t96.5 114.5t34.5 165.5q0 93 -35.5 164t-98.5 119q-64 48 -146.5 72t-177.5 24q-98 0 -181 -25.5t-145 -74.5t-96.5 -119.5t-34.5 -159.5q0 -129 59.5 -210.5t162.5 -119.5q52 -19 111.5 -28.5t125.5 -9.5zM516 40q-117 0 -206.5 32.5
t-139.5 100.5q-25 34 -37.5 78t-12.5 98q0 105 50.5 176.5t139.5 108.5q45 19 96 28t108 9q113 0 202.5 -35.5t140.5 -106.5q26 -36 39 -81t13 -99q0 -108 -51 -176t-140 -101q-44 -16 -94.5 -24t-107.5 -8zM747 328h-63q-7 -42 -47.5 -63t-121.5 -21q-79 0 -123 27.5
t-44 82.5q0 57 48.5 85.5t121.5 28.5q76 0 115.5 -20t49.5 -61h62q-13 68 -71 101.5t-156 33.5q-65 0 -117 -19.5t-82 -57.5q-15 -19 -22.5 -42t-7.5 -50q0 -78 57.5 -120.5t167.5 -42.5q108 0 164.5 35.5t68.5 102.5z" />
    <glyph glyph-name="registered" unicode="&#xae;" horiz-adv-x="585" 
d="M293 286q60 0 109 25t79 73q14 23 21.5 52t7.5 62v7q0 67 -29.5 115.5t-78.5 74.5q-25 13 -52.5 19.5t-58.5 6.5q-60 0 -109 -27t-78 -75q-15 -25 -22 -53.5t-7 -61.5v-6q0 -68 28.5 -115.5t77.5 -71.5q25 -13 53 -19t59 -6zM293 324q-79 0 -128.5 45t-49.5 130v3
q0 83 49 132.5t127 49.5t128.5 -47.5t50.5 -133.5v-3q0 -85 -49.5 -130.5t-127.5 -45.5zM295 509h-46v74h49q26 0 38 -7t12 -26q0 -20 -12 -31t-41 -10zM296 476q30 0 37.5 -8.5t7.5 -29.5v-26q0 -5 1.5 -8.5t3.5 -5.5h41q-3 2 -5 6t-2 9v25q0 26 -9 38.5t-30 16.5
q23 6 34 21t11 38q0 28 -19.5 46t-66.5 18h-89v-218h38v78h47z" />
    <glyph glyph-name="registered.cap" horiz-adv-x="1029" 
d="M516 -19q97 0 180 21.5t145 66.5t96.5 114.5t34.5 165.5q0 93 -35.5 164t-98.5 119q-64 48 -146.5 72t-177.5 24q-98 0 -181 -25.5t-145 -74.5t-96.5 -119.5t-34.5 -159.5q0 -129 59.5 -210.5t162.5 -119.5q52 -19 111.5 -28.5t125.5 -9.5zM516 39q-117 0 -206.5 32.5
t-140.5 101.5q-25 34 -37.5 78t-12.5 98q0 105 51 176.5t140 108.5q44 19 95.5 28t108.5 9q113 0 202.5 -35.5t141.5 -106.5q26 -36 39 -81t13 -99q0 -108 -51 -176.5t-140 -100.5q-45 -17 -95.5 -25t-107.5 -8zM552 465q56 0 79.5 -12t23.5 -41q0 -31 -24.5 -45t-83.5 -14
h-147v112h152zM544 305q38 0 59.5 -3.5t29.5 -17.5q5 -7 7 -18t2 -27v-35q0 -4 1 -6.5t3 -3.5h60q-3 2 -4.5 4t-1.5 5v35q0 46 -15.5 65.5t-53.5 24.5q41 8 61.5 28.5t20.5 56.5q0 50 -39 75t-122 25h-207v-319h55v111h144z" />
    <glyph glyph-name="uni2117" unicode="&#x2117;" horiz-adv-x="1029" 
d="M516 -19q97 0 180 21.5t145 66.5t96.5 114.5t34.5 165.5q0 93 -35.5 164t-98.5 119q-64 48 -146.5 72t-177.5 24q-98 0 -181 -25.5t-145 -74.5t-96.5 -119.5t-34.5 -159.5q0 -129 59.5 -210.5t162.5 -119.5q52 -19 111.5 -28.5t125.5 -9.5zM516 39q-117 0 -206.5 32.5
t-140.5 101.5q-25 34 -37.5 78t-12.5 98q0 105 51 176.5t140 108.5q44 19 95.5 28t108.5 9q113 0 202.5 -35.5t141.5 -106.5q26 -36 39 -81t13 -99q0 -108 -51 -176.5t-140 -100.5q-45 -17 -95.5 -25t-107.5 -8zM576 463q55 0 75.5 -16.5t20.5 -43.5q0 -30 -21 -47.5
t-78 -17.5h-152v125h155zM576 290q83 0 118 32.5t35 80.5t-36 78.5t-117 30.5h-211v-315h56v93h155z" />
    <glyph glyph-name="trademark" unicode="&#x2122;" horiz-adv-x="816" 
d="M298 659v49h-282v-49h113v-255h53v255h116zM558 516h14l123 124v-236h51v304h-46l-135 -137l-134 137h-47v-304h51v237z" />
    <glyph glyph-name="uni2120" unicode="&#x2120;" horiz-adv-x="861" 
d="M599 516h15l123 125v-237h51v304h-46l-135 -137l-135 137h-47v-304h52v236zM185 393q71 0 107 26.5t36 69.5q-1 50 -34.5 69t-98.5 22q-64 3 -88 12t-24 37q0 22 20.5 35.5t65.5 13.5q50 0 74 -17t30 -45h53q-11 50 -47.5 77.5t-107.5 27.5q-70 0 -104 -28t-34 -66
q0 -47 33.5 -66.5t94.5 -22.5q57 -3 88 -9.5t31 -42.5q0 -22 -22 -36.5t-72 -14.5q-53 0 -80 18.5t-32 54.5h-53q7 -56 44.5 -85.5t119.5 -29.5z" />
    <glyph glyph-name="Euro" unicode="&#x20ac;" horiz-adv-x="968" 
d="M931 227h-89q-16 -46 -54.5 -85.5t-101.5 -63.5q-31 -12 -69 -18t-82 -6q-118 0 -197 39.5t-115 113.5h330l28 58h-378q-4 19 -6 38.5t-2 41.5v1q0 24 3 46.5t8 43.5h434l27 57h-439q39 77 120 117.5t193 40.5q117 0 191 -42.5t99 -119.5h93q-20 76 -75 128t-135 79
q-39 13 -82.5 20t-90.5 7q-96 0 -175.5 -27.5t-137.5 -78.5q-29 -26 -50.5 -57t-36.5 -67h-142v-57h124q-5 -21 -7.5 -43.5t-2.5 -46.5v-2q0 -21 1.5 -40.5t4.5 -38.5h-120v-58h135q38 -111 140.5 -168.5t256.5 -57.5q113 0 195 31.5t133 87.5q26 28 44 59.5t28 67.5z" />
    <glyph glyph-name="dollar" unicode="$" horiz-adv-x="868" 
d="M480 -119v99q121 2 193.5 30.5t105.5 76.5q16 24 24 51t8 57q0 71 -39 111t-119 59q-40 9 -90.5 15.5t-112.5 10.5q-105 7 -169.5 20t-94.5 38q-14 13 -21.5 29.5t-7.5 36.5q0 66 58 102.5t198 36.5q134 0 213.5 -40.5t92.5 -126.5h82q-16 102 -97.5 162t-224.5 71v111
h-76v-109q-115 -1 -186.5 -28.5t-105.5 -73.5q-16 -23 -24.5 -49.5t-8.5 -56.5q0 -66 39 -105t115 -58q38 -10 84.5 -16.5t102.5 -10.5q111 -7 180 -18.5t101 -37.5q16 -13 24 -32.5t8 -45.5q0 -40 -24.5 -71.5t-83.5 -49.5q-30 -9 -71.5 -13.5t-94.5 -4.5
q-154 0 -235.5 46.5t-96.5 152.5h-86q16 -125 102 -192.5t261 -76.5v-100h77z" />
    <glyph glyph-name="cent" unicode="&#xa2;" horiz-adv-x="862" 
d="M803 234h-82q-27 -99 -98.5 -141.5t-181.5 -42.5q-147 0 -225 57.5t-78 176.5q0 83 39.5 136t108.5 78q34 13 72.5 19.5t81.5 6.5q108 0 183.5 -45t96.5 -141h82q-14 82 -60 136.5t-114 83.5q-35 14 -73 22.5t-80 10.5v138h-78v-138q-98 -7 -175 -44t-121 -104
q-22 -33 -33 -73t-11 -87q0 -137 85.5 -214t254.5 -86v-147h77v147q82 4 150.5 31t115.5 81q23 27 39 62t24 77z" />
    <glyph glyph-name="sterling" unicode="&#xa3;" horiz-adv-x="892" 
d="M648 -12q105 0 153 49t48 164v26h-80v-18q0 -88 -31.5 -122t-107.5 -34q-43 0 -84.5 14.5t-82.5 35.5l-40.5 22l-41.5 22q2 8 2.5 16t0.5 16q0 48 -16.5 85.5t-40.5 73.5h207v61h-241q-23 31 -38 63.5t-15 71.5q0 62 49 103t146 41q96 0 151.5 -40.5t69.5 -107.5h85
q-22 101 -99.5 158.5t-208.5 57.5q-88 0 -149.5 -26.5t-92.5 -73.5q-16 -23 -24 -49t-8 -56q0 -46 17 -80.5t39 -61.5h-149v-61h187q30 -39 51 -76.5t21 -85.5v-1q-36 17 -73.5 28t-77.5 11q-69 0 -105 -33t-36 -80q0 -49 33.5 -81t118.5 -32q65 0 111.5 31t68.5 77
l89.5 -50t93.5 -41q24 -9 49 -13t51 -4zM186 37q-47 0 -69 19.5t-22 44.5q0 27 21 45.5t61 18.5q34 0 69 -12t71 -31q-13 -39 -47 -62t-84 -23z" />
    <glyph glyph-name="uni0192" unicode="&#x192;" horiz-adv-x="728" 
d="M400 104v173h242v69h-242v153q0 77 13 115.5t48 51.5q17 7 43 10t59 3h74v64h-81q-87 0 -137.5 -19.5t-71.5 -71.5q-11 -25 -16.5 -61.5t-5.5 -84.5v-160h-220v-69h220v-172q0 -59 -7 -95t-26 -54q-18 -19 -51 -25t-84 -6h-76v-66h81q72 0 118.5 10t72.5 36t36.5 74
t10.5 125z" />
    <glyph glyph-name="yen" unicode="&#xa5;" horiz-adv-x="828" 
d="M693 147v61h-248v115h249v62h-249l356 323h-104l-290 -264l-270 264h-104l330 -321v-2h-226v-62h226v-115h-227v-61h227v-147h82v147h248z" />
    <glyph glyph-name="uni20A1" unicode="&#x20a1;" horiz-adv-x="946" 
d="M431 57q-40 4 -75 13t-64 23l219 558q41 -1 77 -8t67 -19zM149 345v1q0 137 82.5 215t222.5 88l-208 -527q-48 37 -72.5 93t-24.5 130zM366 -113h57l36 94h27q122 0 207 36t135 99q25 32 41.5 68t24.5 77h-83q-13 -57 -51.5 -104t-105.5 -75q-34 -14 -75 -21t-90 -7h-2
l215 547q41 -25 67 -61t38 -82h82q-16 73 -57 126t-103 86l59 148h-56l-51 -126q-32 12 -68 19.5t-75 10.5l36 96h-56l-36 -95q-121 -2 -214.5 -49t-146.5 -131q-27 -42 -40 -91t-13 -106v-2q0 -103 38.5 -177.5t110.5 -119.5l-67 -160h58l56 135q30 -13 64.5 -22t74.5 -14z
" />
    <glyph glyph-name="uni20A2" unicode="&#x20a2;" horiz-adv-x="941" 
d="M891 245h-84q-15 -51 -53.5 -94t-101.5 -69q-31 -13 -69.5 -20t-84.5 -8v95q0 59 16 98t54 58q20 9 46.5 14t60.5 5h49v72h-42q-72 0 -119 -26t-68 -78l-7 102h-62v-337q-135 14 -206 88.5t-71 199.5v1q0 98 43 166t121 103q39 18 84.5 27t98.5 9q122 0 200.5 -45.5
t103.5 -130.5h85q-20 82 -75 137t-136 83q-41 14 -85.5 21t-93.5 7q-125 0 -221.5 -46t-150.5 -131q-28 -42 -41.5 -92t-13.5 -108v-2q0 -118 50 -199t144 -122q47 -21 103 -31.5t121 -10.5q118 0 202 34t134 93q26 30 43 64.5t26 72.5z" />
    <glyph glyph-name="franc" unicode="&#x20a3;" horiz-adv-x="790" 
d="M659 176v71h-469v143h469v72h-469v174h557v72h-635v-708h78v176h469z" />
    <glyph glyph-name="lira" unicode="&#x20a4;" horiz-adv-x="892" 
d="M648 -12q104 0 152.5 49t48.5 164v26h-78v-18q0 -88 -32.5 -122t-108.5 -34q-70 0 -130.5 29t-118.5 61q2 9 3 18.5t1 19.5q0 32 -8 58.5t-22 51.5h197v44h-224l-33 47.5t-30 47.5h287v44h-306q-4 13 -6 25t-2 24q0 75 49 115.5t142 40.5q96 0 149 -40t67 -107l85 1
q-22 100 -98.5 156.5t-204.5 56.5q-85 0 -145.5 -27.5t-92.5 -76.5q-16 -24 -24 -52.5t-8 -60.5q0 -14 2 -27.5t6 -27.5h-105v-44h124q14 -25 32.5 -48.5l36.5 -46.5h-193v-44h228q19 -26 31.5 -54t12.5 -60v-7q-37 19 -76 31.5t-82 12.5q-70 0 -105 -32.5t-35 -79.5
q0 -49 33 -81.5t118 -32.5q64 0 110 30t68 75l86 -48.5t94 -40.5q24 -8 50.5 -12t54.5 -4zM186 37q-47 0 -68.5 20t-21.5 45q0 26 20 44.5t61 18.5q36 0 71.5 -13.5t71.5 -33.5q-16 -37 -51 -59t-83 -22z" />
    <glyph glyph-name="uni20A6" unicode="&#x20a6;" horiz-adv-x="982" 
d="M204 639l4 -7l109 -123h-113v130zM540 257h-336v196h162zM779 257h-154l-174 196h328v-196zM767 0h86v201h136v56h-136v196h136v56h-136v199h-74v-199h-378l-176 199h-94v-199h-138v-56h138v-196h-138v-56h138v-201h73v201h385zM777 85l-103 116h105v-120z" />
    <glyph glyph-name="peseta" unicode="&#x20a7;" horiz-adv-x="2065" 
d="M430 639q92 0 151 -13.5t87 -47.5q15 -17 22 -41t7 -55q0 -62 -29 -97t-86 -48q-28 -7 -63.5 -10.5t-78.5 -3.5h-249v316h239zM443 254q159 -1 242.5 49t89.5 159h187v-203q0 -98 25 -155t80 -80q28 -12 64.5 -18t82.5 -6h463q117 0 188.5 21.5t103.5 58.5q16 19 24 40
t8 45q0 56 -32.5 90t-104.5 50q-36 8 -83 12.5t-105 5.5q-100 3 -157.5 12t-81.5 29q-12 10 -18 24t-6 31q0 46 50 78.5t167 32.5q110 0 182 -30.5t97 -105.5h84q-34 104 -125 151t-239 47q-97 0 -162.5 -23.5t-98.5 -63.5q-17 -20 -25 -42.5t-8 -47.5q0 -55 32 -88t102 -49
q35 -8 80.5 -12.5t102.5 -6.5q102 -2 161 -10t85 -28q12 -9 18.5 -22.5t6.5 -31.5q0 -26 -22.5 -47.5t-75.5 -34.5q-27 -6 -63.5 -9t-82.5 -3h-450q-72 0 -114 15t-61 58q-9 21 -13.5 52t-4.5 72v192h235v67h-235v202h-64q0 -20 -0.5 -49.5t-1.5 -57.5q-1 -14 -2 -25t-2 -19
q-2 -21 -7 -32t-18 -15q-6 -2 -16 -3t-23 -2q-4 0 -28 -0.5t-53 -1.5h-26h-22q-14 97 -97 139.5t-246 42.5h-318v-708h79v254h252z" />
    <glyph glyph-name="uni20A8" unicode="&#x20a8;" horiz-adv-x="1652" 
d="M1302 -18q111 0 177.5 26t96.5 68q15 21 22.5 43t7.5 46q0 48 -25 77t-67 44q-42 16 -94 22.5t-108 9.5l-108 6t-94 12t-67 28.5t-25 54.5q0 46 50 78.5t167 32.5q110 0 182 -30.5t97 -105.5h84q-34 104 -125 151t-239 47q-97 0 -162.5 -23.5t-98.5 -63.5
q-16 -20 -24.5 -42.5t-8.5 -47.5q0 -49 25 -79t67 -46t94 -23.5t108 -10.5q56 -2 108 -5.5t94 -11.5t67 -25.5t25 -50.5q0 -28 -19.5 -54.5t-67.5 -44.5q-25 -8 -58.5 -12.5t-77.5 -4.5q-67 0 -128.5 10.5t-124.5 35.5q-32 12 -65 29t-68 39l-40 23q-61 37 -106 61t-82 38
q-18 7 -37 12t-38 8q104 14 156 59t52 136q0 110 -78 160t-256 50h-378v-708h79v274h265q53 0 94 -7t81 -23q41 -16 91 -44.5l121 -72.5l39 -23q66 -42 127 -69t131 -40q35 -6 75.5 -9.5t86.5 -3.5zM485 343h-294v295h298q133 0 194 -31t61 -112v-5q0 -60 -32.5 -92
t-90.5 -44q-29 -6 -63 -8.5t-73 -2.5z" />
    <glyph glyph-name="uni20A9" unicode="&#x20a9;" horiz-adv-x="1396" 
d="M739 499h-115l61 124zM458 304h-178l-45 142h293zM826 304h-299l70 142h166zM1083 304h-188l-63 142h307zM349 84l-52 167h135zM960 0h73l100 251h231v53h-210l57 142h153v53h-132l83 209h-74l-82 -209h-351l-92 209h-58l-103 -209h-336l-66 209h-74l66 -209h-121v-53
h138l45 -142h-183v-53h200l79 -251h73l125 251h348zM995 78l-77 173h145z" />
    <glyph glyph-name="uni20AA" unicode="&#x20aa;" horiz-adv-x="981" 
d="M362 640q71 0 113.5 -20.5t63.5 -57.5q22 -38 29 -88.5t7 -110.5v-125q49 0 62.5 20t13.5 63v70q0 70 -13 128t-44 101q-32 42 -88 65t-143 23h-259v-708h76v640h182zM618 0q99 0 157 41.5t83 117.5q12 38 18.5 82.5t6.5 96.5v380h-76v-375q0 -87 -17.5 -147.5
t-59.5 -92.5q-21 -15 -49.5 -23t-64.5 -8h-202v295q0 42 -5.5 65t-21.5 32q-8 4 -20.5 6.5t-28.5 2.5v-473h280z" />
    <glyph glyph-name="uni20AE" unicode="&#x20ae;" horiz-adv-x="773" 
d="M616 278v57l-197 -72v155l197 71v57l-197 -72v163h313v71h-691v-71h297v-192l-191 -70v-56l191 69v-154l-191 -70v-57l191 70v-177h81v206z" />
    <glyph glyph-name="uni20B1" unicode="&#x20b1;" horiz-adv-x="917" 
d="M434 641q94 0 153.5 -24.5t87.5 -70.5h-431v95h190zM704 432q0 -16 -1.5 -30.5t-4.5 -28.5h-454v123h452q4 -15 6 -31t2 -33zM444 225h-200v98h434q-28 -49 -86.5 -73.5t-147.5 -24.5zM447 158q127 -1 204.5 44.5t107.5 120.5h147v50h-132q2 14 3.5 28.5t1.5 29.5
q0 17 -1.5 33t-4.5 32h133v50h-149q-32 74 -112 118t-211 44h-268v-162h-145v-50h145v-123h-145v-50h145v-323h78v158h203z" />
    <glyph glyph-name="uni0E3F" unicode="&#xe3f;" horiz-adv-x="882" 
d="M497 -127v127q166 2 253 44.5t87 148.5v1q0 80 -46.5 117.5t-139.5 49.5q82 14 124 52t42 112v2q0 97 -78 138.5t-242 42.5v123h-65v-123h-320v-708h320v-127h65zM432 392h-242v250h242v-250zM739 520v-1q0 -52 -30 -79.5t-85 -37.5q-27 -5 -58.5 -7.5t-68.5 -2.5v250
q125 -1 183.5 -26.5t58.5 -95.5zM190 68v260h242v-260h-242zM757 198v-1q0 -73 -62.5 -100t-197.5 -29v260q83 0 141 -10t88 -38q16 -14 23.5 -34.5t7.5 -47.5z" />
    <glyph glyph-name="numbersign" unicode="#" horiz-adv-x="1101" 
d="M651 230h-277l62 256h277zM594 0h76l40 164h275v66h-259l61 256h254v67h-237l37 155h-73l-38 -155h-278l38 155h-76l-38 -155h-265v-67h248l-62 -256h-244v-66h227l-40 -164h78l40 164h276z" />
    <glyph glyph-name="zero" unicode="0" horiz-adv-x="966" 
d="M481 -19q88 0 164.5 22.5t133.5 68.5q58 45 90.5 113.5t32.5 160.5v2q0 92 -32 162t-89 117q-58 48 -134.5 72t-165.5 24q-118 0 -212.5 -43.5t-149.5 -126.5q-28 -42 -41.5 -93t-13.5 -112v-2q0 -123 55 -204t150 -121q47 -20 100 -30t112 -10zM481 55q-96 0 -172 31.5
t-119 96.5q-22 33 -33 74t-11 90q0 101 42 168.5t118 101.5q38 17 82 25.5t94 8.5q100 0 176 -33.5t119 -101.5q22 -34 32.5 -76t10.5 -93v-1q0 -102 -45 -166.5t-121 -94.5q-39 -15 -82 -22.5t-91 -7.5z" />
    <glyph glyph-name="one" unicode="1" horiz-adv-x="664" 
d="M629 0v76h-254v632h-66q-13 -67 -53 -100.5t-111 -35.5v-63q39 0 81.5 13t68.5 35v-481h-254v-76h588z" />
    <glyph glyph-name="two" unicode="2" horiz-adv-x="834" 
d="M783 0v73h-640q5 60 46 95t109 57q34 11 71.5 21.5t79.5 20.5q70 16 130 34t105 44q45 25 70 63t25 93q0 102 -84.5 162t-248.5 60q-116 0 -201 -32.5t-130 -98.5q-23 -33 -34.5 -75t-11.5 -93h80q0 82 37 132.5t104 74.5q33 11 72 17t83 6q125 0 190 -39.5t65 -114.5
q0 -40 -22.5 -67.5t-62.5 -46.5q-39 -19 -91.5 -33.5t-111.5 -28.5q-68 -16 -131.5 -35t-114.5 -49q-50 -29 -79.5 -74.5t-29.5 -114.5v-51h726z" />
    <glyph glyph-name="three" unicode="3" horiz-adv-x="866" 
d="M429 -18q117 0 201.5 25t130.5 73q22 24 33.5 53t11.5 63q0 83 -52 120.5t-147 47.5q87 13 134 51.5t47 111.5q0 93 -92.5 144.5t-255.5 51.5q-180 0 -277.5 -67.5t-97.5 -199.5h79q0 98 73 148t223 50q129 0 197 -33.5t68 -101.5q0 -66 -53 -96.5t-179 -30.5h-142v-64
h143q128 0 188 -27t60 -101q0 -72 -77 -110.5t-214 -38.5q-108 0 -174 18t-96 61q-15 22 -22.5 51t-7.5 66h-80q0 -95 37 -153.5t120 -85.5q41 -13 96.5 -19.5t124.5 -6.5z" />
    <glyph glyph-name="four" unicode="4" horiz-adv-x="833" 
d="M568 245v371l-444 -371h444zM833 177h-183v-177h-82v177h-554v58l567 473h69v-463h183v-68z" />
    <glyph glyph-name="five" unicode="5" horiz-adv-x="873" 
d="M440 -18q112 0 195 28t129 85q23 29 34.5 64.5t11.5 78.5q0 88 -43 140.5t-115 75.5q-37 12 -77.5 18t-85.5 6q-110 0 -190.5 -33t-126.5 -83q5 27 11 64l13 77l13 74.5l10 59.5h445q43 0 64.5 4.5t29.5 19.5q4 7 6 18.5t2 26.5v2h-608l-67 -393l67 -26l10 8
q41 45 119 80.5t190 35.5q67 0 124.5 -16t92.5 -54q17 -19 26 -45.5t9 -59.5q0 -99 -77 -142.5t-208 -43.5q-128 0 -201.5 40t-77.5 123h-84q4 -112 92.5 -172.5t266.5 -60.5z" />
    <glyph glyph-name="six" unicode="6" horiz-adv-x="892" 
d="M825 222q0 85 -43 134.5t-117 71.5q-37 11 -79 16.5t-89 5.5q-86 0 -158.5 -26.5t-121.5 -72.5q-25 -23 -41 -49.5t-24 -56.5q-5 24 -8 51t-3 57q0 150 85.5 225.5t243.5 75.5q110 -1 167.5 -29t82.5 -84h92q-34 89 -118 135.5t-223 46.5q-192 0 -299.5 -94.5
t-107.5 -277.5q0 -180 96 -274.5t302 -95.5q115 0 196 30.5t124 85.5q22 27 32.5 58.5t10.5 66.5zM462 53q-119 0 -190.5 35.5t-103.5 108.5q15 58 59 99.5t109 64.5q33 11 68.5 16.5t74.5 5.5q79 0 138 -14.5t93 -49.5q16 -18 24.5 -42t8.5 -55q0 -78 -70.5 -123.5
t-210.5 -45.5z" />
    <glyph glyph-name="seven" unicode="7" horiz-adv-x="764" 
d="M316 0q24 99 72.5 194.5t111.5 181.5q62 85 128.5 154.5t124.5 115.5v62h-729v-72h624q-54 -44 -118 -111.5t-126 -151.5q-63 -84 -113 -179t-76 -194h101z" />
    <glyph glyph-name="eight" unicode="8" horiz-adv-x="874" 
d="M433 -18q121 0 208 19.5t133 64.5q24 22 35.5 52t11.5 68q0 57 -25.5 92.5t-68.5 56.5q-21 10 -45 17t-51 11q47 9 84.5 28t60.5 52q11 16 16.5 36t5.5 44q0 101 -94 150.5t-264 49.5q-166 0 -260 -50t-94 -150q0 -72 43 -110t113 -51q-54 -10 -97 -32.5t-68 -59.5
q-13 -18 -19 -40t-6 -48q0 -80 45 -123.5t130 -60.5q42 -8 94 -12t112 -4zM398 391q-113 0 -172.5 29.5t-59.5 97.5q0 70 71 103.5t203 33.5q134 0 206.5 -34t72.5 -102q0 -48 -31 -76t-87 -40q-28 -6 -60.5 -9t-70.5 -3h-72zM434 52q-148 0 -224 29.5t-76 109.5
q0 73 69 106t192 33h78q84 0 144 -12t91 -42q16 -15 24 -35.5t8 -47.5q0 -76 -78.5 -108.5t-227.5 -32.5z" />
    <glyph glyph-name="nine" unicode="9" horiz-adv-x="895" 
d="M414 320q-78 0 -136.5 13t-91.5 47q-16 17 -24 41.5t-8 55.5q0 82 69 128t214 46q121 0 192.5 -38t101.5 -116q-25 -85 -110 -131t-207 -46zM421 -18q196 0 303 93.5t107 276.5q0 185 -98.5 277.5t-295.5 93.5q-119 1 -200.5 -30.5t-123.5 -87.5q-21 -28 -31.5 -60
t-10.5 -69q0 -86 42 -134.5t115 -68.5q36 -10 77.5 -15t88.5 -5q85 0 158 23.5t124 66.5q26 22 43 48t26 56q5 -22 7 -46.5t2 -51.5q0 -149 -85.5 -224t-245.5 -75q-108 2 -172 28.5t-90 84.5h-89q30 -94 120 -137.5t229 -43.5z" />
    <glyph glyph-name="uni2070" unicode="&#x2070;" horiz-adv-x="473" 
d="M42 334zM234 334q89 0 142.5 50t53.5 137q0 90 -53 141.5t-140 51.5q-88 0 -141.5 -52.5t-53.5 -141.5q0 -88 50.5 -137t141.5 -49zM234 390q-60 0 -94 34t-34 96q0 65 34 100.5t96 35.5q60 0 95 -35.5t35 -100.5q0 -59 -36.5 -94.5t-95.5 -35.5z" />
    <glyph glyph-name="onesuperior" unicode="&#xb9;" horiz-adv-x="299" 
d="M29 344zM276 344v55h-95v309h-48q-7 -33 -27 -52t-56 -21v-49q17 1 38 8t36 16v-211h-95v-55h247z" />
    <glyph glyph-name="twosuperior" unicode="&#xb2;" horiz-adv-x="428" 
d="M36 344zM392 344v53h-294q10 26 34.5 41.5t57.5 25.5q33 11 68 20.5t65 22.5q30 14 48.5 36t18.5 57q0 50 -40 82t-123 32q-87 0 -134.5 -37t-48.5 -114h61q0 53 32 77t90 24q54 0 78 -18t24 -47q0 -26 -21 -41t-55 -25l-70.5 -20.5t-70.5 -27.5q-34 -17 -55 -45.5
t-21 -76.5v-19h356z" />
    <glyph glyph-name="threesuperior" unicode="&#xb3;" horiz-adv-x="444" 
d="M36 335zM223 335q89 0 135 30t46 81q0 40 -22.5 60.5t-67.5 27.5q38 7 59 26t21 53q0 46 -39 73.5t-124 27.5q-91 0 -138 -37t-47 -101h61q0 42 30.5 65t92.5 23q55 0 79.5 -15.5t24.5 -43.5q0 -26 -21 -39t-64 -13h-77v-48h78q47 0 69.5 -12.5t22.5 -43.5q0 -28 -27 -46
t-87 -18q-69 0 -99.5 21t-30.5 70h-62q1 -76 45.5 -108.5t141.5 -32.5z" />
    <glyph glyph-name="uni2074" unicode="&#x2074;" horiz-adv-x="433" 
d="M18 344zM276 481h-186l186 164v-164zM414 433v48h-83v227h-53l-260 -231v-44h258v-89h55v89h83z" />
    <glyph glyph-name="uni2075" unicode="&#x2075;" horiz-adv-x="453" 
d="M51 335zM230 335q83 0 132.5 35.5t49.5 96.5q0 62 -39.5 93t-113.5 31q-48 0 -82 -14.5t-57 -36.5l19 118h193q30 0 43 11t14 39h-299l-29 -201l51 -14l4 3q18 20 49.5 35.5t78.5 15.5q53 0 81 -19t28 -61q0 -40 -31.5 -61t-90.5 -21q-57 0 -83 20t-28 48h-69
q5 -52 47 -85t132 -33z" />
    <glyph glyph-name="uni2076" unicode="&#x2076;" horiz-adv-x="467" 
d="M45 335zM419 460q0 59 -39 85.5t-110 26.5q-57 0 -101 -22.5t-64 -64.5l-2 20t-1 21q0 65 34.5 102t104.5 37q43 0 67 -13t33 -34h69q-14 45 -57 71t-111 26q-95 0 -146 -51.5t-51 -139.5q0 -87 44.5 -138t149.5 -51q89 0 134.5 35t45.5 90zM240 385q-52 0 -82 17.5
t-44 48.5q14 35 50.5 55t91.5 20q53 0 78 -17t25 -49q0 -34 -29 -54.5t-90 -20.5z" />
    <glyph glyph-name="uni2077" unicode="&#x2077;" horiz-adv-x="387" 
d="M24 344zM160 344q12 45 36.5 92t54.5 90q31 44 61.5 78.5t54.5 54.5v49h-343v-54h274q-26 -22 -57 -56.5t-61 -76.5t-54 -87.5t-36 -89.5h70z" />
    <glyph glyph-name="uni2078" unicode="&#x2078;" horiz-adv-x="453" 
d="M37 335zM222 335q92 0 141.5 24.5t49.5 82.5q0 38 -24 59t-60 28q32 10 52 30.5t20 51.5q0 53 -46.5 78t-126.5 25q-79 0 -125.5 -27t-46.5 -80q0 -32 17 -51.5t48 -27.5q-38 -9 -61 -31.5t-23 -58.5q0 -58 46.5 -80.5t138.5 -22.5zM208 549q-47 0 -70.5 15t-23.5 40
q0 35 32.5 48.5t81.5 13.5q54 0 84.5 -13t30.5 -47q0 -26 -26.5 -41.5t-74.5 -15.5h-34zM225 383q-61 0 -94 12t-33 49q0 31 27.5 46.5t81.5 15.5h35q54 -1 82.5 -14t28.5 -45q0 -36 -33.5 -50t-94.5 -14z" />
    <glyph glyph-name="uni2079" unicode="&#x2079;" horiz-adv-x="458" 
d="M39 334zM205 516q-52 0 -78 17t-26 51q0 38 30.5 59t89.5 21q55 0 85 -18t42 -52q-12 -36 -48.5 -57t-94.5 -21zM213 334q103 0 152.5 50t49.5 138q0 90 -46.5 141t-148.5 51q-86 0 -132.5 -36t-46.5 -96q0 -61 42 -86.5t110 -25.5q59 0 102 22.5t62 64.5q1 -8 1.5 -16.5
t0.5 -18.5q0 -65 -34 -101.5t-112 -36.5q-43 0 -68.5 12.5t-34.5 34.5h-71q15 -46 60.5 -71.5t113.5 -25.5z" />
    <glyph glyph-name="uni207A" unicode="&#x207a;" horiz-adv-x="435" 
d="M48 344zM382 487v51h-144v134h-51v-134h-139v-51h139v-143h51v143h144z" />
    <glyph glyph-name="uni207B" unicode="&#x207b;" horiz-adv-x="435" 
d="M48 486zM382 486v53h-334v-53h334z" />
    <glyph glyph-name="uni207C" unicode="&#x207c;" horiz-adv-x="435" 
d="M58 407zM372 573v52h-314v-52h314zM372 407v51h-314v-51h314z" />
    <glyph glyph-name="uni207D" unicode="&#x207d;" horiz-adv-x="330" 
d="M67 230zM317 230v59q-91 8 -139 67t-48 154q0 98 46.5 158t140.5 69v59q-118 -10 -184 -85.5t-66 -200.5q0 -121 64.5 -196t185.5 -84z" />
    <glyph glyph-name="uni207E" unicode="&#x207e;" horiz-adv-x="330" 
d="M10 230zM10 230q121 9 185.5 84t64.5 196q0 125 -66 200.5t-184 85.5v-59q95 -9 141.5 -69t46.5 -158q0 -94 -48.5 -153.5t-139.5 -67.5v-59z" />
    <glyph glyph-name="uni2080" unicode="&#x2080;" horiz-adv-x="473" 
d="M235 -9q89 0 142.5 50t53.5 137q0 90 -53 141.5t-140 51.5q-88 0 -141.5 -52.5t-53.5 -141.5q0 -88 50.5 -137t141.5 -49zM235 47q-60 0 -94 34t-34 96q0 65 34 100.5t96 35.5q60 0 95 -35.5t35 -100.5q0 -59 -36.5 -94.5t-95.5 -35.5z" />
    <glyph glyph-name="uni2081" unicode="&#x2081;" horiz-adv-x="299" 
d="M277 0v55h-95v309h-48q-7 -33 -27 -52t-56 -21v-49q17 1 38 8t36 16v-211h-95v-55h247z" />
    <glyph glyph-name="uni2082" unicode="&#x2082;" horiz-adv-x="428" 
d="M393 0v53h-294q10 26 34.5 41.5t57.5 25.5q33 11 68 20.5t65 22.5q30 14 48.5 36t18.5 57q0 50 -40 82t-123 32q-87 0 -134.5 -37t-48.5 -114h61q0 53 32 77t90 24q54 0 78 -18t24 -47q0 -26 -21 -41t-55 -25l-70.5 -20.5t-70.5 -27.5q-34 -17 -55 -45.5t-21 -76.5v-19
h356z" />
    <glyph glyph-name="uni2083" unicode="&#x2083;" horiz-adv-x="444" 
d="M224 -9q89 0 135 30t46 81q0 40 -22.5 60.5t-67.5 27.5q38 7 59 26t21 53q0 46 -39 73.5t-124 27.5q-91 0 -138 -37t-47 -101h61q0 42 30.5 65t92.5 23q55 0 79.5 -15.5t24.5 -43.5q0 -26 -21 -39t-64 -13h-77v-48h78q47 0 69.5 -12.5t22.5 -43.5q0 -28 -27 -46t-87 -18
q-69 0 -99.5 21t-30.5 70h-62q1 -76 45.5 -108.5t141.5 -32.5z" />
    <glyph glyph-name="uni2084" unicode="&#x2084;" horiz-adv-x="433" 
d="M277 137h-186l186 164v-164zM415 89v48h-83v227h-53l-260 -231v-44h258v-89h55v89h83z" />
    <glyph glyph-name="uni2085" unicode="&#x2085;" horiz-adv-x="453" 
d="M231 -9q83 0 132.5 35.5t49.5 96.5q0 62 -39.5 93t-113.5 31q-48 0 -82 -14.5t-57 -36.5l19 118h193q30 0 43 11t14 39h-299l-29 -201l51 -14l4 3q18 20 49.5 35.5t78.5 15.5q53 0 81 -19t28 -61q0 -40 -31.5 -61t-90.5 -21q-57 0 -83 20t-28 48h-69q5 -52 47 -85
t132 -33z" />
    <glyph glyph-name="uni2086" unicode="&#x2086;" horiz-adv-x="467" 
d="M420 116q0 59 -39 85.5t-110 26.5q-57 0 -101 -22.5t-64 -64.5l-2 20t-1 21q0 65 34.5 102t104.5 37q43 0 67 -13t33 -34h69q-14 45 -57 71t-111 26q-95 0 -146 -51.5t-51 -139.5q0 -87 44.5 -138t149.5 -51q89 0 134.5 35t45.5 90zM241 41q-52 0 -82 17.5t-44 48.5
q14 35 50.5 55t91.5 20q53 0 78 -17t25 -49q0 -34 -29 -54.5t-90 -20.5z" />
    <glyph glyph-name="uni2087" unicode="&#x2087;" horiz-adv-x="387" 
d="M161 0q12 45 36.5 92t54.5 90q31 44 61.5 78.5t54.5 54.5v49h-343v-54h274q-26 -22 -57 -56.5t-61 -76.5t-54 -87.5t-36 -89.5h70z" />
    <glyph glyph-name="uni2088" unicode="&#x2088;" horiz-adv-x="454" 
d="M224 -9q92 0 141.5 24.5t49.5 82.5q0 38 -24 59t-60 28q32 10 52 30.5t20 51.5q0 53 -46.5 78t-126.5 25q-79 0 -125.5 -27t-46.5 -80q0 -32 17 -51.5t48 -27.5q-38 -9 -61 -31.5t-23 -58.5q0 -58 46.5 -80.5t138.5 -22.5zM210 205q-47 0 -70.5 15t-23.5 40
q0 35 32.5 48.5t81.5 13.5q54 0 84.5 -13t30.5 -47q0 -26 -26.5 -41.5t-74.5 -15.5h-34zM227 39q-61 0 -94 12t-33 49q0 31 27.5 46.5t81.5 15.5h35q54 -1 82.5 -14t28.5 -45q0 -36 -33.5 -50t-94.5 -14z" />
    <glyph glyph-name="uni2089" unicode="&#x2089;" horiz-adv-x="458" 
d="M206 172q-52 0 -78 17t-26 51q0 38 30.5 59t89.5 21q55 0 85 -18t42 -52q-12 -36 -48.5 -57t-94.5 -21zM214 -10q103 0 152.5 50t49.5 138q0 90 -46.5 141t-148.5 51q-86 0 -132.5 -36t-46.5 -96q0 -61 42 -86.5t110 -25.5q59 0 102 22.5t62 64.5q1 -8 1.5 -16.5
t0.5 -18.5q0 -65 -34 -101.5t-112 -36.5q-43 0 -68.5 12.5t-34.5 34.5h-71q15 -46 60.5 -71.5t113.5 -25.5z" />
    <glyph glyph-name="uni208A" unicode="&#x208a;" horiz-adv-x="435" 
d="M383 144v51h-144v134h-51v-134h-139v-51h139v-143h51v143h144z" />
    <glyph glyph-name="uni208B" unicode="&#x208b;" horiz-adv-x="435" 
d="M383 143v53h-334v-53h334z" />
    <glyph glyph-name="uni208C" unicode="&#x208c;" horiz-adv-x="435" 
d="M373 226v52h-314v-52h314zM373 60v51h-314v-51h314z" />
    <glyph glyph-name="uni208D" unicode="&#x208d;" horiz-adv-x="330" 
d="M318 -103v59q-91 8 -139 67t-48 154q0 98 46.5 158t140.5 69v59q-118 -10 -184 -85.5t-66 -200.5q0 -121 64.5 -196t185.5 -84z" />
    <glyph glyph-name="uni208E" unicode="&#x208e;" horiz-adv-x="330" 
d="M11 -103q121 9 185.5 84t64.5 196q0 125 -66 200.5t-184 85.5v-59q95 -9 141.5 -69t46.5 -158q0 -94 -48.5 -153.5t-139.5 -67.5v-59z" />
    <glyph glyph-name="zero.inf" horiz-adv-x="473" 
d="M42 0zM234 -192q89 0 142.5 50t53.5 137q0 90 -53 141.5t-140 51.5q-88 0 -141.5 -52.5t-53.5 -141.5q0 -88 50.5 -137t141.5 -49zM234 -136q-60 0 -94 34t-34 96q0 65 34 100.5t96 35.5q60 0 95 -35.5t35 -100.5q0 -59 -36.5 -94.5t-95.5 -35.5z" />
    <glyph glyph-name="one.inf" horiz-adv-x="299" 
d="M29 0zM276 -183v55h-95v309h-48q-7 -33 -27 -52t-56 -21v-49q17 1 38 8t36 16v-211h-95v-55h247z" />
    <glyph glyph-name="two.inf" horiz-adv-x="428" 
d="M36 0zM392 -183v53h-294q10 26 34.5 41.5t57.5 25.5q33 11 68 20.5t65 22.5q30 14 48.5 36t18.5 57q0 50 -40 82t-123 32q-87 0 -134.5 -37t-48.5 -114h61q0 53 32 77t90 24q54 0 78 -18t24 -47q0 -26 -21 -41t-55 -25l-70.5 -20.5t-70.5 -27.5q-34 -17 -55 -45.5
t-21 -76.5v-19h356z" />
    <glyph glyph-name="three.inf" horiz-adv-x="444" 
d="M36 0zM223 -192q89 0 135 30t46 81q0 40 -22.5 60.5t-67.5 27.5q38 7 59 26t21 53q0 46 -39 73.5t-124 27.5q-91 0 -138 -37t-47 -101h61q0 42 30.5 65t92.5 23q55 0 79.5 -15.5t24.5 -43.5q0 -26 -21 -39t-64 -13h-77v-48h78q47 0 69.5 -12.5t22.5 -43.5q0 -28 -27 -46
t-87 -18q-69 0 -99.5 21t-30.5 70h-62q1 -76 45.5 -108.5t141.5 -32.5z" />
    <glyph glyph-name="four.inf" horiz-adv-x="433" 
d="M18 0zM276 -46h-186l186 164v-164zM414 -94v48h-83v227h-53l-260 -231v-44h258v-89h55v89h83z" />
    <glyph glyph-name="five.inf" horiz-adv-x="453" 
d="M51 0zM230 -192q83 0 132.5 35.5t49.5 96.5q0 62 -39.5 93t-113.5 31q-48 0 -82 -14.5t-57 -36.5l19 118h193q30 0 43 11t14 39h-299l-29 -201l51 -14l4 3q18 20 49.5 35.5t78.5 15.5q53 0 81 -19t28 -61q0 -40 -31.5 -61t-90.5 -21q-57 0 -83 20t-28 48h-69
q5 -52 47 -85t132 -33z" />
    <glyph glyph-name="six.inf" horiz-adv-x="467" 
d="M45 0zM419 -67q0 59 -39 85.5t-110 26.5q-57 0 -101 -22.5t-64 -64.5l-2 20t-1 21q0 65 34.5 102t104.5 37q43 0 67 -13t33 -34h69q-14 45 -57 71t-111 26q-95 0 -146 -51.5t-51 -139.5q0 -87 44.5 -138t149.5 -51q89 0 134.5 35t45.5 90zM240 -142q-52 0 -82 17.5
t-44 48.5q14 35 50.5 55t91.5 20q53 0 78 -17t25 -49q0 -34 -29 -54.5t-90 -20.5z" />
    <glyph glyph-name="seven.inf" horiz-adv-x="387" 
d="M24 0zM160 -183q12 45 36.5 92t54.5 90q31 44 61.5 78.5t54.5 54.5v49h-343v-54h274q-26 -22 -57 -56.5t-61 -76.5t-54 -87.5t-36 -89.5h70z" />
    <glyph glyph-name="eight.inf" horiz-adv-x="453" 
d="M37 0zM222 -192q92 0 141.5 24.5t49.5 82.5q0 38 -24 59t-60 28q32 10 52 30.5t20 51.5q0 53 -46.5 78t-126.5 25q-79 0 -125.5 -27t-46.5 -80q0 -32 17 -51.5t48 -27.5q-38 -9 -61 -31.5t-23 -58.5q0 -58 46.5 -80.5t138.5 -22.5zM208 22q-47 0 -70.5 15t-23.5 40
q0 35 32.5 48.5t81.5 13.5q54 0 84.5 -13t30.5 -47q0 -26 -26.5 -41.5t-74.5 -15.5h-34zM225 -144q-61 0 -94 12t-33 49q0 31 27.5 46.5t81.5 15.5h35q54 -1 82.5 -14t28.5 -45q0 -36 -33.5 -50t-94.5 -14z" />
    <glyph glyph-name="nine.inf" horiz-adv-x="458" 
d="M39 0zM205 -11q-52 0 -78 17t-26 51q0 38 30.5 59t89.5 21q55 0 85 -18t42 -52q-12 -36 -48.5 -57t-94.5 -21zM213 -193q103 0 152.5 50t49.5 138q0 90 -46.5 141t-148.5 51q-86 0 -132.5 -36t-46.5 -96q0 -61 42 -86.5t110 -25.5q59 0 102 22.5t62 64.5q1 -8 1.5 -16.5
t0.5 -18.5q0 -65 -34 -101.5t-112 -36.5q-43 0 -68.5 12.5t-34.5 34.5h-71q15 -46 60.5 -71.5t113.5 -25.5z" />
    <glyph glyph-name="plus.inf" horiz-adv-x="435" 
d="M48 0zM382 -39v51h-144v134h-51v-134h-139v-51h139v-143h51v143h144z" />
    <glyph glyph-name="minus.inf" horiz-adv-x="435" 
d="M48 0zM382 -40v53h-334v-53h334z" />
    <glyph glyph-name="equal.inf" horiz-adv-x="435" 
d="M58 0zM372 47v52h-314v-52h314zM372 -119v51h-314v-51h314z" />
    <glyph glyph-name="parenleft.inf" horiz-adv-x="330" 
d="M67 0zM317 -296v59q-91 8 -139 67t-48 154q0 98 46.5 158t140.5 69v59q-118 -10 -184 -85.5t-66 -200.5q0 -121 64.5 -196t185.5 -84z" />
    <glyph glyph-name="parenright.inf" horiz-adv-x="330" 
d="M10 0zM10 -296q121 9 185.5 84t64.5 196q0 125 -66 200.5t-184 85.5v-59q95 -9 141.5 -69t46.5 -158q0 -94 -48.5 -153.5t-139.5 -67.5v-59z" />
    <glyph glyph-name="fraction" unicode="&#x2044;" horiz-adv-x="1100" 
d="M636 403l373 263l-80 71l-315 -313zM499 335l-397 -280l82 -79l338 337z" />
    <glyph glyph-name="uni215F" unicode="&#x215f;" horiz-adv-x="1100" 
d="M101 0zM635 403l373 263l-80 71l-315 -313zM498 335l-397 -280l82 -79l338 337zM385 344v55h-95v309h-48q-7 -33 -27 -52t-56 -21v-49q17 1 38 8t36 16v-211h-95v-55h247z" />
    <glyph glyph-name="onehalf" unicode="&#xbd;" horiz-adv-x="1100" 
d="M101 0zM635 403l373 263l-80 71l-315 -313zM498 335l-397 -280l82 -79l338 337zM385 344v55h-95v309h-48q-7 -33 -27 -52t-56 -21v-49q17 1 38 8t36 16v-211h-95v-55h247zM1006 0v53h-294q10 26 34.5 41.5t57.5 25.5q33 11 68 20.5t65 22.5q30 14 48.5 36t18.5 57
q0 50 -40 82t-123 32q-87 0 -134.5 -37t-48.5 -114h61q0 53 32 77t90 24q54 0 78 -18t24 -47q0 -26 -21 -41t-55 -25l-70.5 -20.5t-70.5 -27.5q-34 -17 -55 -45.5t-21 -76.5v-19h356z" />
    <glyph glyph-name="uni2153" unicode="&#x2153;" horiz-adv-x="1100" 
d="M101 0zM635 403l373 263l-80 71l-315 -313zM498 335l-397 -280l82 -79l338 337zM385 344v55h-95v309h-48q-7 -33 -27 -52t-56 -21v-49q17 1 38 8t36 16v-211h-95v-55h247zM822 -9q89 0 135 30t46 81q0 40 -22.5 60.5t-67.5 27.5q38 7 59 26t21 53q0 46 -39 73.5
t-124 27.5q-91 0 -138 -37t-47 -101h61q0 42 30.5 65t92.5 23q55 0 79.5 -15.5t24.5 -43.5q0 -26 -21 -39t-64 -13h-77v-48h78q47 0 69.5 -12.5t22.5 -43.5q0 -28 -27 -46t-87 -18q-69 0 -99.5 21t-30.5 70h-62q1 -76 45.5 -108.5t141.5 -32.5z" />
    <glyph glyph-name="uni2154" unicode="&#x2154;" horiz-adv-x="1100" 
d="M76 0zM635 403l373 263l-80 71l-315 -313zM498 335l-397 -280l82 -79l338 337zM432 342v53h-294q10 26 34.5 41.5t57.5 25.5q33 11 68 20.5t65 22.5q30 14 48.5 36t18.5 57q0 50 -40 82t-123 32q-87 0 -134.5 -37t-48.5 -114h61q0 53 32 77t90 24q54 0 78 -18t24 -47
q0 -26 -21 -41t-55 -25l-70.5 -20.5t-70.5 -27.5q-34 -17 -55 -45.5t-21 -76.5v-19h356zM822 -9q89 0 135 30t46 81q0 40 -22.5 60.5t-67.5 27.5q38 7 59 26t21 53q0 46 -39 73.5t-124 27.5q-91 0 -138 -37t-47 -101h61q0 42 30.5 65t92.5 23q55 0 79.5 -15.5t24.5 -43.5
q0 -26 -21 -39t-64 -13h-77v-48h78q47 0 69.5 -12.5t22.5 -43.5q0 -28 -27 -46t-87 -18q-69 0 -99.5 21t-30.5 70h-62q1 -76 45.5 -108.5t141.5 -32.5z" />
    <glyph glyph-name="onequarter" unicode="&#xbc;" horiz-adv-x="1100" 
d="M101 0zM635 403l373 263l-80 71l-315 -313zM498 335l-397 -280l82 -79l338 337zM384 344v55h-95v309h-48q-7 -33 -27 -52t-56 -21v-49q17 1 38 8t36 16v-211h-95v-55h247zM836 137h-186l186 164v-164zM974 89v48h-83v227h-53l-260 -231v-44h258v-89h55v89h83z" />
    <glyph glyph-name="threequarters" unicode="&#xbe;" horiz-adv-x="1100" 
d="M79 0zM635 403l373 263l-80 71l-315 -313zM498 335l-397 -280l82 -79l338 337zM266 333q89 0 135 30t46 81q0 40 -22.5 60.5t-67.5 27.5q38 7 59 26t21 53q0 46 -39 73.5t-124 27.5q-91 0 -138 -37t-47 -101h61q0 42 30.5 65t92.5 23q55 0 79.5 -15.5t24.5 -43.5
q0 -26 -21 -39t-64 -13h-77v-48h78q47 0 69.5 -12.5t22.5 -43.5q0 -28 -27 -46t-87 -18q-69 0 -99.5 21t-30.5 70h-62q1 -76 45.5 -108.5t141.5 -32.5zM836 137h-186l186 164v-164zM974 89v48h-83v227h-53l-260 -231v-44h258v-89h55v89h83z" />
    <glyph glyph-name="uni2155" unicode="&#x2155;" horiz-adv-x="1100" 
d="M101 0zM635 403l373 263l-80 71l-315 -313zM498 335l-397 -280l82 -79l338 337zM384 344v55h-95v309h-48q-7 -33 -27 -52t-56 -21v-49q17 1 38 8t36 16v-211h-95v-55h247zM830 -9q83 0 132.5 35.5t49.5 96.5q0 62 -39.5 93t-113.5 31q-48 0 -82 -14.5t-57 -36.5l19 118
h193q30 0 43 11t14 39h-299l-29 -201l51 -14l4 3q18 20 49.5 35.5t78.5 15.5q53 0 81 -19t28 -61q0 -40 -31.5 -61t-90.5 -21q-57 0 -83 20t-28 48h-69q5 -52 47 -85t132 -33z" />
    <glyph glyph-name="uni2156" unicode="&#x2156;" horiz-adv-x="1100" 
d="M76 0zM635 403l373 263l-80 71l-315 -313zM498 335l-397 -280l82 -79l338 337zM432 342v53h-294q10 26 34.5 41.5t57.5 25.5q33 11 68 20.5t65 22.5q30 14 48.5 36t18.5 57q0 50 -40 82t-123 32q-87 0 -134.5 -37t-48.5 -114h61q0 53 32 77t90 24q54 0 78 -18t24 -47
q0 -26 -21 -41t-55 -25l-70.5 -20.5t-70.5 -27.5q-34 -17 -55 -45.5t-21 -76.5v-19h356zM830 -9q83 0 132.5 35.5t49.5 96.5q0 62 -39.5 93t-113.5 31q-48 0 -82 -14.5t-57 -36.5l19 118h193q30 0 43 11t14 39h-299l-29 -201l51 -14l4 3q18 20 49.5 35.5t78.5 15.5
q53 0 81 -19t28 -61q0 -40 -31.5 -61t-90.5 -21q-57 0 -83 20t-28 48h-69q5 -52 47 -85t132 -33z" />
    <glyph glyph-name="uni2157" unicode="&#x2157;" horiz-adv-x="1100" 
d="M78 0zM635 403l373 263l-80 71l-315 -313zM498 335l-397 -280l82 -79l338 337zM265 333q89 0 135 30t46 81q0 40 -22.5 60.5t-67.5 27.5q38 7 59 26t21 53q0 46 -39 73.5t-124 27.5q-91 0 -138 -37t-47 -101h61q0 42 30.5 65t92.5 23q55 0 79.5 -15.5t24.5 -43.5
q0 -26 -21 -39t-64 -13h-77v-48h78q47 0 69.5 -12.5t22.5 -43.5q0 -28 -27 -46t-87 -18q-69 0 -99.5 21t-30.5 70h-62q1 -76 45.5 -108.5t141.5 -32.5zM830 -9q83 0 132.5 35.5t49.5 96.5q0 62 -39.5 93t-113.5 31q-48 0 -82 -14.5t-57 -36.5l19 118h193q30 0 43 11t14 39
h-299l-29 -201l51 -14l4 3q18 20 49.5 35.5t78.5 15.5q53 0 81 -19t28 -61q0 -40 -31.5 -61t-90.5 -21q-57 0 -83 20t-28 48h-69q5 -52 47 -85t132 -33z" />
    <glyph glyph-name="uni2158" unicode="&#x2158;" horiz-adv-x="1100" 
d="M64 0zM635 403l373 263l-80 71l-315 -313zM498 335l-397 -280l82 -79l338 337zM322 481h-186l186 164v-164zM460 433v48h-83v227h-53l-260 -231v-44h258v-89h55v89h83zM830 -9q83 0 132.5 35.5t49.5 96.5q0 62 -39.5 93t-113.5 31q-48 0 -82 -14.5t-57 -36.5l19 118h193
q30 0 43 11t14 39h-299l-29 -201l51 -14l4 3q18 20 49.5 35.5t78.5 15.5q53 0 81 -19t28 -61q0 -40 -31.5 -61t-90.5 -21q-57 0 -83 20t-28 48h-69q5 -52 47 -85t132 -33z" />
    <glyph glyph-name="uni2159" unicode="&#x2159;" horiz-adv-x="1100" 
d="M101 0zM635 403l373 263l-80 71l-315 -313zM498 335l-397 -280l82 -79l338 337zM384 344v55h-95v309h-48q-7 -33 -27 -52t-56 -21v-49q17 1 38 8t36 16v-211h-95v-55h247zM1011 116q0 59 -39 85.5t-110 26.5q-57 0 -101 -22.5t-64 -64.5l-2 20t-1 21q0 65 34.5 102
t104.5 37q43 0 67 -13t33 -34h69q-14 45 -57 71t-111 26q-95 0 -146 -51.5t-51 -139.5q0 -87 44.5 -138t149.5 -51q89 0 134.5 35t45.5 90zM832 41q-52 0 -82 17.5t-44 48.5q14 35 50.5 55t91.5 20q53 0 78 -17t25 -49q0 -34 -29 -54.5t-90 -20.5z" />
    <glyph glyph-name="uni215A" unicode="&#x215a;" horiz-adv-x="1100" 
d="M88 0zM635 403l373 263l-80 71l-315 -313zM498 335l-397 -280l82 -79l338 337zM267 335q83 0 132.5 35.5t49.5 96.5q0 62 -39.5 93t-113.5 31q-48 0 -82 -14.5t-57 -36.5l19 118h193q30 0 43 11t14 39h-299l-29 -201l51 -14l4 3q18 20 49.5 35.5t78.5 15.5q53 0 81 -19
t28 -61q0 -40 -31.5 -61t-90.5 -21q-57 0 -83 20t-28 48h-69q5 -52 47 -85t132 -33zM1011 116q0 59 -39 85.5t-110 26.5q-57 0 -101 -22.5t-64 -64.5l-2 20t-1 21q0 65 34.5 102t104.5 37q43 0 67 -13t33 -34h69q-14 45 -57 71t-111 26q-95 0 -146 -51.5t-51 -139.5
q0 -87 44.5 -138t149.5 -51q89 0 134.5 35t45.5 90zM832 41q-52 0 -82 17.5t-44 48.5q14 35 50.5 55t91.5 20q53 0 78 -17t25 -49q0 -34 -29 -54.5t-90 -20.5z" />
    <glyph glyph-name="uni215B" unicode="&#x215b;" horiz-adv-x="1100" 
d="M101 0zM635 403l373 263l-80 71l-315 -313zM498 335l-397 -280l82 -79l338 337zM384 344v55h-95v309h-48q-7 -33 -27 -52t-56 -21v-49q17 1 38 8t36 16v-211h-95v-55h247zM826 -9q92 0 141.5 24.5t49.5 82.5q0 38 -24 59t-60 28q32 10 52 30.5t20 51.5q0 53 -46.5 78
t-126.5 25q-79 0 -125.5 -27t-46.5 -80q0 -32 17 -51.5t48 -27.5q-38 -9 -61 -31.5t-23 -58.5q0 -58 46.5 -80.5t138.5 -22.5zM812 205q-47 0 -70.5 15t-23.5 40q0 35 32.5 48.5t81.5 13.5q54 0 84.5 -13t30.5 -47q0 -26 -26.5 -41.5t-74.5 -15.5h-34zM829 39q-61 0 -94 12
t-33 49q0 31 27.5 46.5t81.5 15.5h35q54 -1 82.5 -14t28.5 -45q0 -36 -33.5 -50t-94.5 -14z" />
    <glyph glyph-name="uni215C" unicode="&#x215c;" horiz-adv-x="1100" 
d="M79 0zM635 403l373 263l-80 71l-315 -313zM498 335l-397 -280l82 -79l338 337zM826 -9q92 0 141.5 24.5t49.5 82.5q0 38 -24 59t-60 28q32 10 52 30.5t20 51.5q0 53 -46.5 78t-126.5 25q-79 0 -125.5 -27t-46.5 -80q0 -32 17 -51.5t48 -27.5q-38 -9 -61 -31.5t-23 -58.5
q0 -58 46.5 -80.5t138.5 -22.5zM812 205q-47 0 -70.5 15t-23.5 40q0 35 32.5 48.5t81.5 13.5q54 0 84.5 -13t30.5 -47q0 -26 -26.5 -41.5t-74.5 -15.5h-34zM829 39q-61 0 -94 12t-33 49q0 31 27.5 46.5t81.5 15.5h35q54 -1 82.5 -14t28.5 -45q0 -36 -33.5 -50t-94.5 -14z
M266 333q89 0 135 30t46 81q0 40 -22.5 60.5t-67.5 27.5q38 7 59 26t21 53q0 46 -39 73.5t-124 27.5q-91 0 -138 -37t-47 -101h61q0 42 30.5 65t92.5 23q55 0 79.5 -15.5t24.5 -43.5q0 -26 -21 -39t-64 -13h-77v-48h78q47 0 69.5 -12.5t22.5 -43.5q0 -28 -27 -46t-87 -18
q-69 0 -99.5 21t-30.5 70h-62q1 -76 45.5 -108.5t141.5 -32.5z" />
    <glyph glyph-name="uni215D" unicode="&#x215d;" horiz-adv-x="1100" 
d="M88 0zM635 403l373 263l-80 71l-315 -313zM498 335l-397 -280l82 -79l338 337zM826 -9q92 0 141.5 24.5t49.5 82.5q0 38 -24 59t-60 28q32 10 52 30.5t20 51.5q0 53 -46.5 78t-126.5 25q-79 0 -125.5 -27t-46.5 -80q0 -32 17 -51.5t48 -27.5q-38 -9 -61 -31.5t-23 -58.5
q0 -58 46.5 -80.5t138.5 -22.5zM812 205q-47 0 -70.5 15t-23.5 40q0 35 32.5 48.5t81.5 13.5q54 0 84.5 -13t30.5 -47q0 -26 -26.5 -41.5t-74.5 -15.5h-34zM829 39q-61 0 -94 12t-33 49q0 31 27.5 46.5t81.5 15.5h35q54 -1 82.5 -14t28.5 -45q0 -36 -33.5 -50t-94.5 -14z
M267 335q83 0 132.5 35.5t49.5 96.5q0 62 -39.5 93t-113.5 31q-48 0 -82 -14.5t-57 -36.5l19 118h193q30 0 43 11t14 39h-299l-29 -201l51 -14l4 3q18 20 49.5 35.5t78.5 15.5q53 0 81 -19t28 -61q0 -40 -31.5 -61t-90.5 -21q-57 0 -83 20t-28 48h-69q5 -52 47 -85t132 -33z
" />
    <glyph glyph-name="uni215E" unicode="&#x215e;" horiz-adv-x="1100" 
d="M101 0zM635 403l373 263l-80 71l-315 -313zM498 335l-397 -280l82 -79l338 337zM826 -9q92 0 141.5 24.5t49.5 82.5q0 38 -24 59t-60 28q32 10 52 30.5t20 51.5q0 53 -46.5 78t-126.5 25q-79 0 -125.5 -27t-46.5 -80q0 -32 17 -51.5t48 -27.5q-38 -9 -61 -31.5t-23 -58.5
q0 -58 46.5 -80.5t138.5 -22.5zM812 205q-47 0 -70.5 15t-23.5 40q0 35 32.5 48.5t81.5 13.5q54 0 84.5 -13t30.5 -47q0 -26 -26.5 -41.5t-74.5 -15.5h-34zM829 39q-61 0 -94 12t-33 49q0 31 27.5 46.5t81.5 15.5h35q54 -1 82.5 -14t28.5 -45q0 -36 -33.5 -50t-94.5 -14z
M291 344q12 45 36.5 92t54.5 90q31 44 61.5 78.5t54.5 54.5v49h-343v-54h274q-26 -22 -57 -56.5t-61 -76.5t-54 -87.5t-36 -89.5h70z" />
    <glyph glyph-name="onesixteenth" horiz-adv-x="1435" 
d="M386 344v55h-95v309h-48q-7 -33 -27 -52.5t-56 -20.5v-49q17 1 38 8t36 16v-211h-95v-55h247zM895 0v55h-95v309h-48q-7 -33 -27 -52t-56 -21v-49q17 1 38 8t36 16v-211h-95v-55h247zM1342 116q0 59 -39 85.5t-110 26.5q-57 0 -101 -22.5t-64 -64.5l-2 20t-1 21
q0 65 34.5 102t104.5 37q43 0 67 -13t33 -34h69q-14 45 -57 71t-111 26q-95 0 -146 -51.5t-51 -139.5q0 -87 44.5 -138t149.5 -51q89 0 134.5 35t45.5 90zM1163 41q-52 0 -82 17.5t-44 48.5q14 35 50.5 55t91.5 20q53 0 78 -17t25 -49q0 -34 -29 -54.5t-90 -20.5zM635 403
l373 263l-80 71l-315 -313zM498 335l-397 -280l82 -79l338 337z" />
    <glyph glyph-name="threesixteenths" horiz-adv-x="1435" 
d="M78 0zM635 403l373 263l-80 71l-315 -313zM498 335l-397 -280l82 -79l338 337zM1342 117q0 59 -39 85.5t-110 26.5q-57 0 -101 -22.5t-64 -64.5l-2 20t-1 21q0 65 34.5 102t104.5 37q43 0 67 -13t33 -34h69q-14 45 -57 71t-111 26q-95 0 -146 -51.5t-51 -139.5
q0 -87 44.5 -138t149.5 -51q89 0 134.5 35t45.5 90zM1163 42q-52 0 -82 17.5t-44 48.5q14 35 50.5 55t91.5 20q53 0 78 -17t25 -49q0 -34 -29 -54.5t-90 -20.5zM265 333q89 0 135 30t46 81q0 40 -22.5 60.5t-67.5 27.5q38 7 59 26t21 53q0 46 -39 73.5t-124 27.5
q-91 0 -138 -37t-47 -101h61q0 42 30.5 65t92.5 23q55 0 79.5 -15.5t24.5 -43.5q0 -26 -21 -39t-64 -13h-77v-48h78q47 0 69.5 -12.5t22.5 -43.5q0 -28 -27 -46t-87 -18q-69 0 -99.5 21t-30.5 70h-62q1 -76 45.5 -108.5t141.5 -32.5zM894 0v55h-95v309h-48q-7 -33 -27 -52
t-56 -21v-49q17 1 38 8t36 16v-211h-95v-55h247z" />
    <glyph glyph-name="fivesixteenths" horiz-adv-x="1435" 
d="M87 0zM635 403l373 263l-80 71l-315 -313zM498 335l-397 -280l82 -79l338 337zM1342 117q0 59 -39 85.5t-110 26.5q-57 0 -101 -22.5t-64 -64.5l-2 20t-1 21q0 65 34.5 102t104.5 37q43 0 67 -13t33 -34h69q-14 45 -57 71t-111 26q-95 0 -146 -51.5t-51 -139.5
q0 -87 44.5 -138t149.5 -51q89 0 134.5 35t45.5 90zM1163 42q-52 0 -82 17.5t-44 48.5q14 35 50.5 55t91.5 20q53 0 78 -17t25 -49q0 -34 -29 -54.5t-90 -20.5zM266 335q83 0 132.5 35.5t49.5 96.5q0 62 -39.5 93t-113.5 31q-48 0 -82 -14.5t-57 -36.5l19 118h193
q30 0 43 11t14 39h-299l-29 -201l51 -14l4 3q18 20 49.5 35.5t78.5 15.5q53 0 81 -19t28 -61q0 -40 -31.5 -61t-90.5 -21q-57 0 -83 20t-28 48h-69q5 -52 47 -85t132 -33zM894 0v55h-95v309h-48q-7 -33 -27 -52t-56 -21v-49q17 1 38 8t36 16v-211h-95v-55h247z" />
    <glyph glyph-name="sevensixteenths" horiz-adv-x="1435" 
d="M101 0zM635 403l373 263l-80 71l-315 -313zM498 335l-397 -280l82 -79l338 337zM1342 117q0 59 -39 85.5t-110 26.5q-57 0 -101 -22.5t-64 -64.5l-2 20t-1 21q0 65 34.5 102t104.5 37q43 0 67 -13t33 -34h69q-14 45 -57 71t-111 26q-95 0 -146 -51.5t-51 -139.5
q0 -87 44.5 -138t149.5 -51q89 0 134.5 35t45.5 90zM1163 42q-52 0 -82 17.5t-44 48.5q14 35 50.5 55t91.5 20q53 0 78 -17t25 -49q0 -34 -29 -54.5t-90 -20.5zM293 344q12 45 36.5 92t54.5 90q31 44 61.5 78.5t54.5 54.5v49h-343v-54h274q-26 -22 -57 -56.5t-61 -76.5
t-54 -87.5t-36 -89.5h70zM894 0v55h-95v309h-48q-7 -33 -27 -52t-56 -21v-49q17 1 38 8t36 16v-211h-95v-55h247z" />
    <glyph glyph-name="ninesixteenths" horiz-adv-x="1435" 
d="M88 0zM635 403l373 263l-80 71l-315 -313zM498 335l-397 -280l82 -79l338 337zM1342 117q0 59 -39 85.5t-110 26.5q-57 0 -101 -22.5t-64 -64.5l-2 20t-1 21q0 65 34.5 102t104.5 37q43 0 67 -13t33 -34h69q-14 45 -57 71t-111 26q-95 0 -146 -51.5t-51 -139.5
q0 -87 44.5 -138t149.5 -51q89 0 134.5 35t45.5 90zM1163 42q-52 0 -82 17.5t-44 48.5q14 35 50.5 55t91.5 20q53 0 78 -17t25 -49q0 -34 -29 -54.5t-90 -20.5zM254 516q-52 0 -78 17t-26 51q0 38 30.5 59t89.5 21q55 0 85 -18t42 -52q-12 -36 -48.5 -57t-94.5 -21zM262 334
q103 0 152.5 50t49.5 138q0 90 -46.5 141t-148.5 51q-86 0 -132.5 -36t-46.5 -96q0 -61 42 -86.5t110 -25.5q59 0 102 22.5t62 64.5q1 -8 1.5 -16.5t0.5 -18.5q0 -65 -34 -101.5t-112 -36.5q-43 0 -68.5 12.5t-34.5 34.5h-71q15 -46 60.5 -71.5t113.5 -25.5zM894 0v55h-95
v309h-48q-7 -33 -27 -52t-56 -21v-49q17 1 38 8t36 16v-211h-95v-55h247z" />
    <glyph glyph-name="elevensixteenths" horiz-adv-x="1760" 
d="M385 344v55h-94v309h-48q-7 -33 -27.5 -52.5t-56.5 -20.5v-49q17 1 38.5 8t36.5 17v-212h-96v-55h247zM712 344v55h-95v309h-48q-7 -33 -27.5 -52t-56.5 -21v-49q17 1 38.5 8t36.5 17v-212h-95v-55h247zM959 403l373 263l-80 71l-315 -313zM822 335l-397 -280l82 -79
l338 337zM1220 0v55h-95v309h-48q-7 -33 -27 -52t-56 -21v-49q17 1 38 8t36 16v-211h-95v-55h247zM1667 116q0 59 -39 85.5t-110 26.5q-57 0 -101 -22.5t-64 -64.5l-2 20t-1 21q0 65 34.5 102t104.5 37q43 0 67 -13t33 -34h69q-14 45 -57 71t-111 26q-95 0 -146 -51.5
t-51 -139.5q0 -87 44.5 -138t149.5 -51q89 0 134.5 35t45.5 90zM1488 41q-52 0 -82 17.5t-44 48.5q14 35 50.5 55t91.5 20q53 0 78 -17t25 -49q0 -34 -29 -54.5t-90 -20.5z" />
    <glyph glyph-name="thirteensixteenths" horiz-adv-x="1835" 
d="M384 344v55h-95v309h-48q-7 -33 -27 -52.5t-56 -20.5v-49q17 1 38 8t36 16v-211h-95v-55h247zM1033 403l373 263l-80 71l-315 -313zM896 335l-397 -280l82 -79l338 337zM1741 117q0 59 -39 85.5t-110 26.5q-57 0 -101 -22.5t-64 -64.5l-2 20t-1 21q0 65 34.5 102
t104.5 37q43 0 67 -13t33 -34h69q-14 45 -57 71t-111 26q-95 0 -146 -51.5t-51 -139.5q0 -87 44.5 -138t149.5 -51q89 0 134.5 35t45.5 90zM1562 42q-52 0 -82 17.5t-44 48.5q14 35 50.5 55t91.5 20q53 0 78 -17t25 -49q0 -34 -29 -54.5t-90 -20.5zM659 335q89 0 135 30
t46 81q0 40 -22.5 60.5t-67.5 27.5q38 7 59 26t21 53q0 46 -39 73.5t-124 27.5q-91 0 -138 -37t-47 -101h61q0 42 30.5 65t92.5 23q55 0 79.5 -15.5t24.5 -43.5q0 -26 -21 -39t-64 -13h-77v-48h78q47 0 69.5 -12.5t22.5 -43.5q0 -28 -27 -46t-87 -18q-69 0 -99.5 21
t-30.5 70h-62q1 -76 45.5 -108.5t141.5 -32.5zM1294 0v55h-95v309h-48q-7 -33 -27 -52t-56 -21v-49q17 1 38 8t36 16v-211h-95v-55h247z" />
    <glyph glyph-name="fifteensixteenths" horiz-adv-x="1835" 
d="M384 344v55h-95v309h-48q-7 -33 -27 -52.5t-56 -20.5v-49q17 1 38 8t36 16v-211h-95v-55h247zM1034 403l373 263l-80 71l-315 -313zM897 335l-397 -280l82 -79l338 337zM1741 117q0 59 -39 85.5t-110 26.5q-57 0 -101 -22.5t-64 -64.5l-2 20t-1 21q0 65 34.5 102
t104.5 37q43 0 67 -13t33 -34h69q-14 45 -57 71t-111 26q-95 0 -146 -51.5t-51 -139.5q0 -87 44.5 -138t149.5 -51q89 0 134.5 35t45.5 90zM1562 42q-52 0 -82 17.5t-44 48.5q14 35 50.5 55t91.5 20q53 0 78 -17t25 -49q0 -34 -29 -54.5t-90 -20.5zM658 335q83 0 132.5 35.5
t49.5 96.5q0 62 -39.5 93t-113.5 31q-48 0 -82 -14.5t-57 -36.5l19 118h193q30 0 43 11t14 39h-299l-29 -201l51 -14l4 3q18 20 49.5 35.5t78.5 15.5q53 0 81 -19t28 -61q0 -40 -31.5 -61t-90.5 -21q-57 0 -83 20t-28 48h-69q5 -52 47 -85t132 -33zM1294 0v55h-95v309h-48
q-7 -33 -27 -52t-56 -21v-49q17 1 38 8t36 16v-211h-95v-55h247z" />
    <glyph glyph-name="percent" unicode="%" horiz-adv-x="851" 
d="M213 403q78 0 125 43t47 115q0 71 -47.5 115t-122.5 44q-48 0 -87.5 -19.5t-62.5 -54.5q-11 -18 -17 -39t-6 -46q0 -76 47.5 -117t123.5 -41zM33 0h99l683 708h-95zM213 459q-48 0 -78 26t-30 76t30.5 75.5t77.5 25.5q49 0 79 -27.5t30 -73.5t-30.5 -74t-78.5 -28z
M630 -15q79 0 126 42.5t47 114.5q0 71 -47.5 115.5t-123.5 44.5q-48 0 -87.5 -19.5t-62.5 -55.5q-11 -18 -17 -39t-6 -46q0 -75 47.5 -116t123.5 -41zM630 41q-47 0 -77 25.5t-30 75.5t30 76t78 26t78.5 -28t30.5 -74t-31 -73.5t-79 -27.5z" />
    <glyph glyph-name="perthousand" unicode="&#x2030;" horiz-adv-x="1274" 
d="M213 403q78 0 125 43t47 115q0 71 -47.5 115t-122.5 44q-48 0 -87.5 -19.5t-62.5 -54.5q-11 -18 -17 -39t-6 -46q0 -76 47.5 -117t123.5 -41zM33 0h99l683 708h-95zM213 459q-48 0 -78 26t-30 76t30.5 75.5t77.5 25.5q49 0 79 -27.5t30 -73.5t-30.5 -74t-78.5 -28z
M1058 -15q78 0 125 42.5t47 114.5q0 71 -47.5 115.5t-123.5 44.5q-48 0 -87 -19.5t-62 -55.5q-11 -18 -17 -39t-6 -46q0 -75 47.5 -116t123.5 -41zM630 -15q79 0 126 42.5t47 114.5q0 71 -47.5 115.5t-123.5 44.5q-48 0 -87.5 -19.5t-62.5 -55.5q-11 -18 -17 -39t-6 -46
q0 -75 47.5 -116t123.5 -41zM1058 41q-48 0 -78 25.5t-30 75.5t30 76t78 26q49 0 79 -28t30 -74t-30.5 -73.5t-78.5 -27.5zM630 41q-47 0 -77 25.5t-30 75.5t30 76t78 26t78.5 -28t30.5 -74t-31 -73.5t-79 -27.5z" />
    <glyph glyph-name="uni2116" unicode="&#x2116;" horiz-adv-x="1602" 
d="M1263 307q129 0 198.5 54.5t69.5 154.5q0 70 -34.5 117.5t-94.5 72.5q-30 13 -64 19t-73 6q-75 0 -135.5 -24.5t-95.5 -72.5q-17 -24 -26 -53.5t-9 -64.5q0 -101 67 -155t197 -54zM1264 364q-92 0 -145.5 38t-53.5 114q0 54 27 89t72 53q23 8 48.5 12.5t53.5 4.5
q89 0 144.5 -41t55.5 -118q0 -76 -54.5 -114t-147.5 -38zM763 0h73v708h-77v-595l-563 595h-84v-708h77v607zM1508 172h-484v-67h484v67z" />
    <glyph glyph-name="currency" unicode="&#xa4;" horiz-adv-x="809" 
d="M410 157q-59 0 -106 26t-74 72q-14 23 -20.5 49t-6.5 55v2q0 59 27 105t73 73q24 13 50.5 19.5t56.5 6.5q60 0 106.5 -26.5t73.5 -72.5q14 -23 20.5 -49.5t6.5 -55.5v-2q0 -58 -27 -104t-74 -72q-23 -13 -49.5 -19.5t-56.5 -6.5zM410 86q50 0 93 13.5t77 37.5l117 -115
l54 57l-114 113q26 35 39.5 77t13.5 90v1q0 49 -14 91.5t-40 76.5l120 121l-60 55l-118 -120q-36 26 -78 38.5t-90 12.5q-49 0 -91.5 -12.5t-78.5 -38.5l-124 122l-55 -58l121 -121q-25 -34 -38.5 -76t-13.5 -91t13.5 -91t39.5 -77l-123 -123l60 -57l122 123q35 -23 77 -36
t91 -13z" />
    <glyph glyph-name="uni2190" unicode="&#x2190;" horiz-adv-x="986" 
d="M926 335v74h-755q34 25 73 64.5t72 88.5q17 24 30 48.5t22 49.5h-88q-16 -48 -53.5 -100.5t-84.5 -97.5q-23 -22 -46.5 -40t-47.5 -32v-37q35 -21 71 -52t69 -68q33 -38 58 -76.5t38 -74.5h88q-19 50 -54 98.5t-75 89.5q-20 20 -38.5 36.5t-35.5 28.5h757z" />
    <glyph glyph-name="uni2192" unicode="&#x2192;" horiz-adv-x="986" 
d="M692 82q12 36 37 74.5t58 76.5q33 37 70 68t72 52v37q-46 27 -93.5 72.5t-84.5 97.5q-18 26 -31.5 51t-22.5 49h-90q20 -48 53 -96t71 -88q19 -20 36.5 -36t34.5 -29h-752v-76h757q-34 -24 -74.5 -64t-74.5 -89q-18 -24 -31 -49t-22 -51h87z" />
    <glyph glyph-name="arrowup" unicode="&#x2191;" horiz-adv-x="986" 
d="M780 441v88q-48 16 -100 53t-97 84q-23 23 -41 47t-32 47h-37q-20 -34 -51.5 -70t-68.5 -68t-76 -56.5t-75 -37.5v-89q50 20 98 53t89 72q20 19 36.5 37t28.5 35v-684h75v685q25 -34 64.5 -72.5t88.5 -72.5q24 -16 48.5 -29t49.5 -22z" />
    <glyph glyph-name="arrowdown" unicode="&#x2193;" horiz-adv-x="986" 
d="M509 -52q20 35 51.5 70.5t68.5 68.5q37 32 76 56.5t74 37.5v88q-48 -19 -96.5 -52.5t-89.5 -71.5q-20 -19 -36 -37t-29 -35v684h-75v-685q-25 34 -65 72.5t-88 72.5q-24 16 -48.5 29t-49.5 22v-88q48 -16 100 -53t97 -85q23 -23 41 -47t32 -47h37z" />
    <glyph glyph-name="uni2196" unicode="&#x2196;" horiz-adv-x="986" 
d="M824 86l-535 533q42 -6 97.5 -5.5t113.5 11.5q29 5 55 13.5t50 19.5l-62 62q-45 -22 -107.5 -32.5t-128.5 -9.5q-32 1 -61.5 4.5t-56.5 10.5l-26 -26q10 -39 13 -86t0 -96q-4 -49 -14 -94t-26 -79l63 -63q21 48 31.5 106t11.5 114q1 28 -0.5 52t-4.5 45l534 -533z" />
    <glyph glyph-name="uni2197" unicode="&#x2197;" horiz-adv-x="986" 
d="M771 251l61 62q-22 46 -32.5 108.5t-8.5 128.5q1 32 4.5 62t10.5 56l-26 26q-52 -14 -117.5 -15t-128.5 9q-32 6 -59 14t-50 18l-64 -63q49 -20 106.5 -30.5t113.5 -12.5q28 0 52.5 1t45.5 4l-534 -533l54 -53l532 533q-6 -41 -5 -96.5t12 -113.5q5 -28 13.5 -54.5
t19.5 -50.5z" />
    <glyph glyph-name="uni2198" unicode="&#x2198;" horiz-adv-x="986" 
d="M781 51l26 26q-10 39 -13.5 86t0.5 96t14 94t26 79l-63 63q-21 -48 -31.5 -106t-11.5 -114q-1 -28 0 -52.5t4 -45.5l-533 534l-53 -54l534 -532q-41 7 -96.5 6t-113.5 -12q-29 -6 -55 -14t-50 -20l61 -61q45 22 108 32.5t128 9.5q33 -1 63 -4.5t56 -10.5z" />
    <glyph glyph-name="uni2199" unicode="&#x2199;" horiz-adv-x="986" 
d="M544 23l64 63q-48 21 -106.5 31.5t-114.5 11.5q-28 1 -52 -0.5t-45 -4.5l534 534l-54 53l-533 -534q7 42 6 97.5t-12 112.5q-5 29 -13.5 55t-19.5 50l-61 -62q22 -45 32.5 -107.5t8.5 -128.5q0 -33 -3.5 -62.5t-10.5 -56.5l25 -25q39 10 86.5 13t96.5 0q49 -4 93.5 -14
t78.5 -26z" />
    <glyph glyph-name="uni25CB" unicode="&#x25cb;" horiz-adv-x="851" 
d="M425 -10q79 0 145 27t115 75q48 49 75 115t27 145t-26.5 145t-75.5 115q-48 49 -114.5 76t-145.5 27q-78 0 -144 -27t-115 -75q-48 -49 -75 -115.5t-27 -145.5q0 -105 46.5 -187t127.5 -128q41 -24 87.5 -35.5t99.5 -11.5zM425 51q-86 0 -153.5 39.5t-105.5 107.5
q-20 34 -29.5 72.5t-9.5 81.5q0 87 39.5 155t107.5 108q33 19 71 29t80 10q86 0 153.5 -40t106.5 -109q20 -34 29.5 -72t9.5 -81q0 -85 -39.5 -153.5t-106.5 -107.5q-34 -20 -72 -30t-81 -10z" />
    <glyph glyph-name="uni25CF" unicode="&#x25cf;" horiz-adv-x="851" 
d="M425 -10q79 0 145 27t115 75q48 49 75 115t27 145t-26.5 145t-75.5 115q-48 49 -114.5 76t-145.5 27q-78 0 -144 -27t-115 -75q-48 -49 -75 -115.5t-27 -145.5q0 -105 46.5 -187t127.5 -128q41 -24 87.5 -35.5t99.5 -11.5z" />
    <glyph glyph-name="mediumwhitecircle" horiz-adv-x="710" 
d="M355 -10q83 0 149.5 38t104.5 104q20 33 29.5 70.5t9.5 79.5q0 85 -39 150.5t-105 103.5q-33 19 -70.5 28.5t-78.5 9.5q-82 0 -148 -38t-105 -104q-20 -33 -29.5 -70.5t-9.5 -79.5q0 -83 38 -149t104 -105q33 -19 70.5 -28.5t79.5 -9.5zM355 48q-67 0 -118.5 31t-81.5 84
q-14 27 -21.5 56.5t-7.5 62.5q0 66 29.5 119t80.5 84q26 16 56 23.5t63 7.5q66 0 118 -30t82 -83q15 -27 22.5 -57t7.5 -64q0 -67 -30 -120t-82 -83q-26 -16 -55.5 -23.5t-62.5 -7.5z" />
    <glyph glyph-name="mediumblackcircle" horiz-adv-x="710" 
d="M355 -10q83 0 149.5 38t104.5 104q20 33 29.5 70.5t9.5 79.5q0 85 -39 150.5t-105 103.5q-33 19 -70.5 28.5t-78.5 9.5q-82 0 -148 -38t-105 -104q-20 -33 -29.5 -70.5t-9.5 -79.5q0 -83 38 -149t104 -105q33 -19 70.5 -28.5t79.5 -9.5z" />
    <glyph glyph-name="uni25A0" unicode="&#x25a0;" horiz-adv-x="848" 
d="M72 0h704v708h-704v-708z" />
    <glyph glyph-name="uni25A1" unicode="&#x25a1;" horiz-adv-x="848" 
d="M72 0v708h704v-708h-704zM135 649v-589h577v589h-577z" />
    <glyph glyph-name="uni22A0" unicode="&#x22a0;" horiz-adv-x="848" 
d="M72 0h704v708h-704v-708zM135 649h577v-589h-577v589zM588 151l39 38l-164 168l161 166l-38 38l-160 -165l-162 166l-39 -38l163 -167l-166 -171l38 -39l166 171z" />
    <glyph glyph-name="uni25AA" unicode="&#x25aa;" horiz-adv-x="711" 
d="M74 0h563v563h-563v-563z" />
    <glyph glyph-name="uni25AB" unicode="&#x25ab;" horiz-adv-x="711" 
d="M74 0h563v563h-563v-563zM137 503h438v-443h-438v443z" />
    <glyph glyph-name="ballotboxwithx" horiz-adv-x="711" 
d="M74 0h563v563h-563v-563zM137 503h438v-443h-438v443zM463 140l34 35l-103 104l101 103l-34 37l-103 -105l-103 104l-35 -35l104 -104l-104 -106l34 -36l105 107z" />
    <glyph glyph-name="triagup" unicode="&#x25b2;" horiz-adv-x="821" 
d="M827 0l-416 721l-417 -721h833z" />
    <glyph glyph-name="triagdn" unicode="&#x25bc;" horiz-adv-x="821" 
d="M-6 709l417 -721l416 721h-833z" />
    <glyph glyph-name="triaglf" unicode="&#x25c4;" horiz-adv-x="821" 
d="M749 777l-721 -416l721 -416v832z" />
    <glyph glyph-name="triagrt" unicode="&#x25ba;" horiz-adv-x="821" 
d="M72 -55l721 416l-721 416v-832z" />
    <glyph glyph-name="uni25E4" unicode="&#x25e4;" horiz-adv-x="821" 
d="M808 -52l-216 803l-589 -588z" />
    <glyph glyph-name="uni25E5" unicode="&#x25e5;" horiz-adv-x="821" 
d="M822 158l-588 590l-216 -804z" />
    <glyph glyph-name="uni25E2" unicode="&#x25e2;" horiz-adv-x="821" 
d="M823 518l-804 215l215 -804z" />
    <glyph glyph-name="uni25E3" unicode="&#x25e3;" horiz-adv-x="821" 
d="M589 -71l216 804l-805 -215z" />
    <glyph glyph-name="uni25CE" unicode="&#x25ce;" horiz-adv-x="830" 
d="M413 -10q78 0 143.5 26.5t113.5 74.5t74 113t26 141q0 78 -26.5 143.5t-74.5 113.5t-113.5 74.5t-142.5 26.5t-141.5 -27t-111.5 -75q-48 -49 -74 -114t-26 -142t26 -142t74 -113q47 -47 111.5 -73.5t141.5 -26.5zM413 117q-63 0 -114 30t-81 81q-15 26 -22.5 55.5
t-7.5 61.5q0 66 30 119t81 83q26 16 54.5 23.5t59.5 7.5q67 0 118.5 -31.5t80.5 -84.5q15 -26 22.5 -55.5t7.5 -61.5q0 -65 -29.5 -116.5t-81.5 -81.5q-26 -15 -55.5 -22.5t-62.5 -7.5zM414 180q48 0 86 21.5t60 58.5q11 19 16.5 40t5.5 44q0 47 -22 84.5t-60 59.5
q-19 11 -40.5 16.5t-45.5 5.5q-46 0 -83.5 -22t-58.5 -59q-11 -19 -16.5 -40t-5.5 -45q0 -47 21 -84.5t58 -58.5q19 -10 40 -15.5t45 -5.5zM414 289q-22 0 -36.5 16.5t-14.5 38.5q0 26 14.5 42t36.5 16q24 0 39 -16t15 -42q0 -22 -15 -38.5t-39 -16.5z" />
    <glyph glyph-name="uni2605" unicode="&#x2605;" horiz-adv-x="844" 
d="M533 301l186 133l-228 1l-71 217l-72 -217l-227 1l185 -134l-72 -218l185 135l186 -135z" />
    <glyph glyph-name="uni263C" unicode="&#x263c;" horiz-adv-x="872" 
d="M423 564h20l17 141h-54zM530 542l15 -10l86 114l-46 27zM321 532l14 10l-54 131l-47 -27zM610 468l10 -16l132 56l-30 45zM246 452l10 15l-114 86l-28 -46zM260 353q0 -47 23.5 -86t62.5 -63q20 -11 41.5 -17t45.5 -6q47 0 86.5 23.5t62.5 62.5q12 19 18 41t6 45
q0 48 -23.5 87.5t-63.5 62.5q-19 12 -40.5 18t-45.5 6q-47 0 -86.5 -23.5t-63.5 -63.5q-11 -20 -17 -41.5t-6 -45.5zM642 364v-19l142 -17v53zM223 345v19l-141 17v-53zM256 242l-10 15l-132 -55l30 -46zM620 257l-10 -14l114 -87l28 47zM335 168l-14 10l-87 -115l47 -27z
M545 178l-15 -10l55 -132l46 27zM443 145h-20l-17 -141h54z" />
    <glyph glyph-name="uni263E" unicode="&#x263e;" horiz-adv-x="732" 
d="M506 601q17 0 35 -3.5t35 -8.5q-38 27 -83 42t-94 15q-61 0 -114 -23t-94 -63q-40 -41 -63 -94.5t-23 -114.5q0 -60 23 -113.5t63 -93.5q41 -41 94 -64t114 -23q49 0 94 15t83 42q-17 -5 -35 -8.5t-35 -3.5q-66 0 -120 34t-86 90q-16 29 -24 60t-8 65q0 69 32 126t86 90
q27 17 57 25.5t63 8.5z" />
    <glyph glyph-name="uni267B" unicode="&#x267b;" horiz-adv-x="774" 
d="M323 675l13.5 -2.5t31.5 -12.5q9 -5 17 -13t14 -19l61 -105l-34 -20l144 -27l53 141l-37 -21l-24 41q-16 28 -34.5 33t-41.5 6h-163v-1zM151 524l126 -73l97 169q-8 16 -31.5 28t-52.5 14q-15 1 -28 -2t-26 -10q-10 -5 -17.5 -13t-10.5 -13zM660 464l-125 -72l97 -168
q18 0 40.5 14t38.5 38q8 12 12 25t4 28q0 11 -2.5 21t-5.5 15zM140 124l-4.5 14t-4.5 35q0 10 3 20.5t9 21.5q1 2 10 18l21 36l21 35.5l9 15.5l34 -21l-49 140l-148 -26l36 -21l-24 -41q-16 -28 -11.5 -47t15.5 -39l81 -141h2zM709 245l-10 -11t-28 -22q-9 -5 -19.5 -8
t-23.5 -3h-121v42l-95 -115l95 -114v41h48q33 0 47 14t26 33l82 142zM358 55v146h-194q-9 -15 -8 -41.5t14 -52.5q6 -13 15.5 -23t22.5 -18q10 -6 20 -8.5t17 -2.5h113z" />
    <glyph glyph-name="uni267C" unicode="&#x267c;" horiz-adv-x="774" 
d="M723 351q0 71 -26 132t-72 108q-46 46 -107 72t-130 26q-70 0 -131 -26t-108 -72q-46 -47 -72.5 -108t-26.5 -132q0 -69 26.5 -130t72.5 -106q47 -46 108 -72t131 -26q69 0 130 26t107 72q46 45 72 106t26 130zM331 608h127q19 0 33 -4.5t27 -26.5l18 -31l28 15l-40 -109
l-112 21l27 16l-48 81q-9 17 -23.5 24.5t-25.5 10.5q-5 1 -8 1.5l-3 0.5v1zM247 566q2 5 8 11t13 10q20 12 42 10t40 -11q9 -5 15.5 -10.5t9.5 -11.5l-74 -131l-98 57zM641 367q3 -5 5.5 -12t2.5 -16q0 -23 -12.5 -42t-29.5 -31q-8 -5 -16 -8t-15 -3l-76 131l98 57zM193 180
l-63 108q-8 17 -12 31t9 36l19 32l-28 17l113 19l39 -108l-27 17l-47 -82q-9 -16 -9 -32.5t4 -26.5q1 -6 2 -8.5l1 -2.5h-1zM635 271l-63 -108q-9 -15 -19.5 -25.5t-36.5 -10.5h-37v-33l-75 89l75 87v-30h93q20 0 34 8t21 16q3 4 5 6l2 2zM272 127q-5 0 -13 2t-16 6
q-19 12 -29 32t-11 40q-1 10 0.5 18.5t5.5 14.5h151v-113h-88z" />
    <glyph glyph-name="uni267D" unicode="&#x267d;" horiz-adv-x="774" 
d="M723 351q0 71 -26 132t-72 108q-46 46 -107 72t-130 26q-70 0 -131 -26t-108 -72q-46 -47 -72.5 -108t-26.5 -132q0 -69 26.5 -130t72.5 -106q47 -46 108 -72t131 -26q69 0 130 26t107 72q46 45 72 106t26 130zM706 351q0 -66 -24.5 -123.5t-68.5 -101.5t-101.5 -68.5
t-123.5 -24.5t-124.5 24.5t-102.5 68.5t-69 101.5t-25 123.5q0 67 25 125.5t69 102.5t102.5 68.5t124.5 24.5t123.5 -24.5t101.5 -68.5t68.5 -102.5t24.5 -125.5zM331 607l11 -2.5t25 -10.5q7 -4 13 -10t11 -14l48 -81l-27 -16l112 -21l40 109l-28 -15l-18 31
q-13 22 -27 26.5t-33 4.5h-127v-1zM203 490l98 -57l74 131q-6 13 -24.5 22t-40.5 11q-11 1 -21.5 -1.5t-20.5 -8.5q-7 -4 -13 -10t-8 -11zM598 443l-98 -57l76 -131q14 0 31 11.5t30 30.5q6 9 9 20t3 22q0 9 -2.5 16t-5.5 12zM194 180l-3.5 10.5t-3.5 26.5q0 8 2 16.5
t7 16.5l47 82l27 -17l-39 108l-113 -19l28 -17l-19 -32q-13 -22 -9 -36t12 -31l63 -108h1zM634 272l-7 -8t-21 -16q-7 -4 -15.5 -6t-18.5 -2h-93v30l-75 -87l75 -89v33h37q26 0 36.5 10.5t19.5 25.5l63 108zM360 127v113h-151q-7 -12 -6 -32.5t11 -40.5q5 -10 12 -18t17 -14
q8 -4 16 -6t13 -2h88z" />
    <glyph glyph-name="house" unicode="&#x2302;" horiz-adv-x="796" 
d="M722 0v403l-324 311l-324 -311v-403h648z" />
    <glyph glyph-name="spade" unicode="&#x2660;" horiz-adv-x="846" 
d="M455 282q13 -33 36 -63t58 -49q17 -10 37.5 -14.5t44.5 -4.5q43 0 77.5 21t55.5 55q11 18 16 37t5 40q0 56 -22 103t-71 97q-24 25 -56.5 53.5t-72.5 60.5l-136 108h-1l-136 -108q-80 -64 -131 -114t-75 -97q-12 -24 -18 -49.5t-6 -53.5q0 -42 23 -77t61 -56
q19 -10 40 -15.5t43 -5.5q45 0 77.5 19t53.5 49q11 15 19.5 31t14.5 33q0 -58 -17.5 -113.5t-39.5 -99.5l-19.5 -39l-15.5 -30h252q-9 19 -25 48.5t-33 67.5q-16 37 -27.5 79.5t-11.5 86.5z" />
    <glyph glyph-name="club" unicode="&#x2663;" horiz-adv-x="846" 
d="M618 127q48 0 87 23.5t62 63.5q11 20 17 41.5t6 45.5q0 48 -23 87t-62 62q-19 11 -40.5 17t-45.5 6q-12 0 -23.5 -2t-21.5 -6q8 20 13 42t5 44q0 48 -23 86.5t-62 60.5q-19 12 -40.5 17.5t-45.5 5.5q-47 0 -86.5 -22.5t-62.5 -61.5q-11 -19 -17 -40.5t-6 -45.5
q0 -22 5.5 -43t14.5 -41l-20 4t-21 2q-47 0 -86.5 -23t-63.5 -62q-11 -20 -17 -41.5t-6 -45.5q0 -48 23.5 -87.5t62.5 -62.5q20 -12 41.5 -18t45.5 -6q57 0 100 33.5t63 83.5q-6 -51 -23 -99t-36 -85q-9 -19 -17 -34l-14 -26h252l-31 59.5t-38 85.5q-9 23 -15.5 48t-9.5 50
q20 -50 61.5 -83t97.5 -33z" />
    <glyph glyph-name="heart" unicode="&#x2665;" horiz-adv-x="846" 
d="M420 -17l137 153q82 90 131.5 159.5t72.5 127.5q12 29 17.5 58t5.5 57q0 50 -25.5 91.5t-67.5 66.5q-21 13 -44 19t-48 6q-74 0 -122.5 -44.5t-56.5 -111.5q-5 45 -29.5 80t-62.5 56q-20 10 -41.5 15t-46.5 5q-50 0 -90.5 -25t-64.5 -66q-12 -21 -18 -44t-6 -48
q0 -57 22 -115t70 -128q25 -34 57.5 -74l72.5 -85z" />
    <glyph glyph-name="diamond" unicode="&#x2666;" horiz-adv-x="846" 
d="M104 361l319 -371l318 371l-318 368z" />
    <glyph glyph-name="plus" unicode="+" horiz-adv-x="712" 
d="M625 319v72h-233v218h-71v-218h-223v-72h223v-220h71v220h233z" />
    <glyph glyph-name="minus" unicode="&#x2212;" horiz-adv-x="712" 
d="M652 319v72h-587v-72h587z" />
    <glyph glyph-name="plusminus" unicode="&#xb1;" horiz-adv-x="712" 
d="M602 432v71h-209v194h-71v-194h-201v-71h201v-196h71v196h209zM604 76v71h-480v-71h480z" />
    <glyph glyph-name="multiply" unicode="&#xd7;" horiz-adv-x="707" 
d="M550 111l48 50l-201 209l198 199l-47 49l-198 -198l-185 193l-46 -51l183 -191l-210 -210l47 -50l210 211z" />
    <glyph glyph-name="divide" unicode="&#xf7;" horiz-adv-x="712" 
d="M354 537q27 0 40.5 13.5t13.5 39.5q0 28 -13.5 42t-40.5 14q-28 0 -42 -13.5t-14 -41.5q0 -27 14 -40.5t42 -13.5zM647 320v71h-575v-71h575zM351 60q28 0 41.5 13.5t13.5 39.5q0 28 -13.5 41.5t-40.5 13.5t-41 -13.5t-14 -40.5q0 -29 13 -41.5t41 -12.5z" />
    <glyph glyph-name="equal" unicode="=" horiz-adv-x="728" 
d="M639 496v68h-547v-68h547zM639 162v69h-547v-69h547z" />
    <glyph glyph-name="notequal" unicode="&#x2260;" horiz-adv-x="728" 
d="M639 162v69h-288l77 264h211v69h-191l38 130h-58l-38 -130h-298v-69h278l-76 -264h-202v-69h182l-43 -148h57l43 148h308z" />
    <glyph glyph-name="approxequal" unicode="&#x2248;" horiz-adv-x="728" 
d="M226 568q-40 0 -71.5 -17.5t-44.5 -38.5v-81q17 32 49.5 49t66.5 17q29 0 62 -11t69 -26q35 -15 73 -26t78 -11q37 0 68.5 17t44.5 37v82q-19 -33 -47 -49.5t-66 -16.5q-30 0 -64.5 11.5t-70.5 26.5q-37 14 -74 25.5t-73 11.5zM110 218v-82q16 29 47 48t67 19
q30 0 63.5 -11t69.5 -26t74 -26t77 -11q41 0 70.5 16.5t42.5 37.5v79q-21 -31 -49.5 -46.5t-63.5 -15.5q-30 0 -64.5 11t-70.5 26q-37 15 -74.5 26t-74.5 11q-38 0 -69.5 -17t-44.5 -39z" />
    <glyph glyph-name="less" unicode="&#x3c;" horiz-adv-x="728" 
d="M604 119v81l-414 168l414 167v80l-496 -211v-72z" />
    <glyph glyph-name="greater" unicode="&#x3e;" horiz-adv-x="728" 
d="M128 119l496 213v72l-496 211v-80l414 -167l-414 -168v-81z" />
    <glyph glyph-name="lessequal" unicode="&#x2264;" horiz-adv-x="728" 
d="M608 244v79l-411 152l411 150v77l-495 -193v-68zM609 64v68h-495v-68h495z" />
    <glyph glyph-name="greaterequal" unicode="&#x2265;" horiz-adv-x="728" 
d="M119 244l495 197v68l-495 193v-77l412 -150l-412 -152v-79zM613 64v68h-495v-68h495z" />
    <glyph glyph-name="logicalnot" unicode="&#xac;" horiz-adv-x="751" 
d="M620 146h77v391h-665v-73h585l3 -3v-315z" />
    <glyph glyph-name="equivalence" unicode="&#x2261;" horiz-adv-x="728" 
d="M639 516v69h-547v-69h547zM639 326v69h-547v-69h547zM639 139v69h-547v-69h547z" />
    <glyph glyph-name="uni2032" unicode="&#x2032;" horiz-adv-x="158" 
d="M74 508l64 200h-77l-40 -200h53z" />
    <glyph glyph-name="uni2033" unicode="&#x2033;" horiz-adv-x="288" 
d="M213 508l59 200h-77l-35 -200h53zM73 508l65 200h-78l-40 -200h53z" />
    <glyph glyph-name="uni2105" unicode="&#x2105;" horiz-adv-x="851" 
d="M33 0h99l683 708h-95zM384 530h-64q-9 -34 -37.5 -52.5t-69.5 -18.5q-48 0 -78 26t-30 76t30.5 75.5t77.5 25.5q42 0 71 -18.5t36 -53.5h64q-9 60 -54.5 95t-114.5 35q-48 0 -87.5 -19.5t-62.5 -54.5q-11 -18 -17 -39t-6 -46q0 -76 47.5 -117t123.5 -41q71 0 116 33.5
t55 93.5zM630 -15q79 0 126 42.5t47 114.5q0 71 -47.5 115.5t-123.5 44.5q-48 0 -87.5 -19.5t-62.5 -55.5q-11 -18 -17 -39t-6 -46q0 -75 47.5 -116t123.5 -41zM630 41q-47 0 -77 25.5t-30 75.5t30 76t78 26t78.5 -28t30.5 -74t-31 -73.5t-79 -27.5z" />
    <glyph glyph-name="underscoredbl" unicode="&#x2017;" horiz-adv-x="823" 
d="M775 59h-726v-59h726v59zM775 -114h-726v-59h726v59z" />
    <glyph glyph-name="exclamdbl" unicode="&#x203c;" horiz-adv-x="652" 
d="M420 721v-136q0 -97 4 -178t9 -134l5 -43l3 -25q3 1 12 1.5t15 0.5q9 0 15.5 -0.5t11.5 -1.5q2 15 6.5 68t7.5 134q2 40 3 84.5t1 93.5v136h-93zM138 721v-136q0 -97 4 -178t9 -134l5 -43l3 -25q2 1 11.5 1.5t15.5 0.5t14.5 -0.5t12.5 -1.5q2 15 6.5 68t7.5 134
q2 40 3 84.5t1 93.5v136h-93zM467 -12q32 0 50.5 15.5t18.5 49.5q0 32 -17 48t-52 16t-52.5 -16t-17.5 -48q0 -35 17.5 -50t52.5 -15zM184 -12q35 0 52 16.5t17 48.5t-17 48t-52 16q-34 0 -51.5 -16t-17.5 -48q0 -35 17.5 -50t51.5 -15z" />
    <glyph glyph-name="infinity" unicode="&#x221e;" horiz-adv-x="947" 
d="M243 206q46 0 88 19.5t78 48.5l34.5 27.5l31.5 26.5q30 -26 66.5 -54.5t77.5 -47.5q20 -10 42 -15t44 -5q51 0 89.5 22t60.5 60q10 20 15.5 42t5.5 47q0 76 -46.5 124t-125.5 48q-44 0 -84.5 -20.5t-76.5 -50.5l-34.5 -29l-32.5 -27l-67.5 56.5t-78.5 49.5
q-20 11 -41.5 16t-44.5 5q-51 0 -90.5 -23t-61.5 -63q-12 -19 -17.5 -41t-5.5 -47q0 -76 47.5 -122.5t126.5 -46.5zM705 275q-33 0 -65 16.5t-61 39.5l-28.5 23t-25.5 22q25 22 54.5 45.5t61.5 40.5q16 9 32 13t32 4q46 0 73.5 -30t27.5 -73t-28 -72t-73 -29zM244 275
q-45 0 -74.5 29t-29.5 72t29 73t75 30q33 0 65.5 -17t62.5 -41l28.5 -23.5l25.5 -22.5q-24 -21 -53.5 -44.5t-62.5 -39.5q-16 -8 -32.5 -12t-33.5 -4z" />
    <glyph glyph-name="partialdiff" unicode="&#x2202;" horiz-adv-x="906" 
d="M451 -20q192 0 294.5 72t102.5 207q0 155 -117.5 285t-353.5 235h-129q157 -69 263 -134.5t167 -133.5q31 -34 52.5 -69.5t32.5 -73.5q-37 80 -122 121t-208 41q-108 0 -192 -32t-133 -94q-24 -31 -36 -69t-12 -83q0 -131 99 -201.5t292 -70.5zM453 50
q-149 0 -230.5 48.5t-81.5 154.5q0 74 41 120t112 67q35 11 75 16.5t85 5.5q91 0 162.5 -23.5t112.5 -69.5q20 -23 30.5 -52t10.5 -64q0 -106 -83.5 -154.5t-233.5 -48.5z" />
    <glyph glyph-name="pi" unicode="&#x3c0;" horiz-adv-x="863" 
d="M567 259q0 -82 10 -133t37 -78q26 -28 72.5 -38t118.5 -10h22v72h-17q-51 0 -83 7.5t-50 27.5q-17 20 -24 58.5t-7 100.5v367h192v75h-812v-75h174v-633h80v633h287v-374z" />
    <glyph glyph-name="uni03BC" unicode="&#x3bc;" horiz-adv-x="862" 
d="M407 -17q107 0 178.5 54t99.5 139l6 -176h69v567h-78v-226q0 -80 -32.5 -145.5t-92.5 -103.5q-29 -19 -64 -28.5t-75 -9.5q-82 0 -135 34.5t-79 91.5q-13 29 -19.5 61t-6.5 67v259h-78v-769h77v311q28 -59 83.5 -92.5t146.5 -33.5z" />
    <glyph glyph-name="integral" unicode="&#x222b;" horiz-adv-x="442" 
d="M-63 -218h64q72 0 118 10t72 35q26 26 36.5 74t10.5 125v567q0 58 7 93.5t24 53.5q18 19 50 25.5t82 6.5h57v64h-65q-87 0 -137 -19.5t-72 -70.5q-10 -26 -15.5 -62.5t-5.5 -83.5v-572q0 -59 -7 -95.5t-25 -54.5q-18 -19 -51 -25.5t-84 -6.5h-59v-64z" />
    <glyph glyph-name="radical" unicode="&#x221a;" horiz-adv-x="878" 
d="M429 0l421 709h-88l-371 -632l-196 438h-166v-71h116l201 -444h83z" />
    <glyph glyph-name="uni2206" unicode="&#x2206;" horiz-adv-x="1117" 
d="M1114 0l-555 720l-557 -720h1112zM973 68h-830l415 540z" />
    <glyph glyph-name="uni2126" unicode="&#x2126;" horiz-adv-x="960" 
d="M391 57q-63 53 -113 104.5t-78 106.5q-15 28 -22 57t-7 59q0 79 37 138.5t105 93.5q34 17 74 25.5t86 8.5q91 0 159.5 -34t106.5 -94q20 -30 29.5 -64.5t9.5 -73.5q0 -58 -30.5 -114.5t-79.5 -109.5q-25 -27 -52 -52.5l-56 -50.5l36 -57h351v71h-281q51 42 95.5 91.5
t71.5 106.5q13 29 20 58.5t7 60.5q0 95 -47.5 171t-134.5 120q-43 22 -94.5 33t-110.5 11q-88 0 -159 -26t-121 -73t-77 -108t-27 -132q0 -66 25.5 -121t69.5 -103q22 -23 47 -45.5t52 -43.5h-281v-71h359z" />
    <glyph glyph-name="product" unicode="&#x220f;" horiz-adv-x="863" 
d="M576 0h79v633h183v75h-812v-75h176v-633h80v633h294v-633z" />
    <glyph glyph-name="summation" unicode="&#x2211;" horiz-adv-x="705" 
d="M662 71h-519l318 292l-310 277h493v68h-592v-75l304 -270l-316 -288v-75h622v71z" />
    <glyph glyph-name="lozenge" unicode="&#x25ca;" horiz-adv-x="986" 
d="M487 -119l474 473l-476 476l-473 -474zM114 357l370 371l375 -374l-371 -371z" />
    <glyph glyph-name="degree" unicode="&#xb0;" horiz-adv-x="427" 
d="M213 403q78 0 125 43t47 115q0 71 -47.5 115t-122.5 44q-48 0 -87.5 -19.5t-62.5 -54.5q-11 -18 -17 -39t-6 -46q0 -76 47.5 -117t123.5 -41zM213 459q-48 0 -78 26t-30 76t30.5 75.5t77.5 25.5q49 0 79 -27.5t30 -73.5t-30.5 -74t-78.5 -28z" />
    <glyph glyph-name=".ttfautohint" horiz-adv-x="427" 
d="M0 0z" />
    </font>
</defs>
</svg>
