<?xml version="1.0" standalone="no"?>
<!DOCTYPE svg PUBLIC "-//W3C//DTD SVG 1.1//EN" "http://www.w3.org/Graphics/SVG/1.1/DTD/svg11.dtd" >
<svg>
<metadata>
Created by FontForge 20090622 at Thu Nov 14 15:19:43 2019
 By deploy user
(C) 2016 Sharp Type Corporation
</metadata>
<defs>
<font id="SharpGroteskThin25-Regular" horiz-adv-x="1070" >
  <font-face 
    font-family="Sharp Grotesk Thin 25"
    font-weight="300"
    font-stretch="ultra-expanded"
    units-per-em="1000"
    panose-1="2 11 3 7 5 7 2 3 2 4"
    ascent="800"
    descent="-200"
    x-height="564"
    cap-height="706"
    bbox="-105 -329 1944 1153"
    underline-thickness="50"
    underline-position="-50"
    unicode-range="U+0020-U+3009"
  />
<missing-glyph horiz-adv-x="358" 
 />
    <glyph glyph-name=".notdef" horiz-adv-x="358" 
 />
    <glyph glyph-name="space" unicode=" " horiz-adv-x="358" 
 />
    <glyph glyph-name="uni00A0" unicode="&#xa0;" horiz-adv-x="358" 
 />
    <glyph glyph-name="A" unicode="A" horiz-adv-x="873" 
d="M660 257h-450l223 413zM801 0h40l-392 706h-34l-383 -706h40l121 225h484z" />
    <glyph glyph-name="B" unicode="B" horiz-adv-x="868" 
d="M451 0q177 0 269.5 40t92.5 146q0 82 -49.5 120.5t-144.5 51.5q84 14 128.5 53.5t44.5 115.5q0 96 -77.5 137.5t-245.5 41.5h-341v-706h323zM467 372h-304v301h306q146 0 217.5 -32.5t71.5 -113.5q0 -64 -36.5 -97.5t-101.5 -45.5q-33 -6 -71 -9t-82 -3zM466 341
q92 0 162.5 -11t110.5 -44q20 -16 30 -41t10 -59q0 -61 -37.5 -94t-110.5 -46q-37 -6 -82 -9t-98 -3h-288v307h303z" />
    <glyph glyph-name="C" unicode="C" horiz-adv-x="968" 
d="M903 240h-35q-15 -58 -59.5 -109.5t-120.5 -83.5q-38 -16 -84.5 -24t-101.5 -8q-188 0 -287.5 87.5t-99.5 239.5q0 106 49 183t138 119q44 21 95.5 31.5t110.5 10.5q146 0 236.5 -56t118.5 -158h35q-18 80 -74 135t-138 84q-41 14 -85.5 21t-92.5 7q-126 0 -223 -47
t-151 -132q-28 -42 -41.5 -91.5t-13.5 -106.5q0 -112 49.5 -192.5t144.5 -124.5q47 -21 104.5 -32t124.5 -11q114 0 197.5 34t135.5 93q25 29 42.5 62t25.5 69z" />
    <glyph glyph-name="D" unicode="D" horiz-adv-x="924" 
d="M447 0q81 0 154 19t129 61q57 42 89 110.5t32 167.5q0 96 -35.5 162.5t-96.5 107.5q-60 41 -135.5 59.5t-154.5 18.5h-301v-706h319zM429 673q76 0 145.5 -16.5t123.5 -53.5q54 -36 85.5 -96.5t31.5 -148.5q0 -93 -29 -155.5t-80 -99.5t-117.5 -53t-141.5 -16h-284v639
h266z" />
    <glyph glyph-name="E" unicode="E" horiz-adv-x="836" 
d="M795 34h-632v291h518v32h-518v316h614v33h-649v-706h667v34z" />
    <glyph glyph-name="F" unicode="F" horiz-adv-x="807" 
d="M720 304v32h-557v337h600v33h-635v-706h35v304h557z" />
    <glyph glyph-name="G" unicode="G" horiz-adv-x="996" 
d="M869 0h32v329h-408v-33h376q0 -32 -11 -70t-36 -75q-26 -38 -69.5 -68.5t-108.5 -49.5q-33 -9 -72 -13.5t-84 -4.5q-114 0 -198 36.5t-129 109.5q-23 36 -34.5 81.5t-11.5 99.5q0 114 48 190.5t135 114.5q43 20 94 29.5t109 9.5q93 0 167.5 -22t125.5 -71q25 -24 43 -57
t28 -74h36q-22 93 -78.5 149.5t-139.5 82.5q-41 12 -86.5 18.5t-95.5 6.5q-124 0 -219.5 -43t-148.5 -127q-27 -42 -40.5 -94t-13.5 -113q0 -117 49 -197t140 -122q45 -20 99.5 -30.5t117.5 -10.5q96 0 163.5 19t112.5 51t70.5 71t37.5 79v-202z" />
    <glyph glyph-name="H" unicode="H" horiz-adv-x="958" 
d="M795 0h35v706h-35v-336h-632v336h-35v-706h35v336h632v-336z" />
    <glyph glyph-name="I" unicode="I" horiz-adv-x="557" 
d="M485 0v33h-189v640h189v33h-413v-33h189v-640h-189v-33h413z" />
    <glyph glyph-name="J" unicode="J" horiz-adv-x="716" 
d="M321 -20q90 0 154 31.5t97 100.5q17 34 25.5 80t8.5 102v412h-35v-412q0 -102 -29.5 -164t-85.5 -89q-28 -14 -61.5 -21t-73.5 -7q-108 0 -167 52.5t-73 148.5h-35q15 -112 83 -173t192 -61z" />
    <glyph glyph-name="K" unicode="K" horiz-adv-x="891" 
d="M814 0h48l-378 449l349 257h-54l-616 -453v453h-35v-706h35v217l293 214z" />
    <glyph glyph-name="L" unicode="L" horiz-adv-x="747" 
d="M713 0v34h-550v672h-35v-706h585z" />
    <glyph glyph-name="M" unicode="M" horiz-adv-x="1093" 
d="M539 326h14l377 340v-666h35v706h-40l-379 -341l-379 341h-39v-706h35v664z" />
    <glyph glyph-name="N" unicode="N" horiz-adv-x="957" 
d="M231 593l570 -593h30v706h-35v-648l-72 74l-554 574h-42v-706h35v663z" />
    <glyph glyph-name="O" unicode="O" horiz-adv-x="978" 
d="M486 -18q85 0 160.5 22.5t133.5 67.5t91 113.5t33 159.5q0 92 -32 162t-89 117t-133 71t-163 24t-162.5 -24t-131.5 -72q-56 -47 -87.5 -117t-31.5 -161t32 -159t89 -114q57 -45 131.5 -67.5t159.5 -22.5zM486 16q-105 0 -190.5 36t-135.5 109q-25 37 -37.5 83t-12.5 101
q0 111 48 187t133 115q43 19 92 29t104 10q111 0 197 -39t135 -115q25 -38 37 -85t12 -102q0 -85 -30 -147t-82 -103q-53 -40 -122 -59.5t-148 -19.5z" />
    <glyph glyph-name="P" unicode="P" horiz-adv-x="862" 
d="M485 264h-322v409h310q154 0 226.5 -49t72.5 -153q0 -111 -75 -159.5t-212 -47.5zM485 231q160 -1 240.5 60.5t80.5 179.5q0 117 -81.5 176t-251.5 59h-345v-706h35v231h322z" />
    <glyph glyph-name="Q" unicode="Q" horiz-adv-x="978" 
d="M763 -141l-120 144q76 22 134.5 67t92.5 114q17 34 25.5 74.5t8.5 86.5q0 92 -32 162t-89 117t-133 71t-163 24t-162.5 -24t-131.5 -72q-56 -47 -87.5 -117t-31.5 -161t32 -159t89 -114q57 -45 131.5 -67.5t159.5 -22.5q31 0 61 3t58 9l111 -135h47zM486 16
q-105 0 -190.5 36t-135.5 109q-25 37 -37.5 83t-12.5 101q0 111 48 187t133 115q43 19 92 29t104 10q111 0 197 -39t135 -115q25 -38 37 -85t12 -102q0 -85 -30 -147t-82 -103q-53 -40 -122 -59.5t-148 -19.5z" />
    <glyph glyph-name="R" unicode="R" horiz-adv-x="943" 
d="M504 328h-341v345h344q152 0 221.5 -39t69.5 -131q0 -69 -36.5 -107.5t-102.5 -53.5q-33 -8 -71.5 -11t-83.5 -3zM521 296q96 0 150 -20t77 -66q11 -23 16.5 -54t5.5 -71v-43q0 -15 2 -26t6 -16h42q-7 5 -11 15.5t-4 26.5v43q0 71 -15 117.5t-51 72.5q-18 13 -42.5 22.5
t-56.5 14.5q94 14 143 58.5t49 132.5q0 107 -76 155t-249 48h-379v-706h35v296h358z" />
    <glyph glyph-name="S" unicode="S" horiz-adv-x="882" 
d="M462 -19q179 0 265 53.5t86 149.5q0 73 -42 110t-124 53q-41 8 -91.5 14t-111.5 10q-108 8 -178.5 21.5t-104.5 42.5q-17 14 -25.5 34.5t-8.5 47.5q0 84 75 126t224 42q152 0 241.5 -50.5t99.5 -144.5h35q-13 104 -108.5 166t-266.5 62q-169 0 -251.5 -54.5t-82.5 -146.5
q0 -65 39 -100.5t115 -52.5q38 -8 85.5 -14t103.5 -10q114 -8 190 -20t115 -43q19 -15 28.5 -38.5t9.5 -55.5q0 -79 -74 -124t-243 -45q-122 0 -200.5 23t-119.5 74q-20 26 -32 60t-17 77h-37q8 -91 51 -150t130 -88q44 -15 100 -22t125 -7z" />
    <glyph glyph-name="T" unicode="T" horiz-adv-x="767" 
d="M723 673v33h-679v-33h314v-673h36v673h329z" />
    <glyph glyph-name="U" unicode="U" horiz-adv-x="928" 
d="M465 -20q180 0 266.5 93.5t86.5 286.5v346h-35v-346q0 -174 -75 -260t-243 -86q-117 0 -187 39t-102 115q-15 39 -23 86.5t-8 103.5v348h-35v-348q0 -189 82.5 -283.5t272.5 -94.5z" />
    <glyph glyph-name="V" unicode="V" horiz-adv-x="871" 
d="M460 0l381 706h-40l-359 -670l-363 670h-41l385 -706h37z" />
    <glyph glyph-name="W" unicode="W" horiz-adv-x="1301" 
d="M945 0h35l278 706h-36l-260 -663l-308 663h-32l-335 -657l-209 657h-35l222 -706h34l338 664z" />
    <glyph glyph-name="X" unicode="X" horiz-adv-x="837" 
d="M756 0h48l-356 373l327 333h-47l-305 -312l-296 312h-47l318 -333l-376 -373h51l349 351z" />
    <glyph glyph-name="Y" unicode="Y" horiz-adv-x="801" 
d="M405 0v300l362 406h-44l-335 -373l-310 373h-44l336 -406v-300h35z" />
    <glyph glyph-name="Z" unicode="Z" horiz-adv-x="784" 
d="M733 0v34h-638l648 638v34h-669v-34h622l-650 -637v-35h687z" />
    <glyph glyph-name="Aacute" unicode="&#xc1;" horiz-adv-x="873" 
d="M32 0zM660 257h-450l223 413zM801 0h40l-392 706h-34l-383 -706h40l121 225h484zM405 822h41l172 210h-43z" />
    <glyph glyph-name="Abreve" unicode="&#x102;" horiz-adv-x="873" 
d="M32 0zM660 257h-450l223 413zM801 0h40l-392 706h-34l-383 -706h40l121 225h484zM424 810q67 0 111.5 28.5t68.5 70.5q12 22 19 43.5t9 42.5h-33q-4 -36 -25.5 -71.5t-58.5 -59.5q-19 -12 -41.5 -18t-48.5 -6q-57 1 -92.5 24.5t-53.5 58.5q-9 18 -14.5 36t-7.5 36h-34
q4 -43 25 -85.5t64 -71.5q21 -14 49 -21t63 -7z" />
    <glyph glyph-name="Acircumflex" unicode="&#xc2;" horiz-adv-x="873" 
d="M32 0zM660 257h-450l223 413zM801 0h40l-392 706h-34l-383 -706h40l121 225h484zM550 817h43l-151 171h-40l-149 -171h43l127 146z" />
    <glyph glyph-name="Adieresis" unicode="&#xc4;" horiz-adv-x="873" 
d="M32 0zM660 257h-450l223 413zM801 0h40l-392 706h-34l-383 -706h40l121 225h484zM333 813q19 0 30.5 9.5t11.5 29.5t-10 32t-31 12q-22 0 -33 -10.5t-11 -32.5q0 -20 11 -30t32 -10zM521 813q20 0 31.5 9.5t11.5 29.5t-10 32t-31 12q-22 0 -33 -10.5t-11 -32.5
q0 -21 11.5 -30.5t30.5 -9.5z" />
    <glyph glyph-name="Agrave" unicode="&#xc0;" horiz-adv-x="873" 
d="M32 0zM660 257h-450l223 413zM801 0h40l-392 706h-34l-383 -706h40l121 225h484zM419 818h40l-144 169h-50z" />
    <glyph glyph-name="Amacron" unicode="&#x100;" horiz-adv-x="873" 
d="M32 0zM660 257h-450l223 413zM801 0h40l-392 706h-34l-383 -706h40l121 225h484zM264 841h331v34h-331v-34z" />
    <glyph glyph-name="uni0245" unicode="&#x245;" horiz-adv-x="873" 
d="M801 0h40l-392 706h-34l-383 -706h40l361 670z" />
    <glyph glyph-name="Aogonek" unicode="&#x104;" horiz-adv-x="873" 
d="M660 257h-450l223 413zM970 -129h-39q-19 -35 -51 -55t-81 -20q-45 0 -75 21t-30 56q0 21 12 40.5t44 40.5q15 10 37.5 21.5t51.5 24.5h2l-392 706h-34l-383 -706h40l121 225h484l119 -215q-75 -32 -106.5 -66.5t-31.5 -71.5q0 -48 37.5 -77.5t103.5 -29.5q62 0 105.5 29
t65.5 77z" />
    <glyph glyph-name="Aring" unicode="&#xc5;" horiz-adv-x="873" 
d="M32 0zM660 257h-450l223 413zM801 0h40l-392 706h-34l-383 -706h40l121 225h484zM432 799q47 0 77 28.5t30 75.5q0 53 -30 79.5t-77 26.5q-44 0 -74 -28.5t-30 -77.5q0 -44 28 -74t76 -30zM432 832q-35 0 -53 20t-18 51q0 35 20 55t51 20q34 0 53.5 -20t19.5 -55
q0 -34 -19.5 -52.5t-53.5 -18.5z" />
    <glyph glyph-name="Aringacute" unicode="&#x1fa;" horiz-adv-x="873" 
d="M410 943h41l172 210h-43zM432 706q-35 0 -53 20t-18 51q0 35 20 55t51 20q34 0 53.5 -20t19.5 -55q0 -34 -19.5 -52.5t-53.5 -18.5zM660 257h-450l223 413zM193 225h484l124 -225h40l-376 677q34 9 54 35.5t20 64.5q0 53 -30 79.5t-77 26.5q-44 0 -74 -28.5t-30 -77.5
q0 -36 19 -63t52 -37l-367 -677h40z" />
    <glyph glyph-name="Atilde" unicode="&#xc3;" horiz-adv-x="873" 
d="M32 0zM660 257h-450l223 413zM801 0h40l-392 706h-34l-383 -706h40l121 225h484zM206 820h31q0 37 18.5 57t56.5 20q27 0 54 -11.5t55 -26.5t57 -26.5t59 -11.5q51 0 77 29t26 77h-31q0 -39 -19.5 -57.5t-52.5 -18.5q-25 0 -51 11.5t-53 26.5t-57 26.5t-64 11.5
q-50 0 -78 -28.5t-28 -78.5z" />
    <glyph glyph-name="Aumlaut" horiz-adv-x="873" 
d="M188 632q20 0 33 10.5t13 32.5t-11 34.5t-34 12.5q-24 0 -36 -11.5t-12 -34.5q0 -22 12 -33t35 -11zM684 632q21 0 33.5 10.5t12.5 32.5t-10.5 34.5t-33.5 12.5q-24 0 -36 -11.5t-12 -34.5t12.5 -33.5t33.5 -10.5zM660 257h-450l223 413zM801 0h40l-392 706h-34
l-383 -706h40l121 225h484z" />
    <glyph glyph-name="AE" unicode="&#xc6;" horiz-adv-x="1253" 
d="M614 307h-340l263 358zM680 0h532v34h-505l-67 308h458v32h-465l-65 298h626v34h-663l-524 -706h41l202 275h371z" />
    <glyph glyph-name="AEacute" unicode="&#x1fc;" horiz-adv-x="1253" 
d="M7 0zM614 307h-340l263 358zM680 0h532v34h-505l-67 308h458v32h-465l-65 298h626v34h-663l-524 -706h41l202 275h371zM525 822h41l172 210h-43z" />
    <glyph glyph-name="Cacute" unicode="&#x106;" horiz-adv-x="968" 
d="M79 0zM903 240h-35q-15 -58 -59.5 -109.5t-120.5 -83.5q-38 -16 -84.5 -24t-101.5 -8q-188 0 -287.5 87.5t-99.5 239.5q0 106 49 183t138 119q44 21 95.5 31.5t110.5 10.5q146 0 236.5 -56t118.5 -158h35q-18 80 -74 135t-138 84q-41 14 -85.5 21t-92.5 7
q-126 0 -223 -47t-151 -132q-28 -42 -41.5 -91.5t-13.5 -106.5q0 -112 49.5 -192.5t144.5 -124.5q47 -21 104.5 -32t124.5 -11q114 0 197.5 34t135.5 93q25 29 42.5 62t25.5 69zM491 835h41l172 210h-43z" />
    <glyph glyph-name="Ccaron" unicode="&#x10c;" horiz-adv-x="968" 
d="M79 0zM903 240h-35q-15 -58 -59.5 -109.5t-120.5 -83.5q-38 -16 -84.5 -24t-101.5 -8q-188 0 -287.5 87.5t-99.5 239.5q0 106 49 183t138 119q44 21 95.5 31.5t110.5 10.5q146 0 236.5 -56t118.5 -158h35q-18 80 -74 135t-138 84q-41 14 -85.5 21t-92.5 7
q-126 0 -223 -47t-151 -132q-28 -42 -41.5 -91.5t-13.5 -106.5q0 -112 49.5 -192.5t144.5 -124.5q47 -21 104.5 -32t124.5 -11q114 0 197.5 34t135.5 93q25 29 42.5 62t25.5 69zM522 829l158 162h-48l-123 -130l-118 130h-46l149 -162h28z" />
    <glyph glyph-name="Ccedilla" unicode="&#xc7;" horiz-adv-x="968" 
d="M520 -276q73 0 109.5 32t36.5 77q0 47 -33.5 71t-107.5 23v55q107 4 185.5 39t127.5 92q24 28 40.5 60t24.5 67h-35q-15 -58 -59.5 -109.5t-120.5 -83.5q-38 -16 -84.5 -24t-101.5 -8q-188 0 -287.5 87.5t-99.5 239.5q0 106 49 183t138 119q44 21 95.5 31.5t110.5 10.5
q146 0 236.5 -56t118.5 -158h35q-18 80 -74 135t-138 84q-41 14 -85.5 21t-92.5 7q-126 0 -223 -47t-151 -132q-28 -42 -41.5 -91.5t-13.5 -106.5q0 -111 48 -190.5t140 -123.5q46 -22 101.5 -33.5t121.5 -12.5v-86h31q65 0 87.5 -15t22.5 -50t-28.5 -54.5t-82.5 -19.5
q-51 0 -82.5 20.5t-36.5 57.5h-38q8 -49 46.5 -80t110.5 -31z" />
    <glyph glyph-name="Ccircumflex" unicode="&#x108;" horiz-adv-x="968" 
d="M79 0zM903 240h-35q-15 -58 -59.5 -109.5t-120.5 -83.5q-38 -16 -84.5 -24t-101.5 -8q-188 0 -287.5 87.5t-99.5 239.5q0 106 49 183t138 119q44 21 95.5 31.5t110.5 10.5q146 0 236.5 -56t118.5 -158h35q-18 80 -74 135t-138 84q-41 14 -85.5 21t-92.5 7
q-126 0 -223 -47t-151 -132q-28 -42 -41.5 -91.5t-13.5 -106.5q0 -112 49.5 -192.5t144.5 -124.5q47 -21 104.5 -32t124.5 -11q114 0 197.5 34t135.5 93q25 29 42.5 62t25.5 69zM636 830h43l-151 171h-40l-149 -171h43l127 146z" />
    <glyph glyph-name="Cdotaccent" unicode="&#x10a;" horiz-adv-x="968" 
d="M79 0zM903 240h-35q-15 -58 -59.5 -109.5t-120.5 -83.5q-38 -16 -84.5 -24t-101.5 -8q-188 0 -287.5 87.5t-99.5 239.5q0 106 49 183t138 119q44 21 95.5 31.5t110.5 10.5q146 0 236.5 -56t118.5 -158h35q-18 80 -74 135t-138 84q-41 14 -85.5 21t-92.5 7
q-126 0 -223 -47t-151 -132q-28 -42 -41.5 -91.5t-13.5 -106.5q0 -112 49.5 -192.5t144.5 -124.5q47 -21 104.5 -32t124.5 -11q114 0 197.5 34t135.5 93q25 29 42.5 62t25.5 69zM512 837q20 0 32 9.5t12 30.5q0 20 -10.5 32.5t-32.5 12.5t-33.5 -12t-11.5 -32
q0 -22 12 -31.5t32 -9.5z" />
    <glyph glyph-name="Dcaron" unicode="&#x10e;" horiz-adv-x="924" 
d="M128 0zM447 0q81 0 154 19t129 61q57 42 89 110.5t32 167.5q0 96 -35.5 162.5t-96.5 107.5q-60 41 -135.5 59.5t-154.5 18.5h-301v-706h319zM429 673q76 0 145.5 -16.5t123.5 -53.5q54 -36 85.5 -96.5t31.5 -148.5q0 -93 -29 -155.5t-80 -99.5t-117.5 -53t-141.5 -16
h-284v639h266zM466 817l158 162h-48l-123 -130l-118 130h-46l149 -162h28z" />
    <glyph glyph-name="Dcroat" unicode="&#x110;" horiz-adv-x="938" 
d="M0 0zM461 0q81 0 154 19t129 61q57 42 89 110.5t32 167.5q0 96 -35.5 162.5t-96.5 107.5q-60 41 -135.5 59.5t-154.5 18.5h-301v-342h-159v-28h159v-336h319zM357 336v28h-180v308h266q76 0 145.5 -16.5t123.5 -52.5q54 -37 85.5 -97t31.5 -148q0 -93 -29 -155.5
t-80 -100.5q-51 -37 -117.5 -53.5t-141.5 -16.5h-284v304h180z" />
    <glyph glyph-name="Eth" unicode="&#xd0;" horiz-adv-x="938" 
d="M461 0q81 0 154 19t129 61q57 42 89 110.5t32 167.5q0 96 -35.5 162.5t-96.5 107.5q-60 41 -135.5 59.5t-154.5 18.5h-301v-342h-159v-28h159v-336h319zM357 336v28h-180v308h266q76 0 145.5 -16.5t123.5 -52.5q54 -37 85.5 -97t31.5 -148q0 -93 -29 -155.5t-80 -100.5
q-51 -37 -117.5 -53.5t-141.5 -16.5h-284v304h180z" />
    <glyph glyph-name="Eacute" unicode="&#xc9;" horiz-adv-x="836" 
d="M128 0zM795 34h-632v291h518v32h-518v316h614v33h-649v-706h667v34zM444 822h41l172 210h-43z" />
    <glyph glyph-name="Ebreve" unicode="&#x114;" horiz-adv-x="836" 
d="M128 0zM795 34h-632v291h518v32h-518v316h614v33h-649v-706h667v34zM463 810q67 0 111.5 28.5t68.5 70.5q12 22 19 43.5t9 42.5h-33q-4 -36 -25.5 -71.5t-58.5 -59.5q-19 -12 -41.5 -18t-48.5 -6q-57 1 -92.5 24.5t-53.5 58.5q-9 18 -14.5 36t-7.5 36h-34q4 -43 25 -85.5
t64 -71.5q21 -14 49 -21t63 -7z" />
    <glyph glyph-name="Ecaron" unicode="&#x11a;" horiz-adv-x="836" 
d="M128 0zM795 34h-632v291h518v32h-518v316h614v33h-649v-706h667v34zM475 816l158 162h-48l-123 -130l-118 130h-46l149 -162h28z" />
    <glyph glyph-name="Ecircumflex" unicode="&#xca;" horiz-adv-x="836" 
d="M128 0zM795 34h-632v291h518v32h-518v316h614v33h-649v-706h667v34zM589 817h43l-151 171h-40l-149 -171h43l127 146z" />
    <glyph glyph-name="Edieresis" unicode="&#xcb;" horiz-adv-x="836" 
d="M128 0zM795 34h-632v291h518v32h-518v316h614v33h-649v-706h667v34zM372 813q19 0 30.5 9.5t11.5 29.5t-10 32t-31 12q-22 0 -33 -10.5t-11 -32.5q0 -20 11 -30t32 -10zM560 813q20 0 31.5 9.5t11.5 29.5t-10 32t-31 12q-22 0 -33 -10.5t-11 -32.5q0 -21 11.5 -30.5
t30.5 -9.5z" />
    <glyph glyph-name="Edotaccent" unicode="&#x116;" horiz-adv-x="836" 
d="M128 0zM795 34h-632v291h518v32h-518v316h614v33h-649v-706h667v34zM465 824q20 0 32 9.5t12 30.5q0 20 -10.5 32.5t-32.5 12.5t-33.5 -12t-11.5 -32q0 -22 12 -31.5t32 -9.5z" />
    <glyph glyph-name="Egrave" unicode="&#xc8;" horiz-adv-x="836" 
d="M128 0zM795 34h-632v291h518v32h-518v316h614v33h-649v-706h667v34zM458 818h40l-144 169h-50z" />
    <glyph glyph-name="Emacron" unicode="&#x112;" horiz-adv-x="836" 
d="M128 0zM795 34h-632v291h518v32h-518v316h614v33h-649v-706h667v34zM303 841h331v34h-331v-34z" />
    <glyph glyph-name="Eogonek" unicode="&#x118;" horiz-adv-x="836" 
d="M923 -129h-39q-19 -35 -51 -55t-81 -20q-45 0 -75 21t-30 56q0 21 12 40.5t44 40.5q15 10 37.5 21.5t51.5 24.5h3v34h-632v291h518v32h-518v316h614v33h-649v-706h599q-62 -30 -89 -62t-27 -66q0 -48 37.5 -77.5t103.5 -29.5q62 0 105.5 29t65.5 77z" />
    <glyph glyph-name="Gbreve" unicode="&#x11e;" horiz-adv-x="996" 
d="M79 0zM869 0h32v329h-408v-33h376q0 -32 -11 -70t-36 -75q-26 -38 -69.5 -68.5t-108.5 -49.5q-33 -9 -72 -13.5t-84 -4.5q-114 0 -198 36.5t-129 109.5q-23 36 -34.5 81.5t-11.5 99.5q0 114 48 190.5t135 114.5q43 20 94 29.5t109 9.5q93 0 167.5 -22t125.5 -71
q25 -24 43 -57t28 -74h36q-22 93 -78.5 149.5t-139.5 82.5q-41 12 -86.5 18.5t-95.5 6.5q-124 0 -219.5 -43t-148.5 -127q-27 -42 -40.5 -94t-13.5 -113q0 -117 49 -197t140 -122q45 -20 99.5 -30.5t117.5 -10.5q96 0 163.5 19t112.5 51t70.5 71t37.5 79v-202zM497 823
q67 0 111.5 28.5t68.5 70.5q12 22 19 43.5t9 42.5h-33q-4 -36 -25.5 -71.5t-58.5 -59.5q-19 -12 -41.5 -18t-48.5 -6q-57 1 -92.5 24.5t-53.5 58.5q-9 18 -14.5 36t-7.5 36h-34q4 -43 25 -85.5t64 -71.5q21 -14 49 -21t63 -7z" />
    <glyph glyph-name="Gcircumflex" unicode="&#x11c;" horiz-adv-x="996" 
d="M79 0zM869 0h32v329h-408v-33h376q0 -32 -11 -70t-36 -75q-26 -38 -69.5 -68.5t-108.5 -49.5q-33 -9 -72 -13.5t-84 -4.5q-114 0 -198 36.5t-129 109.5q-23 36 -34.5 81.5t-11.5 99.5q0 114 48 190.5t135 114.5q43 20 94 29.5t109 9.5q93 0 167.5 -22t125.5 -71
q25 -24 43 -57t28 -74h36q-22 93 -78.5 149.5t-139.5 82.5q-41 12 -86.5 18.5t-95.5 6.5q-124 0 -219.5 -43t-148.5 -127q-27 -42 -40.5 -94t-13.5 -113q0 -117 49 -197t140 -122q45 -20 99.5 -30.5t117.5 -10.5q96 0 163.5 19t112.5 51t70.5 71t37.5 79v-202zM623 830h43
l-151 171h-40l-149 -171h43l127 146z" />
    <glyph glyph-name="uni0122" unicode="&#x122;" horiz-adv-x="996" 
d="M79 0zM869 0h32v329h-408v-33h376q0 -32 -11 -70t-36 -75q-26 -38 -69.5 -68.5t-108.5 -49.5q-33 -9 -72 -13.5t-84 -4.5q-114 0 -198 36.5t-129 109.5q-23 36 -34.5 81.5t-11.5 99.5q0 114 48 190.5t135 114.5q43 20 94 29.5t109 9.5q93 0 167.5 -22t125.5 -71
q25 -24 43 -57t28 -74h36q-22 93 -78.5 149.5t-139.5 82.5q-41 12 -86.5 18.5t-95.5 6.5q-124 0 -219.5 -43t-148.5 -127q-27 -42 -40.5 -94t-13.5 -113q0 -117 49 -197t140 -122q45 -20 99.5 -30.5t117.5 -10.5q96 0 163.5 19t112.5 51t70.5 71t37.5 79v-202zM432 -329
q47 23 74.5 61.5t27.5 78.5q0 31 -14 46t-37 15q-20 0 -32.5 -11.5t-12.5 -30.5q0 -20 10.5 -28.5t28.5 -8.5q8 0 14.5 2t11.5 7q-3 -35 -26 -64t-58 -45z" />
    <glyph glyph-name="Gdotaccent" unicode="&#x120;" horiz-adv-x="996" 
d="M79 0zM869 0h32v329h-408v-33h376q0 -32 -11 -70t-36 -75q-26 -38 -69.5 -68.5t-108.5 -49.5q-33 -9 -72 -13.5t-84 -4.5q-114 0 -198 36.5t-129 109.5q-23 36 -34.5 81.5t-11.5 99.5q0 114 48 190.5t135 114.5q43 20 94 29.5t109 9.5q93 0 167.5 -22t125.5 -71
q25 -24 43 -57t28 -74h36q-22 93 -78.5 149.5t-139.5 82.5q-41 12 -86.5 18.5t-95.5 6.5q-124 0 -219.5 -43t-148.5 -127q-27 -42 -40.5 -94t-13.5 -113q0 -117 49 -197t140 -122q45 -20 99.5 -30.5t117.5 -10.5q96 0 163.5 19t112.5 51t70.5 71t37.5 79v-202zM499 837
q20 0 32 9.5t12 30.5q0 20 -10.5 32.5t-32.5 12.5t-33.5 -12t-11.5 -32q0 -22 12 -31.5t32 -9.5z" />
    <glyph glyph-name="Hbar" unicode="&#x126;" horiz-adv-x="990" 
d="M811 339h-632v167h632v-167zM811 0h35v506h151v32h-151v168h-35v-168h-632v168h-35v-168h-151v-32h151v-506h35v306h632v-306z" />
    <glyph glyph-name="Hcircumflex" unicode="&#x124;" horiz-adv-x="958" 
d="M128 0zM795 0h35v706h-35v-336h-632v336h-35v-706h35v336h632v-336zM601 807h43l-151 171h-40l-149 -171h43l127 146z" />
    <glyph glyph-name="Iacute" unicode="&#xcd;" horiz-adv-x="557" 
d="M72 0zM485 0v33h-189v640h189v33h-413v-33h189v-640h-189v-33h413zM257 822h41l172 210h-43z" />
    <glyph glyph-name="Ibreve" unicode="&#x12c;" horiz-adv-x="557" 
d="M72 0zM485 0v33h-189v640h189v33h-413v-33h189v-640h-189v-33h413zM276 810q67 0 111.5 28.5t68.5 70.5q12 22 19 43.5t9 42.5h-33q-4 -36 -25.5 -71.5t-58.5 -59.5q-19 -12 -41.5 -18t-48.5 -6q-57 1 -92.5 24.5t-53.5 58.5q-9 18 -14.5 36t-7.5 36h-34q4 -43 25 -85.5
t64 -71.5q21 -14 49 -21t63 -7z" />
    <glyph glyph-name="Icircumflex" unicode="&#xce;" horiz-adv-x="557" 
d="M72 0zM485 0v33h-189v640h189v33h-413v-33h189v-640h-189v-33h413zM402 817h43l-151 171h-40l-149 -171h43l127 146z" />
    <glyph glyph-name="Idieresis" unicode="&#xcf;" horiz-adv-x="557" 
d="M72 0zM485 0v33h-189v640h189v33h-413v-33h189v-640h-189v-33h413zM185 813q19 0 30.5 9.5t11.5 29.5t-10 32t-31 12q-22 0 -33 -10.5t-11 -32.5q0 -20 11 -30t32 -10zM373 813q20 0 31.5 9.5t11.5 29.5t-10 32t-31 12q-22 0 -33 -10.5t-11 -32.5q0 -21 11.5 -30.5
t30.5 -9.5z" />
    <glyph glyph-name="Idotaccent" unicode="&#x130;" horiz-adv-x="557" 
d="M72 0zM485 0v33h-189v640h189v33h-413v-33h189v-640h-189v-33h413zM278 824q20 0 32 9.5t12 30.5q0 20 -10.5 32.5t-32.5 12.5t-33.5 -12t-11.5 -32q0 -22 12 -31.5t32 -9.5z" />
    <glyph glyph-name="Igrave" unicode="&#xcc;" horiz-adv-x="557" 
d="M72 0zM485 0v33h-189v640h189v33h-413v-33h189v-640h-189v-33h413zM271 818h40l-144 169h-50z" />
    <glyph glyph-name="Imacron" unicode="&#x12a;" horiz-adv-x="557" 
d="M72 0zM485 0v33h-189v640h189v33h-413v-33h189v-640h-189v-33h413zM116 841h331v34h-331v-34z" />
    <glyph glyph-name="Iogonek" unicode="&#x12e;" horiz-adv-x="557" 
d="M613 -129h-39q-19 -35 -51 -55t-81 -20q-45 0 -75 21t-30 56q0 21 12 40.5t44 40.5q15 10 37.5 21.5t51.5 24.5h3v33h-189v640h189v33h-413v-33h189v-640h-189v-33h345q-62 -30 -89 -62t-27 -66q0 -48 37.5 -77.5t103.5 -29.5q62 0 105.5 29t65.5 77z" />
    <glyph glyph-name="Itilde" unicode="&#x128;" horiz-adv-x="557" 
d="M58 0zM485 0v33h-189v640h189v33h-413v-33h189v-640h-189v-33h413zM58 820h31q0 37 18.5 57t56.5 20q27 0 54 -11.5t55 -26.5t57 -26.5t59 -11.5q51 0 77 29t26 77h-31q0 -39 -19.5 -57.5t-52.5 -18.5q-25 0 -51 11.5t-53 26.5t-57 26.5t-64 11.5q-50 0 -78 -28.5
t-28 -78.5z" />
    <glyph glyph-name="Jcircumflex" unicode="&#x134;" horiz-adv-x="716" 
d="M46 0zM321 -20q90 0 154 31.5t97 100.5q17 34 25.5 80t8.5 102v412h-35v-412q0 -102 -29.5 -164t-85.5 -89q-28 -14 -61.5 -21t-73.5 -7q-108 0 -167 52.5t-73 148.5h-35q15 -112 83 -173t192 -61zM712 817h43l-151 171h-40l-149 -171h43l127 146z" />
    <glyph glyph-name="uni0136" unicode="&#x136;" horiz-adv-x="891" 
d="M128 0zM814 0h48l-378 449l349 257h-54l-616 -453v453h-35v-706h35v217l293 214zM420 -298q47 23 74.5 61.5t27.5 78.5q0 31 -14 46t-37 15q-20 0 -32.5 -11.5t-12.5 -30.5q0 -20 10.5 -28.5t28.5 -8.5q8 0 14.5 2t11.5 7q-3 -35 -26 -64t-58 -45z" />
    <glyph glyph-name="Lacute" unicode="&#x139;" horiz-adv-x="747" 
d="M125 0zM713 0v34h-550v672h-35v-706h585zM125 822h41l172 210h-43z" />
    <glyph glyph-name="Lcaron" unicode="&#x13d;" horiz-adv-x="747" 
d="M128 0zM713 0v34h-550v672h-35v-706h585zM487 510h36l82 186h-44z" />
    <glyph glyph-name="uni013B" unicode="&#x13b;" horiz-adv-x="747" 
d="M128 0zM713 0v34h-550v672h-35v-706h585zM369 -310q47 23 74.5 61.5t27.5 78.5q0 31 -14 46t-37 15q-20 0 -32.5 -11.5t-12.5 -30.5q0 -20 10.5 -28.5t28.5 -8.5q8 0 14.5 2t11.5 7q-3 -35 -26 -64t-58 -45z" />
    <glyph glyph-name="Ldot" unicode="&#x13f;" horiz-adv-x="747" 
d="M713 0v32h-550v674h-35v-706h585zM660 288q20 0 32 9.5t12 30.5q0 20 -10.5 32.5t-32.5 12.5t-33.5 -12t-11.5 -32q0 -22 12 -31.5t32 -9.5z" />
    <glyph glyph-name="Lslash" unicode="&#x141;" horiz-adv-x="762" 
d="M728 0v34h-550v298l197 45l-6 27l-191 -44v346h-35v-354l-138 -32l5 -27l133 31v-324h585z" />
    <glyph glyph-name="Nacute" unicode="&#x143;" horiz-adv-x="957" 
d="M128 0zM231 593l570 -593h30v706h-35v-648l-72 74l-554 574h-42v-706h35v663zM460 804h41l172 210h-43z" />
    <glyph glyph-name="Ncaron" unicode="&#x147;" horiz-adv-x="957" 
d="M128 0zM231 593l570 -593h30v706h-35v-648l-72 74l-554 574h-42v-706h35v663zM491 798l158 162h-48l-123 -130l-118 130h-46l149 -162h28z" />
    <glyph glyph-name="uni0145" unicode="&#x145;" horiz-adv-x="957" 
d="M128 0zM231 593l570 -593h30v706h-35v-648l-72 74l-554 574h-42v-706h35v663zM414 -301q47 23 74.5 61.5t27.5 78.5q0 31 -14 46t-37 15q-20 0 -32.5 -11.5t-12.5 -30.5q0 -20 10.5 -28.5t28.5 -8.5q8 0 14.5 2t11.5 7q-3 -35 -26 -64t-58 -45z" />
    <glyph glyph-name="Ntilde" unicode="&#xd1;" horiz-adv-x="957" 
d="M128 0zM231 593l570 -593h30v706h-35v-648l-72 74l-554 574h-42v-706h35v663zM280 814h31q0 37 18.5 57t56.5 20q27 0 54 -11.5t55 -26.5t57 -26.5t59 -11.5q51 0 77 29t26 77h-31q0 -39 -19.5 -57.5t-52.5 -18.5q-25 0 -51 11.5t-53 26.5t-57 26.5t-64 11.5
q-50 0 -78 -28.5t-28 -78.5z" />
    <glyph glyph-name="Eng" unicode="&#x14a;" horiz-adv-x="957" 
d="M601 -247q68 0 113 9.5t71 36.5q26 26 36.5 76.5t9.5 131.5v699h-35v-648l-84 86l-542 562h-42v-706h35v663l78 -81l555 -576q0 -72 -8 -115.5t-29 -66.5q-21 -22 -59 -29.5t-98 -7.5h-31v-34h30z" />
    <glyph glyph-name="Oacute" unicode="&#xd3;" horiz-adv-x="978" 
d="M74 0zM486 -18q85 0 160.5 22.5t133.5 67.5t91 113.5t33 159.5q0 92 -32 162t-89 117t-133 71t-163 24t-162.5 -24t-131.5 -72q-56 -47 -87.5 -117t-31.5 -161t32 -159t89 -114q57 -45 131.5 -67.5t159.5 -22.5zM486 16q-105 0 -190.5 36t-135.5 109q-25 37 -37.5 83
t-12.5 101q0 111 48 187t133 115q43 19 92 29t104 10q111 0 197 -39t135 -115q25 -38 37 -85t12 -102q0 -85 -30 -147t-82 -103q-53 -40 -122 -59.5t-148 -19.5zM477 836h41l172 210h-43z" />
    <glyph glyph-name="Obreve" unicode="&#x14e;" horiz-adv-x="978" 
d="M74 0zM486 -18q85 0 160.5 22.5t133.5 67.5t91 113.5t33 159.5q0 92 -32 162t-89 117t-133 71t-163 24t-162.5 -24t-131.5 -72q-56 -47 -87.5 -117t-31.5 -161t32 -159t89 -114q57 -45 131.5 -67.5t159.5 -22.5zM486 16q-105 0 -190.5 36t-135.5 109q-25 37 -37.5 83
t-12.5 101q0 111 48 187t133 115q43 19 92 29t104 10q111 0 197 -39t135 -115q25 -38 37 -85t12 -102q0 -85 -30 -147t-82 -103q-53 -40 -122 -59.5t-148 -19.5zM484 824q67 0 111.5 28.5t68.5 70.5q12 22 19 43.5t9 42.5h-33q-4 -36 -25.5 -71.5t-58.5 -59.5
q-19 -12 -41.5 -18t-48.5 -6q-57 1 -92.5 24.5t-53.5 58.5q-9 18 -14.5 36t-7.5 36h-34q4 -43 25 -85.5t64 -71.5q21 -14 49 -21t63 -7z" />
    <glyph glyph-name="Ocircumflex" unicode="&#xd4;" horiz-adv-x="978" 
d="M74 0zM486 -18q85 0 160.5 22.5t133.5 67.5t91 113.5t33 159.5q0 92 -32 162t-89 117t-133 71t-163 24t-162.5 -24t-131.5 -72q-56 -47 -87.5 -117t-31.5 -161t32 -159t89 -114q57 -45 131.5 -67.5t159.5 -22.5zM486 16q-105 0 -190.5 36t-135.5 109q-25 37 -37.5 83
t-12.5 101q0 111 48 187t133 115q43 19 92 29t104 10q111 0 197 -39t135 -115q25 -38 37 -85t12 -102q0 -85 -30 -147t-82 -103q-53 -40 -122 -59.5t-148 -19.5zM610 823h43l-151 171h-40l-149 -171h43l127 146z" />
    <glyph glyph-name="Odieresis" unicode="&#xd6;" horiz-adv-x="978" 
d="M74 0zM486 -18q85 0 160.5 22.5t133.5 67.5t91 113.5t33 159.5q0 92 -32 162t-89 117t-133 71t-163 24t-162.5 -24t-131.5 -72q-56 -47 -87.5 -117t-31.5 -161t32 -159t89 -114q57 -45 131.5 -67.5t159.5 -22.5zM486 16q-105 0 -190.5 36t-135.5 109q-25 37 -37.5 83
t-12.5 101q0 111 48 187t133 115q43 19 92 29t104 10q111 0 197 -39t135 -115q25 -38 37 -85t12 -102q0 -85 -30 -147t-82 -103q-53 -40 -122 -59.5t-148 -19.5zM393 827q19 0 30.5 9.5t11.5 29.5t-10 32t-31 12q-22 0 -33 -10.5t-11 -32.5q0 -20 11 -30t32 -10zM581 827
q20 0 31.5 9.5t11.5 29.5t-10 32t-31 12q-22 0 -33 -10.5t-11 -32.5q0 -21 11.5 -30.5t30.5 -9.5z" />
    <glyph glyph-name="Ograve" unicode="&#xd2;" horiz-adv-x="978" 
d="M74 0zM486 -18q85 0 160.5 22.5t133.5 67.5t91 113.5t33 159.5q0 92 -32 162t-89 117t-133 71t-163 24t-162.5 -24t-131.5 -72q-56 -47 -87.5 -117t-31.5 -161t32 -159t89 -114q57 -45 131.5 -67.5t159.5 -22.5zM486 16q-105 0 -190.5 36t-135.5 109q-25 37 -37.5 83
t-12.5 101q0 111 48 187t133 115q43 19 92 29t104 10q111 0 197 -39t135 -115q25 -38 37 -85t12 -102q0 -85 -30 -147t-82 -103q-53 -40 -122 -59.5t-148 -19.5zM479 832h40l-144 169h-50z" />
    <glyph glyph-name="Ohungarumlaut" unicode="&#x150;" horiz-adv-x="978" 
d="M74 0zM486 -18q85 0 160.5 22.5t133.5 67.5t91 113.5t33 159.5q0 92 -32 162t-89 117t-133 71t-163 24t-162.5 -24t-131.5 -72q-56 -47 -87.5 -117t-31.5 -161t32 -159t89 -114q57 -45 131.5 -67.5t159.5 -22.5zM486 16q-105 0 -190.5 36t-135.5 109q-25 37 -37.5 83
t-12.5 101q0 111 48 187t133 115q43 19 92 29t104 10q111 0 197 -39t135 -115q25 -38 37 -85t12 -102q0 -85 -30 -147t-82 -103q-53 -40 -122 -59.5t-148 -19.5zM747 1005h-50l-166 -169h40zM584 1005h-51l-144 -169h37z" />
    <glyph glyph-name="Omacron" unicode="&#x14c;" horiz-adv-x="978" 
d="M74 0zM486 -18q85 0 160.5 22.5t133.5 67.5t91 113.5t33 159.5q0 92 -32 162t-89 117t-133 71t-163 24t-162.5 -24t-131.5 -72q-56 -47 -87.5 -117t-31.5 -161t32 -159t89 -114q57 -45 131.5 -67.5t159.5 -22.5zM486 16q-105 0 -190.5 36t-135.5 109q-25 37 -37.5 83
t-12.5 101q0 111 48 187t133 115q43 19 92 29t104 10q111 0 197 -39t135 -115q25 -38 37 -85t12 -102q0 -85 -30 -147t-82 -103q-53 -40 -122 -59.5t-148 -19.5zM324 855h331v34h-331v-34z" />
    <glyph glyph-name="Oslash" unicode="&#xd8;" horiz-adv-x="978" 
d="M110 345q0 111 48 187t133 115q43 19 92 29t104 10q49 0 93.5 -7.5t83.5 -23.5l-377 -599q-80 37 -128.5 109t-48.5 180zM486 16q-46 0 -87.5 7t-79.5 20l376 598q80 -40 126.5 -114.5t46.5 -181.5q0 -85 -30 -147t-82 -103q-53 -40 -122 -59.5t-148 -19.5zM486 -18
q85 0 160.5 22.5t133.5 67.5t91 113.5t33 159.5q0 118 -52 200t-139 125l78 122h-41l-68 -108q-44 18 -93 26.5t-102 8.5q-87 0 -162.5 -24t-131.5 -72q-56 -47 -87.5 -117t-31.5 -161q0 -118 53.5 -197.5t140.5 -120.5l-74 -117h41l66 103q42 -16 89 -23.5t96 -7.5z" />
    <glyph glyph-name="Oslashacute" unicode="&#x1fe;" horiz-adv-x="978" 
d="M74 0zM110 345q0 111 48 187t133 115q43 19 92 29t104 10q49 0 93.5 -7.5t83.5 -23.5l-377 -599q-80 37 -128.5 109t-48.5 180zM486 16q-46 0 -87.5 7t-79.5 20l376 598q80 -40 126.5 -114.5t46.5 -181.5q0 -85 -30 -147t-82 -103q-53 -40 -122 -59.5t-148 -19.5z
M486 -18q85 0 160.5 22.5t133.5 67.5t91 113.5t33 159.5q0 118 -52 200t-139 125l78 122h-41l-68 -108q-44 18 -93 26.5t-102 8.5q-87 0 -162.5 -24t-131.5 -72q-56 -47 -87.5 -117t-31.5 -161q0 -118 53.5 -197.5t140.5 -120.5l-74 -117h41l66 103q42 -16 89 -23.5t96 -7.5
zM496 842h41l172 210h-43z" />
    <glyph glyph-name="Otilde" unicode="&#xd5;" horiz-adv-x="978" 
d="M74 0zM486 -18q85 0 160.5 22.5t133.5 67.5t91 113.5t33 159.5q0 92 -32 162t-89 117t-133 71t-163 24t-162.5 -24t-131.5 -72q-56 -47 -87.5 -117t-31.5 -161t32 -159t89 -114q57 -45 131.5 -67.5t159.5 -22.5zM486 16q-105 0 -190.5 36t-135.5 109q-25 37 -37.5 83
t-12.5 101q0 111 48 187t133 115q43 19 92 29t104 10q111 0 197 -39t135 -115q25 -38 37 -85t12 -102q0 -85 -30 -147t-82 -103q-53 -40 -122 -59.5t-148 -19.5zM266 834h31q0 37 18.5 57t56.5 20q27 0 54 -11.5t55 -26.5t57 -26.5t59 -11.5q51 0 77 29t26 77h-31
q0 -39 -19.5 -57.5t-52.5 -18.5q-25 0 -51 11.5t-53 26.5t-57 26.5t-64 11.5q-50 0 -78 -28.5t-28 -78.5z" />
    <glyph glyph-name="Oumlaut" horiz-adv-x="978" 
d="M114 668q18 0 29.5 10.5t11.5 31.5q0 20 -10 32t-30 12q-21 0 -32 -10.5t-11 -32.5q0 -21 10.5 -32t31.5 -11zM855 668q20 0 31.5 10.5t11.5 31.5q0 20 -10 32t-31 12t-32 -10.5t-11 -32.5t11.5 -32.5t29.5 -10.5zM486 -18q85 0 160.5 22.5t133.5 67.5t91 113.5t33 159.5
q0 92 -32 162t-89 117t-133 71t-163 24t-162.5 -24t-131.5 -72q-56 -47 -87.5 -117t-31.5 -161t32 -159t89 -114q57 -45 131.5 -67.5t159.5 -22.5zM486 16q-105 0 -190.5 36t-135.5 109q-25 37 -37.5 83t-12.5 101q0 111 48 187t133 115q43 19 92 29t104 10q111 0 197 -39
t135 -115q25 -38 37 -85t12 -102q0 -85 -30 -147t-82 -103q-53 -40 -122 -59.5t-148 -19.5z" />
    <glyph glyph-name="OE" unicode="&#x152;" horiz-adv-x="1570" 
d="M486 16q-105 0 -190.5 36t-135.5 109q-25 37 -37.5 83t-12.5 101q0 111 48 187t133 115q43 19 92 29t104 10q111 0 197 -38.5t135 -113.5q25 -38 37 -84.5t12 -101.5q0 -85 -30 -147.5t-82 -103.5q-53 -41 -122 -61t-148 -20zM860 0h660v32h-624v293h510v32h-510v315h606
v34h-642v-197q-44 105 -143 157.5t-230 52.5q-87 0 -162.5 -24t-131.5 -72q-56 -47 -87.5 -117t-31.5 -161t32 -159t89 -114q57 -45 131.5 -67.5t159.5 -22.5q86 0 159.5 23t129.5 69q27 23 48.5 52t36.5 64v-190z" />
    <glyph glyph-name="Racute" unicode="&#x154;" horiz-adv-x="943" 
d="M128 0zM504 328h-341v345h344q152 0 221.5 -39t69.5 -131q0 -69 -36.5 -107.5t-102.5 -53.5q-33 -8 -71.5 -11t-83.5 -3zM521 296q96 0 150 -20t77 -66q11 -23 16.5 -54t5.5 -71v-43q0 -15 2 -26t6 -16h42q-7 5 -11 15.5t-4 26.5v43q0 71 -15 117.5t-51 72.5
q-18 13 -42.5 22.5t-56.5 14.5q94 14 143 58.5t49 132.5q0 107 -76 155t-249 48h-379v-706h35v296h358zM464 821h41l172 210h-43z" />
    <glyph glyph-name="Rcaron" unicode="&#x158;" horiz-adv-x="943" 
d="M128 0zM504 328h-341v345h344q152 0 221.5 -39t69.5 -131q0 -69 -36.5 -107.5t-102.5 -53.5q-33 -8 -71.5 -11t-83.5 -3zM521 296q96 0 150 -20t77 -66q11 -23 16.5 -54t5.5 -71v-43q0 -15 2 -26t6 -16h42q-7 5 -11 15.5t-4 26.5v43q0 71 -15 117.5t-51 72.5
q-18 13 -42.5 22.5t-56.5 14.5q94 14 143 58.5t49 132.5q0 107 -76 155t-249 48h-379v-706h35v296h358zM495 815l158 162h-48l-123 -130l-118 130h-46l149 -162h28z" />
    <glyph glyph-name="uni0156" unicode="&#x156;" horiz-adv-x="943" 
d="M128 0zM504 328h-341v345h344q152 0 221.5 -39t69.5 -131q0 -69 -36.5 -107.5t-102.5 -53.5q-33 -8 -71.5 -11t-83.5 -3zM521 296q96 0 150 -20t77 -66q11 -23 16.5 -54t5.5 -71v-43q0 -15 2 -26t6 -16h42q-7 5 -11 15.5t-4 26.5v43q0 71 -15 117.5t-51 72.5
q-18 13 -42.5 22.5t-56.5 14.5q94 14 143 58.5t49 132.5q0 107 -76 155t-249 48h-379v-706h35v296h358zM429 -266q47 23 74.5 61.5t27.5 78.5q0 31 -14 46t-37 15q-20 0 -32.5 -11.5t-12.5 -30.5q0 -20 10.5 -28.5t28.5 -8.5q8 0 14.5 2t11.5 7q-3 -35 -26 -64t-58 -45z" />
    <glyph glyph-name="Sacute" unicode="&#x15a;" horiz-adv-x="882" 
d="M56 0zM462 -19q179 0 265 53.5t86 149.5q0 73 -42 110t-124 53q-41 8 -91.5 14t-111.5 10q-108 8 -178.5 21.5t-104.5 42.5q-17 14 -25.5 34.5t-8.5 47.5q0 84 75 126t224 42q152 0 241.5 -50.5t99.5 -144.5h35q-13 104 -108.5 166t-266.5 62q-169 0 -251.5 -54.5
t-82.5 -146.5q0 -65 39 -100.5t115 -52.5q38 -8 85.5 -14t103.5 -10q114 -8 190 -20t115 -43q19 -15 28.5 -38.5t9.5 -55.5q0 -79 -74 -124t-243 -45q-122 0 -200.5 23t-119.5 74q-20 26 -32 60t-17 77h-37q8 -91 51 -150t130 -88q44 -15 100 -22t125 -7zM404 834h41
l172 210h-43z" />
    <glyph glyph-name="Scaron" unicode="&#x160;" horiz-adv-x="882" 
d="M56 0zM462 -19q179 0 265 53.5t86 149.5q0 73 -42 110t-124 53q-41 8 -91.5 14t-111.5 10q-108 8 -178.5 21.5t-104.5 42.5q-17 14 -25.5 34.5t-8.5 47.5q0 84 75 126t224 42q152 0 241.5 -50.5t99.5 -144.5h35q-13 104 -108.5 166t-266.5 62q-169 0 -251.5 -54.5
t-82.5 -146.5q0 -65 39 -100.5t115 -52.5q38 -8 85.5 -14t103.5 -10q114 -8 190 -20t115 -43q19 -15 28.5 -38.5t9.5 -55.5q0 -79 -74 -124t-243 -45q-122 0 -200.5 23t-119.5 74q-20 26 -32 60t-17 77h-37q8 -91 51 -150t130 -88q44 -15 100 -22t125 -7zM448 828l158 162
h-48l-123 -130l-118 130h-46l149 -162h28z" />
    <glyph glyph-name="uni015E" unicode="&#x15e;" horiz-adv-x="882" 
d="M460 -277q73 0 109.5 32t36.5 77q0 47 -33.5 71t-107.5 23v55q177 0 262.5 53.5t85.5 149.5q0 73 -42 110t-124 53q-41 8 -91.5 14t-111.5 10q-108 8 -178.5 21.5t-104.5 42.5q-17 14 -25.5 34.5t-8.5 47.5q0 84 75 126t224 42q152 0 241.5 -50.5t99.5 -144.5h35
q-13 104 -108.5 166t-266.5 62q-169 0 -251.5 -54.5t-82.5 -146.5q0 -65 39 -100.5t115 -52.5q38 -8 85.5 -14t103.5 -10q114 -8 190 -20t115 -43q19 -15 28.5 -38.5t9.5 -55.5q0 -79 -74 -124t-243 -45q-122 0 -200.5 23t-119.5 74q-20 26 -32 60t-17 77h-37
q7 -87 47 -145.5t120 -88.5q40 -15 92 -23t115 -10v-86h31q65 0 87.5 -15t22.5 -50t-28.5 -54.5t-82.5 -19.5q-51 0 -82.5 20.5t-36.5 57.5h-38q8 -49 46.5 -80t110.5 -31z" />
    <glyph glyph-name="Scircumflex" unicode="&#x15c;" horiz-adv-x="882" 
d="M56 0zM462 -19q179 0 265 53.5t86 149.5q0 73 -42 110t-124 53q-41 8 -91.5 14t-111.5 10q-108 8 -178.5 21.5t-104.5 42.5q-17 14 -25.5 34.5t-8.5 47.5q0 84 75 126t224 42q152 0 241.5 -50.5t99.5 -144.5h35q-13 104 -108.5 166t-266.5 62q-169 0 -251.5 -54.5
t-82.5 -146.5q0 -65 39 -100.5t115 -52.5q38 -8 85.5 -14t103.5 -10q114 -8 190 -20t115 -43q19 -15 28.5 -38.5t9.5 -55.5q0 -79 -74 -124t-243 -45q-122 0 -200.5 23t-119.5 74q-20 26 -32 60t-17 77h-37q8 -91 51 -150t130 -88q44 -15 100 -22t125 -7zM549 829h43
l-151 171h-40l-149 -171h43l127 146z" />
    <glyph glyph-name="uni0218" unicode="&#x218;" horiz-adv-x="882" 
d="M56 0zM462 -19q179 0 265 53.5t86 149.5q0 73 -42 110t-124 53q-41 8 -91.5 14t-111.5 10q-108 8 -178.5 21.5t-104.5 42.5q-17 14 -25.5 34.5t-8.5 47.5q0 84 75 126t224 42q152 0 241.5 -50.5t99.5 -144.5h35q-13 104 -108.5 166t-266.5 62q-169 0 -251.5 -54.5
t-82.5 -146.5q0 -65 39 -100.5t115 -52.5q38 -8 85.5 -14t103.5 -10q114 -8 190 -20t115 -43q19 -15 28.5 -38.5t9.5 -55.5q0 -79 -74 -124t-243 -45q-122 0 -200.5 23t-119.5 74q-20 26 -32 60t-17 77h-37q8 -91 51 -150t130 -88q44 -15 100 -22t125 -7zM394 -329
q47 23 74.5 61.5t27.5 78.5q0 31 -14 46t-37 15q-20 0 -32.5 -11.5t-12.5 -30.5q0 -20 10.5 -28.5t28.5 -8.5q8 0 14.5 2t11.5 7q-3 -35 -26 -64t-58 -45z" />
    <glyph glyph-name="Tbar" unicode="&#x166;" horiz-adv-x="767" 
d="M566 338v27h-172v308h329v33h-679v-33h314v-308h-170v-27h170v-338h36v338h172z" />
    <glyph glyph-name="Tcaron" unicode="&#x164;" horiz-adv-x="767" 
d="M44 0zM723 673v33h-679v-33h314v-673h36v673h329zM390 816l158 162h-48l-123 -130l-118 130h-46l149 -162h28z" />
    <glyph glyph-name="uni0162" unicode="&#x162;" horiz-adv-x="767" 
d="M44 0zM723 673v33h-679v-33h314v-673h36v673h329zM323 -310q47 23 74.5 61.5t27.5 78.5q0 31 -14 46t-37 15q-20 0 -32.5 -11.5t-12.5 -30.5q0 -20 10.5 -28.5t28.5 -8.5q8 0 14.5 2t11.5 7q-3 -35 -26 -64t-58 -45z" />
    <glyph glyph-name="Uacute" unicode="&#xda;" horiz-adv-x="928" 
d="M110 0zM465 -20q180 0 266.5 93.5t86.5 286.5v346h-35v-346q0 -174 -75 -260t-243 -86q-117 0 -187 39t-102 115q-15 39 -23 86.5t-8 103.5v348h-35v-348q0 -189 82.5 -283.5t272.5 -94.5zM437 790h41l172 210h-43z" />
    <glyph glyph-name="Ubreve" unicode="&#x16c;" horiz-adv-x="928" 
d="M110 0zM465 -20q180 0 266.5 93.5t86.5 286.5v346h-35v-346q0 -174 -75 -260t-243 -86q-117 0 -187 39t-102 115q-15 39 -23 86.5t-8 103.5v348h-35v-348q0 -189 82.5 -283.5t272.5 -94.5zM456 778q67 0 111.5 28.5t68.5 70.5q12 22 19 43.5t9 42.5h-33
q-4 -36 -25.5 -71.5t-58.5 -59.5q-19 -12 -41.5 -18t-48.5 -6q-57 1 -92.5 24.5t-53.5 58.5q-9 18 -14.5 36t-7.5 36h-34q4 -43 25 -85.5t64 -71.5q21 -14 49 -21t63 -7z" />
    <glyph glyph-name="Ucircumflex" unicode="&#xdb;" horiz-adv-x="928" 
d="M110 0zM465 -20q180 0 266.5 93.5t86.5 286.5v346h-35v-346q0 -174 -75 -260t-243 -86q-117 0 -187 39t-102 115q-15 39 -23 86.5t-8 103.5v348h-35v-348q0 -189 82.5 -283.5t272.5 -94.5zM582 785h43l-151 171h-40l-149 -171h43l127 146z" />
    <glyph glyph-name="Udieresis" unicode="&#xdc;" horiz-adv-x="928" 
d="M110 0zM465 -20q180 0 266.5 93.5t86.5 286.5v346h-35v-346q0 -174 -75 -260t-243 -86q-117 0 -187 39t-102 115q-15 39 -23 86.5t-8 103.5v348h-35v-348q0 -189 82.5 -283.5t272.5 -94.5zM365 781q19 0 30.5 9.5t11.5 29.5t-10 32t-31 12q-22 0 -33 -10.5t-11 -32.5
q0 -20 11 -30t32 -10zM553 781q20 0 31.5 9.5t11.5 29.5t-10 32t-31 12q-22 0 -33 -10.5t-11 -32.5q0 -21 11.5 -30.5t30.5 -9.5z" />
    <glyph glyph-name="Ugrave" unicode="&#xd9;" horiz-adv-x="928" 
d="M110 0zM465 -20q180 0 266.5 93.5t86.5 286.5v346h-35v-346q0 -174 -75 -260t-243 -86q-117 0 -187 39t-102 115q-15 39 -23 86.5t-8 103.5v348h-35v-348q0 -189 82.5 -283.5t272.5 -94.5zM451 786h40l-144 169h-50z" />
    <glyph glyph-name="Uhungarumlaut" unicode="&#x170;" horiz-adv-x="928" 
d="M110 0zM465 -20q180 0 266.5 93.5t86.5 286.5v346h-35v-346q0 -174 -75 -260t-243 -86q-117 0 -187 39t-102 115q-15 39 -23 86.5t-8 103.5v348h-35v-348q0 -189 82.5 -283.5t272.5 -94.5zM719 959h-50l-166 -169h40zM556 959h-51l-144 -169h37z" />
    <glyph glyph-name="Umacron" unicode="&#x16a;" horiz-adv-x="928" 
d="M110 0zM465 -20q180 0 266.5 93.5t86.5 286.5v346h-35v-346q0 -174 -75 -260t-243 -86q-117 0 -187 39t-102 115q-15 39 -23 86.5t-8 103.5v348h-35v-348q0 -189 82.5 -283.5t272.5 -94.5zM296 809h331v34h-331v-34z" />
    <glyph glyph-name="Uogonek" unicode="&#x172;" horiz-adv-x="928" 
d="M582 -231q62 0 105.5 29t65.5 77h-39q-19 -35 -51 -55t-81 -20q-45 0 -75 21t-30 56q0 20 11.5 39.5t41.5 39.5q15 10 36.5 21.5t48.5 23.5q104 34 153.5 123t49.5 236v346h-35v-346q0 -174 -75 -260t-243 -86q-117 0 -187 39t-102 115q-15 39 -23 86.5t-8 103.5v348h-35
v-348q0 -189 82.5 -283.5t272.5 -94.5q14 0 26.5 0.5t25.5 1.5q-40 -26 -58 -52t-18 -54q0 -48 37.5 -77.5t103.5 -29.5z" />
    <glyph glyph-name="Uring" unicode="&#x16e;" horiz-adv-x="928" 
d="M110 0zM465 -20q180 0 266.5 93.5t86.5 286.5v346h-35v-346q0 -174 -75 -260t-243 -86q-117 0 -187 39t-102 115q-15 39 -23 86.5t-8 103.5v348h-35v-348q0 -189 82.5 -283.5t272.5 -94.5zM460 786q47 0 77 28.5t30 75.5q0 53 -30 79.5t-77 26.5q-44 0 -74 -28.5
t-30 -77.5q0 -44 28 -74t76 -30zM460 819q-35 0 -53 20t-18 51q0 35 20 55t51 20q34 0 53.5 -20t19.5 -55q0 -34 -19.5 -52.5t-53.5 -18.5z" />
    <glyph glyph-name="Utilde" unicode="&#x168;" horiz-adv-x="928" 
d="M110 0zM465 -20q180 0 266.5 93.5t86.5 286.5v346h-35v-346q0 -174 -75 -260t-243 -86q-117 0 -187 39t-102 115q-15 39 -23 86.5t-8 103.5v348h-35v-348q0 -189 82.5 -283.5t272.5 -94.5zM238 788h31q0 37 18.5 57t56.5 20q27 0 54 -11.5t55 -26.5t57 -26.5t59 -11.5
q51 0 77 29t26 77h-31q0 -39 -19.5 -57.5t-52.5 -18.5q-25 0 -51 11.5t-53 26.5t-57 26.5t-64 11.5q-50 0 -78 -28.5t-28 -78.5z" />
    <glyph glyph-name="Uumlaut" horiz-adv-x="928" 
d="M370 626q20 0 33 10.5t13 32.5t-11 34.5t-34 12.5q-24 0 -36 -11.5t-12 -34.5q0 -22 12 -33t35 -11zM575 626q21 0 33.5 10.5t12.5 32.5t-10.5 34.5t-33.5 12.5q-24 0 -36 -11.5t-12 -34.5t12.5 -33.5t33.5 -10.5zM465 -20q180 0 266.5 93.5t86.5 286.5v346h-35v-346
q0 -174 -75 -260t-243 -86q-117 0 -187 39t-102 115q-15 39 -23 86.5t-8 103.5v348h-35v-348q0 -189 82.5 -283.5t272.5 -94.5z" />
    <glyph glyph-name="Wacute" unicode="&#x1e82;" horiz-adv-x="1301" 
d="M43 0zM945 0h35l278 706h-36l-260 -663l-308 663h-32l-335 -657l-209 657h-35l222 -706h34l338 664zM616 822h41l172 210h-43z" />
    <glyph glyph-name="Wcircumflex" unicode="&#x174;" horiz-adv-x="1301" 
d="M43 0zM945 0h35l278 706h-36l-260 -663l-308 663h-32l-335 -657l-209 657h-35l222 -706h34l338 664zM761 817h43l-151 171h-40l-149 -171h43l127 146z" />
    <glyph glyph-name="Wdieresis" unicode="&#x1e84;" horiz-adv-x="1301" 
d="M43 0zM945 0h35l278 706h-36l-260 -663l-308 663h-32l-335 -657l-209 657h-35l222 -706h34l338 664zM544 813q19 0 30.5 9.5t11.5 29.5t-10 32t-31 12q-22 0 -33 -10.5t-11 -32.5q0 -20 11 -30t32 -10zM732 813q20 0 31.5 9.5t11.5 29.5t-10 32t-31 12q-22 0 -33 -10.5
t-11 -32.5q0 -21 11.5 -30.5t30.5 -9.5z" />
    <glyph glyph-name="Wgrave" unicode="&#x1e80;" horiz-adv-x="1301" 
d="M43 0zM945 0h35l278 706h-36l-260 -663l-308 663h-32l-335 -657l-209 657h-35l222 -706h34l338 664zM630 818h40l-144 169h-50z" />
    <glyph glyph-name="Yacute" unicode="&#xdd;" horiz-adv-x="801" 
d="M34 0zM405 0v300l362 406h-44l-335 -373l-310 373h-44l336 -406v-300h35zM369 780h41l172 210h-43z" />
    <glyph glyph-name="Ycircumflex" unicode="&#x176;" horiz-adv-x="801" 
d="M34 0zM405 0v300l362 406h-44l-335 -373l-310 373h-44l336 -406v-300h35zM514 812h43l-151 171h-40l-149 -171h43l127 146z" />
    <glyph glyph-name="Ydieresis" unicode="&#x178;" horiz-adv-x="801" 
d="M34 0zM405 0v300l362 406h-44l-335 -373l-310 373h-44l336 -406v-300h35zM297 808q19 0 30.5 9.5t11.5 29.5t-10 32t-31 12q-22 0 -33 -10.5t-11 -32.5q0 -20 11 -30t32 -10zM485 808q20 0 31.5 9.5t11.5 29.5t-10 32t-31 12q-22 0 -33 -10.5t-11 -32.5q0 -21 11.5 -30.5
t30.5 -9.5z" />
    <glyph glyph-name="Ygrave" unicode="&#x1ef2;" horiz-adv-x="801" 
d="M34 0zM405 0v300l362 406h-44l-335 -373l-310 373h-44l336 -406v-300h35zM386 774h40l-144 169h-50z" />
    <glyph glyph-name="IJ" unicode="&#x132;" horiz-adv-x="953" 
d="M485 0v34h-189v638h189v34h-413v-34h189v-638h-189v-34h413zM596 0h10q73 0 119 10t72 36q25 25 34.5 71t9.5 117v472h-35v-472q0 -63 -6.5 -103t-27.5 -61q-20 -21 -60 -29t-106 -8h-10v-33z" />
    <glyph glyph-name="Zacute" unicode="&#x179;" horiz-adv-x="784" 
d="M46 0zM733 0v34h-638l648 638v34h-669v-34h622l-650 -637v-35h687zM382 820h41l172 210h-43z" />
    <glyph glyph-name="Zcaron" unicode="&#x17d;" horiz-adv-x="784" 
d="M46 0zM733 0v34h-638l648 638v34h-669v-34h622l-650 -637v-35h687zM413 814l158 162h-48l-123 -130l-118 130h-46l149 -162h28z" />
    <glyph glyph-name="Zdotaccent" unicode="&#x17b;" horiz-adv-x="784" 
d="M46 0zM733 0v34h-638l648 638v34h-669v-34h622l-650 -637v-35h687zM403 822q20 0 32 9.5t12 30.5q0 20 -10.5 32.5t-32.5 12.5t-33.5 -12t-11.5 -32q0 -22 12 -31.5t32 -9.5z" />
    <glyph glyph-name="Thorn" unicode="&#xde;" horiz-adv-x="812" 
d="M435 187h-272v349h260q154 0 226.5 -38t72.5 -135q0 -69 -34 -107.5t-98 -53.5q-32 -8 -70.5 -11.5t-84.5 -3.5zM435 154q160 -1 240.5 48.5t80.5 160.5q0 110 -81.5 158t-251.5 48h-260v137h-35v-706h35v154h272z" />
    <glyph glyph-name="I.alt" horiz-adv-x="299" 
d="M167 0v706h-35v-706h35z" />
    <glyph glyph-name="Iacute.alt" horiz-adv-x="299" 
d="M129 0zM167 0v706h-35v-706h35zM129 822h41l172 210h-43z" />
    <glyph glyph-name="Ibreve.alt" horiz-adv-x="299" 
d="M0 0zM167 0v706h-35v-706h35zM148 810q67 0 111.5 28.5t68.5 70.5q12 22 19 43.5t9 42.5h-33q-4 -36 -25.5 -71.5t-58.5 -59.5q-19 -12 -41.5 -18t-48.5 -6q-57 1 -92.5 24.5t-53.5 58.5q-9 18 -14.5 36t-7.5 36h-34q4 -43 25 -85.5t64 -71.5q21 -14 49 -21t63 -7z" />
    <glyph glyph-name="Icircumflex.alt" horiz-adv-x="299" 
d="M0 0zM167 0v706h-35v-706h35zM274 817h43l-151 171h-40l-149 -171h43l127 146z" />
    <glyph glyph-name="Idieresis.alt" horiz-adv-x="299" 
d="M14 0zM167 0v706h-35v-706h35zM57 813q19 0 30.5 9.5t11.5 29.5t-10 32t-31 12q-22 0 -33 -10.5t-11 -32.5q0 -20 11 -30t32 -10zM245 813q20 0 31.5 9.5t11.5 29.5t-10 32t-31 12q-22 0 -33 -10.5t-11 -32.5q0 -21 11.5 -30.5t30.5 -9.5z" />
    <glyph glyph-name="Idotaccent.alt" horiz-adv-x="299" 
d="M106 0zM167 0v706h-35v-706h35zM150 824q20 0 32 9.5t12 30.5q0 20 -10.5 32.5t-32.5 12.5t-33.5 -12t-11.5 -32q0 -22 12 -31.5t32 -9.5z" />
    <glyph glyph-name="Igrave.alt" horiz-adv-x="299" 
d="M0 0zM167 0v706h-35v-706h35zM143 818h40l-144 169h-50z" />
    <glyph glyph-name="Imacron.alt" horiz-adv-x="299" 
d="M0 0zM167 0v706h-35v-706h35zM-12 841h331v34h-331v-34z" />
    <glyph glyph-name="Iogonek.alt" horiz-adv-x="299" 
d="M296 -129h-39q-19 -35 -51 -55t-81 -20q-45 0 -75 21t-30 56q0 21 12 40.5t44 40.5q15 10 37.5 21.5t51.5 24.5h2v706h-35v-692q-80 -33 -114 -69t-34 -73q0 -48 37.5 -77.5t103.5 -29.5q62 0 105.5 29t65.5 77z" />
    <glyph glyph-name="Itilde.alt" horiz-adv-x="299" 
d="M0 0zM167 0v706h-35v-706h35zM-70 820h31q0 37 18.5 57t56.5 20q27 0 54 -11.5t55 -26.5t57 -26.5t59 -11.5q51 0 77 29t26 77h-31q0 -39 -19.5 -57.5t-52.5 -18.5q-25 0 -51 11.5t-53 26.5t-57 26.5t-64 11.5q-50 0 -78 -28.5t-28 -78.5z" />
    <glyph glyph-name="a" unicode="a" horiz-adv-x="863" 
d="M303 11q-69 0 -109 16t-57 43q-8 14 -12.5 29t-4.5 32v1q0 29 11.5 53.5t34.5 43.5t59.5 32t94.5 22q29 5 65.5 8.5t79.5 6.5q80 5 131 12.5t80 19.5q15 5 25.5 12.5t17.5 15.5v-61q0 -48 -27.5 -98t-81.5 -93q-53 -43 -130.5 -69t-176.5 -26zM718 0h30l2 415
q0 42 -28.5 82.5t-93.5 66.5q-33 13 -76 19.5t-97 6.5q-167 0 -255.5 -57t-104.5 -176h33q16 104 92 153t235 49q100 0 157 -21.5t81 -53.5q12 -16 18 -32t6 -32q0 -36 -25 -54t-81 -26q-28 -4 -65 -8t-84 -7q-90 -6 -151 -15.5t-101 -23.5q-20 -8 -37 -16.5t-30 -19.5
q-29 -23 -44 -52.5t-15 -65.5v-1q0 -44 19.5 -77.5t67.5 -52.5q24 -10 57 -14.5t75 -4.5q117 0 201 32.5t137 83.5q26 26 45 53t31 56z" />
    <glyph glyph-name="b" unicode="b" horiz-adv-x="926" 
d="M484 -18q175 0 274 76.5t99 224.5q0 100 -49 168.5t-132 103.5q-42 17 -89 26t-100 9q-116 0 -206 -48t-130 -134v346h-33v-754h28l2 158q37 -82 123 -129t213 -47zM484 13q-101 0 -178 31.5t-119 91.5q-22 30 -32.5 66.5t-10.5 79.5q0 66 27 118t75 88q48 35 110 54
t131 19q94 0 170 -32t122 -94q22 -31 33.5 -69t11.5 -83q0 -137 -91.5 -203.5t-248.5 -66.5z" />
    <glyph glyph-name="c" unicode="c" horiz-adv-x="881" 
d="M802 224h-34q-33 -112 -116 -160.5t-202 -48.5q-163 0 -254.5 65.5t-91.5 202.5q0 72 27 124t75 86q48 33 110 49.5t132 16.5q78 0 144 -23.5t112 -71.5q23 -24 38.5 -54t23.5 -67h34q-16 81 -65.5 136t-123.5 83q-37 14 -77.5 21t-85.5 7q-78 0 -146.5 -19t-120.5 -57
q-53 -38 -82.5 -96t-29.5 -135q0 -148 100 -224.5t281 -76.5q81 0 153.5 24t124.5 77q27 26 45.5 61.5t28.5 79.5z" />
    <glyph glyph-name="d" unicode="d" horiz-adv-x="925" 
d="M442 13q-157 0 -248.5 66.5t-91.5 203.5q0 90 45.5 152t121.5 94q38 16 80.5 24t89.5 8q96 0 173.5 -32t123.5 -94q23 -30 34.5 -67.5t11.5 -81.5q0 -85 -42.5 -146.5t-119.5 -93.5q-38 -17 -82.5 -25t-95.5 -8zM779 0h28v754h-33v-337q-40 83 -128 128t-207 45
q-105 0 -188.5 -35t-132.5 -104q-25 -34 -37 -76t-12 -92q0 -148 99 -224.5t274 -76.5q127 0 212.5 48t121.5 129z" />
    <glyph glyph-name="e" unicode="e" horiz-adv-x="870" 
d="M784 144h-38v-1q-37 -66 -112.5 -97.5t-190.5 -31.5q-154 0 -244 62t-95 192h696v27q0 89 -42.5 155t-121.5 103q-40 19 -87.5 28t-103.5 9q-78 0 -146 -19t-120 -57q-51 -38 -80.5 -96t-29.5 -135q0 -148 98.5 -224.5t273.5 -76.5q122 0 211 37.5t132 124.5zM444 559
q99 0 171 -31t111 -90q20 -29 30.5 -64t10.5 -76h-663q4 91 51 148.5t123 84.5q38 14 79.5 21t86.5 7z" />
    <glyph glyph-name="f" unicode="f" horiz-adv-x="472" 
d="M452 534v30h-256v12q0 65 9 105t30 60q21 21 58 28.5t93 7.5h66v29h-66q-61 0 -103.5 -9t-68.5 -33t-38 -69.5t-12 -119.5v-11h-156v-30h156v-534h32v534h256z" />
    <glyph glyph-name="g" unicode="g" horiz-adv-x="778" 
d="M391 -264q142 0 224 23.5t117 63.5q17 20 26 42t9 47q0 75 -66 112.5t-193 37.5h-258q-50 0 -79 11t-40 28q-6 9 -9 17.5t-3 17.5q0 39 54.5 68t157.5 29h72q153 0 237 40.5t84 132.5q0 53 -27.5 88.5t-76.5 54.5q-24 9 -51.5 14.5t-58.5 7.5h-3q68 4 107 13.5t59 25.5
q19 17 24.5 42t5.5 61v5h-29v-6q0 -33 -7 -56t-28 -38q-21 -14 -62 -21.5t-108 -9.5t-115.5 -4.5t-94.5 -10.5q-79 -13 -130.5 -54t-51.5 -109q0 -71 52.5 -112t157.5 -52q-98 -4 -149.5 -37t-51.5 -79q0 -35 30 -62t94 -32q-75 -11 -124.5 -43t-49.5 -94q0 -50 30.5 -86.5
t102.5 -55.5q36 -10 85.5 -15t111.5 -5h25zM404 265q-85 0 -151.5 13t-104.5 44q-19 16 -28.5 37.5t-9.5 49.5q0 56 40.5 90.5t114.5 46.5q46 8 78 9t68 1q145 0 212.5 -39.5t67.5 -110.5q0 -82 -73.5 -111.5t-213.5 -29.5zM365 -232q-111 0 -176.5 17t-94.5 47
q-15 15 -22 31.5t-7 35.5q0 47 36 76.5t98 43.5q32 7 68 11t76 4h165q115 0 171 -29.5t56 -91.5q0 -31 -15.5 -57.5t-53.5 -45.5q-38 -20 -105 -31t-170 -11h-26z" />
    <glyph glyph-name="h" unicode="h" horiz-adv-x="912" 
d="M149 249q0 97 41.5 166t115.5 107q36 18 78.5 27.5t89.5 9.5q105 0 169.5 -35.5t93.5 -96.5q15 -30 22.5 -65t7.5 -74v-288h32v287q0 88 -34.5 156t-106.5 108q-36 19 -82 29t-102 10q-82 0 -148.5 -27t-111.5 -77q-23 -25 -39 -55t-25 -64v387h-32v-754h31v249z" />
    <glyph glyph-name="i" unicode="i" horiz-adv-x="277" 
d="M140 678q16 0 21.5 9.5t5.5 24.5q0 16 -5.5 25t-22.5 9q-13 0 -20 -8.5t-7 -25.5q0 -16 6 -25t22 -9zM155 0v564h-33v-564h33z" />
    <glyph glyph-name="j" unicode="j" horiz-adv-x="276" 
d="M140 678q16 0 21.5 9.5t5.5 24.5q0 16 -5.5 25t-22.5 9q-13 0 -20 -8.5t-7 -25.5q0 -16 6 -25t22 -9zM-75 -249q68 0 113 9.5t71 35.5t36.5 76.5t9.5 131.5v560h-33v-560q0 -74 -8.5 -119t-29.5 -68q-21 -24 -59.5 -32t-98.5 -8h-31v-26h30z" />
    <glyph glyph-name="k" unicode="k" horiz-adv-x="803" 
d="M726 0h45l-317 331l288 233h-51l-541 -437v627h-32v-754h32v89l278 222z" />
    <glyph glyph-name="l" unicode="l" horiz-adv-x="275" 
d="M154 0v754h-33v-754h33z" />
    <glyph glyph-name="m" unicode="m" horiz-adv-x="1398" 
d="M149 277q0 89 38 152t103 97q33 16 70.5 24.5t78.5 8.5q70 0 118 -21t77 -57q29 -37 42 -82.5t13 -94.5v-304h33v297q0 79 33.5 137.5t93.5 91.5q30 17 65.5 25t76.5 8q93 0 150.5 -31.5t83.5 -89.5q14 -29 20.5 -63t6.5 -73v-302h33v301q0 136 -71.5 212.5t-220.5 76.5
q-107 0 -181 -56.5t-100 -148.5q-12 60 -44.5 106t-88.5 73q-28 13 -62.5 19.5t-76.5 6.5q-115 0 -190 -55.5t-100 -144.5l-2 174h-30v-564h31v277z" />
    <glyph glyph-name="n" unicode="n" horiz-adv-x="912" 
d="M150 249q0 97 41.5 166t114.5 107q36 18 78.5 27.5t89.5 9.5q105 0 169 -35.5t94 -96.5q14 -30 21.5 -65t7.5 -74v-288h32v287q0 88 -34.5 156t-105.5 108q-36 19 -82 29t-102 10q-124 0 -210 -60.5t-113 -164.5l-2 199h-31v-564h32v249z" />
    <glyph glyph-name="o" unicode="o" horiz-adv-x="892" 
d="M443 -18q117 0 202 34t132 101q23 34 34.5 75.5t11.5 90.5q0 100 -50.5 168.5t-135.5 103.5q-43 17 -90.5 26t-100.5 9q-77 0 -145.5 -19t-120.5 -57t-81.5 -96t-29.5 -135q0 -148 99.5 -224.5t274.5 -76.5zM443 15q-157 0 -248 65.5t-91 202.5q0 72 27 124t75 86
q47 33 109 49.5t131 16.5q94 0 172 -31.5t125 -93.5q23 -31 35 -68.5t12 -82.5q0 -91 -43 -150.5t-121 -88.5q-39 -15 -85 -22t-98 -7z" />
    <glyph glyph-name="p" unicode="p" horiz-adv-x="925" 
d="M478 13q-99 0 -174.5 30.5t-118.5 90.5q-21 30 -31.5 67t-10.5 81q0 81 43.5 144t120.5 99q38 18 82.5 27t94.5 9q93 0 170 -33t123 -95q23 -31 34.5 -68.5t11.5 -81.5q0 -89 -42.5 -149.5t-119.5 -90.5q-39 -15 -84.5 -22.5t-98.5 -7.5zM478 -18q111 0 196 34t134 101
q24 34 36 75.5t12 90.5q0 96 -47.5 165t-131.5 105q-42 19 -89.5 28t-101.5 9q-124 0 -211 -51t-125 -131l-3 156h-29v-764h33v346q38 -77 122 -120.5t205 -43.5z" />
    <glyph glyph-name="q" unicode="q" horiz-adv-x="925" 
d="M807 -200v764h-29l-3 -155q-37 80 -123.5 130.5t-214.5 50.5q-107 0 -190.5 -36.5t-130.5 -105.5q-23 -35 -35 -76t-12 -89q0 -98 46.5 -165.5t129.5 -101.5q42 -17 90.5 -25.5t103.5 -8.5q122 0 209 45t126 123v-350h33zM439 13q-157 0 -247 68t-90 202q0 88 45.5 150
t122.5 95q38 16 80.5 24.5t88.5 8.5q104 0 181 -36t119 -99q22 -32 32.5 -68t10.5 -76q0 -87 -43.5 -147t-121.5 -91q-38 -15 -82.5 -23t-95.5 -8z" />
    <glyph glyph-name="r" unicode="r" horiz-adv-x="548" 
d="M150 0v196q0 103 33 178.5t103 116.5q35 20 80.5 30.5t100.5 10.5h43v32h-40q-139 0 -217 -62.5t-104 -164.5l1 17l-2 210h-30v-564h32z" />
    <glyph glyph-name="s" unicode="s" horiz-adv-x="801" 
d="M415 -18q117 0 186.5 24t99.5 63q16 20 23.5 42t7.5 45v1q0 82 -80 113t-242 37q-103 4 -167 15t-93 34q-15 12 -22.5 29t-7.5 38q0 57 59.5 96.5t188.5 39.5q125 0 207.5 -37.5t115.5 -128.5h34q-35 105 -126 151t-233 46q-137 0 -209 -47.5t-72 -118.5q0 -54 32 -85
t102 -46q35 -7 80.5 -11.5t102.5 -6.5q106 -3 171 -14.5t96 -35.5q15 -12 22.5 -29t7.5 -39q0 -37 -26.5 -69.5t-88.5 -52.5q-31 -10 -73 -15t-96 -5q-53 0 -105.5 7t-98.5 27q-45 20 -78 56.5t-46 94.5h-36q13 -65 47.5 -107.5t84.5 -66.5q49 -24 109 -34t123 -10z" />
    <glyph glyph-name="t" unicode="t" horiz-adv-x="493" 
d="M449 33h-61q-74 0 -119.5 17.5t-66.5 63.5q-10 23 -15 56.5t-5 76.5v288h267v29h-267v164h-26q-1 -33 -1.5 -59.5t-2.5 -52.5q-1 -24 -5 -34.5t-17 -13.5q-7 -1 -18 -2t-26 -1l-82 -1v-29h146v-288q0 -96 24.5 -150t76.5 -75q27 -11 61.5 -16.5t76.5 -5.5h60v33z" />
    <glyph glyph-name="u" unicode="u" horiz-adv-x="893" 
d="M744 0h31v564h-32v-246q0 -96 -38.5 -164t-109.5 -103q-35 -18 -76 -27t-89 -9q-145 0 -215 68.5t-70 194.5v286h-33v-285q0 -147 77.5 -222t240.5 -75q125 0 207 59.5t107 163.5v-205z" />
    <glyph glyph-name="v" unicode="v" horiz-adv-x="749" 
d="M389 0l335 564h-37l-314 -529l-294 529h-38l315 -564h33z" />
    <glyph glyph-name="w" unicode="w" horiz-adv-x="1178" 
d="M846 0h35l250 564h-35l-233 -528l-261 528h-35l-283 -526l-202 526h-35l216 -564h35l285 532z" />
    <glyph glyph-name="x" unicode="x" horiz-adv-x="759" 
d="M671 0h49l-313 291l296 273h-45l-275 -253l-267 253h-48l291 -273l-327 -291h51l301 272z" />
    <glyph glyph-name="y" unicode="y" horiz-adv-x="785" 
d="M71 -248q50 0 86 4t64 16t53.5 36.5t54.5 64.5l31.5 46l35.5 56l364 589h-38l-321 -520l-325 520h-37l343 -551l-16 -26q-35 -56 -61 -93.5t-49 -59.5t-48 -33t-58 -15q-16 -1 -36 -2t-43 -1h-18l1 -31h17z" />
    <glyph glyph-name="z" unicode="z" horiz-adv-x="762" 
d="M724 0v30h-631l623 508v26h-632v-29h581l-618 -503v-32h677z" />
    <glyph glyph-name="aacute" unicode="&#xe1;" horiz-adv-x="863" 
d="M84 0zM303 11q-69 0 -109 16t-57 43q-8 14 -12.5 29t-4.5 32v1q0 29 11.5 53.5t34.5 43.5t59.5 32t94.5 22q29 5 65.5 8.5t79.5 6.5q80 5 131 12.5t80 19.5q15 5 25.5 12.5t17.5 15.5v-61q0 -48 -27.5 -98t-81.5 -93q-53 -43 -130.5 -69t-176.5 -26zM718 0h30l2 415
q0 42 -28.5 82.5t-93.5 66.5q-33 13 -76 19.5t-97 6.5q-167 0 -255.5 -57t-104.5 -176h33q16 104 92 153t235 49q100 0 157 -21.5t81 -53.5q12 -16 18 -32t6 -32q0 -36 -25 -54t-81 -26q-28 -4 -65 -8t-84 -7q-90 -6 -151 -15.5t-101 -23.5q-20 -8 -37 -16.5t-30 -19.5
q-29 -23 -44 -52.5t-15 -65.5v-1q0 -44 19.5 -77.5t67.5 -52.5q24 -10 57 -14.5t75 -4.5q117 0 201 32.5t137 83.5q26 26 45 53t31 56zM429 706h41l172 210h-43z" />
    <glyph glyph-name="abreve" unicode="&#x103;" horiz-adv-x="863" 
d="M84 0zM303 11q-69 0 -109 16t-57 43q-8 14 -12.5 29t-4.5 32v1q0 29 11.5 53.5t34.5 43.5t59.5 32t94.5 22q29 5 65.5 8.5t79.5 6.5q80 5 131 12.5t80 19.5q15 5 25.5 12.5t17.5 15.5v-61q0 -48 -27.5 -98t-81.5 -93q-53 -43 -130.5 -69t-176.5 -26zM718 0h30l2 415
q0 42 -28.5 82.5t-93.5 66.5q-33 13 -76 19.5t-97 6.5q-167 0 -255.5 -57t-104.5 -176h33q16 104 92 153t235 49q100 0 157 -21.5t81 -53.5q12 -16 18 -32t6 -32q0 -36 -25 -54t-81 -26q-28 -4 -65 -8t-84 -7q-90 -6 -151 -15.5t-101 -23.5q-20 -8 -37 -16.5t-30 -19.5
q-29 -23 -44 -52.5t-15 -65.5v-1q0 -44 19.5 -77.5t67.5 -52.5q24 -10 57 -14.5t75 -4.5q117 0 201 32.5t137 83.5q26 26 45 53t31 56zM448 694q67 0 111.5 28.5t68.5 70.5q12 22 19 43.5t9 42.5h-33q-4 -36 -25.5 -71.5t-58.5 -59.5q-19 -12 -41.5 -18t-48.5 -6
q-57 1 -92.5 24.5t-53.5 58.5q-9 18 -14.5 36t-7.5 36h-34q4 -43 25 -85.5t64 -71.5q21 -14 49 -21t63 -7z" />
    <glyph glyph-name="acircumflex" unicode="&#xe2;" horiz-adv-x="863" 
d="M84 0zM303 11q-69 0 -109 16t-57 43q-8 14 -12.5 29t-4.5 32v1q0 29 11.5 53.5t34.5 43.5t59.5 32t94.5 22q29 5 65.5 8.5t79.5 6.5q80 5 131 12.5t80 19.5q15 5 25.5 12.5t17.5 15.5v-61q0 -48 -27.5 -98t-81.5 -93q-53 -43 -130.5 -69t-176.5 -26zM718 0h30l2 415
q0 42 -28.5 82.5t-93.5 66.5q-33 13 -76 19.5t-97 6.5q-167 0 -255.5 -57t-104.5 -176h33q16 104 92 153t235 49q100 0 157 -21.5t81 -53.5q12 -16 18 -32t6 -32q0 -36 -25 -54t-81 -26q-28 -4 -65 -8t-84 -7q-90 -6 -151 -15.5t-101 -23.5q-20 -8 -37 -16.5t-30 -19.5
q-29 -23 -44 -52.5t-15 -65.5v-1q0 -44 19.5 -77.5t67.5 -52.5q24 -10 57 -14.5t75 -4.5q117 0 201 32.5t137 83.5q26 26 45 53t31 56zM574 701h43l-151 171h-40l-149 -171h43l127 146z" />
    <glyph glyph-name="adieresis" unicode="&#xe4;" horiz-adv-x="863" 
d="M84 0zM303 11q-69 0 -109 16t-57 43q-8 14 -12.5 29t-4.5 32v1q0 29 11.5 53.5t34.5 43.5t59.5 32t94.5 22q29 5 65.5 8.5t79.5 6.5q80 5 131 12.5t80 19.5q15 5 25.5 12.5t17.5 15.5v-61q0 -48 -27.5 -98t-81.5 -93q-53 -43 -130.5 -69t-176.5 -26zM718 0h30l2 415
q0 42 -28.5 82.5t-93.5 66.5q-33 13 -76 19.5t-97 6.5q-167 0 -255.5 -57t-104.5 -176h33q16 104 92 153t235 49q100 0 157 -21.5t81 -53.5q12 -16 18 -32t6 -32q0 -36 -25 -54t-81 -26q-28 -4 -65 -8t-84 -7q-90 -6 -151 -15.5t-101 -23.5q-20 -8 -37 -16.5t-30 -19.5
q-29 -23 -44 -52.5t-15 -65.5v-1q0 -44 19.5 -77.5t67.5 -52.5q24 -10 57 -14.5t75 -4.5q117 0 201 32.5t137 83.5q26 26 45 53t31 56zM357 697q19 0 30.5 9.5t11.5 29.5t-10 32t-31 12q-22 0 -33 -10.5t-11 -32.5q0 -20 11 -30t32 -10zM545 697q20 0 31.5 9.5t11.5 29.5
t-10 32t-31 12q-22 0 -33 -10.5t-11 -32.5q0 -21 11.5 -30.5t30.5 -9.5z" />
    <glyph glyph-name="agrave" unicode="&#xe0;" horiz-adv-x="863" 
d="M84 0zM303 11q-69 0 -109 16t-57 43q-8 14 -12.5 29t-4.5 32v1q0 29 11.5 53.5t34.5 43.5t59.5 32t94.5 22q29 5 65.5 8.5t79.5 6.5q80 5 131 12.5t80 19.5q15 5 25.5 12.5t17.5 15.5v-61q0 -48 -27.5 -98t-81.5 -93q-53 -43 -130.5 -69t-176.5 -26zM718 0h30l2 415
q0 42 -28.5 82.5t-93.5 66.5q-33 13 -76 19.5t-97 6.5q-167 0 -255.5 -57t-104.5 -176h33q16 104 92 153t235 49q100 0 157 -21.5t81 -53.5q12 -16 18 -32t6 -32q0 -36 -25 -54t-81 -26q-28 -4 -65 -8t-84 -7q-90 -6 -151 -15.5t-101 -23.5q-20 -8 -37 -16.5t-30 -19.5
q-29 -23 -44 -52.5t-15 -65.5v-1q0 -44 19.5 -77.5t67.5 -52.5q24 -10 57 -14.5t75 -4.5q117 0 201 32.5t137 83.5q26 26 45 53t31 56zM443 702h40l-144 169h-50z" />
    <glyph glyph-name="amacron" unicode="&#x101;" horiz-adv-x="863" 
d="M84 0zM303 11q-69 0 -109 16t-57 43q-8 14 -12.5 29t-4.5 32v1q0 29 11.5 53.5t34.5 43.5t59.5 32t94.5 22q29 5 65.5 8.5t79.5 6.5q80 5 131 12.5t80 19.5q15 5 25.5 12.5t17.5 15.5v-61q0 -48 -27.5 -98t-81.5 -93q-53 -43 -130.5 -69t-176.5 -26zM718 0h30l2 415
q0 42 -28.5 82.5t-93.5 66.5q-33 13 -76 19.5t-97 6.5q-167 0 -255.5 -57t-104.5 -176h33q16 104 92 153t235 49q100 0 157 -21.5t81 -53.5q12 -16 18 -32t6 -32q0 -36 -25 -54t-81 -26q-28 -4 -65 -8t-84 -7q-90 -6 -151 -15.5t-101 -23.5q-20 -8 -37 -16.5t-30 -19.5
q-29 -23 -44 -52.5t-15 -65.5v-1q0 -44 19.5 -77.5t67.5 -52.5q24 -10 57 -14.5t75 -4.5q117 0 201 32.5t137 83.5q26 26 45 53t31 56zM288 725h331v34h-331v-34z" />
    <glyph glyph-name="aogonek" unicode="&#x105;" horiz-adv-x="863" 
d="M303 11q-69 0 -109 16t-57 43q-8 14 -12.5 29t-4.5 32v1q0 29 11.5 53.5t34.5 43.5t59.5 32t94.5 22q29 5 65.5 8.5t79.5 6.5q80 5 131 12.5t80 19.5q15 5 25.5 12.5t17.5 15.5v-61q0 -48 -27.5 -98t-81.5 -93q-53 -43 -130.5 -69t-176.5 -26zM879 -129h-39
q-19 -35 -51 -55t-81 -20q-45 0 -75 21t-30 56q0 21 12 40.5t44 40.5q15 10 37.5 21.5t51.5 24.5l2 415q0 42 -28.5 82.5t-93.5 66.5q-33 13 -76 19.5t-97 6.5q-167 0 -255.5 -57t-104.5 -176h33q16 104 92 153t235 49q100 0 157 -21.5t81 -53.5q12 -16 18 -32t6 -32
q0 -36 -25 -54t-81 -26q-28 -4 -65 -8t-84 -7q-90 -6 -151 -15.5t-101 -23.5q-20 -8 -37 -16.5t-30 -19.5q-29 -23 -44 -52.5t-15 -65.5v-1q0 -44 19.5 -77.5t67.5 -52.5q24 -10 57 -14.5t75 -4.5q117 0 201 32.5t137 83.5q26 26 45 53t31 56l1 -192q-82 -33 -116.5 -69
t-34.5 -74q0 -48 37.5 -77.5t103.5 -29.5q62 0 105.5 29t65.5 77z" />
    <glyph glyph-name="aring" unicode="&#xe5;" horiz-adv-x="863" 
d="M84 0zM303 11q-69 0 -109 16t-57 43q-8 14 -12.5 29t-4.5 32v1q0 29 11.5 53.5t34.5 43.5t59.5 32t94.5 22q29 5 65.5 8.5t79.5 6.5q80 5 131 12.5t80 19.5q15 5 25.5 12.5t17.5 15.5v-61q0 -48 -27.5 -98t-81.5 -93q-53 -43 -130.5 -69t-176.5 -26zM718 0h30l2 415
q0 42 -28.5 82.5t-93.5 66.5q-33 13 -76 19.5t-97 6.5q-167 0 -255.5 -57t-104.5 -176h33q16 104 92 153t235 49q100 0 157 -21.5t81 -53.5q12 -16 18 -32t6 -32q0 -36 -25 -54t-81 -26q-28 -4 -65 -8t-84 -7q-90 -6 -151 -15.5t-101 -23.5q-20 -8 -37 -16.5t-30 -19.5
q-29 -23 -44 -52.5t-15 -65.5v-1q0 -44 19.5 -77.5t67.5 -52.5q24 -10 57 -14.5t75 -4.5q117 0 201 32.5t137 83.5q26 26 45 53t31 56zM452 702q47 0 77 28.5t30 75.5q0 53 -30 79.5t-77 26.5q-44 0 -74 -28.5t-30 -77.5q0 -44 28 -74t76 -30zM452 735q-35 0 -53 20t-18 51
q0 35 20 55t51 20q34 0 53.5 -20t19.5 -55q0 -34 -19.5 -52.5t-53.5 -18.5z" />
    <glyph glyph-name="aringacute" unicode="&#x1fb;" horiz-adv-x="863" 
d="M84 0zM303 11q-69 0 -109 16t-57 43q-8 14 -12.5 29t-4.5 32v1q0 29 11.5 53.5t34.5 43.5t59.5 32t94.5 22q29 5 65.5 8.5t79.5 6.5q80 5 131 12.5t80 19.5q15 5 25.5 12.5t17.5 15.5v-61q0 -48 -27.5 -98t-81.5 -93q-53 -43 -130.5 -69t-176.5 -26zM718 0h30l2 415
q0 42 -28.5 82.5t-93.5 66.5q-33 13 -76 19.5t-97 6.5q-167 0 -255.5 -57t-104.5 -176h33q16 104 92 153t235 49q100 0 157 -21.5t81 -53.5q12 -16 18 -32t6 -32q0 -36 -25 -54t-81 -26q-28 -4 -65 -8t-84 -7q-90 -6 -151 -15.5t-101 -23.5q-20 -8 -37 -16.5t-30 -19.5
q-29 -23 -44 -52.5t-15 -65.5v-1q0 -44 19.5 -77.5t67.5 -52.5q24 -10 57 -14.5t75 -4.5q117 0 201 32.5t137 83.5q26 26 45 53t31 56zM411 934h41l172 210h-43zM433 665q47 0 77 28.5t30 75.5q0 53 -30 79.5t-77 26.5q-44 0 -74 -28.5t-30 -77.5q0 -44 28 -74t76 -30z
M433 698q-35 0 -53 20t-18 51q0 35 20 55t51 20q34 0 53.5 -20t19.5 -55q0 -34 -19.5 -52.5t-53.5 -18.5z" />
    <glyph glyph-name="atilde" unicode="&#xe3;" horiz-adv-x="863" 
d="M84 0zM303 11q-69 0 -109 16t-57 43q-8 14 -12.5 29t-4.5 32v1q0 29 11.5 53.5t34.5 43.5t59.5 32t94.5 22q29 5 65.5 8.5t79.5 6.5q80 5 131 12.5t80 19.5q15 5 25.5 12.5t17.5 15.5v-61q0 -48 -27.5 -98t-81.5 -93q-53 -43 -130.5 -69t-176.5 -26zM718 0h30l2 415
q0 42 -28.5 82.5t-93.5 66.5q-33 13 -76 19.5t-97 6.5q-167 0 -255.5 -57t-104.5 -176h33q16 104 92 153t235 49q100 0 157 -21.5t81 -53.5q12 -16 18 -32t6 -32q0 -36 -25 -54t-81 -26q-28 -4 -65 -8t-84 -7q-90 -6 -151 -15.5t-101 -23.5q-20 -8 -37 -16.5t-30 -19.5
q-29 -23 -44 -52.5t-15 -65.5v-1q0 -44 19.5 -77.5t67.5 -52.5q24 -10 57 -14.5t75 -4.5q117 0 201 32.5t137 83.5q26 26 45 53t31 56zM230 704h31q0 37 18.5 57t56.5 20q27 0 54 -11.5t55 -26.5t57 -26.5t59 -11.5q51 0 77 29t26 77h-31q0 -39 -19.5 -57.5t-52.5 -18.5
q-25 0 -51 11.5t-53 26.5t-57 26.5t-64 11.5q-50 0 -78 -28.5t-28 -78.5z" />
    <glyph glyph-name="ae" unicode="&#xe6;" horiz-adv-x="1530" 
d="M1433 144h-38v-1q-37 -66 -112.5 -97.5t-190.5 -31.5q-154 0 -244 62t-95 192h696v27q0 89 -42.5 155t-121.5 103q-40 19 -87.5 28t-103.5 9q-112 0 -202 -40t-135 -121q-4 40 -34 77t-92 60q-32 12 -73 18t-92 6q-169 0 -259 -60t-106 -175h31q17 107 95 155.5t239 48.5
q100 0 157 -21.5t81 -53.5q12 -16 18 -32t6 -32q0 -36 -26.5 -54t-83.5 -26q-28 -4 -65.5 -8t-84.5 -7q-90 -6 -151.5 -15.5t-101.5 -23.5q-20 -8 -37 -16.5t-30 -19.5q-29 -23 -43.5 -52.5t-14.5 -65.5q0 -44 19.5 -78t67.5 -53q24 -9 57 -14t75 -5q118 0 203.5 34
t139.5 88q27 27 46.5 55t31.5 57q20 -117 112.5 -175.5t247.5 -58.5q122 0 211 37.5t132 124.5zM1093 559q99 0 171 -31t111 -90q20 -29 30.5 -64t10.5 -76h-663q4 91 51 148.5t123 84.5q38 14 79.5 21t86.5 7zM309 15q-100 0 -141.5 31t-41.5 86q0 29 11.5 53.5t34.5 43.5
t59.5 31.5t94.5 21.5q29 4 65.5 7.5t79.5 6.5q117 8 176.5 21t81.5 37q-2 -13 -3 -28l-2 -29q-1 -46 -28.5 -95.5t-79.5 -91.5q-52 -43 -129 -69t-178 -26z" />
    <glyph glyph-name="aeacute" unicode="&#x1fd;" horiz-adv-x="1530" 
d="M90 0zM1433 144h-38v-1q-37 -66 -112.5 -97.5t-190.5 -31.5q-154 0 -244 62t-95 192h696v27q0 89 -42.5 155t-121.5 103q-40 19 -87.5 28t-103.5 9q-112 0 -202 -40t-135 -121q-4 40 -34 77t-92 60q-32 12 -73 18t-92 6q-169 0 -259 -60t-106 -175h31q17 107 95 155.5
t239 48.5q100 0 157 -21.5t81 -53.5q12 -16 18 -32t6 -32q0 -36 -26.5 -54t-83.5 -26q-28 -4 -65.5 -8t-84.5 -7q-90 -6 -151.5 -15.5t-101.5 -23.5q-20 -8 -37 -16.5t-30 -19.5q-29 -23 -43.5 -52.5t-14.5 -65.5q0 -44 19.5 -78t67.5 -53q24 -9 57 -14t75 -5
q118 0 203.5 34t139.5 88q27 27 46.5 55t31.5 57q20 -117 112.5 -175.5t247.5 -58.5q122 0 211 37.5t132 124.5zM1093 559q99 0 171 -31t111 -90q20 -29 30.5 -64t10.5 -76h-663q4 91 51 148.5t123 84.5q38 14 79.5 21t86.5 7zM309 15q-100 0 -141.5 31t-41.5 86
q0 29 11.5 53.5t34.5 43.5t59.5 31.5t94.5 21.5q29 4 65.5 7.5t79.5 6.5q117 8 176.5 21t81.5 37q-2 -13 -3 -28l-2 -29q-1 -46 -28.5 -95.5t-79.5 -91.5q-52 -43 -129 -69t-178 -26zM756 639h41l172 210h-43z" />
    <glyph glyph-name="cacute" unicode="&#x107;" horiz-adv-x="881" 
d="M69 0zM802 224h-34q-33 -112 -116 -160.5t-202 -48.5q-163 0 -254.5 65.5t-91.5 202.5q0 72 27 124t75 86q48 33 110 49.5t132 16.5q78 0 144 -23.5t112 -71.5q23 -24 38.5 -54t23.5 -67h34q-16 81 -65.5 136t-123.5 83q-37 14 -77.5 21t-85.5 7q-78 0 -146.5 -19
t-120.5 -57q-53 -38 -82.5 -96t-29.5 -135q0 -148 100 -224.5t281 -76.5q81 0 153.5 24t124.5 77q27 26 45.5 61.5t28.5 79.5zM422 706h41l172 210h-43z" />
    <glyph glyph-name="ccaron" unicode="&#x10d;" horiz-adv-x="881" 
d="M69 0zM802 224h-34q-33 -112 -116 -160.5t-202 -48.5q-163 0 -254.5 65.5t-91.5 202.5q0 72 27 124t75 86q48 33 110 49.5t132 16.5q78 0 144 -23.5t112 -71.5q23 -24 38.5 -54t23.5 -67h34q-16 81 -65.5 136t-123.5 83q-37 14 -77.5 21t-85.5 7q-78 0 -146.5 -19
t-120.5 -57q-53 -38 -82.5 -96t-29.5 -135q0 -148 100 -224.5t281 -76.5q81 0 153.5 24t124.5 77q27 26 45.5 61.5t28.5 79.5zM453 700l158 162h-48l-123 -130l-118 130h-46l149 -162h28z" />
    <glyph glyph-name="ccedilla" unicode="&#xe7;" horiz-adv-x="881" 
d="M458 -276q73 0 109.5 32t36.5 77q0 47 -33.5 71t-107.5 23v55q78 2 147.5 26.5t120.5 77.5q25 26 43 60.5t28 77.5h-34q-33 -112 -116 -160.5t-202 -48.5q-163 0 -254.5 65.5t-91.5 202.5q0 72 27 124t75 86q48 33 110 49.5t132 16.5q78 0 144 -23.5t112 -71.5
q23 -24 38.5 -54t23.5 -67h34q-16 81 -65.5 136t-123.5 83q-37 14 -77.5 21t-85.5 7q-78 0 -146.5 -19t-120.5 -57q-53 -38 -82.5 -96t-29.5 -135q0 -143 94.5 -219.5t264.5 -81.5v-86h31q65 0 87.5 -15t22.5 -50t-28.5 -54.5t-82.5 -19.5q-51 0 -82.5 20.5t-36.5 57.5h-38
q8 -49 46.5 -80t110.5 -31z" />
    <glyph glyph-name="ccircumflex" unicode="&#x109;" horiz-adv-x="881" 
d="M69 0zM802 224h-34q-33 -112 -116 -160.5t-202 -48.5q-163 0 -254.5 65.5t-91.5 202.5q0 72 27 124t75 86q48 33 110 49.5t132 16.5q78 0 144 -23.5t112 -71.5q23 -24 38.5 -54t23.5 -67h34q-16 81 -65.5 136t-123.5 83q-37 14 -77.5 21t-85.5 7q-78 0 -146.5 -19
t-120.5 -57q-53 -38 -82.5 -96t-29.5 -135q0 -148 100 -224.5t281 -76.5q81 0 153.5 24t124.5 77q27 26 45.5 61.5t28.5 79.5zM567 701h43l-151 171h-40l-149 -171h43l127 146z" />
    <glyph glyph-name="cdotaccent" unicode="&#x10b;" horiz-adv-x="881" 
d="M69 0zM802 224h-34q-33 -112 -116 -160.5t-202 -48.5q-163 0 -254.5 65.5t-91.5 202.5q0 72 27 124t75 86q48 33 110 49.5t132 16.5q78 0 144 -23.5t112 -71.5q23 -24 38.5 -54t23.5 -67h34q-16 81 -65.5 136t-123.5 83q-37 14 -77.5 21t-85.5 7q-78 0 -146.5 -19
t-120.5 -57q-53 -38 -82.5 -96t-29.5 -135q0 -148 100 -224.5t281 -76.5q81 0 153.5 24t124.5 77q27 26 45.5 61.5t28.5 79.5zM443 708q20 0 32 9.5t12 30.5q0 20 -10.5 32.5t-32.5 12.5t-33.5 -12t-11.5 -32q0 -22 12 -31.5t32 -9.5z" />
    <glyph glyph-name="dcaron" unicode="&#x10f;" horiz-adv-x="925" 
d="M69 0zM442 13q-157 0 -248.5 66.5t-91.5 203.5q0 90 45.5 152t121.5 94q38 16 80.5 24t89.5 8q96 0 173.5 -32t123.5 -94q23 -30 34.5 -67.5t11.5 -81.5q0 -85 -42.5 -146.5t-119.5 -93.5q-38 -17 -82.5 -25t-95.5 -8zM779 0h28v754h-33v-337q-40 83 -128 128t-207 45
q-105 0 -188.5 -35t-132.5 -104q-25 -34 -37 -76t-12 -92q0 -148 99 -224.5t274 -76.5q127 0 212.5 48t121.5 129zM914 568h36l82 186h-44z" />
    <glyph glyph-name="dcroat" unicode="&#x111;" horiz-adv-x="925" 
d="M442 13q-157 0 -248.5 66.5t-91.5 203.5q0 90 45.5 152t121.5 94q38 16 80.5 24t89.5 8q96 0 173.5 -32t123.5 -94q23 -30 34.5 -67.5t11.5 -81.5q0 -85 -42.5 -146.5t-119.5 -93.5q-38 -17 -82.5 -25t-95.5 -8zM776 159l3 -159h28v652h109v29h-109v73h-33v-73h-205v-29
h205v-235q-40 83 -128 128t-207 45q-105 0 -188.5 -35t-132.5 -104q-25 -34 -37 -76t-12 -92q0 -148 99 -224.5t274 -76.5q127 0 212.5 48t121.5 129z" />
    <glyph glyph-name="eth" unicode="&#xf0;" horiz-adv-x="936" 
d="M464 -20q123 0 213 31t139 91q25 30 37 67.5t12 81.5q0 134 -78 238t-241 195l161 89h-58l-132 -73q-34 19 -72.5 37l-79.5 36h-66q53 -22 99.5 -44.5t87.5 -44.5l-185 -102h59l155 86q137 -76 213 -154.5t100 -169.5q-34 90 -131.5 137t-232.5 47q-81 0 -152.5 -17.5
t-126.5 -51.5q-54 -35 -85 -87t-31 -121q0 -133 105.5 -202t289.5 -69zM464 15q-110 0 -191.5 25t-125.5 77q-22 26 -33 59.5t-11 74.5q0 65 28.5 111t78.5 75t115.5 43t138.5 14q74 0 140.5 -15.5t118.5 -45.5q51 -31 80.5 -76.5t29.5 -105.5q0 -82 -46 -134t-129 -77
q-42 -13 -90.5 -19t-103.5 -6z" />
    <glyph glyph-name="eacute" unicode="&#xe9;" horiz-adv-x="870" 
d="M69 0zM784 144h-38v-1q-37 -66 -112.5 -97.5t-190.5 -31.5q-154 0 -244 62t-95 192h696v27q0 89 -42.5 155t-121.5 103q-40 19 -87.5 28t-103.5 9q-78 0 -146 -19t-120 -57q-51 -38 -80.5 -96t-29.5 -135q0 -148 98.5 -224.5t273.5 -76.5q122 0 211 37.5t132 124.5z
M444 559q99 0 171 -31t111 -90q20 -29 30.5 -64t10.5 -76h-663q4 91 51 148.5t123 84.5q38 14 79.5 21t86.5 7zM426 704h41l172 210h-43z" />
    <glyph glyph-name="ebreve" unicode="&#x115;" horiz-adv-x="870" 
d="M69 0zM784 144h-38v-1q-37 -66 -112.5 -97.5t-190.5 -31.5q-154 0 -244 62t-95 192h696v27q0 89 -42.5 155t-121.5 103q-40 19 -87.5 28t-103.5 9q-78 0 -146 -19t-120 -57q-51 -38 -80.5 -96t-29.5 -135q0 -148 98.5 -224.5t273.5 -76.5q122 0 211 37.5t132 124.5z
M444 559q99 0 171 -31t111 -90q20 -29 30.5 -64t10.5 -76h-663q4 91 51 148.5t123 84.5q38 14 79.5 21t86.5 7zM445 692q67 0 111.5 28.5t68.5 70.5q12 22 19 43.5t9 42.5h-33q-4 -36 -25.5 -71.5t-58.5 -59.5q-19 -12 -41.5 -18t-48.5 -6q-57 1 -92.5 24.5t-53.5 58.5
q-9 18 -14.5 36t-7.5 36h-34q4 -43 25 -85.5t64 -71.5q21 -14 49 -21t63 -7z" />
    <glyph glyph-name="ecaron" unicode="&#x11b;" horiz-adv-x="870" 
d="M69 0zM784 144h-38v-1q-37 -66 -112.5 -97.5t-190.5 -31.5q-154 0 -244 62t-95 192h696v27q0 89 -42.5 155t-121.5 103q-40 19 -87.5 28t-103.5 9q-78 0 -146 -19t-120 -57q-51 -38 -80.5 -96t-29.5 -135q0 -148 98.5 -224.5t273.5 -76.5q122 0 211 37.5t132 124.5z
M444 559q99 0 171 -31t111 -90q20 -29 30.5 -64t10.5 -76h-663q4 91 51 148.5t123 84.5q38 14 79.5 21t86.5 7zM457 698l158 162h-48l-123 -130l-118 130h-46l149 -162h28z" />
    <glyph glyph-name="ecircumflex" unicode="&#xea;" horiz-adv-x="870" 
d="M69 0zM784 144h-38v-1q-37 -66 -112.5 -97.5t-190.5 -31.5q-154 0 -244 62t-95 192h696v27q0 89 -42.5 155t-121.5 103q-40 19 -87.5 28t-103.5 9q-78 0 -146 -19t-120 -57q-51 -38 -80.5 -96t-29.5 -135q0 -148 98.5 -224.5t273.5 -76.5q122 0 211 37.5t132 124.5z
M444 559q99 0 171 -31t111 -90q20 -29 30.5 -64t10.5 -76h-663q4 91 51 148.5t123 84.5q38 14 79.5 21t86.5 7zM571 697h43l-151 171h-40l-149 -171h43l127 146z" />
    <glyph glyph-name="edieresis" unicode="&#xeb;" horiz-adv-x="870" 
d="M69 0zM784 144h-38v-1q-37 -66 -112.5 -97.5t-190.5 -31.5q-154 0 -244 62t-95 192h696v27q0 89 -42.5 155t-121.5 103q-40 19 -87.5 28t-103.5 9q-78 0 -146 -19t-120 -57q-51 -38 -80.5 -96t-29.5 -135q0 -148 98.5 -224.5t273.5 -76.5q122 0 211 37.5t132 124.5z
M444 559q99 0 171 -31t111 -90q20 -29 30.5 -64t10.5 -76h-663q4 91 51 148.5t123 84.5q38 14 79.5 21t86.5 7zM354 693q19 0 30.5 9.5t11.5 29.5t-10 32t-31 12q-22 0 -33 -10.5t-11 -32.5q0 -20 11 -30t32 -10zM542 693q20 0 31.5 9.5t11.5 29.5t-10 32t-31 12
q-22 0 -33 -10.5t-11 -32.5q0 -21 11.5 -30.5t30.5 -9.5z" />
    <glyph glyph-name="edotaccent" unicode="&#x117;" horiz-adv-x="870" 
d="M69 0zM784 144h-38v-1q-37 -66 -112.5 -97.5t-190.5 -31.5q-154 0 -244 62t-95 192h696v27q0 89 -42.5 155t-121.5 103q-40 19 -87.5 28t-103.5 9q-78 0 -146 -19t-120 -57q-51 -38 -80.5 -96t-29.5 -135q0 -148 98.5 -224.5t273.5 -76.5q122 0 211 37.5t132 124.5z
M444 559q99 0 171 -31t111 -90q20 -29 30.5 -64t10.5 -76h-663q4 91 51 148.5t123 84.5q38 14 79.5 21t86.5 7zM447 706q20 0 32 9.5t12 30.5q0 20 -10.5 32.5t-32.5 12.5t-33.5 -12t-11.5 -32q0 -22 12 -31.5t32 -9.5z" />
    <glyph glyph-name="egrave" unicode="&#xe8;" horiz-adv-x="870" 
d="M69 0zM784 144h-38v-1q-37 -66 -112.5 -97.5t-190.5 -31.5q-154 0 -244 62t-95 192h696v27q0 89 -42.5 155t-121.5 103q-40 19 -87.5 28t-103.5 9q-78 0 -146 -19t-120 -57q-51 -38 -80.5 -96t-29.5 -135q0 -148 98.5 -224.5t273.5 -76.5q122 0 211 37.5t132 124.5z
M444 559q99 0 171 -31t111 -90q20 -29 30.5 -64t10.5 -76h-663q4 91 51 148.5t123 84.5q38 14 79.5 21t86.5 7zM440 700h40l-144 169h-50z" />
    <glyph glyph-name="emacron" unicode="&#x113;" horiz-adv-x="870" 
d="M69 0zM784 144h-38v-1q-37 -66 -112.5 -97.5t-190.5 -31.5q-154 0 -244 62t-95 192h696v27q0 89 -42.5 155t-121.5 103q-40 19 -87.5 28t-103.5 9q-78 0 -146 -19t-120 -57q-51 -38 -80.5 -96t-29.5 -135q0 -148 98.5 -224.5t273.5 -76.5q122 0 211 37.5t132 124.5z
M444 559q99 0 171 -31t111 -90q20 -29 30.5 -64t10.5 -76h-663q4 91 51 148.5t123 84.5q38 14 79.5 21t86.5 7zM285 723h331v34h-331v-34z" />
    <glyph glyph-name="eogonek" unicode="&#x119;" horiz-adv-x="870" 
d="M602 -219q62 0 105.5 29t65.5 77h-39q-19 -35 -51 -55t-81 -20q-45 0 -75 21t-30 56q0 20 11 39t40 39q15 10 35.5 21t46.5 23q52 19 90.5 51.5t63.5 81.5h-38v-1q-37 -66 -112.5 -97.5t-190.5 -31.5q-154 0 -244 62t-95 192h696v27q0 89 -42.5 155t-121.5 103
q-40 19 -87.5 28t-103.5 9q-78 0 -146 -19t-120 -57q-51 -38 -80.5 -96t-29.5 -135q0 -148 98.5 -224.5t273.5 -76.5q23 0 44 1.5t40 3.5q-34 -24 -49 -49t-15 -50q0 -48 37.5 -77.5t103.5 -29.5zM444 559q99 0 171 -31t111 -90q20 -29 30.5 -64t10.5 -76h-663
q4 91 51 148.5t123 84.5q38 14 79.5 21t86.5 7z" />
    <glyph glyph-name="gbreve" unicode="&#x11f;" horiz-adv-x="778" 
d="M36 0zM391 -264q142 0 224 23.5t117 63.5q17 20 26 42t9 47q0 75 -66 112.5t-193 37.5h-258q-50 0 -79 11t-40 28q-6 9 -9 17.5t-3 17.5q0 39 54.5 68t157.5 29h72q153 0 237 40.5t84 132.5q0 53 -27.5 88.5t-76.5 54.5q-24 9 -51.5 14.5t-58.5 7.5q66 3 105 9t58 19
t24.5 35.5t5.5 58.5v5h-29v-6q0 -33 -7 -53t-28 -31q-21 -10 -62 -14.5t-108 -6.5t-115.5 -4.5t-94.5 -10.5q-79 -13 -130.5 -54t-51.5 -109q0 -71 52.5 -112t157.5 -52q-98 -4 -149.5 -37t-51.5 -79q0 -35 30 -62t94 -32q-75 -11 -124.5 -43t-49.5 -94q0 -50 30.5 -86.5
t102.5 -55.5q36 -10 85.5 -15t111.5 -5h25zM404 265q-85 0 -151.5 13t-104.5 44q-19 16 -28.5 37.5t-9.5 49.5q0 56 40.5 90.5t114.5 46.5q46 8 78 9t68 1q145 0 212.5 -39.5t67.5 -110.5q0 -82 -73.5 -111.5t-213.5 -29.5zM365 -232q-111 0 -176.5 17t-94.5 47
q-15 15 -22 31.5t-7 35.5q0 47 36 76.5t98 43.5q32 7 68 11t76 4h165q115 0 171 -29.5t56 -91.5q0 -31 -15.5 -57.5t-53.5 -45.5q-38 -20 -105 -31t-170 -11h-26zM419 692q67 0 111.5 28.5t68.5 70.5q12 22 19 43.5t9 42.5h-33q-4 -36 -25.5 -71.5t-58.5 -59.5
q-19 -12 -41.5 -18t-48.5 -6q-57 1 -92.5 24.5t-53.5 58.5q-9 18 -14.5 36t-7.5 36h-34q4 -43 25 -85.5t64 -71.5q21 -14 49 -21t63 -7z" />
    <glyph glyph-name="gcircumflex" unicode="&#x11d;" horiz-adv-x="778" 
d="M36 0zM391 -264q142 0 224 23.5t117 63.5q17 20 26 42t9 47q0 75 -66 112.5t-193 37.5h-258q-50 0 -79 11t-40 28q-6 9 -9 17.5t-3 17.5q0 39 54.5 68t157.5 29h72q153 0 237 40.5t84 132.5q0 53 -27.5 88.5t-76.5 54.5q-24 9 -51.5 14.5t-58.5 7.5q66 3 105 9t58 19
t24.5 35.5t5.5 58.5v5h-29v-6q0 -33 -7 -53t-28 -31q-21 -10 -62 -14.5t-108 -6.5t-115.5 -4.5t-94.5 -10.5q-79 -13 -130.5 -54t-51.5 -109q0 -71 52.5 -112t157.5 -52q-98 -4 -149.5 -37t-51.5 -79q0 -35 30 -62t94 -32q-75 -11 -124.5 -43t-49.5 -94q0 -50 30.5 -86.5
t102.5 -55.5q36 -10 85.5 -15t111.5 -5h25zM404 265q-85 0 -151.5 13t-104.5 44q-19 16 -28.5 37.5t-9.5 49.5q0 56 40.5 90.5t114.5 46.5q46 8 78 9t68 1q145 0 212.5 -39.5t67.5 -110.5q0 -82 -73.5 -111.5t-213.5 -29.5zM365 -232q-111 0 -176.5 17t-94.5 47
q-15 15 -22 31.5t-7 35.5q0 47 36 76.5t98 43.5q32 7 68 11t76 4h165q115 0 171 -29.5t56 -91.5q0 -31 -15.5 -57.5t-53.5 -45.5q-38 -20 -105 -31t-170 -11h-26zM526 714h43l-151 171h-40l-149 -171h43l127 146z" />
    <glyph glyph-name="uni0123" unicode="&#x123;" horiz-adv-x="778" 
d="M36 0zM391 -264q142 0 224 23.5t117 63.5q17 20 26 42t9 47q0 75 -66 112.5t-193 37.5h-258q-50 0 -79 11t-40 28q-6 9 -9 17.5t-3 17.5q0 39 54.5 68t157.5 29h72q153 0 237 40.5t84 132.5q0 53 -27.5 88.5t-76.5 54.5q-24 9 -51.5 14.5t-58.5 7.5q66 3 105 9t58 19
t24.5 35.5t5.5 58.5v5h-29v-6q0 -33 -7 -53t-28 -31q-21 -10 -62 -14.5t-108 -6.5t-115.5 -4.5t-94.5 -10.5q-79 -13 -130.5 -54t-51.5 -109q0 -71 52.5 -112t157.5 -52q-98 -4 -149.5 -37t-51.5 -79q0 -35 30 -62t94 -32q-75 -11 -124.5 -43t-49.5 -94q0 -50 30.5 -86.5
t102.5 -55.5q36 -10 85.5 -15t111.5 -5h25zM404 265q-85 0 -151.5 13t-104.5 44q-19 16 -28.5 37.5t-9.5 49.5q0 56 40.5 90.5t114.5 46.5q46 8 78 9t68 1q145 0 212.5 -39.5t67.5 -110.5q0 -82 -73.5 -111.5t-213.5 -29.5zM365 -232q-111 0 -176.5 17t-94.5 47
q-15 15 -22 31.5t-7 35.5q0 47 36 76.5t98 43.5q32 7 68 11t76 4h165q115 0 171 -29.5t56 -91.5q0 -31 -15.5 -57.5t-53.5 -45.5q-38 -20 -105 -31t-170 -11h-26zM406 698q20 0 32.5 11.5t12.5 30.5q0 20 -10.5 28.5t-28.5 8.5q-8 0 -14.5 -2t-11.5 -7q3 35 26 64t58 45
l-13 22q-47 -23 -74.5 -61.5t-27.5 -78.5q0 -31 14 -46t37 -15z" />
    <glyph glyph-name="gdotaccent" unicode="&#x121;" horiz-adv-x="778" 
d="M36 0zM391 -264q142 0 224 23.5t117 63.5q17 20 26 42t9 47q0 75 -66 112.5t-193 37.5h-258q-50 0 -79 11t-40 28q-6 9 -9 17.5t-3 17.5q0 39 54.5 68t157.5 29h72q153 0 237 40.5t84 132.5q0 53 -27.5 88.5t-76.5 54.5q-24 9 -51.5 14.5t-58.5 7.5q66 3 105 9t58 19
t24.5 35.5t5.5 58.5v5h-29v-6q0 -33 -7 -53t-28 -31q-21 -10 -62 -14.5t-108 -6.5t-115.5 -4.5t-94.5 -10.5q-79 -13 -130.5 -54t-51.5 -109q0 -71 52.5 -112t157.5 -52q-98 -4 -149.5 -37t-51.5 -79q0 -35 30 -62t94 -32q-75 -11 -124.5 -43t-49.5 -94q0 -50 30.5 -86.5
t102.5 -55.5q36 -10 85.5 -15t111.5 -5h25zM404 265q-85 0 -151.5 13t-104.5 44q-19 16 -28.5 37.5t-9.5 49.5q0 56 40.5 90.5t114.5 46.5q46 8 78 9t68 1q145 0 212.5 -39.5t67.5 -110.5q0 -82 -73.5 -111.5t-213.5 -29.5zM365 -232q-111 0 -176.5 17t-94.5 47
q-15 15 -22 31.5t-7 35.5q0 47 36 76.5t98 43.5q32 7 68 11t76 4h165q115 0 171 -29.5t56 -91.5q0 -31 -15.5 -57.5t-53.5 -45.5q-38 -20 -105 -31t-170 -11h-26zM414 712q20 0 32 9.5t12 30.5q0 20 -10.5 32.5t-32.5 12.5t-33.5 -12t-11.5 -32q0 -22 12 -31.5t32 -9.5z" />
    <glyph glyph-name="germandbls" unicode="&#xdf;" horiz-adv-x="905" 
d="M530 -4q158 0 233.5 52.5t75.5 163.5q0 67 -27 105t-80 56q-26 9 -57.5 15t-69.5 8q95 14 144.5 54t49.5 119q0 111 -87 157.5t-245 46.5q-106 0 -184 -25t-120 -80q-21 -27 -31.5 -62.5t-10.5 -79.5v-526h33v526q0 79 37.5 126t107.5 69q35 10 77 15.5t91 5.5
q94 0 160.5 -16.5t102.5 -54.5q18 -19 27 -44.5t9 -57.5q0 -50 -24.5 -81.5t-67.5 -48.5q-44 -17 -101 -23.5t-122 -6.5h-19v-29h71q94 0 161.5 -13t104.5 -49q19 -18 28 -44.5t9 -61.5q0 -100 -74.5 -143t-203.5 -43q-61 0 -100.5 6t-62.5 11v-30q22 -5 60.5 -11t104.5 -6z
" />
    <glyph glyph-name="hbar" unicode="&#x127;" horiz-adv-x="913" 
d="M149 249q0 97 41.5 166t115.5 107q36 18 78.5 27.5t89.5 9.5q105 0 169.5 -35.5t93.5 -96.5q15 -30 22.5 -65t7.5 -74v-288h32v287q0 88 -34.5 156t-106.5 108q-36 19 -82 29t-102 10q-82 0 -148.5 -27t-111.5 -77q-23 -25 -39 -55t-25 -64v280h195v28h-195v79h-32v-79
h-75v-28h75v-647h31v249z" />
    <glyph glyph-name="hcircumflex" unicode="&#x125;" horiz-adv-x="912" 
d="M0 0zM149 249q0 97 41.5 166t115.5 107q36 18 78.5 27.5t89.5 9.5q105 0 169.5 -35.5t93.5 -96.5q15 -30 22.5 -65t7.5 -74v-288h32v287q0 88 -34.5 156t-106.5 108q-36 19 -82 29t-102 10q-82 0 -148.5 -27t-111.5 -77q-23 -25 -39 -55t-25 -64v387h-32v-754h31v249z
M258 850h43l-151 171h-40l-149 -171h43l127 146z" />
    <glyph glyph-name="iacute" unicode="&#xed;" horiz-adv-x="277" 
d="M117 0zM155 0v564h-33v-564h33zM117 680h41l172 210h-43z" />
    <glyph glyph-name="ibreve" unicode="&#x12d;" horiz-adv-x="277" 
d="M0 0zM155 0v564h-33v-564h33zM134 668q67 0 111.5 28.5t68.5 70.5q12 22 19 43.5t9 42.5h-33q-4 -36 -25.5 -71.5t-58.5 -59.5q-19 -12 -41.5 -18t-48.5 -6q-57 1 -92.5 24.5t-53.5 58.5q-9 18 -14.5 36t-7.5 36h-34q4 -43 25 -85.5t64 -71.5q21 -14 49 -21t63 -7z" />
    <glyph glyph-name="icircumflex" unicode="&#xee;" horiz-adv-x="277" 
d="M0 0zM155 0v564h-33v-564h33zM263 675h43l-151 171h-40l-149 -171h43l127 146z" />
    <glyph glyph-name="idieresis" unicode="&#xef;" horiz-adv-x="277" 
d="M3 0zM155 0v564h-33v-564h33zM46 671q19 0 30.5 9.5t11.5 29.5t-10 32t-31 12q-22 0 -33 -10.5t-11 -32.5q0 -20 11 -30t32 -10zM234 671q20 0 31.5 9.5t11.5 29.5t-10 32t-31 12q-22 0 -33 -10.5t-11 -32.5q0 -21 11.5 -30.5t30.5 -9.5z" />
    <glyph glyph-name="i.dot" horiz-adv-x="277" 
d="M112 0zM140 678q16 0 21.5 9.5t5.5 24.5q0 16 -5.5 25t-22.5 9q-13 0 -20 -8.5t-7 -25.5q0 -16 6 -25t22 -9zM155 0v564h-33v-564h33z" />
    <glyph glyph-name="igrave" unicode="&#xec;" horiz-adv-x="277" 
d="M0 0zM155 0v564h-33v-564h33zM120 676h40l-144 169h-50z" />
    <glyph glyph-name="imacron" unicode="&#x12b;" horiz-adv-x="277" 
d="M0 0zM155 0v564h-33v-564h33zM-28 699h331v34h-331v-34z" />
    <glyph glyph-name="iogonek" unicode="&#x12f;" horiz-adv-x="277" 
d="M140 678q16 0 21.5 9.5t5.5 24.5q0 16 -5.5 25t-22.5 9q-13 0 -20 -8.5t-7 -25.5q0 -16 6 -25t22 -9zM283 -129h-39q-19 -35 -51 -55t-81 -20q-45 0 -75 21t-30 56q0 21 12 40.5t44 40.5q15 10 37.5 21.5t51.5 24.5h3v564h-33v-549q-82 -33 -116.5 -69t-34.5 -74
q0 -48 37.5 -77.5t103.5 -29.5q62 0 105.5 29t65.5 77z" />
    <glyph glyph-name="itilde" unicode="&#x129;" horiz-adv-x="277" 
d="M0 0zM155 0v564h-33v-564h33zM-77 678h31q0 37 18.5 57t56.5 20q27 0 54 -11.5t55 -26.5t57 -26.5t59 -11.5q51 0 77 29t26 77h-31q0 -39 -19.5 -57.5t-52.5 -18.5q-25 0 -51 11.5t-53 26.5t-57 26.5t-64 11.5q-50 0 -78 -28.5t-28 -78.5z" />
    <glyph glyph-name="dotlessi" unicode="&#x131;" horiz-adv-x="277" 
d="M155 0v564h-33v-564h33z" />
    <glyph glyph-name="jcircumflex" unicode="&#x135;" horiz-adv-x="276" 
d="M0 0zM-105 -249h30q68 0 113 9.5t71 35.5t36.5 76.5t9.5 131.5v560h-31v-560q0 -74 -8.5 -119t-30.5 -68q-22 -24 -60.5 -32t-98.5 -8h-31v-26zM259 678h43l-151 171h-40l-149 -171h43l127 146z" />
    <glyph glyph-name="uni0237" unicode="&#x237;" horiz-adv-x="276" 
d="M-105 -249h30q68 0 113 9.5t71 35.5t36.5 76.5t9.5 131.5v560h-31v-560q0 -74 -8.5 -119t-30.5 -68q-22 -24 -60.5 -32t-98.5 -8h-31v-26z" />
    <glyph glyph-name="uni0137" unicode="&#x137;" horiz-adv-x="803" 
d="M118 0zM726 0h45l-317 331l288 233h-51l-541 -437v627h-32v-754h32v89l278 222zM380 -293q47 23 74.5 61.5t27.5 78.5q0 31 -14 46t-37 15q-20 0 -32.5 -11.5t-12.5 -30.5q0 -20 10.5 -28.5t28.5 -8.5q8 0 14.5 2t11.5 7q-3 -35 -26 -64t-58 -45z" />
    <glyph glyph-name="kgreenlandic" unicode="&#x138;" horiz-adv-x="803" 
d="M725 0h46l-317 331l288 233h-51l-541 -437v437h-32v-564h32v89l277 222z" />
    <glyph glyph-name="lacute" unicode="&#x13a;" horiz-adv-x="275" 
d="M116 0zM154 0v754h-33v-754h33zM116 870h41l172 210h-43z" />
    <glyph glyph-name="lcaron" unicode="&#x13e;" horiz-adv-x="275" 
d="M121 0zM154 0v754h-33v-754h33zM261 568h36l82 186h-44z" />
    <glyph glyph-name="uni013C" unicode="&#x13c;" horiz-adv-x="275" 
d="M70 0zM154 0v754h-33v-754h33zM83 -310q47 23 74.5 61.5t27.5 78.5q0 31 -14 46t-37 15q-20 0 -32.5 -11.5t-12.5 -30.5q0 -20 10.5 -28.5t28.5 -8.5q8 0 14.5 2t11.5 7q-3 -35 -26 -64t-58 -45z" />
    <glyph glyph-name="ldot" unicode="&#x140;" horiz-adv-x="459" 
d="M121 0zM154 0v754h-33v-754h33zM386 219q20 0 32 9.5t12 30.5q0 20 -10.5 32.5t-32.5 12.5t-33.5 -12t-11.5 -32q0 -22 12 -31.5t32 -9.5z" />
    <glyph glyph-name="lslash" unicode="&#x142;" horiz-adv-x="345" 
d="M188 0v374l143 45l-7 28l-136 -43v350h-33v-360l-137 -43l7 -28l130 41v-364h33z" />
    <glyph glyph-name="nacute" unicode="&#x144;" horiz-adv-x="912" 
d="M118 0zM150 249q0 97 41.5 166t114.5 107q36 18 78.5 27.5t89.5 9.5q105 0 169 -35.5t94 -96.5q14 -30 21.5 -65t7.5 -74v-288h32v287q0 88 -34.5 156t-105.5 108q-36 19 -82 29t-102 10q-124 0 -210 -60.5t-113 -164.5l-2 199h-31v-564h32v249zM434 706h41l172 210h-43z
" />
    <glyph glyph-name="ncaron" unicode="&#x148;" horiz-adv-x="912" 
d="M118 0zM150 249q0 97 41.5 166t114.5 107q36 18 78.5 27.5t89.5 9.5q105 0 169 -35.5t94 -96.5q14 -30 21.5 -65t7.5 -74v-288h32v287q0 88 -34.5 156t-105.5 108q-36 19 -82 29t-102 10q-124 0 -210 -60.5t-113 -164.5l-2 199h-31v-564h32v249zM465 700l158 162h-48
l-123 -130l-118 130h-46l149 -162h28z" />
    <glyph glyph-name="uni0146" unicode="&#x146;" horiz-adv-x="912" 
d="M118 0zM150 249q0 97 41.5 166t114.5 107q36 18 78.5 27.5t89.5 9.5q105 0 169 -35.5t94 -96.5q14 -30 21.5 -65t7.5 -74v-288h32v287q0 88 -34.5 156t-105.5 108q-36 19 -82 29t-102 10q-124 0 -210 -60.5t-113 -164.5l-2 199h-31v-564h32v249zM424 -296
q47 23 74.5 61.5t27.5 78.5q0 31 -14 46t-37 15q-20 0 -32.5 -11.5t-12.5 -30.5q0 -20 10.5 -28.5t28.5 -8.5q8 0 14.5 2t11.5 7q-3 -35 -26 -64t-58 -45z" />
    <glyph glyph-name="ntilde" unicode="&#xf1;" horiz-adv-x="912" 
d="M118 0zM150 249q0 97 41.5 166t114.5 107q36 18 78.5 27.5t89.5 9.5q105 0 169 -35.5t94 -96.5q14 -30 21.5 -65t7.5 -74v-288h32v287q0 88 -34.5 156t-105.5 108q-36 19 -82 29t-102 10q-124 0 -210 -60.5t-113 -164.5l-2 199h-31v-564h32v249zM235 704h31q0 37 18.5 57
t56.5 20q27 0 54 -11.5t55 -26.5t57 -26.5t59 -11.5q51 0 77 29t26 77h-31q0 -39 -19.5 -57.5t-52.5 -18.5q-25 0 -51 11.5t-53 26.5t-57 26.5t-64 11.5q-50 0 -78 -28.5t-28 -78.5z" />
    <glyph glyph-name="eng" unicode="&#x14b;" horiz-adv-x="912" 
d="M568 -255q68 0 113 11t71 39q26 29 36.5 79.5t9.5 129.5v283q0 88 -34.5 156t-105.5 108q-36 19 -82 29t-102 10q-124 0 -210 -60.5t-113 -164.5l-2 199h-31v-564h32v249q0 97 41.5 166t114.5 107q36 18 78.5 27.5t89.5 9.5q105 0 169 -35.5t94 -96.5q14 -30 21.5 -65
t7.5 -74v-284q0 -74 -8.5 -119t-29.5 -68q-22 -24 -60.5 -32t-98.5 -8h-31v-32h30z" />
    <glyph glyph-name="oacute" unicode="&#xf3;" horiz-adv-x="892" 
d="M69 0zM443 -18q117 0 202 34t132 101q23 34 34.5 75.5t11.5 90.5q0 100 -50.5 168.5t-135.5 103.5q-43 17 -90.5 26t-100.5 9q-77 0 -145.5 -19t-120.5 -57t-81.5 -96t-29.5 -135q0 -148 99.5 -224.5t274.5 -76.5zM443 15q-157 0 -248 65.5t-91 202.5q0 72 27 124t75 86
q47 33 109 49.5t131 16.5q94 0 172 -31.5t125 -93.5q23 -31 35 -68.5t12 -82.5q0 -91 -43 -150.5t-121 -88.5q-39 -15 -85 -22t-98 -7zM424 707h41l172 210h-43z" />
    <glyph glyph-name="obreve" unicode="&#x14f;" horiz-adv-x="892" 
d="M69 0zM443 -18q117 0 202 34t132 101q23 34 34.5 75.5t11.5 90.5q0 100 -50.5 168.5t-135.5 103.5q-43 17 -90.5 26t-100.5 9q-77 0 -145.5 -19t-120.5 -57t-81.5 -96t-29.5 -135q0 -148 99.5 -224.5t274.5 -76.5zM443 15q-157 0 -248 65.5t-91 202.5q0 72 27 124t75 86
q47 33 109 49.5t131 16.5q94 0 172 -31.5t125 -93.5q23 -31 35 -68.5t12 -82.5q0 -91 -43 -150.5t-121 -88.5q-39 -15 -85 -22t-98 -7zM443 695q67 0 111.5 28.5t68.5 70.5q12 22 19 43.5t9 42.5h-33q-4 -36 -25.5 -71.5t-58.5 -59.5q-19 -12 -41.5 -18t-48.5 -6
q-57 1 -92.5 24.5t-53.5 58.5q-9 18 -14.5 36t-7.5 36h-34q4 -43 25 -85.5t64 -71.5q21 -14 49 -21t63 -7z" />
    <glyph glyph-name="ocircumflex" unicode="&#xf4;" horiz-adv-x="892" 
d="M69 0zM443 -18q117 0 202 34t132 101q23 34 34.5 75.5t11.5 90.5q0 100 -50.5 168.5t-135.5 103.5q-43 17 -90.5 26t-100.5 9q-77 0 -145.5 -19t-120.5 -57t-81.5 -96t-29.5 -135q0 -148 99.5 -224.5t274.5 -76.5zM443 15q-157 0 -248 65.5t-91 202.5q0 72 27 124t75 86
q47 33 109 49.5t131 16.5q94 0 172 -31.5t125 -93.5q23 -31 35 -68.5t12 -82.5q0 -91 -43 -150.5t-121 -88.5q-39 -15 -85 -22t-98 -7zM569 702h43l-151 171h-40l-149 -171h43l127 146z" />
    <glyph glyph-name="odieresis" unicode="&#xf6;" horiz-adv-x="892" 
d="M69 0zM443 -18q117 0 202 34t132 101q23 34 34.5 75.5t11.5 90.5q0 100 -50.5 168.5t-135.5 103.5q-43 17 -90.5 26t-100.5 9q-77 0 -145.5 -19t-120.5 -57t-81.5 -96t-29.5 -135q0 -148 99.5 -224.5t274.5 -76.5zM443 15q-157 0 -248 65.5t-91 202.5q0 72 27 124t75 86
q47 33 109 49.5t131 16.5q94 0 172 -31.5t125 -93.5q23 -31 35 -68.5t12 -82.5q0 -91 -43 -150.5t-121 -88.5q-39 -15 -85 -22t-98 -7zM352 698q19 0 30.5 9.5t11.5 29.5t-10 32t-31 12q-22 0 -33 -10.5t-11 -32.5q0 -20 11 -30t32 -10zM540 698q20 0 31.5 9.5t11.5 29.5
t-10 32t-31 12q-22 0 -33 -10.5t-11 -32.5q0 -21 11.5 -30.5t30.5 -9.5z" />
    <glyph glyph-name="oe" unicode="&#x153;" horiz-adv-x="1590" 
d="M1501 144l-38 -1q-37 -66 -113 -97.5t-191 -31.5q-154 0 -244 62t-95 192h696v27q0 89 -42.5 155t-121.5 103q-40 19 -87.5 28t-103.5 9q-86 0 -159.5 -24t-124.5 -73q-25 -24 -43 -54t-29 -66q-21 71 -72.5 119.5t-125.5 72.5q-37 13 -77 19t-84 6q-77 0 -145.5 -19
t-120.5 -57t-81.5 -96t-29.5 -135q0 -148 99.5 -224.5t274.5 -76.5q143 0 236.5 51.5t124.5 151.5q29 -100 119.5 -151.5t233.5 -51.5q122 0 211.5 37.5t132.5 124.5zM1161 559q98 0 170 -31t111 -90q20 -29 30.5 -64t10.5 -76h-663q4 91 51 148.5t123 84.5q38 14 80 21
t87 7zM443 15q-157 0 -248 65.5t-91 202.5q0 72 27 124t75 86q47 33 109 49.5t131 16.5q94 0 172 -31.5t125 -93.5q23 -31 35 -68.5t12 -82.5q0 -91 -43 -150.5t-121 -88.5q-39 -15 -85 -22t-98 -7z" />
    <glyph glyph-name="ograve" unicode="&#xf2;" horiz-adv-x="892" 
d="M69 0zM443 -18q117 0 202 34t132 101q23 34 34.5 75.5t11.5 90.5q0 100 -50.5 168.5t-135.5 103.5q-43 17 -90.5 26t-100.5 9q-77 0 -145.5 -19t-120.5 -57t-81.5 -96t-29.5 -135q0 -148 99.5 -224.5t274.5 -76.5zM443 15q-157 0 -248 65.5t-91 202.5q0 72 27 124t75 86
q47 33 109 49.5t131 16.5q94 0 172 -31.5t125 -93.5q23 -31 35 -68.5t12 -82.5q0 -91 -43 -150.5t-121 -88.5q-39 -15 -85 -22t-98 -7zM438 703h40l-144 169h-50z" />
    <glyph glyph-name="ohungarumlaut" unicode="&#x151;" horiz-adv-x="892" 
d="M69 0zM443 -18q117 0 202 34t132 101q23 34 34.5 75.5t11.5 90.5q0 100 -50.5 168.5t-135.5 103.5q-43 17 -90.5 26t-100.5 9q-77 0 -145.5 -19t-120.5 -57t-81.5 -96t-29.5 -135q0 -148 99.5 -224.5t274.5 -76.5zM443 15q-157 0 -248 65.5t-91 202.5q0 72 27 124t75 86
q47 33 109 49.5t131 16.5q94 0 172 -31.5t125 -93.5q23 -31 35 -68.5t12 -82.5q0 -91 -43 -150.5t-121 -88.5q-39 -15 -85 -22t-98 -7zM706 876h-50l-166 -169h40zM543 876h-51l-144 -169h37z" />
    <glyph glyph-name="omacron" unicode="&#x14d;" horiz-adv-x="892" 
d="M69 0zM443 -18q117 0 202 34t132 101q23 34 34.5 75.5t11.5 90.5q0 100 -50.5 168.5t-135.5 103.5q-43 17 -90.5 26t-100.5 9q-77 0 -145.5 -19t-120.5 -57t-81.5 -96t-29.5 -135q0 -148 99.5 -224.5t274.5 -76.5zM443 15q-157 0 -248 65.5t-91 202.5q0 72 27 124t75 86
q47 33 109 49.5t131 16.5q94 0 172 -31.5t125 -93.5q23 -31 35 -68.5t12 -82.5q0 -91 -43 -150.5t-121 -88.5q-39 -15 -85 -22t-98 -7zM283 726h331v34h-331v-34z" />
    <glyph glyph-name="oslash" unicode="&#xf8;" horiz-adv-x="892" 
d="M104 283q0 72 27 124t75 86q47 33 109 49.5t131 16.5q39 0 76 -5.5t70 -16.5l-303 -502q-88 26 -136.5 87t-48.5 161zM443 15q-32 0 -62 3t-58 8l301 499q74 -32 120 -93t46 -149q0 -91 -43 -150.5t-121 -88.5q-39 -15 -85 -22t-98 -7zM443 -18q117 0 202 34t132 101
q23 34 34.5 75.5t11.5 90.5q0 99 -50 167t-132 103l55 95h-39l-48 -83q-36 13 -77 19t-86 6q-77 0 -145.5 -19t-120.5 -57t-81.5 -96t-29.5 -135q0 -107 53 -176.5t150 -100.5l-59 -96h41l52 86q31 -7 65.5 -10.5t71.5 -3.5z" />
    <glyph glyph-name="oslashacute" unicode="&#x1ff;" horiz-adv-x="892" 
d="M69 0zM104 283q0 72 27 124t75 86q47 33 109 49.5t131 16.5q39 0 76 -5.5t70 -16.5l-303 -502q-88 26 -136.5 87t-48.5 161zM443 15q-32 0 -62 3t-58 8l301 499q74 -32 120 -93t46 -149q0 -91 -43 -150.5t-121 -88.5q-39 -15 -85 -22t-98 -7zM443 -18q117 0 202 34
t132 101q23 34 34.5 75.5t11.5 90.5q0 99 -50 167t-132 103l55 95h-39l-48 -83q-36 13 -77 19t-86 6q-77 0 -145.5 -19t-120.5 -57t-81.5 -96t-29.5 -135q0 -107 53 -176.5t150 -100.5l-59 -96h41l52 86q31 -7 65.5 -10.5t71.5 -3.5zM426 686h41l172 210h-43z" />
    <glyph glyph-name="otilde" unicode="&#xf5;" horiz-adv-x="892" 
d="M69 0zM443 -18q117 0 202 34t132 101q23 34 34.5 75.5t11.5 90.5q0 100 -50.5 168.5t-135.5 103.5q-43 17 -90.5 26t-100.5 9q-77 0 -145.5 -19t-120.5 -57t-81.5 -96t-29.5 -135q0 -148 99.5 -224.5t274.5 -76.5zM443 15q-157 0 -248 65.5t-91 202.5q0 72 27 124t75 86
q47 33 109 49.5t131 16.5q94 0 172 -31.5t125 -93.5q23 -31 35 -68.5t12 -82.5q0 -91 -43 -150.5t-121 -88.5q-39 -15 -85 -22t-98 -7zM225 705h31q0 37 18.5 57t56.5 20q27 0 54 -11.5t55 -26.5t57 -26.5t59 -11.5q51 0 77 29t26 77h-31q0 -39 -19.5 -57.5t-52.5 -18.5
q-25 0 -51 11.5t-53 26.5t-57 26.5t-64 11.5q-50 0 -78 -28.5t-28 -78.5z" />
    <glyph glyph-name="racute" unicode="&#x155;" horiz-adv-x="548" 
d="M118 0zM150 0v196q0 103 33 178.5t103 116.5q35 20 80.5 30.5t100.5 10.5h43v32h-40q-139 0 -217 -62.5t-104 -164.5l1 17l-2 210h-30v-564h32zM281 677h41l172 210h-43z" />
    <glyph glyph-name="rcaron" unicode="&#x159;" horiz-adv-x="548" 
d="M118 0zM150 0v196q0 103 33 178.5t103 116.5q35 20 80.5 30.5t100.5 10.5h43v32h-40q-139 0 -217 -62.5t-104 -164.5l1 17l-2 210h-30v-564h32zM312 671l158 162h-48l-123 -130l-118 130h-46l149 -162h28z" />
    <glyph glyph-name="uni0157" unicode="&#x157;" horiz-adv-x="548" 
d="M69 0zM150 0v196q0 103 33 178.5t103 116.5q35 20 80.5 30.5t100.5 10.5h43v32h-40q-139 0 -217 -62.5t-104 -164.5l1 17l-2 210h-30v-564h32zM82 -310q47 23 74.5 61.5t27.5 78.5q0 31 -14 46t-37 15q-20 0 -32.5 -11.5t-12.5 -30.5q0 -20 10.5 -28.5t28.5 -8.5
q8 0 14.5 2t11.5 7q-3 -35 -26 -64t-58 -45z" />
    <glyph glyph-name="sacute" unicode="&#x15b;" horiz-adv-x="801" 
d="M51 0zM415 -18q117 0 186.5 24t99.5 63q16 20 23.5 42t7.5 45v1q0 82 -80 113t-242 37q-103 4 -167 15t-93 34q-15 12 -22.5 29t-7.5 38q0 57 59.5 96.5t188.5 39.5q125 0 207.5 -37.5t115.5 -128.5h34q-35 105 -126 151t-233 46q-137 0 -209 -47.5t-72 -118.5
q0 -54 32 -85t102 -46q35 -7 80.5 -11.5t102.5 -6.5q106 -3 171 -14.5t96 -35.5q15 -12 22.5 -29t7.5 -39q0 -37 -26.5 -69.5t-88.5 -52.5q-31 -10 -73 -15t-96 -5q-53 0 -105.5 7t-98.5 27q-45 20 -78 56.5t-46 94.5h-36q13 -65 47.5 -107.5t84.5 -66.5q49 -24 109 -34
t123 -10zM393 706h41l172 210h-43z" />
    <glyph glyph-name="scaron" unicode="&#x161;" horiz-adv-x="801" 
d="M51 0zM415 -18q117 0 186.5 24t99.5 63q16 20 23.5 42t7.5 45v1q0 82 -80 113t-242 37q-103 4 -167 15t-93 34q-15 12 -22.5 29t-7.5 38q0 57 59.5 96.5t188.5 39.5q125 0 207.5 -37.5t115.5 -128.5h34q-35 105 -126 151t-233 46q-137 0 -209 -47.5t-72 -118.5
q0 -54 32 -85t102 -46q35 -7 80.5 -11.5t102.5 -6.5q106 -3 171 -14.5t96 -35.5q15 -12 22.5 -29t7.5 -39q0 -37 -26.5 -69.5t-88.5 -52.5q-31 -10 -73 -15t-96 -5q-53 0 -105.5 7t-98.5 27q-45 20 -78 56.5t-46 94.5h-36q13 -65 47.5 -107.5t84.5 -66.5q49 -24 109 -34
t123 -10zM426 700l158 162h-48l-123 -130l-118 130h-46l149 -162h28z" />
    <glyph glyph-name="uni015F" unicode="&#x15f;" horiz-adv-x="801" 
d="M420 -276q73 0 109.5 32t36.5 77q0 47 -33.5 71t-107.5 23v55q113 1 180 25t97 63q15 20 22.5 41.5t7.5 44.5v1q0 82 -80 113t-242 37q-103 4 -167 15t-93 34q-15 12 -22.5 29t-7.5 38q0 57 59.5 96.5t188.5 39.5q125 0 207.5 -37.5t115.5 -128.5h34q-35 105 -126 151
t-233 46q-137 0 -209 -47.5t-72 -118.5q0 -54 32 -85t102 -46q35 -7 80.5 -11.5t102.5 -6.5q106 -3 171 -14.5t96 -35.5q15 -12 22.5 -29t7.5 -39q0 -37 -26.5 -69.5t-88.5 -52.5q-31 -10 -73 -15t-96 -5q-53 0 -105.5 7t-98.5 27q-45 20 -78 56.5t-46 94.5h-36
q17 -82 67 -128.5t121 -66.5q35 -10 73 -16t78 -7v-86h31q65 0 87.5 -15t22.5 -50t-28.5 -54.5t-82.5 -19.5q-51 0 -82.5 20.5t-36.5 57.5h-38q8 -49 46.5 -80t110.5 -31z" />
    <glyph glyph-name="scircumflex" unicode="&#x15d;" horiz-adv-x="801" 
d="M51 0zM415 -18q117 0 186.5 24t99.5 63q16 20 23.5 42t7.5 45v1q0 82 -80 113t-242 37q-103 4 -167 15t-93 34q-15 12 -22.5 29t-7.5 38q0 57 59.5 96.5t188.5 39.5q125 0 207.5 -37.5t115.5 -128.5h34q-35 105 -126 151t-233 46q-137 0 -209 -47.5t-72 -118.5
q0 -54 32 -85t102 -46q35 -7 80.5 -11.5t102.5 -6.5q106 -3 171 -14.5t96 -35.5q15 -12 22.5 -29t7.5 -39q0 -37 -26.5 -69.5t-88.5 -52.5q-31 -10 -73 -15t-96 -5q-53 0 -105.5 7t-98.5 27q-45 20 -78 56.5t-46 94.5h-36q13 -65 47.5 -107.5t84.5 -66.5q49 -24 109 -34
t123 -10zM528 701h43l-151 171h-40l-149 -171h43l127 146z" />
    <glyph glyph-name="uni0219" unicode="&#x219;" horiz-adv-x="801" 
d="M51 0zM415 -18q117 0 186.5 24t99.5 63q16 20 23.5 42t7.5 45v1q0 82 -80 113t-242 37q-103 4 -167 15t-93 34q-15 12 -22.5 29t-7.5 38q0 57 59.5 96.5t188.5 39.5q125 0 207.5 -37.5t115.5 -128.5h34q-35 105 -126 151t-233 46q-137 0 -209 -47.5t-72 -118.5
q0 -54 32 -85t102 -46q35 -7 80.5 -11.5t102.5 -6.5q106 -3 171 -14.5t96 -35.5q15 -12 22.5 -29t7.5 -39q0 -37 -26.5 -69.5t-88.5 -52.5q-31 -10 -73 -15t-96 -5q-53 0 -105.5 7t-98.5 27q-45 20 -78 56.5t-46 94.5h-36q13 -65 47.5 -107.5t84.5 -66.5q49 -24 109 -34
t123 -10zM354 -328q47 23 74.5 61.5t27.5 78.5q0 31 -14 46t-37 15q-20 0 -32.5 -11.5t-12.5 -30.5q0 -20 10.5 -28.5t28.5 -8.5q8 0 14.5 2t11.5 7q-3 -35 -26 -64t-58 -45z" />
    <glyph glyph-name="tbar" unicode="&#x167;" horiz-adv-x="493" 
d="M449 34h-61q-74 0 -119.5 17t-66.5 63q-10 23 -15 56.5t-5 76.5v37h210v27h-210v223h267v30h-267v164h-26q-1 -33 -1.5 -59.5t-2.5 -52.5q-1 -24 -5 -34.5t-17 -13.5q-7 -1 -18 -2t-26 -1l-82 -1v-30h146v-223h-115v-27h115v-37q0 -96 24.5 -150t76.5 -75
q27 -11 61.5 -16.5t76.5 -5.5h60v34z" />
    <glyph glyph-name="tcaron" unicode="&#x165;" horiz-adv-x="493" 
d="M4 0zM449 33h-61q-74 0 -119.5 17.5t-66.5 63.5q-10 23 -15 56.5t-5 76.5v288h267v29h-267v164h-26q-1 -33 -1.5 -59.5t-2.5 -52.5q-1 -24 -5 -34.5t-17 -13.5q-7 -1 -18 -2t-26 -1l-82 -1v-29h146v-288q0 -96 24.5 -150t76.5 -75q27 -11 61.5 -16.5t76.5 -5.5h60v33z
M308 692h36l82 186h-44z" />
    <glyph glyph-name="uni0163" unicode="&#x163;" horiz-adv-x="493" 
d="M4 0zM449 33h-61q-74 0 -119.5 17.5t-66.5 63.5q-10 23 -15 56.5t-5 76.5v288h267v29h-267v164h-26q-1 -33 -1.5 -59.5t-2.5 -52.5q-1 -24 -5 -34.5t-17 -13.5q-7 -1 -18 -2t-26 -1l-82 -1v-29h146v-288q0 -96 24.5 -150t76.5 -75q27 -11 61.5 -16.5t76.5 -5.5h60v33z
M259 -307q47 23 74.5 61.5t27.5 78.5q0 31 -14 46t-37 15q-20 0 -32.5 -11.5t-12.5 -30.5q0 -20 10.5 -28.5t28.5 -8.5q8 0 14.5 2t11.5 7q-3 -35 -26 -64t-58 -45z" />
    <glyph glyph-name="uacute" unicode="&#xfa;" horiz-adv-x="893" 
d="M112 0zM744 0h31v564h-32v-246q0 -96 -38.5 -164t-109.5 -103q-35 -18 -76 -27t-89 -9q-145 0 -215 68.5t-70 194.5v286h-33v-285q0 -147 77.5 -222t240.5 -75q125 0 207 59.5t107 163.5v-205zM415 644h41l172 210h-43z" />
    <glyph glyph-name="ubreve" unicode="&#x16d;" horiz-adv-x="893" 
d="M112 0zM744 0h31v564h-32v-246q0 -96 -38.5 -164t-109.5 -103q-35 -18 -76 -27t-89 -9q-145 0 -215 68.5t-70 194.5v286h-33v-285q0 -147 77.5 -222t240.5 -75q125 0 207 59.5t107 163.5v-205zM437 650q67 0 111.5 28.5t68.5 70.5q12 22 19 43.5t9 42.5h-33
q-4 -36 -25.5 -71.5t-58.5 -59.5q-19 -12 -41.5 -18t-48.5 -6q-57 1 -92.5 24.5t-53.5 58.5q-9 18 -14.5 36t-7.5 36h-34q4 -43 25 -85.5t64 -71.5q21 -14 49 -21t63 -7z" />
    <glyph glyph-name="ucircumflex" unicode="&#xfb;" horiz-adv-x="893" 
d="M112 0zM744 0h31v564h-32v-246q0 -96 -38.5 -164t-109.5 -103q-35 -18 -76 -27t-89 -9q-145 0 -215 68.5t-70 194.5v286h-33v-285q0 -147 77.5 -222t240.5 -75q125 0 207 59.5t107 163.5v-205zM563 657h43l-151 171h-40l-149 -171h43l127 146z" />
    <glyph glyph-name="udieresis" unicode="&#xfc;" horiz-adv-x="893" 
d="M112 0zM744 0h31v564h-32v-246q0 -96 -38.5 -164t-109.5 -103q-35 -18 -76 -27t-89 -9q-145 0 -215 68.5t-70 194.5v286h-33v-285q0 -147 77.5 -222t240.5 -75q125 0 207 59.5t107 163.5v-205zM346 653q19 0 30.5 9.5t11.5 29.5t-10 32t-31 12q-22 0 -33 -10.5t-11 -32.5
q0 -20 11 -30t32 -10zM534 653q20 0 31.5 9.5t11.5 29.5t-10 32t-31 12q-22 0 -33 -10.5t-11 -32.5q0 -21 11.5 -30.5t30.5 -9.5z" />
    <glyph glyph-name="ugrave" unicode="&#xf9;" horiz-adv-x="893" 
d="M112 0zM744 0h31v564h-32v-246q0 -96 -38.5 -164t-109.5 -103q-35 -18 -76 -27t-89 -9q-145 0 -215 68.5t-70 194.5v286h-33v-285q0 -147 77.5 -222t240.5 -75q125 0 207 59.5t107 163.5v-205zM445 634h40l-144 169h-50z" />
    <glyph glyph-name="uhungarumlaut" unicode="&#x171;" horiz-adv-x="893" 
d="M112 0zM744 0h31v564h-32v-246q0 -96 -38.5 -164t-109.5 -103q-35 -18 -76 -27t-89 -9q-145 0 -215 68.5t-70 194.5v286h-33v-285q0 -147 77.5 -222t240.5 -75q125 0 207 59.5t107 163.5v-205zM700 831h-50l-166 -169h40zM537 831h-51l-144 -169h37z" />
    <glyph glyph-name="umacron" unicode="&#x16b;" horiz-adv-x="893" 
d="M112 0zM744 0h31v564h-32v-246q0 -96 -38.5 -164t-109.5 -103q-35 -18 -76 -27t-89 -9q-145 0 -215 68.5t-70 194.5v286h-33v-285q0 -147 77.5 -222t240.5 -75q125 0 207 59.5t107 163.5v-205zM277 681h331v34h-331v-34z" />
    <glyph glyph-name="uogonek" unicode="&#x173;" horiz-adv-x="893" 
d="M906 -129h-39q-19 -35 -51 -55t-81 -20q-45 0 -75 21t-30 56q0 21 12 40.5t44 40.5q15 10 37.5 21.5t51.5 24.5v564h-32v-246q0 -96 -38.5 -164t-109.5 -103q-35 -18 -76 -27t-89 -9q-145 0 -215 68.5t-70 194.5v286h-33v-285q0 -147 77.5 -222t240.5 -75q125 0 207 59.5
t107 163.5v-190q-82 -33 -116 -69.5t-34 -73.5q0 -48 37.5 -77.5t103.5 -29.5q62 0 105.5 29t65.5 77z" />
    <glyph glyph-name="uring" unicode="&#x16f;" horiz-adv-x="893" 
d="M112 0zM744 0h31v564h-32v-246q0 -96 -38.5 -164t-109.5 -103q-35 -18 -76 -27t-89 -9q-145 0 -215 68.5t-70 194.5v286h-33v-285q0 -147 77.5 -222t240.5 -75q125 0 207 59.5t107 163.5v-205zM446 632q47 0 77 28.5t30 75.5q0 53 -30 79.5t-77 26.5q-44 0 -74 -28.5
t-30 -77.5q0 -44 28 -74t76 -30zM446 665q-35 0 -53 20t-18 51q0 35 20 55t51 20q34 0 53.5 -20t19.5 -55q0 -34 -19.5 -52.5t-53.5 -18.5z" />
    <glyph glyph-name="utilde" unicode="&#x169;" horiz-adv-x="893" 
d="M112 0zM744 0h31v564h-32v-246q0 -96 -38.5 -164t-109.5 -103q-35 -18 -76 -27t-89 -9q-145 0 -215 68.5t-70 194.5v286h-33v-285q0 -147 77.5 -222t240.5 -75q125 0 207 59.5t107 163.5v-205zM219 660h31q0 37 18.5 57t56.5 20q27 0 54 -11.5t55 -26.5t57 -26.5
t59 -11.5q51 0 77 29t26 77h-31q0 -39 -19.5 -57.5t-52.5 -18.5q-25 0 -51 11.5t-53 26.5t-57 26.5t-64 11.5q-50 0 -78 -28.5t-28 -78.5z" />
    <glyph glyph-name="wacute" unicode="&#x1e83;" horiz-adv-x="1178" 
d="M47 0zM846 0h35l250 564h-35l-233 -528l-261 528h-35l-283 -526l-202 526h-35l216 -564h35l285 532zM563 680h41l172 210h-43z" />
    <glyph glyph-name="wcircumflex" unicode="&#x175;" horiz-adv-x="1178" 
d="M47 0zM846 0h35l250 564h-35l-233 -528l-261 528h-35l-283 -526l-202 526h-35l216 -564h35l285 532zM708 675h43l-151 171h-40l-149 -171h43l127 146z" />
    <glyph glyph-name="wdieresis" unicode="&#x1e85;" horiz-adv-x="1178" 
d="M47 0zM846 0h35l250 564h-35l-233 -528l-261 528h-35l-283 -526l-202 526h-35l216 -564h35l285 532zM491 671q19 0 30.5 9.5t11.5 29.5t-10 32t-31 12q-22 0 -33 -10.5t-11 -32.5q0 -20 11 -30t32 -10zM679 671q20 0 31.5 9.5t11.5 29.5t-10 32t-31 12q-22 0 -33 -10.5
t-11 -32.5q0 -21 11.5 -30.5t30.5 -9.5z" />
    <glyph glyph-name="wgrave" unicode="&#x1e81;" horiz-adv-x="1178" 
d="M47 0zM846 0h35l250 564h-35l-233 -528l-261 528h-35l-283 -526l-202 526h-35l216 -564h35l285 532zM577 676h40l-144 169h-50z" />
    <glyph glyph-name="yacute" unicode="&#xfd;" horiz-adv-x="785" 
d="M39 0zM71 -248q50 0 86 4t64 16t53.5 36.5t54.5 64.5l31.5 46l35.5 56l364 589h-38l-321 -520l-325 520h-37l343 -551l-16 -26q-35 -56 -61 -93.5t-49 -59.5t-48 -33t-58 -15q-16 -1 -36 -2t-43 -1h-18l1 -31h17zM380 664h41l172 210h-43z" />
    <glyph glyph-name="ycircumflex" unicode="&#x177;" horiz-adv-x="785" 
d="M39 0zM71 -248q50 0 86 4t64 16t53.5 36.5t54.5 64.5l31.5 46l35.5 56l364 589h-38l-321 -520l-325 520h-37l343 -551l-16 -26q-35 -56 -61 -93.5t-49 -59.5t-48 -33t-58 -15q-16 -1 -36 -2t-43 -1h-18l1 -31h17zM525 659h43l-151 171h-40l-149 -171h43l127 146z" />
    <glyph glyph-name="ydieresis" unicode="&#xff;" horiz-adv-x="785" 
d="M39 0zM71 -248q50 0 86 4t64 16t53.5 36.5t54.5 64.5l31.5 46l35.5 56l364 589h-38l-321 -520l-325 520h-37l343 -551l-16 -26q-35 -56 -61 -93.5t-49 -59.5t-48 -33t-58 -15q-16 -1 -36 -2t-43 -1h-18l1 -31h17zM308 655q19 0 30.5 9.5t11.5 29.5t-10 32t-31 12
q-22 0 -33 -10.5t-11 -32.5q0 -20 11 -30t32 -10zM496 655q20 0 31.5 9.5t11.5 29.5t-10 32t-31 12q-22 0 -33 -10.5t-11 -32.5q0 -21 11.5 -30.5t30.5 -9.5z" />
    <glyph glyph-name="ygrave" unicode="&#x1ef3;" horiz-adv-x="785" 
d="M39 0zM71 -248q50 0 86 4t64 16t53.5 36.5t54.5 64.5l31.5 46l35.5 56l364 589h-38l-321 -520l-325 520h-37l343 -551l-16 -26q-35 -56 -61 -93.5t-49 -59.5t-48 -33t-58 -15q-16 -1 -36 -2t-43 -1h-18l1 -31h17zM394 660h40l-144 169h-50z" />
    <glyph glyph-name="ij" unicode="&#x133;" horiz-adv-x="603" 
d="M467 678q16 0 21.5 9.5t5.5 24.5q0 16 -5.5 25t-22.5 9q-13 0 -20 -8.5t-7 -25.5q0 -16 6 -25t22 -9zM140 678q16 0 21.5 9.5t5.5 24.5q0 16 -5.5 25t-22.5 9q-13 0 -20 -8.5t-7 -25.5q0 -16 6 -25t22 -9zM251 -249q68 0 113 9.5t71 35.5t36.5 76.5t9.5 131.5v560h-31
v-560q0 -74 -8.5 -119t-30.5 -68q-22 -24 -60.5 -32t-98.5 -8h-31v-26h30zM155 0v564h-33v-564h33z" />
    <glyph glyph-name="zacute" unicode="&#x17a;" horiz-adv-x="762" 
d="M47 0zM724 0v30h-631l623 508v26h-632v-29h581l-618 -503v-32h677zM383 680h41l172 210h-43z" />
    <glyph glyph-name="zcaron" unicode="&#x17e;" horiz-adv-x="762" 
d="M47 0zM724 0v30h-631l623 508v26h-632v-29h581l-618 -503v-32h677zM414 674l158 162h-48l-123 -130l-118 130h-46l149 -162h28z" />
    <glyph glyph-name="zdotaccent" unicode="&#x17c;" horiz-adv-x="762" 
d="M47 0zM724 0v30h-631l623 508v26h-632v-29h581l-618 -503v-32h677zM404 682q20 0 32 9.5t12 30.5q0 20 -10.5 32.5t-32.5 12.5t-33.5 -12t-11.5 -32q0 -22 12 -31.5t32 -9.5z" />
    <glyph glyph-name="thorn" unicode="&#xfe;" horiz-adv-x="924" 
d="M480 13q-99 0 -174.5 30.5t-118.5 90.5q-21 30 -31.5 67t-10.5 81q0 81 43.5 144t120.5 99q38 18 82.5 27t94.5 9q93 0 170 -33t123 -95q23 -31 34.5 -68.5t11.5 -81.5q0 -89 -42.5 -149.5t-119.5 -90.5q-39 -15 -84.5 -22.5t-98.5 -7.5zM480 -18q111 0 196 34t134 101
q24 34 36 75.5t12 90.5q0 96 -47.5 165t-131.5 105q-42 19 -89.5 28t-101.5 9q-123 0 -210 -50t-125 -129v343h-33v-954h33v346q38 -77 122 -120.5t205 -43.5z" />
    <glyph glyph-name="ordfeminine" unicode="&#xaa;" horiz-adv-x="558" 
d="M199 342q-64 0 -94.5 21t-30.5 54q0 18 6 33t22 28q23 18 73 28t139 16q86 5 123 17.5t48 32.5v-41q0 -42 -32.5 -85.5t-95.5 -73.5q-32 -15 -71.5 -22.5t-86.5 -7.5zM485 326h27l2 286q0 31 -21 58.5t-66 44.5q-23 9 -52.5 13.5t-66.5 4.5q-117 0 -182.5 -41.5
t-76.5 -120.5h31q11 67 66.5 100.5t161.5 33.5q67 0 105 -13.5t55 -33.5q8 -11 12 -21.5t4 -21.5q0 -25 -16.5 -38t-53.5 -19q-19 -3 -44.5 -5.5t-57.5 -4.5q-93 -6 -148.5 -17t-82.5 -33q-20 -15 -29.5 -35.5t-9.5 -45.5q0 -46 35 -74.5t122 -28.5q82 0 139.5 21.5
t93.5 56.5q18 17 31 35.5t21 37.5z" />
    <glyph glyph-name="ordmasculine" unicode="&#xba;" horiz-adv-x="598" 
d="M297 308q122 0 194 53t72 156q0 70 -35.5 118t-95.5 72q-30 13 -63 19t-70 6q-72 0 -132 -23.5t-96 -71.5q-18 -24 -27 -54t-9 -66q0 -103 70 -156t192 -53zM297 338q-103 0 -167 44t-64 135q0 64 32.5 105t85.5 62q26 10 55 15t60 5q66 0 119 -21.5t84 -63.5
q16 -21 23.5 -46.5t7.5 -55.5q0 -60 -30 -100t-83 -59q-27 -10 -57.5 -15t-65.5 -5z" />
    <glyph glyph-name="cordinal" horiz-adv-x="577" 
d="M561 486h-31q-13 -75 -75.5 -112t-157.5 -37q-103 0 -167 44.5t-64 135.5q0 64 32.5 105t85.5 62q26 10 55 15t60 5q86 0 148 -35.5t78 -104.5h33q-11 55 -48 92.5t-91 56.5q-28 9 -57.5 14t-62.5 5q-72 0 -132 -23.5t-96 -71.5q-18 -24 -27 -54t-9 -66q0 -103 70 -156
t192 -53q113 0 181.5 45t82.5 133z" />
    <glyph glyph-name="g.alt" horiz-adv-x="778" 
d="M391 -264q142 0 224 23.5t117 63.5q17 20 26 42t9 47q0 75 -66 112.5t-193 37.5h-258q-50 0 -79 11t-40 28q-6 9 -9 17.5t-3 17.5q0 39 54.5 68t157.5 29h72q153 0 237 40.5t84 132.5q0 53 -27.5 88.5t-76.5 54.5q-24 9 -51.5 14.5t-58.5 7.5q66 3 105 9t58 19t24.5 35.5
t5.5 58.5v5h-29v-6q0 -33 -7 -53t-28 -31q-21 -10 -62 -14.5t-108 -6.5t-115.5 -4.5t-94.5 -10.5q-79 -13 -130.5 -54t-51.5 -109q0 -71 52.5 -112t157.5 -52q-98 -4 -149.5 -37t-51.5 -79q0 -35 30 -62t94 -32q-75 -11 -124.5 -43t-49.5 -94q0 -50 30.5 -86.5t102.5 -55.5
q36 -10 85.5 -15t111.5 -5h25zM404 265q-85 0 -151.5 13t-104.5 44q-19 16 -28.5 37.5t-9.5 49.5q0 56 40.5 90.5t114.5 46.5q46 8 78 9t68 1q145 0 212.5 -39.5t67.5 -110.5q0 -82 -73.5 -111.5t-213.5 -29.5zM365 -232q-111 0 -176.5 17t-94.5 47q-15 15 -22 31.5t-7 35.5
q0 47 36 76.5t98 43.5q32 7 68 11t76 4h165q115 0 171 -29.5t56 -91.5q0 -31 -15.5 -57.5t-53.5 -45.5q-38 -20 -105 -31t-170 -11h-26z" />
    <glyph glyph-name="g.alt2" horiz-adv-x="929" 
d="M439 13q-157 0 -247 68t-90 202q0 88 45.5 150t122.5 95q38 16 80.5 24.5t88.5 8.5q104 0 181 -36t119 -99q22 -32 32.5 -68t10.5 -76q0 -87 -43.5 -147t-121.5 -91q-38 -15 -82.5 -23t-95.5 -8zM439 -240q125 0 206.5 33t121.5 91q20 29 30 62t10 71v547h-29l-3 -155
q-37 80 -123.5 130.5t-214.5 50.5q-107 0 -190.5 -36.5t-130.5 -105.5q-23 -35 -35 -76t-12 -89q0 -98 46.5 -165.5t129.5 -101.5q42 -17 90.5 -25.5t103.5 -8.5q122 0 209 45t126 123v-133q0 -65 -34 -116t-108 -80q-37 -15 -85 -22.5t-108 -7.5q-133 0 -207 29t-104 102
h-35q23 -59 65 -94.5t111 -51.5q34 -8 76.5 -12t93.5 -4z" />
    <glyph glyph-name="uni0123.alt" horiz-adv-x="929" 
d="M69 0zM439 13q-157 0 -247 68t-90 202q0 88 45.5 150t122.5 95q38 16 80.5 24.5t88.5 8.5q104 0 181 -36t119 -99q22 -32 32.5 -68t10.5 -76q0 -87 -43.5 -147t-121.5 -91q-38 -15 -82.5 -23t-95.5 -8zM439 -240q125 0 206.5 33t121.5 91q20 29 30 62t10 71v547h-29
l-3 -155q-37 80 -123.5 130.5t-214.5 50.5q-107 0 -190.5 -36.5t-130.5 -105.5q-23 -35 -35 -76t-12 -89q0 -98 46.5 -165.5t129.5 -101.5q42 -17 90.5 -25.5t103.5 -8.5q122 0 209 45t126 123v-133q0 -65 -34 -116t-108 -80q-37 -15 -85 -22.5t-108 -7.5q-133 0 -207 29
t-104 102h-35q23 -59 65 -94.5t111 -51.5q34 -8 76.5 -12t93.5 -4zM439 703q20 0 32.5 11.5t12.5 30.5q0 20 -10.5 28.5t-28.5 8.5q-8 0 -14.5 -2t-11.5 -7q3 35 26 64t58 45l-13 22q-47 -23 -74.5 -61.5t-27.5 -78.5q0 -31 14 -46t37 -15z" />
    <glyph glyph-name="gcircumflex.alt" horiz-adv-x="929" 
d="M69 0zM439 13q-157 0 -247 68t-90 202q0 88 45.5 150t122.5 95q38 16 80.5 24.5t88.5 8.5q104 0 181 -36t119 -99q22 -32 32.5 -68t10.5 -76q0 -87 -43.5 -147t-121.5 -91q-38 -15 -82.5 -23t-95.5 -8zM439 -240q125 0 206.5 33t121.5 91q20 29 30 62t10 71v547h-29
l-3 -155q-37 80 -123.5 130.5t-214.5 50.5q-107 0 -190.5 -36.5t-130.5 -105.5q-23 -35 -35 -76t-12 -89q0 -98 46.5 -165.5t129.5 -101.5q42 -17 90.5 -25.5t103.5 -8.5q122 0 209 45t126 123v-133q0 -65 -34 -116t-108 -80q-37 -15 -85 -22.5t-108 -7.5q-133 0 -207 29
t-104 102h-35q23 -59 65 -94.5t111 -51.5q34 -8 76.5 -12t93.5 -4zM568 701h43l-151 171h-40l-149 -171h43l127 146z" />
    <glyph glyph-name="gdotaccent.alt" horiz-adv-x="929" 
d="M69 0zM439 13q-157 0 -247 68t-90 202q0 88 45.5 150t122.5 95q38 16 80.5 24.5t88.5 8.5q104 0 181 -36t119 -99q22 -32 32.5 -68t10.5 -76q0 -87 -43.5 -147t-121.5 -91q-38 -15 -82.5 -23t-95.5 -8zM439 -240q125 0 206.5 33t121.5 91q20 29 30 62t10 71v547h-29
l-3 -155q-37 80 -123.5 130.5t-214.5 50.5q-107 0 -190.5 -36.5t-130.5 -105.5q-23 -35 -35 -76t-12 -89q0 -98 46.5 -165.5t129.5 -101.5q42 -17 90.5 -25.5t103.5 -8.5q122 0 209 45t126 123v-133q0 -65 -34 -116t-108 -80q-37 -15 -85 -22.5t-108 -7.5q-133 0 -207 29
t-104 102h-35q23 -59 65 -94.5t111 -51.5q34 -8 76.5 -12t93.5 -4zM444 708q20 0 32 9.5t12 30.5q0 20 -10.5 32.5t-32.5 12.5t-33.5 -12t-11.5 -32q0 -22 12 -31.5t32 -9.5z" />
    <glyph glyph-name="gbreve.alt" horiz-adv-x="929" 
d="M69 0zM439 13q-157 0 -247 68t-90 202q0 88 45.5 150t122.5 95q38 16 80.5 24.5t88.5 8.5q104 0 181 -36t119 -99q22 -32 32.5 -68t10.5 -76q0 -87 -43.5 -147t-121.5 -91q-38 -15 -82.5 -23t-95.5 -8zM439 -240q125 0 206.5 33t121.5 91q20 29 30 62t10 71v547h-29
l-3 -155q-37 80 -123.5 130.5t-214.5 50.5q-107 0 -190.5 -36.5t-130.5 -105.5q-23 -35 -35 -76t-12 -89q0 -98 46.5 -165.5t129.5 -101.5q42 -17 90.5 -25.5t103.5 -8.5q122 0 209 45t126 123v-133q0 -65 -34 -116t-108 -80q-37 -15 -85 -22.5t-108 -7.5q-133 0 -207 29
t-104 102h-35q23 -59 65 -94.5t111 -51.5q34 -8 76.5 -12t93.5 -4zM442 694q67 0 111.5 28.5t68.5 70.5q12 22 19 43.5t9 42.5h-33q-4 -36 -25.5 -71.5t-58.5 -59.5q-19 -12 -41.5 -18t-48.5 -6q-57 1 -92.5 24.5t-53.5 58.5q-9 18 -14.5 36t-7.5 36h-34q4 -43 25 -85.5
t64 -71.5q21 -14 49 -21t63 -7z" />
    <glyph glyph-name="ampersand" unicode="&#x26;" horiz-adv-x="1029" 
d="M334 523q0 76 46.5 120t121.5 44q65 0 100.5 -32t35.5 -82q0 -51 -30 -83t-90 -53q-31 -10 -69 -20t-84 -20q-15 32 -23 63.5t-8 62.5zM309 17q-60 0 -110.5 15.5t-80.5 48.5q-16 17 -23.5 39.5t-7.5 49.5q1 53 27 89t83 61q28 12 66 23t84 21q22 -39 55 -80t78 -87
q26 -26 53 -50t55 -45q-66 -40 -136.5 -62.5t-142.5 -22.5zM899 -6q29 0 51.5 4t38.5 9v33q-21 -7 -43 -10.5t-47 -3.5q-71 0 -134.5 21t-119.5 55q110 77 203 193t158 251h-38q-60 -128 -150.5 -240t-199.5 -185q-31 22 -60 46.5t-55 51.5q-42 41 -72.5 79t-51.5 73
q97 21 161.5 44.5t96.5 60.5q17 19 25 43t8 53q0 65 -45.5 106t-122.5 41q-56 0 -101.5 -23.5t-71.5 -67.5q-14 -22 -20.5 -48t-6.5 -57q0 -34 8 -67t23 -65q-142 -30 -210.5 -81.5t-68.5 -139.5q0 -66 33 -107t90 -59q29 -10 62 -14.5t70 -4.5q80 0 157 25.5t149 71.5
q62 -40 132 -64t152 -24z" />
    <glyph glyph-name="acute" unicode="&#xb4;" horiz-adv-x="588" 
d="M263 673h41l172 210h-43z" />
    <glyph glyph-name="breve" unicode="&#x2d8;" horiz-adv-x="588" 
d="M291 661q67 0 111.5 28.5t68.5 70.5q12 22 19 43.5t9 42.5h-33q-4 -36 -25.5 -71.5t-58.5 -59.5q-19 -12 -41.5 -18t-48.5 -6q-57 1 -92.5 24.5t-53.5 58.5q-9 18 -14.5 36t-7.5 36h-34q4 -43 25 -85.5t64 -71.5q21 -14 49 -21t63 -7z" />
    <glyph glyph-name="caron" unicode="&#x2c7;" horiz-adv-x="588" 
d="M305 667l158 162h-48l-123 -130l-118 130h-46l149 -162h28z" />
    <glyph glyph-name="caronSlovak" horiz-adv-x="588" 
d="M248 646h36l82 186h-44z" />
    <glyph glyph-name="cedilla" unicode="&#xb8;" horiz-adv-x="588" 
d="M289 -258q73 0 109.5 32t36.5 77q0 47 -33.5 71t-107.5 23v58h-35v-89h31q65 0 87.5 -15t22.5 -50t-28.5 -54.5t-82.5 -19.5q-51 0 -82.5 20.5t-36.5 57.5h-38q8 -49 46.5 -80t110.5 -31z" />
    <glyph glyph-name="altcedilla" horiz-adv-x="588" 
d="M288 -258q82 0 114.5 33t32.5 78q0 49 -36 73t-108 23h-32v-30h30q65 0 88 -16.5t23 -52.5q0 -35 -26 -55t-86 -20q-51 0 -81.5 20.5t-36.5 57.5h-38q9 -49 46.5 -80t109.5 -31z" />
    <glyph glyph-name="circumflex" unicode="&#x2c6;" horiz-adv-x="588" 
d="M419 668h43l-151 171h-40l-149 -171h43l127 146z" />
    <glyph glyph-name="uni00200326" horiz-adv-x="591" 
d="M235 -310q47 23 74.5 61.5t27.5 78.5q0 31 -14 46t-37 15q-20 0 -32.5 -11.5t-12.5 -30.5q0 -20 10.5 -28.5t28.5 -8.5q8 0 14.5 2t11.5 7q-3 -35 -26 -64t-58 -45z" />
    <glyph glyph-name="dieresis" unicode="&#xa8;" horiz-adv-x="591" 
d="M193 664q19 0 30.5 9.5t11.5 29.5t-10 32t-31 12q-22 0 -33 -10.5t-11 -32.5q0 -20 11 -30t32 -10zM381 664q20 0 31.5 9.5t11.5 29.5t-10 32t-31 12q-22 0 -33 -10.5t-11 -32.5q0 -21 11.5 -30.5t30.5 -9.5z" />
    <glyph glyph-name="dotaccent" unicode="&#x2d9;" horiz-adv-x="591" 
d="M283 675q20 0 32 9.5t12 30.5q0 20 -10.5 32.5t-32.5 12.5t-33.5 -12t-11.5 -32q0 -22 12 -31.5t32 -9.5z" />
    <glyph glyph-name="uni00200323" horiz-adv-x="591" 
d="M283 -225q23 0 36.5 10.5t13.5 35.5q0 23 -12 36.5t-37 13.5t-38 -12.5t-13 -36.5q0 -26 13.5 -36.5t36.5 -10.5z" />
    <glyph glyph-name="doublegrave" horiz-adv-x="588" 
d="M242 668h37l-139 169h-50zM397 668h35l-125 169h-51z" />
    <glyph glyph-name="grave" unicode="`" horiz-adv-x="588" 
d="M312 670h40l-144 169h-50z" />
    <glyph glyph-name="hungarumlaut" unicode="&#x2dd;" horiz-adv-x="588" 
d="M520 842h-50l-166 -169h40zM357 842h-51l-144 -169h37z" />
    <glyph glyph-name="invertedbreve" horiz-adv-x="588" 
d="M296 855q-91 0 -146 -46.5t-63 -138.5h32q10 86 56 120t119 35q83 -1 120.5 -35t46.5 -120h35q-8 92 -55.5 138.5t-144.5 46.5z" />
    <glyph glyph-name="macron" unicode="&#xaf;" horiz-adv-x="588" 
d="M129 692h331v34h-331v-34z" />
    <glyph glyph-name="ogonek" unicode="&#x2db;" horiz-adv-x="588" 
d="M268 -235q62 0 105.5 29t65.5 77h-39q-19 -35 -51 -55t-81 -20q-45 0 -75 21t-30 56q0 21 12 40.5t44 40.5q15 10 37.5 21.5t51.5 24.5l-21 19q-87 -34 -123.5 -71t-36.5 -76q0 -48 37.5 -77.5t103.5 -29.5z" />
    <glyph glyph-name="ring" unicode="&#x2da;" horiz-adv-x="588" 
d="M287 669q47 0 77 28.5t30 75.5q0 53 -30 79.5t-77 26.5q-44 0 -74 -28.5t-30 -77.5q0 -44 28 -74t76 -30zM287 702q-35 0 -53 20t-18 51q0 35 20 55t51 20q34 0 53.5 -20t19.5 -55q0 -34 -19.5 -52.5t-53.5 -18.5z" />
    <glyph glyph-name="tilde" unicode="&#x2dc;" horiz-adv-x="588" 
d="M75 672h31q0 37 18.5 57t56.5 20q27 0 54 -11.5t55 -26.5t57 -26.5t59 -11.5q51 0 77 29t26 77h-31q0 -39 -19.5 -57.5t-52.5 -18.5q-25 0 -51 11.5t-53 26.5t-57 26.5t-64 11.5q-50 0 -78 -28.5t-28 -78.5z" />
    <glyph glyph-name="uni00200326.alt" horiz-adv-x="591" 
d="M288 670q20 0 32.5 11.5t12.5 30.5q0 20 -10.5 28.5t-28.5 8.5q-8 0 -14.5 -2t-11.5 -7q3 35 26 64t58 45l-13 22q-47 -23 -74.5 -61.5t-27.5 -78.5q0 -31 14 -46t37 -15z" />
    <glyph glyph-name="period" unicode="." horiz-adv-x="333" 
d="M167 -13q22 0 36 11t14 35q0 23 -12 36.5t-37 13.5t-38 -13t-13 -36q0 -25 14 -36t36 -11z" />
    <glyph glyph-name="comma" unicode="," horiz-adv-x="333" 
d="M106 -144q54 24 86 65.5t32 85.5q0 35 -13 53.5t-43 18.5q-22 0 -37 -12.5t-15 -33.5q0 -23 13 -32t32 -9q8 0 15 2t13 7q-4 -38 -31.5 -70.5t-68.5 -51.5z" />
    <glyph glyph-name="colon" unicode=":" horiz-adv-x="349" 
d="M172 459q23 0 37.5 12t14.5 37t-13 37.5t-39 12.5q-25 0 -38 -12.5t-13 -37.5q0 -24 13 -36.5t38 -12.5zM174 68q23 0 37 12.5t14 37.5t-13 37t-39 12q-25 0 -38 -12t-13 -37q0 -27 14 -38.5t38 -11.5z" />
    <glyph glyph-name="semicolon" unicode=";" horiz-adv-x="349" 
d="M172 459q23 0 37.5 12t14.5 37t-13 37.5t-39 12.5q-25 0 -38 -12.5t-13 -37.5q0 -24 13 -36.5t38 -12.5zM107 -144q54 24 86 65.5t32 85.5q0 35 -13 53.5t-43 18.5q-22 0 -37 -12.5t-15 -33.5q0 -23 13 -32t32 -9q8 0 15 2t13 7q-4 -38 -31.5 -70.5t-68.5 -51.5z" />
    <glyph glyph-name="ellipsis" unicode="&#x2026;" horiz-adv-x="825" 
d="M166 -10q22 0 35 11.5t13 33.5q0 23 -12 34t-36 11t-36 -11t-12 -34q0 -24 13 -34.5t35 -10.5zM412 -10q22 0 35 11.5t13 33.5q0 23 -12 34t-36 11t-36 -11t-12 -34q0 -24 13 -34.5t35 -10.5zM658 -10q22 0 35 11.5t13 33.5q0 23 -12 34t-36 11t-36 -11t-12 -34
q0 -24 13 -34.5t35 -10.5z" />
    <glyph glyph-name="exclam" unicode="!" horiz-adv-x="380" 
d="M193 176q1 15 2 69t3 138q0 41 0.5 88t0.5 98v156h-39v-157q0 -102 2.5 -185.5t4.5 -137.5q1 -27 2 -44t1 -25h23zM181 -9q21 0 34 11t13 33q0 23 -11.5 34t-35.5 11q-23 0 -35 -11t-12 -34t12.5 -33.5t34.5 -10.5z" />
    <glyph glyph-name="exclamdown" unicode="&#xa1;" horiz-adv-x="380" 
d="M181 589q-21 0 -34 -11t-13 -34q0 -22 12 -33.5t35 -11.5q24 0 35.5 11.5t11.5 33.5q0 24 -12.5 34.5t-34.5 10.5zM202 -141v153q0 102 -2 185t-4 137q-1 27 -2 44.5t-1 24.5h-23q0 -15 -2 -69t-3 -138q-1 -41 -1.5 -87.5t-0.5 -98.5v-151h39z" />
    <glyph glyph-name="exclamdown.cap" horiz-adv-x="380" 
d="M181 734q-21 0 -34 -10.5t-13 -33.5q0 -22 12 -33.5t35 -11.5q24 0 35.5 11.5t11.5 33.5q0 23 -12.5 33.5t-34.5 10.5zM202 0v157q0 103 -2.5 186t-4.5 137q-1 27 -2 44.5t-1 24.5h-23q0 -15 -1.5 -69t-3.5 -138q0 -41 -0.5 -87.5t-0.5 -98.5v-156h39z" />
    <glyph glyph-name="question" unicode="?" horiz-adv-x="901" 
d="M448 150v58q0 37 21 60t55 38l35 14.5t37 14.5q43 16 83 36.5t66 54.5q13 17 19.5 40t6.5 51q0 60 -29.5 105.5t-95.5 71.5q-33 12 -76.5 18.5t-98.5 6.5q-172 0 -260.5 -67t-88.5 -206h35q0 130 80 185t234 55q98 0 156 -20t84 -58q12 -19 18.5 -41.5t6.5 -49.5
q0 -48 -24 -77t-62 -47l-38.5 -17.5l-39.5 -16.5q-40 -15 -76.5 -32.5t-59.5 -44.5q-11 -14 -17 -32t-6 -40v-60h35zM437 -13q22 0 36 11t14 35q0 23 -12 36.5t-37 13.5t-38 -13t-13 -36q0 -25 14 -36t36 -11z" />
    <glyph glyph-name="questiondown" unicode="&#xbf;" horiz-adv-x="901" 
d="M500 253v-58q0 -37 -21 -60t-55 -38l-35 -14.5t-37 -14.5q-42 -16 -82.5 -36.5t-66.5 -54.5q-13 -17 -19.5 -40t-6.5 -51q0 -60 29.5 -105.5t95.5 -71.5q33 -12 77 -18.5t98 -6.5q172 0 260.5 67t88.5 206h-35q0 -130 -79.5 -185t-234.5 -55q-98 0 -156 20t-84 58
q-12 19 -18.5 41.5t-6.5 49.5q0 48 24 77t62 47l38.5 17.5l39.5 16.5q40 15 76.5 32.5t59.5 44.5q11 14 17 32t6 40v60h-35zM511 416q-22 0 -36 -11t-14 -35q0 -22 12 -36t37 -14t38 13.5t13 35.5q0 25 -13.5 36t-36.5 11z" />
    <glyph glyph-name="questiondown.cap" horiz-adv-x="901" 
d="M500 558v-58q0 -37 -21 -60t-55 -38l-35 -14.5t-37 -14.5q-42 -16 -82.5 -36.5t-66.5 -54.5q-13 -17 -19.5 -39.5t-6.5 -51.5q0 -60 29.5 -105.5t95.5 -70.5q33 -13 77 -19.5t98 -6.5q172 0 260.5 67t88.5 206h-35q0 -130 -79.5 -185t-234.5 -55q-98 0 -156 20t-84 58
q-12 19 -18.5 41.5t-6.5 49.5q0 48 24 77t62 47l38.5 17.5l39.5 16.5q40 15 76.5 32.5t59.5 44.5q11 14 17 32t6 40v60h-35zM511 721q-22 0 -36 -11t-14 -35q0 -22 12 -36t37 -14t38 13.5t13 35.5q0 25 -13.5 36t-36.5 11z" />
    <glyph glyph-name="uni203D" unicode="&#x203d;" horiz-adv-x="901" 
d="M458 152v56q0 40 22.5 64t58.5 39q36 16 75.5 30.5t75.5 34.5t58.5 53.5t22.5 87.5q0 60 -29.5 105.5t-95.5 71.5q-33 12 -76.5 18.5t-98.5 6.5q-172 0 -260.5 -67t-88.5 -206h35q0 120 68 176t201 63v-109q0 -36 0.5 -87t0.5 -100q1 -25 1.5 -46t0.5 -38q2 -61 2.5 -100
t0.5 -53h26zM463 633v53h8q98 0 156 -20t84 -58q12 -19 18.5 -41.5t6.5 -49.5q0 -48 -22 -77t-56 -48q-34 -18 -72.5 -32.5t-72.5 -32.5q-17 -9 -30.5 -20.5t-23.5 -25.5q2 45 2.5 104.5t1.5 123.5v63v61zM447 -13q22 0 36 11t14 35q0 23 -12 36.5t-37 13.5t-38 -13t-13 -36
q0 -25 14 -36t36 -11z" />
    <glyph glyph-name="uni2E18" unicode="&#x2e18;" horiz-adv-x="901" 
d="M461 416q-22 0 -36 -11t-14 -35q0 -22 12 -36t37 -14t38 13.5t13 35.5q0 25 -13.5 36t-36.5 11zM437 -316q172 0 260.5 67t88.5 206h-35q0 -120 -68 -176t-201 -63v109q0 36 -0.5 87t-0.5 100q-1 25 -1 46t-1 38q-1 61 -1.5 100.5t-1.5 52.5h-26v-56q0 -40 -22.5 -64
t-58.5 -39q-36 -16 -75.5 -30.5t-75.5 -34.5t-58.5 -53.5t-22.5 -87.5q0 -60 29.5 -105.5t95.5 -71.5q33 -12 77 -18.5t98 -6.5zM437 -283q-98 0 -156 20t-84 58q-12 19 -18.5 41.5t-6.5 49.5q0 48 22 77t56 48q34 18 72.5 32.5t72.5 32.5q17 9 30.5 20.5t23.5 25.5
q-1 -45 -2 -104.5l-2 -123.5v-63v-61v-53h-8z" />
    <glyph glyph-name="uni2E18.cap" horiz-adv-x="901" 
d="M461 723q-22 0 -36 -11t-14 -35q0 -22 12 -36t37 -14t38 13.5t13 35.5q0 25 -13.5 36t-36.5 11zM437 -9q172 0 260.5 67t88.5 206h-35q0 -120 -68 -175.5t-201 -63.5v109q0 37 -0.5 87.5t-0.5 99.5q-1 25 -1 46t-1 38q-1 61 -1.5 100.5t-1.5 52.5h-26v-56
q0 -40 -22.5 -64t-58.5 -39q-36 -16 -75.5 -30.5t-75.5 -34.5t-58.5 -53.5t-22.5 -87.5q0 -60 29.5 -105.5t95.5 -71.5q33 -12 77 -18.5t98 -6.5zM437 24q-98 0 -156 20t-84 58q-12 19 -18.5 41.5t-6.5 49.5q0 48 22 77t56 48q34 18 72.5 32.5t72.5 32.5q17 9 30.5 20.5
t23.5 25.5q-1 -45 -2 -104.5l-2 -123.5v-63v-61v-53h-8z" />
    <glyph glyph-name="quoteleft" unicode="&#x2018;" horiz-adv-x="344" 
d="M176 479q22 0 36.5 12.5t14.5 33.5t-11 31.5t-33 10.5q-10 0 -18 -3t-15 -10q0 39 17.5 71t60.5 63l-20 20q-46 -33 -69 -73t-23 -80q0 -38 15 -57t45 -19z" />
    <glyph glyph-name="quoteright" unicode="&#x2019;" horiz-adv-x="344" 
d="M141 487q47 33 69.5 73t22.5 80q0 38 -15 57t-45 19q-22 0 -36.5 -12.5t-14.5 -33.5t11 -31.5t33 -10.5q10 0 18.5 3.5t14.5 9.5q0 -39 -17.5 -71t-60.5 -63z" />
    <glyph glyph-name="quotedblleft" unicode="&#x201c;" horiz-adv-x="556" 
d="M176 479q22 0 36.5 12.5t14.5 33.5t-11 31.5t-33 10.5q-10 0 -18 -3t-15 -10q0 39 17.5 71t60.5 63l-20 20q-46 -33 -69 -73t-23 -80q0 -38 15 -57t45 -19zM388 479q22 0 36.5 12.5t14.5 33.5t-11 31.5t-33 10.5q-10 0 -18 -3t-15 -10q0 39 17.5 71t60.5 63l-20 20
q-46 -33 -69 -73t-23 -80q0 -38 15 -57t45 -19z" />
    <glyph glyph-name="quotedblright" unicode="&#x201d;" horiz-adv-x="556" 
d="M353 487q47 33 69.5 73t22.5 80q0 38 -15 57t-45 19q-22 0 -36.5 -12.5t-14.5 -33.5t11 -31.5t33 -10.5q10 0 18.5 3.5t14.5 9.5q0 -39 -17.5 -71t-60.5 -63zM141 487q47 33 69.5 73t22.5 80q0 38 -15 57t-45 19q-22 0 -36.5 -12.5t-14.5 -33.5t11 -31.5t33 -10.5
q10 0 18.5 3.5t14.5 9.5q0 -39 -17.5 -71t-60.5 -63z" />
    <glyph glyph-name="quotesinglbase" unicode="&#x201a;" horiz-adv-x="344" 
d="M103 -144q59 22 92.5 65t33.5 87q0 33 -15 52t-41 19q-22 0 -36.5 -13t-14.5 -34q0 -22 13 -31.5t32 -9.5q7 0 13 2t12 6q-4 -38 -33 -70.5t-70 -48.5z" />
    <glyph glyph-name="quotedblbase" unicode="&#x201e;" horiz-adv-x="565" 
d="M353 -150q47 33 69.5 73t22.5 80q0 38 -15 57t-45 19q-22 0 -36.5 -12.5t-14.5 -33.5t11 -31.5t33 -10.5q10 0 18.5 3t14.5 10q0 -39 -17.5 -71t-60.5 -63zM141 -150q47 33 69.5 73t22.5 80q0 38 -15 57t-45 19q-22 0 -36.5 -12.5t-14.5 -33.5t11 -31.5t33 -10.5
q10 0 18.5 3t14.5 10q0 -39 -17.5 -71t-60.5 -63z" />
    <glyph glyph-name="uni201B" unicode="&#x201b;" horiz-adv-x="344" 
d="M221 507q-42 30 -59.5 61t-18.5 76q7 -8 15.5 -12t18.5 -4q20 0 32.5 12t12.5 33t-13 32t-35 11q-30 0 -46.5 -21t-16.5 -54q0 -43 22 -82t68 -72z" />
    <glyph glyph-name="uni201F" unicode="&#x201f;" horiz-adv-x="556" 
d="M433 507q-42 30 -59.5 61t-18.5 76q7 -8 15.5 -12t18.5 -4q20 0 32.5 12t12.5 33t-13 32t-35 11q-30 0 -46.5 -21t-16.5 -54q0 -43 22 -82t68 -72zM221 507q-42 30 -59.5 61t-18.5 76q7 -8 15.5 -12t18.5 -4q20 0 32.5 12t12.5 33t-13 32t-35 11q-30 0 -46.5 -21
t-16.5 -54q0 -43 22 -82t68 -72z" />
    <glyph glyph-name="guilsinglleft" unicode="&#x2039;" horiz-adv-x="484" 
d="M386 51l-257 244l250 250h-44l-246 -242v-16l250 -236h47z" />
    <glyph glyph-name="guilsinglright" unicode="&#x203a;" horiz-adv-x="484" 
d="M144 51l250 245v16l-241 233h-46l250 -241l-261 -253h48z" />
    <glyph glyph-name="guillemotleft" unicode="&#xab;" horiz-adv-x="800" 
d="M386 51l-260 245l252 249h-46l-245 -242v-16l253 -236h46zM705 51l-261 246l251 248h-45l-246 -241v-15l255 -238h46z" />
    <glyph glyph-name="guillemotright" unicode="&#xbb;" horiz-adv-x="800" 
d="M460 51l253 236v16l-245 242h-46l251 -248l-259 -246h46zM141 51l255 238v15l-246 241h-45l252 -248l-262 -246h46z" />
    <glyph glyph-name="guilsinglleft.cap" horiz-adv-x="484" 
d="M386 108l-257 244l250 250h-44l-246 -242v-16l250 -236h47z" />
    <glyph glyph-name="guilsinglright.cap" horiz-adv-x="484" 
d="M144 108l250 245v16l-241 233h-46l250 -241l-261 -253h48z" />
    <glyph glyph-name="guillemotleft.cap" horiz-adv-x="800" 
d="M386 108l-260 245l252 249h-46l-245 -242v-16l253 -236h46zM705 108l-261 246l251 248h-45l-246 -241v-15l255 -238h46z" />
    <glyph glyph-name="guillemotright.cap" horiz-adv-x="800" 
d="M460 108l253 236v16l-245 242h-46l251 -248l-259 -246h46zM141 108l255 238v15l-246 241h-45l252 -248l-262 -246h46z" />
    <glyph glyph-name="slash" unicode="/" horiz-adv-x="343" 
d="M64 0l253 706h-36l-253 -706h36z" />
    <glyph glyph-name="backslash" unicode="\" horiz-adv-x="343" 
d="M25 706l253 -706h36l-253 706h-36z" />
    <glyph glyph-name="bar" unicode="|" horiz-adv-x="307" 
d="M171 -181v931h-35v-931h35z" />
    <glyph glyph-name="uni2016" unicode="&#x2016;" horiz-adv-x="592" 
d="M171 -181v931h-35v-931h35zM456 -181v931h-35v-931h35z" />
    <glyph glyph-name="brokenbar" unicode="&#xa6;" horiz-adv-x="307" 
d="M136 384h35v366h-35v-366zM136 233v-414h35v414h-35z" />
    <glyph glyph-name="bullet" unicode="&#x2022;" horiz-adv-x="353" 
d="M176 231q29 0 43 14.5t14 43.5q0 31 -14.5 44t-42.5 13q-27 0 -42.5 -14t-15.5 -43t14.5 -43.5t43.5 -14.5z" />
    <glyph glyph-name="slash.cap" horiz-adv-x="343" 
d="M64 0l253 706h-36l-253 -706h36z" />
    <glyph glyph-name="backslash.cap" horiz-adv-x="343" 
d="M25 706l253 -706h36l-253 706h-36z" />
    <glyph glyph-name="bar.cap" horiz-adv-x="307" 
d="M171 -181v931h-35v-931h35z" />
    <glyph glyph-name="uni2016.cap" horiz-adv-x="592" 
d="M171 -181v931h-35v-931h35zM456 -181v931h-35v-931h35z" />
    <glyph glyph-name="brokenbar.cap" horiz-adv-x="307" 
d="M136 384h35v366h-35v-366zM171 233h-35v-414h35v414z" />
    <glyph glyph-name="bullet.cap" horiz-adv-x="353" 
d="M176 169q29 0 43 14.5t14 43.5q0 31 -14.5 44t-42.5 13q-27 0 -42.5 -14t-15.5 -43t14.5 -43.5t43.5 -14.5z" />
    <glyph glyph-name="periodcentered" unicode="&#xb7;" horiz-adv-x="331" 
d="M166 282q22 0 36 11t14 34t-12 37t-37 14t-38 -13t-13 -36q0 -25 14 -36t36 -11z" />
    <glyph glyph-name="hyphen" unicode="-" horiz-adv-x="774" 
d="M675 345h-574v-32h574v32z" />
    <glyph glyph-name="uni00AD" unicode="&#xad;" horiz-adv-x="774" 
d="M675 345h-574v-32h574v32z" />
    <glyph glyph-name="onethirdemdash" horiz-adv-x="592" 
d="M491 345h-390v-32h390v32z" />
    <glyph glyph-name="endash" unicode="&#x2013;" horiz-adv-x="687" 
d="M586 345h-485v-32h485v32z" />
    <glyph glyph-name="threequarteremdash" horiz-adv-x="819" 
d="M718 345h-617v-32h617v32z" />
    <glyph glyph-name="emdash" unicode="&#x2014;" horiz-adv-x="952" 
d="M851 345h-750v-32h750v32z" />
    <glyph glyph-name="figuredash" unicode="&#x2012;" horiz-adv-x="917" 
d="M816 345h-715v-32h715v32z" />
    <glyph glyph-name="uni2015" unicode="&#x2015;" horiz-adv-x="1342" 
d="M1241 345h-1140v-32h1140v32z" />
    <glyph glyph-name="periodcentered.cap" horiz-adv-x="331" 
d="M166 300q22 0 36 10.5t14 34.5q0 23 -12 37t-37 14t-38 -13.5t-13 -36.5q0 -25 14 -35.5t36 -10.5z" />
    <glyph glyph-name="hyphen.cap" horiz-adv-x="774" 
d="M675 363h-574v-32h574v32z" />
    <glyph glyph-name="onethirdemdash.cap" horiz-adv-x="774" 
d="M675 363h-574v-32h574v32z" />
    <glyph glyph-name="endash.cap" horiz-adv-x="592" 
d="M491 363h-390v-32h390v32z" />
    <glyph glyph-name="threequarteremdash.cap" horiz-adv-x="687" 
d="M586 363h-485v-32h485v32z" />
    <glyph glyph-name="emdash.cap" horiz-adv-x="819" 
d="M718 363h-617v-32h617v32z" />
    <glyph glyph-name="figuredash.cap" horiz-adv-x="952" 
d="M851 363h-750v-32h750v32z" />
    <glyph glyph-name="uni2015.cap" horiz-adv-x="917" 
d="M816 363h-715v-32h715v32z" />
    <glyph glyph-name="periodcentered.smcp" horiz-adv-x="1342" 
d="M1241 363h-1140v-32h1140v32z" />
    <glyph glyph-name="parenleft" unicode="(" horiz-adv-x="563" 
d="M478 -231v34q-60 11 -117.5 42.5t-103.5 85.5q-47 55 -74.5 135.5t-27.5 189.5q0 110 27.5 189.5t73.5 133.5q46 53 103.5 85t118.5 46v36q-67 -16 -131 -51.5t-115 -94.5q-51 -58 -81 -143.5t-30 -200.5t28.5 -200.5t78.5 -144.5t114.5 -94t135.5 -48z" />
    <glyph glyph-name="parenright" unicode=")" horiz-adv-x="563" 
d="M85 -231q71 13 135.5 48.5t114.5 94.5q50 60 78.5 145t28.5 199q0 115 -30 200.5t-81 143.5q-51 59 -115 94.5t-131 51.5v-36q61 -14 118.5 -46t103.5 -85q46 -54 73.5 -133.5t27.5 -189.5q0 -109 -27.5 -189.5t-74.5 -135.5q-46 -54 -103.5 -85.5t-117.5 -42.5v-34z" />
    <glyph glyph-name="bracketleft" unicode="[" horiz-adv-x="520" 
d="M435 -195h-246v905h246v34h-281v-973h281v34z" />
    <glyph glyph-name="bracketright" unicode="]" horiz-adv-x="520" 
d="M366 -229v971h-281v-33h245v-904h-245v-34h281z" />
    <glyph glyph-name="braceleft" unicode="{" horiz-adv-x="521" 
d="M436 -228v34h-109q-78 0 -107 29t-29 75q0 16 10 49.5l23 74.5q12 40 22 78t10 63q0 35 -22.5 63.5t-75.5 36.5q47 7 68.5 31t21.5 68q0 24 -7 56.5t-16 66.5q-10 34 -17 62.5t-7 43.5q0 52 27.5 79t107.5 27h100v34h-100q-65 0 -102 -18.5t-53 -50.5q-7 -16 -11 -33.5
t-4 -37.5q0 -18 7.5 -47.5t17.5 -63.5q9 -34 16.5 -65.5t7.5 -52.5q0 -37 -20 -59.5t-72 -22.5h-89v-33h89q48 0 73.5 -23t25.5 -61q0 -21 -10 -57t-23 -77t-23 -76.5t-10 -54.5q0 -38 13 -69.5t50 -49.5q18 -10 44.5 -14.5t61.5 -4.5h111z" />
    <glyph glyph-name="braceright" unicode="}" horiz-adv-x="521" 
d="M196 -228q70 0 106.5 18.5t49.5 50.5q6 15 9.5 32.5t3.5 36.5t-10 54.5t-23 76.5t-23 77t-10 57q0 38 25.5 61t73.5 23h89v33h-89q-52 0 -72 22.5t-20 59.5q0 21 7.5 52.5t17.5 65.5l16.5 63.5t7.5 47.5q0 40 -15.5 71.5t-52.5 49.5q-18 10 -43.5 14.5t-58.5 4.5h-100
v-34h100q80 0 107.5 -27t27.5 -79q0 -15 -7 -43.5l-16 -62.5q-10 -34 -17 -66.5t-7 -56.5q0 -43 20.5 -67.5t66.5 -31.5q-51 -9 -73 -37t-22 -63q0 -25 10 -63t23 -78l22 -74.5t10 -49.5q0 -46 -29 -75t-107 -29h-109v-34h111z" />
    <glyph glyph-name="uni3008" unicode="&#x3008;" horiz-adv-x="564" 
d="M476 -222l-333 489l335 490h-40l-335 -490l332 -489h41z" />
    <glyph glyph-name="uni3009" unicode="&#x3009;" horiz-adv-x="564" 
d="M128 -222l333 489l-336 490h-39l335 -490l-333 -489h40z" />
    <glyph glyph-name="parenleft.cap" horiz-adv-x="563" 
d="M478 -174v34q-60 11 -117.5 42.5t-103.5 85.5q-47 55 -74.5 135.5t-27.5 189.5q0 110 27.5 189.5t73.5 133.5q46 53 103.5 85t118.5 46v36q-67 -16 -131 -51.5t-115 -94.5q-51 -58 -81 -143.5t-30 -200.5t28.5 -200.5t78.5 -144.5t114.5 -94t135.5 -48z" />
    <glyph glyph-name="parenright.cap" horiz-adv-x="563" 
d="M85 -174q71 13 135.5 48.5t114.5 94.5q50 60 78.5 145t28.5 199q0 115 -30 200.5t-81 143.5q-51 59 -115 94.5t-131 51.5v-36q61 -14 118.5 -46t103.5 -85q46 -54 73.5 -133.5t27.5 -189.5q0 -109 -27.5 -189.5t-74.5 -135.5q-46 -54 -103.5 -85.5t-117.5 -42.5v-34z" />
    <glyph glyph-name="bracketleft.cap" horiz-adv-x="520" 
d="M435 -138h-246v905h246v34h-281v-973h281v34z" />
    <glyph glyph-name="bracketright.cap" horiz-adv-x="520" 
d="M366 -172v971h-281v-33h245v-904h-245v-34h281z" />
    <glyph glyph-name="braceleft.cap" horiz-adv-x="521" 
d="M436 -171v34h-109q-78 0 -107 29t-29 75q0 16 10 49.5l23 74.5q12 40 22 78t10 63q0 35 -22.5 63.5t-75.5 36.5q47 7 68.5 31t21.5 68q0 24 -7 56.5t-16 66.5q-10 34 -17 62.5t-7 43.5q0 52 27.5 79t107.5 27h100v34h-100q-65 0 -102 -18.5t-53 -50.5q-7 -16 -11 -33.5
t-4 -37.5q0 -18 7.5 -47.5t17.5 -63.5q9 -34 16.5 -65.5t7.5 -52.5q0 -37 -20 -59.5t-72 -22.5h-89v-33h89q48 0 73.5 -23t25.5 -61q0 -21 -10 -57t-23 -77t-23 -76.5t-10 -54.5q0 -38 13 -69.5t50 -49.5q18 -10 44.5 -14.5t61.5 -4.5h111z" />
    <glyph glyph-name="braceright.cap" horiz-adv-x="521" 
d="M196 -171q70 0 106.5 18.5t49.5 50.5q6 15 9.5 32.5t3.5 36.5t-10 54.5t-23 76.5t-23 77t-10 57q0 38 25.5 61t73.5 23h89v33h-89q-52 0 -72 22.5t-20 59.5q0 21 7.5 52.5t17.5 65.5l16.5 63.5t7.5 47.5q0 40 -15.5 71.5t-52.5 49.5q-18 10 -43.5 14.5t-58.5 4.5h-100
v-34h100q80 0 107.5 -27t27.5 -79q0 -15 -7 -43.5l-16 -62.5q-10 -34 -17 -66.5t-7 -56.5q0 -43 20.5 -67.5t66.5 -31.5q-51 -9 -73 -37t-22 -63q0 -25 10 -63t23 -78l22 -74.5t10 -49.5q0 -46 -29 -75t-107 -29h-109v-34h111z" />
    <glyph glyph-name="anglebracketleft.cap" horiz-adv-x="564" 
d="M476 -165l-333 489l335 490h-40l-335 -490l332 -489h41z" />
    <glyph glyph-name="anglebracketright.cap" horiz-adv-x="564" 
d="M128 -165l333 489l-336 490h-39l335 -490l-333 -489h40z" />
    <glyph glyph-name="asterisk" unicode="*" horiz-adv-x="494" 
d="M390 447l16 28l-145 74l145 71l-16 29l-136 -88l10 162h-33l8 -161l-134 87l-16 -28l144 -72l-145 -72l17 -29l134 89l-8 -161h33l-10 162z" />
    <glyph glyph-name="dagger" unicode="&#x2020;" horiz-adv-x="717" 
d="M630 475v32h-254v199h-35v-199h-254v-32h254v-475h35v475h254z" />
    <glyph glyph-name="daggerdbl" unicode="&#x2021;" horiz-adv-x="717" 
d="M630 201v32h-254v242h254v32h-254v199h-35v-199h-254v-32h254v-242h-254v-32h254v-201h35v201h254z" />
    <glyph glyph-name="section" unicode="&#xa7;" horiz-adv-x="976" 
d="M476 242q-63 6 -123 14t-108 22t-76.5 37.5t-28.5 62.5q0 32 17 60t54 51q28 -23 72.5 -36t97.5 -20l54 -6l55 -6l116.5 -12t101.5 -18t72 -33.5t27 -57.5q0 -27 -14.5 -57t-46.5 -57q-48 25 -120.5 36.5t-149.5 19.5zM495 -84q117 0 186.5 26t99.5 66q16 20 23.5 41
t7.5 42q0 32 -16 53.5t-44 37.5q40 23 64 53.5t24 64.5q0 42 -26.5 68.5t-72.5 41.5q-45 15 -101.5 23t-115.5 14q-59 5 -115.5 11.5t-101.5 18.5q-46 11 -72.5 32.5t-26.5 56.5q0 57 59.5 96.5t188.5 39.5q125 0 207.5 -37.5t115.5 -128.5h34q-35 105 -126 151t-233 46
q-137 0 -209 -47.5t-72 -118.5q0 -24 9.5 -43t25.5 -33q-52 -18 -77.5 -48.5t-25.5 -66.5q0 -46 28.5 -75t77.5 -46q48 -17 108 -26.5t123 -15.5t123.5 -13t108.5 -19t76.5 -33t28.5 -57q0 -33 -26.5 -65.5t-88.5 -54.5q-31 -11 -73 -16.5t-96 -5.5q-53 0 -105.5 7t-98.5 27
q-45 20 -78 56.5t-46 94.5h-36q13 -65 47.5 -107.5t84.5 -66.5q49 -24 109 -34t123 -10z" />
    <glyph glyph-name="paragraph" unicode="&#xb6;" horiz-adv-x="821" 
d="M385 213q-145 -1 -215.5 56t-70.5 173q0 70 29.5 121.5t94.5 80.5q33 15 76 22t97 7h76v-460h-87zM507 0v673h150v-673h35v706h-296q-115 0 -188.5 -33.5t-108.5 -92.5q-17 -30 -26 -64.5t-9 -73.5q0 -127 78 -194.5t244 -66.5h86v-181h35z" />
    <glyph glyph-name="asciicircum" unicode="^" horiz-adv-x="586" 
d="M428 459h43l-164 247h-37l-159 -247h43l136 215z" />
    <glyph glyph-name="asciitilde" unicode="~" horiz-adv-x="586" 
d="M53 462h34q0 48 23 75.5t64 27.5q33 0 59.5 -16t51.5 -36q26 -21 56 -37t70 -16q56 0 84 38t28 101h-32q0 -50 -22 -78.5t-58 -28.5q-34 0 -61 16t-52 37q-25 20 -54.5 36t-69.5 16q-57 0 -89 -36.5t-32 -98.5z" />
    <glyph glyph-name="underscore" horiz-adv-x="800" 
d="M740 32h-679v-32h679v32z" />
    <glyph glyph-name="uni005F" unicode="_" horiz-adv-x="800" 
d="M740 -100h-679v-32h679v32z" />
    <glyph glyph-name="quotesingle" unicode="'" horiz-adv-x="168" 
d="M71 476h27q1 13 2 37t1 51q1 14 1 26v22v94h-36v-94q0 -21 1 -48t2 -51q0 -12 1 -21t1 -16z" />
    <glyph glyph-name="quotedbl" unicode="&#x22;" horiz-adv-x="297" 
d="M72 476h25q2 20 3.5 58t1.5 70v102h-36v-102q0 -31 2.5 -69.5t3.5 -58.5zM202 476h24q2 20 3.5 58t1.5 70v102h-36v-102q0 -31 3 -69.5t4 -58.5z" />
    <glyph glyph-name="uni2034" unicode="&#x2034;" horiz-adv-x="426" 
d="M70 706v-92q0 -16 0.5 -43.5t1.5 -54.5q1 -14 1.5 -23.5t0.5 -16.5h21q1 13 1.5 39.5t1.5 54.5v25v19v92h-28zM199 706v-92q0 -16 0.5 -43.5t1.5 -54.5q1 -14 1.5 -23.5t0.5 -16.5h21q1 13 1.5 39.5t1.5 54.5v25v19v92h-28zM328 706v-92q0 -16 0.5 -43.5t1.5 -54.5
q1 -14 1.5 -23.5t0.5 -16.5h21q1 13 1.5 39.5t1.5 54.5v25v19v92h-28z" />
    <glyph glyph-name="at" unicode="@" horiz-adv-x="1115" 
d="M563 -94q106 0 193.5 31.5t142.5 87.5l-21 22q-55 -56 -136 -83t-179 -27q-91 0 -170 22.5t-138 67.5q-60 45 -93 113.5t-33 160.5q0 89 32 162.5t92 126.5q59 53 140.5 82t180.5 29q108 0 186 -26.5t128 -72.5q50 -47 73.5 -106.5t23.5 -125.5q0 -74 -33.5 -123.5
t-105.5 -49.5q-49 0 -74 22.5t-25 66.5v194h-25l-2 -83q-19 40 -63 63.5t-112 23.5q-107 0 -156 -45.5t-49 -119.5q0 -76 46.5 -118t145.5 -42q77 0 125 27t66 70q6 -42 35.5 -65.5t87.5 -23.5q50 0 88.5 26t60.5 71q11 23 16.5 49.5t5.5 56.5q0 71 -26.5 135.5t-81.5 116.5
q-54 51 -137.5 80.5t-197.5 29.5q-105 0 -192.5 -32t-150.5 -89q-64 -58 -99 -137t-35 -173q0 -103 37.5 -177.5t102.5 -122.5t149 -71.5t177 -23.5zM532 191q-81 0 -120.5 33t-39.5 95q0 68 43 101.5t128 33.5q80 0 128.5 -30.5t48.5 -101.5q0 -66 -52 -98.5t-136 -32.5z
" />
    <glyph glyph-name="at.cap" horiz-adv-x="1115" 
d="M563 -64q106 0 193.5 31.5t142.5 87.5l-21 22q-55 -55 -136 -82.5t-179 -27.5q-91 0 -170 22.5t-138 67.5q-60 45 -93 113.5t-33 160.5q0 89 32 162.5t92 126.5q59 53 140.5 82t180.5 29q108 0 186 -26.5t128 -72.5q50 -47 73.5 -106.5t23.5 -125.5q0 -74 -33.5 -123.5
t-105.5 -49.5q-49 0 -74 22.5t-25 66.5v194h-25l-2 -83q-19 40 -63 63.5t-112 23.5q-107 0 -156 -45.5t-49 -119.5q0 -76 46.5 -118t145.5 -42q77 0 125 27t66 70q6 -42 35.5 -65.5t87.5 -23.5q50 0 88.5 26t60.5 71q11 23 16.5 49.5t5.5 56.5q0 71 -26.5 135.5t-81.5 116.5
q-54 51 -137.5 80.5t-197.5 29.5q-105 0 -192.5 -32t-150.5 -89q-64 -58 -99 -137t-35 -173q0 -103 37.5 -177.5t102.5 -122.5t149 -71.5t177 -23.5zM532 221q-81 0 -120.5 33t-39.5 95q0 68 43 101.5t128 33.5q80 0 128.5 -30.5t48.5 -101.5q0 -66 -52 -98.5t-136 -32.5z
" />
    <glyph glyph-name="copyright" unicode="&#xa9;" horiz-adv-x="1077" 
d="M540 -18q98 0 183 21t149 65t100 112.5t36 164.5t-37.5 166.5t-102.5 116.5t-150 68.5t-181 22.5q-100 0 -185.5 -24.5t-148.5 -72.5q-64 -48 -99 -117.5t-35 -159.5q0 -97 35 -166.5t99 -112.5q63 -43 149 -63.5t188 -20.5zM540 16q-127 0 -225 33.5t-154 105.5
q-28 36 -42 83.5t-14 106.5q0 113 56 189t154 114q49 19 104.5 28.5t117.5 9.5q92 0 171 -20t138 -62t92.5 -106t33.5 -153q0 -87 -33 -149.5t-91 -102.5q-59 -40 -137.5 -58.5t-170.5 -18.5zM772 324h-34q-10 -50 -57.5 -74.5t-138.5 -24.5t-144 30t-53 94q0 45 27 73.5
t72 42.5q23 7 48.5 10.5t53.5 3.5q84 0 130.5 -22t59.5 -70h34q-15 61 -71 91.5t-153 30.5q-65 0 -118 -18t-84 -54q-15 -18 -23 -40t-8 -48q0 -76 61.5 -115t167.5 -39q103 0 160.5 32.5t69.5 96.5z" />
    <glyph glyph-name="registered" unicode="&#xae;" horiz-adv-x="611" 
d="M305 298q59 0 107.5 24t78.5 70q14 23 21.5 51.5t7.5 61.5v2q0 66 -29.5 113t-78.5 73q-24 12 -51 18.5t-57 6.5q-60 0 -108 -26t-77 -74q-14 -23 -21 -51t-7 -60v-2q0 -65 27.5 -111.5t76.5 -70.5q24 -13 51.5 -19t58.5 -6zM305 322q-54 0 -97 21.5t-67 62.5
q-13 21 -19 45.5t-6 53.5v2q0 56 24.5 98.5t67.5 65.5q21 12 45 18t51 6q54 0 97 -22.5t69 -65.5q12 -21 18.5 -46t6.5 -55v-1q0 -58 -25 -99t-68 -63q-22 -10 -46 -15.5t-51 -5.5zM310 513h-55v82h59q27 0 40 -9t13 -27q0 -22 -12 -34.5t-45 -11.5zM310 491q35 0 43 -10
t8 -31v-30q0 -5 1.5 -8.5t3.5 -5.5h31q-2 2 -5.5 6.5t-3.5 9.5v28q0 26 -8 37.5t-29 14.5q22 5 32.5 19.5t10.5 37.5q0 25 -18.5 42t-62.5 17h-85v-212h27v85h55z" />
    <glyph glyph-name="registered.cap" horiz-adv-x="1077" 
d="M540 -18q98 0 183 21t149 65t100 112.5t36 164.5t-37.5 166.5t-102.5 116.5t-150 68.5t-181 22.5q-100 0 -185.5 -24.5t-148.5 -72.5q-64 -48 -99 -117.5t-35 -159.5q0 -97 35 -166.5t99 -112.5q63 -43 149 -63.5t188 -20.5zM540 15q-127 0 -225.5 33.5t-154.5 106.5
q-28 36 -42 83.5t-14 106.5q0 113 56.5 189t154.5 115q49 19 104.5 28.5t117.5 9.5q92 0 171 -20.5t139 -61.5q59 -42 92.5 -106.5t33.5 -153.5q0 -87 -33 -150t-92 -102q-59 -40 -137.5 -59t-170.5 -19zM581 347h-175v127h181q59 0 86 -14t27 -46q0 -35 -28 -51.5
t-91 -15.5zM580 316q43 0 66.5 -3.5t33.5 -18.5q4 -7 6.5 -19t2.5 -29v-40q0 -2 1 -3.5t2 -1.5h36q-2 1 -3 2.5t-1 2.5v40q0 41 -14.5 60.5t-50.5 26.5q40 8 58 28.5t18 52.5q0 43 -37 66t-111 23h-214v-302h33v115h174z" />
    <glyph glyph-name="uni2117" unicode="&#x2117;" horiz-adv-x="1077" 
d="M540 -18q98 0 183 21t149 65t100 112.5t36 164.5t-37.5 166.5t-102.5 116.5t-150 68.5t-181 22.5q-100 0 -185.5 -24.5t-148.5 -72.5q-64 -48 -99 -117.5t-35 -159.5q0 -97 35 -166.5t99 -112.5q63 -43 149 -63.5t188 -20.5zM540 15q-127 0 -225.5 33.5t-154.5 106.5
q-28 36 -42 83.5t-14 106.5q0 113 56.5 189t154.5 115q49 19 104.5 28.5t117.5 9.5q92 0 171 -20.5t139 -61.5q59 -42 92.5 -106.5t33.5 -153.5q0 -87 -33 -150t-92 -102q-59 -40 -137.5 -59t-170.5 -19zM614 296q81 0 113 32t32 75t-34 71.5t-108 28.5h-220v-302h34v95h183
zM611 327h-180v147h186q59 0 83 -19.5t24 -51.5q0 -35 -25 -56t-88 -20z" />
    <glyph glyph-name="trademark" unicode="&#x2122;" horiz-adv-x="834" 
d="M301 679v27h-278v-27h122v-277h30v277h126zM560 534h19l135 131v-263h30v304h-27l-147 -143l-149 143h-27v-304h30v264z" />
    <glyph glyph-name="uni2120" unicode="&#x2120;" horiz-adv-x="883" 
d="M609 534h19l135 131v-263h30v304h-27l-147 -143l-149 143h-27v-304h30v264zM192 392q68 0 101.5 25.5t33.5 62.5q0 36 -17 54.5t-47 25.5q-15 4 -32.5 6.5t-37.5 3.5q-58 3 -86.5 13.5t-28.5 45.5q0 28 24.5 44.5t73.5 16.5q57 0 84.5 -21t34.5 -55h31q-11 47 -46 75.5
t-104 28.5q-63 0 -96 -25.5t-33 -63.5q0 -49 35 -66t90 -20q36 -2 64 -5t45 -15q8 -6 12 -17t4 -26q0 -26 -24.5 -43.5t-80.5 -17.5q-61 0 -93 21.5t-38 64.5h-31q8 -53 44.5 -83t117.5 -30z" />
    <glyph glyph-name="Euro" unicode="&#x20ac;" horiz-adv-x="1002" 
d="M936 240h-35q-15 -58 -59.5 -109.5t-120.5 -83.5q-38 -16 -84.5 -24t-101.5 -8q-142 0 -234 51t-129 142h362l13 32h-386q-6 22 -9.5 47.5t-3.5 54.5q0 34 5.5 65t15.5 59h453l11 32h-451q44 89 137.5 138.5t221.5 49.5q146 0 236.5 -56t118.5 -158h35q-18 80 -74 135
t-138 84q-41 14 -85.5 21t-92.5 7q-142 0 -246 -59t-151 -162h-153v-32h141q-10 -29 -15 -60t-5 -64q0 -27 3 -52.5t9 -49.5h-133v-32h143q38 -107 140.5 -166.5t260.5 -59.5q114 0 197.5 34t135.5 93q25 29 42.5 62t25.5 69z" />
    <glyph glyph-name="dollar" unicode="$" horiz-adv-x="882" 
d="M129 518q0 80 68 123.5t229 43.5h9v-313q-152 12 -229 43.5t-77 102.5zM779 181q0 -34 -14 -64.5t-48 -53.5t-94.5 -36t-153.5 -13v324q105 -8 174 -22t102 -45q17 -16 25.5 -38.5t8.5 -51.5zM469 -112v93q131 0 206 26t106 72q16 22 24 48t8 55q0 69 -37.5 106.5
t-114.5 55.5q-38 9 -86 15.5t-106 10.5v314q133 -7 210.5 -57t87.5 -137h35q-13 97 -97 158t-236 69v102h-34v-101h-8q-121 0 -194 -25.5t-105 -70.5q-17 -23 -25 -49t-8 -55q0 -60 39.5 -96t115.5 -54q38 -10 84.5 -16.5t100.5 -10.5v-327q-163 5 -246 61.5t-96 172.5h-37
q11 -125 102.5 -193.5t276.5 -73.5v-93h34z" />
    <glyph glyph-name="cent" unicode="&#xa2;" horiz-adv-x="881" 
d="M802 224h-34q-33 -112 -116 -160.5t-202 -48.5q-163 0 -254.5 65.5t-91.5 202.5q0 72 27 124t75 86q48 33 110 49.5t132 16.5q78 0 144 -23.5t112 -71.5q23 -24 38.5 -54t23.5 -67h34q-16 79 -63.5 133.5t-118.5 82.5q-35 15 -74.5 22.5t-82.5 8.5v156h-36v-156
q-98 -4 -179 -39t-129 -102q-24 -34 -36 -75t-12 -91q0 -142 93.5 -219t262.5 -82v-161h36v161q79 1 149 26t121 77q25 27 43 61.5t28 77.5z" />
    <glyph glyph-name="sterling" unicode="&#xa3;" horiz-adv-x="926" 
d="M186 18q-59 0 -85.5 23.5t-26.5 55.5q0 34 27 57t76 23q40 0 80 -14.5t80 -35.5q-12 -49 -52 -79t-99 -30zM669 -10q105 0 153 47.5t48 162.5v28h-33v-21q0 -70 -16.5 -111t-53.5 -59q-18 -8 -42 -12.5t-54 -4.5q-52 0 -102 20t-100 48q-24 15 -49 29l-50 27q1 6 1 11.5
v10.5q0 59 -23.5 105t-55.5 90h225v31h-246q-25 34 -45 72t-20 87q0 76 59.5 126t178.5 50q111 0 177 -50t83 -129h34q-22 91 -95 149t-201 58q-130 0 -199 -57.5t-69 -148.5q0 -50 19 -87t42 -70h-161v-31h183q35 -47 60 -92.5t25 -102.5v-7q-40 20 -81 33.5t-84 13.5
q-67 0 -102 -31t-35 -78q0 -46 32.5 -77t113.5 -31q71 0 116 36t61 88l98.5 -55.5t101.5 -48.5q26 -9 52.5 -14t53.5 -5z" />
    <glyph glyph-name="uni0192" unicode="&#x192;" horiz-adv-x="833" 
d="M433 105v149h274v32h-274v150q0 65 8.5 105t29.5 60q20 21 57.5 28.5t94.5 7.5h76v29h-76q-66 0 -109 -9t-68 -33q-24 -24 -34.5 -69.5t-10.5 -119.5v-149h-245v-32h245v-150q0 -65 -8.5 -105t-29.5 -60q-20 -21 -57.5 -28.5t-94.5 -7.5h-76v-29h76q66 0 109 9t68 33
q24 24 34.5 70t10.5 119z" />
    <glyph glyph-name="yen" unicode="&#xa5;" horiz-adv-x="817" 
d="M684 176v33h-267v141h267v33h-267l362 323h-47l-331 -292l-308 292h-47l336 -323h-240v-33h240v-141h-240v-33h240v-176h35v176h267z" />
    <glyph glyph-name="uni20A1" unicode="&#x20a1;" horiz-adv-x="968" 
d="M442 18q-55 5 -101 18t-83 35l259 615q56 -1 104 -10.5t88 -26.5zM115 342q0 102 45.5 177.5t127.5 118.5q41 21 89.5 33t103.5 14l-252 -595q-57 43 -85.5 106t-28.5 146zM388 -117h36l40 100q10 -1 19 -1h19q114 0 197.5 34t135.5 93q25 29 42.5 62t25.5 69h-35
q-15 -58 -59.5 -109.5t-120.5 -83.5q-38 -16 -84.5 -24t-101.5 -8h-24l259 619q49 -27 80.5 -67.5t45.5 -94.5h35q-15 64 -54 112t-95 79l70 160h-35l-63 -146q-42 19 -89.5 29.5t-100.5 12.5l43 104h-36l-43 -104q-123 -2 -216.5 -50t-146.5 -132q-27 -42 -40 -90.5
t-13 -104.5q0 -94 35 -165.5t101 -118.5l-76 -175h37l68 157q38 -22 84.5 -35.5t100.5 -18.5z" />
    <glyph glyph-name="uni20A2" unicode="&#x20a2;" horiz-adv-x="968" 
d="M903 240h-35q-15 -58 -59.5 -109.5t-120.5 -83.5q-38 -16 -84.5 -24t-101.5 -8h-12v134q0 92 41.5 141t146.5 49h26v32h-25q-73 0 -119.5 -25t-69.5 -69l-1 94h-31v-355q-167 11 -255 97t-88 229q0 106 49 183t138 119q44 21 95.5 31.5t110.5 10.5q146 0 236.5 -56
t118.5 -158h35q-18 80 -74 135t-138 84q-41 14 -85.5 21t-92.5 7q-126 0 -223 -47t-151 -132q-28 -42 -41.5 -91.5t-13.5 -106.5q0 -112 49.5 -192.5t144.5 -124.5q47 -21 104.5 -32t124.5 -11q114 0 197.5 34t135.5 93q25 29 42.5 62t25.5 69z" />
    <glyph glyph-name="franc" unicode="&#x20a3;" horiz-adv-x="807" 
d="M645 209v33h-482v182h482v33h-482v215h600v34h-635v-706h35v209h482z" />
    <glyph glyph-name="lira" unicode="&#x20a4;" horiz-adv-x="926" 
d="M186 18q-59 0 -84.5 24t-25.5 56q0 34 25.5 56.5t74.5 22.5q42 0 82 -16t80 -39q-14 -47 -54.5 -75.5t-97.5 -28.5zM669 -10q103 0 152 48t49 163v27h-30v-21q0 -106 -40 -146.5t-129 -40.5q-59 0 -110.5 18.5t-98.5 46.5l-46 27.5l-46 26.5q2 8 2.5 15.5t0.5 14.5
q0 38 -14 71t-35 64h215v31h-237l-44 60t-36 62h317v31h-329q-3 11 -4.5 23t-1.5 24q0 95 60 144t172 49q111 0 173 -48.5t79 -127.5h33q-22 91 -92 147t-194 56q-123 0 -192.5 -58t-69.5 -162q0 -12 1.5 -24t4.5 -23h-113v-31h123q14 -33 35.5 -63l43.5 -59h-202v-31h225
q23 -31 38.5 -64.5t15.5 -71.5v-7.5t-1 -6.5q-40 22 -81.5 37t-86.5 15q-67 0 -100.5 -30.5t-33.5 -77.5q0 -46 31.5 -77.5t112.5 -31.5q68 0 113.5 35t62.5 84l92.5 -53.5t100.5 -46.5q27 -9 55.5 -13.5t58.5 -4.5z" />
    <glyph glyph-name="uni20A6" unicode="&#x20a6;" horiz-adv-x="957" 
d="M315 509h-152v159zM796 226h-167l-238 249h405v-249zM585 226h-422v249h185zM796 52l-134 140h134v-140zM801 0h30v192h150v34h-150v249h150v34h-150v197h-35v-197h-438l-188 197h-42v-197h-152v-34h152v-249h-152v-34h152v-192h35v192h455z" />
    <glyph glyph-name="peseta" unicode="&#x20a7;" horiz-adv-x="2027" 
d="M435 304h-272v369h260q154 0 226.5 -39t72.5 -143q0 -74 -34 -115t-98 -57q-32 -8 -70.5 -11.5t-84.5 -3.5zM435 271q155 -1 235.5 47.5t85.5 157.5h201v-229q0 -96 27.5 -150t82.5 -75q28 -11 63.5 -16.5t77.5 -5.5h419q117 0 186.5 21.5t99.5 57.5q16 18 23.5 37.5
t7.5 40.5q0 82 -80 113t-242 37q-103 4 -167 15t-93 34q-15 12 -22.5 29t-7.5 38q0 57 59.5 96.5t188.5 39.5q125 0 207.5 -37.5t115.5 -128.5h34q-35 105 -126 151t-233 46q-137 0 -209 -47.5t-72 -118.5q0 -54 32 -85t102 -46q35 -7 80.5 -11.5t102.5 -6.5
q106 -3 171 -14.5t96 -35.5q15 -12 22.5 -29t7.5 -39q0 -32 -26 -60.5t-88 -45.5q-31 -8 -73.5 -12.5t-96.5 -4.5h-420q-74 0 -122.5 17t-72.5 63q-11 23 -17 56.5t-6 76.5v229h244v30h-244v222h-26q0 -22 -1 -55.5t-1 -65.5q-1 -16 -1 -28t-1 -21q-1 -24 -5 -34.5
t-17 -13.5q-7 -1 -18 -2t-26 -1l-137 -1q-5 109 -87 154.5t-246 45.5h-295v-706h35v271h272z" />
    <glyph glyph-name="uni20A8" unicode="&#x20a8;" horiz-adv-x="1665" 
d="M1323 -18q83 0 138 15t88 41q33 25 47 56t14 63q0 46 -26 73.5t-69 41.5q-44 14 -98.5 20t-112.5 9q-58 2 -112.5 6.5t-98.5 16.5q-43 11 -69 34.5t-26 64.5q0 57 59.5 96.5t188.5 39.5q125 0 207.5 -37.5t115.5 -128.5h34q-35 105 -126 151t-233 46q-136 0 -208.5 -47.5
t-72.5 -118.5q0 -49 26 -78.5t70 -44.5q43 -16 98 -22.5t113 -8.5q58 -3 113 -7t98 -14q44 -10 70 -32t26 -60q0 -32 -22 -65t-77 -55q-27 -11 -65.5 -16.5t-88.5 -5.5q-68 0 -130.5 10t-126.5 37q-32 14 -66 33t-71 44l-38 25q-69 45 -117.5 74t-86.5 46q-19 8 -37.5 14
t-37.5 10q107 11 163 56t56 139q0 107 -76 155t-249 48h-379v-706h35v296h327q48 0 86.5 -7t77.5 -24q40 -17 90 -47.5l122 -77.5l38 -25q58 -38 108 -64t98 -41t99.5 -21.5t113.5 -6.5zM504 328h-341v344h344q152 0 221.5 -38.5t69.5 -130.5q0 -69 -36.5 -107.5
t-102.5 -53.5q-33 -8 -71.5 -11t-83.5 -3z" />
    <glyph glyph-name="uni20A9" unicode="&#x20a9;" horiz-adv-x="1421" 
d="M766 517h-145l76 149zM1120 294h-216l-88 189h378zM870 294h-363l96 189h179zM473 294h-204l-60 189h360zM1021 41l-101 219h187zM1006 0h34l102 260h245v34h-231l74 189h157v34h-143l74 189h-36l-74 -189h-407l-88 189h-30l-96 -189h-389l-60 189h-35l59 -189h-140v-34
h151l60 -189h-211v-34h221l82 -260h33l132 260h395zM347 48l-67 212h175z" />
    <glyph glyph-name="uni20AA" unicode="&#x20aa;" horiz-adv-x="1003" 
d="M378 674q77 0 123 -22.5t69 -61.5t31 -88.5t8 -103.5v-146q25 0 31 11t6 30v105q0 65 -11 120.5t-39 98.5q-29 42 -82 65.5t-138 23.5h-248v-706h37v674h213zM655 0q87 0 136.5 39t69.5 107q10 34 15 72.5t5 82.5v420h-37v-420q0 -74 -15 -134.5t-56 -95.5
q-20 -17 -49.5 -26t-67.5 -9h-254v381q0 19 -8.5 30t-28.5 11v-458h290z" />
    <glyph glyph-name="uni20AE" unicode="&#x20ae;" horiz-adv-x="767" 
d="M631 304v34l-238 -86v188l238 86v34l-238 -86v198h330v34h-679v-34h314v-211l-230 -83v-34l230 83v-188l-230 -83v-34l230 83v-205h35v218z" />
    <glyph glyph-name="uni20B1" unicode="&#x20b1;" horiz-adv-x="911" 
d="M416 673q107 0 174 -31t98 -86h-461v117h189zM716 441q0 -21 -2.5 -40.5t-8.5 -37.5h-478v160h476q7 -18 10 -38.5t3 -43.5zM428 210h-201v120h464q-32 -61 -97.5 -91t-165.5 -29zM428 177q119 -1 193.5 40.5t105.5 112.5h181v33h-170q5 17 7.5 36.5t2.5 41.5
q0 21 -2.5 41.5t-8.5 40.5h171v33h-183q-32 69 -108 109.5t-201 40.5h-224v-150h-174v-33h174v-160h-174v-33h174v-330h35v177h201z" />
    <glyph glyph-name="uni0E3F" unicode="&#xe3f;" horiz-adv-x="888" 
d="M489 -133v133q168 2 256 42.5t88 143.5q0 82 -49.5 120.5t-144.5 51.5q84 14 128.5 53.5t44.5 115.5q0 96 -77.5 137.5t-245.5 41.5v121h-36v-121h-325v-706h325v-133h36zM489 673q146 0 217.5 -32.5t71.5 -113.5q0 -64 -36 -97.5t-101 -45.5q-32 -6 -70 -9t-82 -3v301z
M453 372h-290v301h290v-301zM799 186q0 -59 -35.5 -92.5t-104.5 -46.5q-35 -7 -77.5 -10.5t-92.5 -4.5v309q91 0 160.5 -11t109.5 -44q20 -16 30 -41t10 -59zM163 32v309h290v-309h-290z" />
    <glyph glyph-name="numbersign" unicode="#" horiz-adv-x="1093" 
d="M654 218h-305l73 285h305zM597 0h32l48 189h285v29h-277l72 285h265v29h-257l44 174h-29l-45 -174h-306l45 174h-31l-45 -174h-275v-29h267l-73 -285h-255v-29h247l-49 -189h33l48 189h305z" />
    <glyph glyph-name="zero" unicode="0" horiz-adv-x="978" 
d="M486 -18q85 0 160.5 22.5t133.5 67.5t91 113.5t33 159.5q0 92 -32 162t-89 117t-133 71t-163 24t-162.5 -24t-131.5 -72q-56 -47 -87.5 -117t-31.5 -161t32 -159t89 -114q57 -45 131.5 -67.5t159.5 -22.5zM486 16q-105 0 -190.5 36t-135.5 109q-25 37 -37.5 83t-12.5 101
q0 111 48 187t133 115q43 19 92 29t104 10q111 0 197 -39t135 -115q25 -38 37 -85t12 -102q0 -85 -30 -147t-82 -103q-53 -40 -122 -59.5t-148 -19.5z" />
    <glyph glyph-name="one" unicode="1" horiz-adv-x="673" 
d="M640 0v33h-287v672h-30q-16 -69 -57 -104t-108 -35v-30q68 1 105.5 26.5t54.5 66.5v-596h-279v-33h601z" />
    <glyph glyph-name="two" unicode="2" horiz-adv-x="821" 
d="M771 0v33h-673q4 57 33.5 95.5t77.5 64.5q48 25 106 43t119 34q62 16 120 33.5t105 43.5q46 25 73.5 63t27.5 94q0 68 -40 116t-113 74q-36 12 -79 18.5t-92 6.5q-105 0 -187 -31t-129 -97q-24 -33 -35.5 -75.5t-11.5 -95.5h35q0 97 43 155.5t117 84.5q37 13 79 19.5
t89 6.5q137 0 213.5 -47t76.5 -136q0 -48 -26 -80.5t-70 -54.5q-44 -23 -99.5 -39.5t-114.5 -31.5q-65 -17 -128 -37.5t-114 -50.5q-52 -30 -82.5 -76t-30.5 -114v-19h710z" />
    <glyph glyph-name="three" unicode="3" horiz-adv-x="873" 
d="M436 -18q112 0 194 25t126 72q23 24 34 52t11 61q0 84 -54.5 121.5t-153.5 47.5q95 13 142 55t47 114q0 89 -88 139t-250 50q-178 0 -271 -67.5t-93 -195.5h34q0 115 82.5 172.5t247.5 57.5q146 0 224 -39t78 -117q0 -79 -59.5 -117t-199.5 -38h-153v-33h152
q94 0 155.5 -13t92.5 -45q16 -17 23.5 -39.5t7.5 -52.5q0 -57 -41.5 -97t-115.5 -60q-37 -11 -80 -16t-92 -5q-124 0 -198.5 20.5t-108.5 69.5q-16 24 -24.5 57.5t-8.5 76.5h-34q0 -94 37 -150.5t119 -80.5q41 -13 95.5 -19t122.5 -6z" />
    <glyph glyph-name="four" unicode="4" horiz-adv-x="824" 
d="M829 184h-202v-184h-35v184h-575v30l580 492h30v-489h202v-33zM592 217v442l-517 -442h517z" />
    <glyph glyph-name="five" unicode="5" horiz-adv-x="881" 
d="M445 -18q106 0 187 28.5t126 85.5q23 28 34.5 64t11.5 79q0 65 -26 110.5t-72 73.5q-45 28 -103 40.5t-122 12.5q-117 0 -200.5 -35.5t-131.5 -91.5l58 323h489q40 0 51 6t11 28h-581l-68 -393l28 -15l4 5q27 36 74.5 69t114.5 53q33 11 71 16t80 5q55 0 106 -10.5
t92 -33.5q41 -24 65 -64t24 -99q0 -80 -40.5 -129.5t-113.5 -71.5q-37 -12 -79 -17.5t-90 -5.5q-94 0 -164 21t-109 65q-19 21 -28.5 49t-9.5 61h-34q0 -109 88 -169t257 -60z" />
    <glyph glyph-name="six" unicode="6" horiz-adv-x="887" 
d="M804 220q0 66 -26.5 110t-72.5 70q-47 25 -106.5 36t-125.5 11q-87 0 -161.5 -29.5t-123.5 -82.5q-24 -26 -39 -57t-21 -67q-9 30 -14 65.5t-5 77.5q0 162 94.5 247t260.5 85q116 -1 183 -33t96 -99h42q-36 80 -113.5 122.5t-207.5 42.5q-121 0 -208.5 -42.5
t-134.5 -123.5q-23 -41 -35 -90.5t-12 -108.5q0 -178 91 -274.5t290 -97.5q109 -1 187 30t120 85q21 27 31.5 57.5t10.5 65.5zM455 16q-126 0 -203 41.5t-112 120.5q8 74 53.5 127t117.5 81q37 14 77.5 21t85.5 7q81 0 147.5 -17t106.5 -59q20 -21 30 -50.5t10 -67.5
q0 -93 -82.5 -148.5t-230.5 -55.5z" />
    <glyph glyph-name="seven" unicode="7" horiz-adv-x="751" 
d="M303 0q20 83 57.5 165t85.5 158t100 142.5t101 119.5l47 49t42 40v32h-707v-34h658q-52 -50 -115 -122.5t-125 -160.5t-112 -187t-75 -202h43z" />
    <glyph glyph-name="eight" unicode="8" horiz-adv-x="867" 
d="M430 -18q115 0 199 19t130 63q23 22 34.5 52t11.5 67q0 63 -29.5 100.5t-77.5 55.5q-24 10 -50.5 16t-54.5 9q50 7 93 25.5t70 52.5q13 17 19.5 38.5t6.5 48.5q0 96 -91.5 143t-252.5 47q-158 0 -248.5 -46.5t-90.5 -143.5q0 -79 48 -117t123 -48q-58 -8 -105.5 -30
t-74.5 -60q-14 -19 -21 -42.5t-7 -51.5q0 -79 43.5 -122t125.5 -60q41 -8 91 -12t108 -4zM386 379q-120 0 -185.5 34.5t-65.5 115.5q0 82 82 119.5t221 37.5q141 0 224.5 -38t83.5 -119q0 -57 -35 -90t-97 -46q-31 -7 -66 -10.5t-75 -3.5h-87zM430 16q-102 0 -176.5 13.5
t-114.5 49.5q-21 17 -31 42.5t-10 58.5q0 86 77 126t210 40h88q90 -1 156.5 -14.5t102.5 -48.5q19 -17 28 -42t9 -58q0 -63 -42 -99.5t-119 -52.5q-38 -7 -82.5 -11t-95.5 -4z" />
    <glyph glyph-name="nine" unicode="9" horiz-adv-x="892" 
d="M415 287q-80 0 -146 16.5t-105 57.5q-20 21 -29.5 50t-9.5 67q0 98 79.5 152.5t238.5 54.5q125 0 201 -42t110 -123q-7 -75 -53.5 -127t-120.5 -79q-37 -13 -78 -20t-87 -7zM424 -18q186 0 290.5 94.5t104.5 269.5q0 176 -89.5 274t-286.5 99q-175 1 -264.5 -65.5
t-89.5 -175.5q0 -66 26 -109.5t72 -68.5q45 -25 104 -35.5t125 -10.5q91 0 168 27.5t126 79.5q25 26 39 58t17 69q9 -31 13.5 -66.5t4.5 -75.5q0 -162 -95 -246.5t-265 -84.5q-116 2 -189.5 33t-103.5 98h-42q34 -84 119.5 -124t215.5 -40z" />
    <glyph glyph-name="uni2070" unicode="&#x2070;" horiz-adv-x="494" 
d="M58 327zM246 327q84 0 137.5 49.5t53.5 138.5q0 94 -52 144.5t-137 50.5t-137.5 -51.5t-52.5 -144.5q0 -91 51 -139t137 -48zM246 357q-72 0 -113.5 40.5t-41.5 116.5q0 80 41.5 123.5t115.5 43.5q72 0 114 -43.5t42 -123.5q0 -72 -44 -114.5t-114 -42.5z" />
    <glyph glyph-name="onesuperior" unicode="&#xb9;" horiz-adv-x="294" 
d="M38 337zM265 337v31h-98v337h-26q-8 -34 -28.5 -51.5t-52.5 -17.5v-31q29 1 47 13.5t28 28.5v-279h-97v-31h227z" />
    <glyph glyph-name="twosuperior" unicode="&#xb2;" horiz-adv-x="445" 
d="M48 337zM402 337v31h-321q7 35 33 56t62 34q35 13 73.5 23.5t72.5 23.5q33 14 54 36t21 58q0 49 -39.5 80.5t-118.5 31.5q-84 0 -133 -38t-49 -116h33q0 68 39.5 96.5t109.5 28.5q65 0 95 -23t30 -60q0 -30 -21 -47t-54 -28q-34 -11 -72 -21.5t-74 -25.5
q-35 -15 -60.5 -40.5t-32.5 -68.5q-1 -6 -1.5 -12.5t-0.5 -14.5v-4h354z" />
    <glyph glyph-name="threesuperior" unicode="&#xb3;" horiz-adv-x="460" 
d="M48 328zM236 328q84 0 130 30.5t46 79.5q0 41 -23 61.5t-66 27.5q39 8 58.5 28.5t19.5 52.5q0 49 -38.5 76t-121.5 27q-89 0 -135.5 -37t-46.5 -102h33q0 52 37 81t112 29q68 0 98 -19.5t30 -54.5q0 -33 -26 -50t-78 -17h-85v-30h84q56 0 84.5 -16t28.5 -57
q0 -37 -34.5 -59.5t-106.5 -22.5q-81 0 -118 25.5t-37 87.5h-33q0 -79 45.5 -110t142.5 -31z" />
    <glyph glyph-name="uni2074" unicode="&#x2074;" horiz-adv-x="446" 
d="M25 337zM417 438v28h-91v239h-29l-272 -240v-27h270v-101h31v101h91zM295 466h-226l226 200v-200z" />
    <glyph glyph-name="uni2075" unicode="&#x2075;" horiz-adv-x="475" 
d="M69 328zM240 328q50 0 90.5 15t64.5 45q12 14 18 32.5t6 39.5q0 65 -43.5 96t-120.5 31q-46 0 -81.5 -14t-61.5 -36l23 138h232q15 0 22.5 7.5t7.5 22.5h-290l-31 -196l24 -13l2 2q22 26 60 44t92 18q64 0 98.5 -23t34.5 -77q0 -50 -39 -77t-108 -27q-73 0 -104.5 26
t-33.5 63h-33q2 -48 41 -82.5t130 -34.5z" />
    <glyph glyph-name="uni2076" unicode="&#x2076;" horiz-adv-x="483" 
d="M58 328zM423 451q0 61 -43 87.5t-115 26.5q-66 0 -112.5 -27t-59.5 -76q-2 14 -3.5 28.5t-1.5 30.5q0 77 40 119t124 42q51 0 80.5 -16.5t39.5 -41.5h39q-15 39 -55 63t-104 24q-94 0 -144 -49.5t-50 -140.5q0 -93 44 -143t143 -50q89 0 133.5 34.5t44.5 88.5zM245 356
q-60 0 -94 20.5t-49 56.5q5 51 50.5 76t112.5 25q65 0 95.5 -21.5t30.5 -61.5q0 -42 -36 -68.5t-110 -26.5z" />
    <glyph glyph-name="uni2077" unicode="&#x2077;" horiz-adv-x="398" 
d="M33 337zM147 337q11 52 39 105t63 101q34 48 67.5 84t55.5 52v26h-339v-29h298q-26 -24 -59.5 -61t-66.5 -83t-58 -96t-36 -99h36z" />
    <glyph glyph-name="uni2078" unicode="&#x2078;" horiz-adv-x="462" 
d="M48 328zM228 328q87 0 136.5 24t49.5 83q0 42 -28 62t-67 27q34 8 57.5 29.5t23.5 55.5q0 53 -44 77.5t-123 24.5q-77 0 -121.5 -27t-44.5 -80q0 -35 19.5 -54.5t53.5 -27.5q-42 -8 -67 -31.5t-25 -61.5q0 -60 47 -80.5t133 -20.5zM209 537q-56 0 -83.5 18.5t-27.5 49.5
q0 43 39.5 60t95.5 17q61 0 98.5 -16t37.5 -58q0 -32 -32 -51.5t-88 -19.5h-40zM230 356q-70 0 -109.5 14.5t-39.5 60.5q0 38 33.5 57.5t94.5 19.5h40q63 -1 97.5 -17.5t34.5 -54.5q0 -45 -40.5 -62.5t-110.5 -17.5z" />
    <glyph glyph-name="uni2079" unicode="&#x2079;" horiz-adv-x="480" 
d="M58 328zM211 496q-60 0 -90.5 21.5t-30.5 63.5q0 47 37 74t108 27q61 0 95 -20.5t49 -56.5q-4 -52 -50.5 -80.5t-117.5 -28.5zM223 328q101 0 150.5 49t49.5 140q0 93 -44.5 143t-143.5 50q-87 0 -132 -35t-45 -94q0 -63 42.5 -89t110.5 -26q69 0 116.5 30t60.5 79
q2 -13 3.5 -27.5t1.5 -30.5q0 -77 -39.5 -119t-130.5 -42q-52 0 -83.5 17t-42.5 44h-39q16 -41 58.5 -65t106.5 -24z" />
    <glyph glyph-name="uni207A" unicode="&#x207a;" horiz-adv-x="435" 
d="M47 334zM385 493v27h-158v147h-27v-147h-153v-27h153v-159h27v159h158z" />
    <glyph glyph-name="uni207B" unicode="&#x207b;" horiz-adv-x="435" 
d="M47 492zM385 492v28h-338v-28h338z" />
    <glyph glyph-name="uni207C" unicode="&#x207c;" horiz-adv-x="435" 
d="M62 412zM370 580v28h-308v-28h308zM370 412v28h-308v-28h308z" />
    <glyph glyph-name="uni207D" unicode="&#x207d;" horiz-adv-x="332" 
d="M84 235zM321 235v28q-67 5 -113.5 39t-69.5 87q-12 27 -18 56t-6 60q0 66 21.5 118.5t67.5 85.5q23 17 52.5 26.5t65.5 12.5v30q-79 -6 -131.5 -43t-79.5 -96q-13 -30 -19.5 -63.5t-6.5 -70.5q0 -74 28 -133.5t81 -95.5q27 -18 59 -28.5t69 -12.5z" />
    <glyph glyph-name="uni207E" unicode="&#x207e;" horiz-adv-x="332" 
d="M11 235zM11 235q75 5 128 41.5t81 95.5q14 30 21 63.5t7 70.5q0 75 -26.5 134t-78.5 95q-27 18 -59.5 29t-72.5 14v-30q72 -6 117.5 -38.5t67.5 -85.5q11 -26 16.5 -55.5t5.5 -62.5q0 -63 -23.5 -116t-69.5 -87q-23 -17 -51.5 -27t-62.5 -13v-28z" />
    <glyph glyph-name="uni2080" unicode="&#x2080;" horiz-adv-x="494" 
d="M246 -9q84 0 137.5 49.5t53.5 138.5q0 94 -52 144.5t-137 50.5t-137.5 -51.5t-52.5 -144.5q0 -91 51 -139t137 -48zM246 21q-72 0 -113.5 40.5t-41.5 116.5q0 80 41.5 123.5t115.5 43.5q72 0 114 -43.5t42 -123.5q0 -72 -44 -114.5t-114 -42.5z" />
    <glyph glyph-name="uni2081" unicode="&#x2081;" horiz-adv-x="294" 
d="M265 0v31h-98v337h-26q-8 -34 -28.5 -51.5t-52.5 -17.5v-31q29 1 47 13.5t28 28.5v-279h-97v-31h227z" />
    <glyph glyph-name="uni2082" unicode="&#x2082;" horiz-adv-x="445" 
d="M402 0v31h-321q7 35 33 56t62 34q35 13 73.5 23.5t72.5 23.5q33 14 54 36t21 58q0 49 -39.5 80.5t-118.5 31.5q-84 0 -133 -38t-49 -116h33q0 68 39.5 96.5t109.5 28.5q65 0 95 -23t30 -60q0 -30 -21 -47t-54 -28q-34 -11 -72 -21.5t-74 -25.5q-35 -15 -60.5 -40.5
t-32.5 -68.5q-1 -6 -1.5 -12.5t-0.5 -14.5v-4h354z" />
    <glyph glyph-name="uni2083" unicode="&#x2083;" horiz-adv-x="460" 
d="M236 -9q84 0 130 30.5t46 79.5q0 41 -23 61.5t-66 27.5q39 8 58.5 28.5t19.5 52.5q0 49 -38.5 76t-121.5 27q-89 0 -135.5 -37t-46.5 -102h33q0 52 37 81t112 29q68 0 98 -19.5t30 -54.5q0 -33 -26 -50t-78 -17h-85v-30h84q56 0 84.5 -16t28.5 -57q0 -37 -34.5 -59.5
t-106.5 -22.5q-81 0 -118 25.5t-37 87.5h-33q0 -79 45.5 -110t142.5 -31z" />
    <glyph glyph-name="uni2084" unicode="&#x2084;" horiz-adv-x="446" 
d="M417 101v28h-91v239h-29l-272 -240v-27h270v-101h31v101h91zM295 129h-226l226 200v-200z" />
    <glyph glyph-name="uni2085" unicode="&#x2085;" horiz-adv-x="475" 
d="M240 -9q50 0 90.5 15t64.5 45q12 14 18 32.5t6 39.5q0 65 -43.5 96t-120.5 31q-46 0 -81.5 -14t-61.5 -36l23 138h232q15 0 22.5 7.5t7.5 22.5h-290l-31 -196l24 -13l2 2q22 26 60 44t92 18q64 0 98.5 -23t34.5 -77q0 -50 -39 -77t-108 -27q-73 0 -104.5 26t-33.5 63h-33
q2 -48 41 -82.5t130 -34.5z" />
    <glyph glyph-name="uni2086" unicode="&#x2086;" horiz-adv-x="483" 
d="M423 114q0 61 -43 87.5t-115 26.5q-66 0 -112.5 -27t-59.5 -76q-2 14 -3.5 28.5t-1.5 30.5q0 77 40 119t124 42q51 0 80.5 -16.5t39.5 -41.5h39q-15 39 -55 63t-104 24q-94 0 -144 -49.5t-50 -140.5q0 -93 44 -143t143 -50q89 0 133.5 34.5t44.5 88.5zM245 19
q-60 0 -94 20.5t-49 56.5q5 51 50.5 76t112.5 25q65 0 95.5 -21.5t30.5 -61.5q0 -42 -36 -68.5t-110 -26.5z" />
    <glyph glyph-name="uni2087" unicode="&#x2087;" horiz-adv-x="398" 
d="M147 0q11 52 39 105t63 101q34 48 67.5 84t55.5 52v26h-339v-29h298q-26 -24 -59.5 -61t-66.5 -83t-58 -96t-36 -99h36z" />
    <glyph glyph-name="uni2088" unicode="&#x2088;" horiz-adv-x="463" 
d="M229 -9q87 0 136.5 24t49.5 83q0 42 -28 62t-67 27q34 8 57.5 29.5t23.5 55.5q0 53 -44 77.5t-123 24.5q-77 0 -121.5 -27t-44.5 -80q0 -35 19.5 -54.5t53.5 -27.5q-42 -8 -67 -31.5t-25 -61.5q0 -60 47 -80.5t133 -20.5zM210 200q-56 0 -83.5 18.5t-27.5 49.5
q0 43 39.5 60t95.5 17q61 0 98.5 -16t37.5 -58q0 -32 -32 -51.5t-88 -19.5h-40zM231 19q-70 0 -109.5 14.5t-39.5 60.5q0 38 33.5 57.5t94.5 19.5h40q63 -1 97.5 -17.5t34.5 -54.5q0 -45 -40.5 -62.5t-110.5 -17.5z" />
    <glyph glyph-name="uni2089" unicode="&#x2089;" horiz-adv-x="480" 
d="M211 159q-60 0 -90.5 21.5t-30.5 63.5q0 47 37 74t108 27q61 0 95 -20.5t49 -56.5q-4 -52 -50.5 -80.5t-117.5 -28.5zM223 -9q101 0 150.5 49t49.5 140q0 93 -44.5 143t-143.5 50q-87 0 -132 -35t-45 -94q0 -63 42.5 -89t110.5 -26q69 0 116.5 30t60.5 79
q2 -13 3.5 -27.5t1.5 -30.5q0 -77 -39.5 -119t-130.5 -42q-52 0 -83.5 17t-42.5 44h-39q16 -41 58.5 -65t106.5 -24z" />
    <glyph glyph-name="uni208A" unicode="&#x208a;" horiz-adv-x="435" 
d="M385 157v27h-158v147h-27v-147h-153v-27h153v-159h27v159h158z" />
    <glyph glyph-name="uni208B" unicode="&#x208b;" horiz-adv-x="435" 
d="M385 156v28h-338v-28h338z" />
    <glyph glyph-name="uni208C" unicode="&#x208c;" horiz-adv-x="435" 
d="M370 238v28h-308v-28h308zM370 70v28h-308v-28h308z" />
    <glyph glyph-name="uni208D" unicode="&#x208d;" horiz-adv-x="332" 
d="M321 -86v28q-67 5 -113.5 39t-69.5 87q-12 27 -18 56t-6 60q0 66 21.5 118.5t67.5 85.5q23 17 52.5 26.5t65.5 12.5v30q-79 -6 -131.5 -43t-79.5 -96q-13 -30 -19.5 -63.5t-6.5 -70.5q0 -74 28 -133.5t81 -95.5q27 -18 59 -28.5t69 -12.5z" />
    <glyph glyph-name="uni208E" unicode="&#x208e;" horiz-adv-x="332" 
d="M11 -86q75 5 128 41.5t81 95.5q14 30 21 63.5t7 70.5q0 75 -26.5 134t-78.5 95q-27 18 -59.5 29t-72.5 14v-30q72 -6 117.5 -38.5t67.5 -85.5q11 -26 16.5 -55.5t5.5 -62.5q0 -63 -23.5 -116t-69.5 -87q-23 -17 -51.5 -27t-62.5 -13v-28z" />
    <glyph glyph-name="zero.inf" horiz-adv-x="494" 
d="M58 0zM246 -209q84 0 137.5 49.5t53.5 138.5q0 94 -52 144.5t-137 50.5t-137.5 -51.5t-52.5 -144.5q0 -91 51 -139t137 -48zM246 -179q-72 0 -113.5 40.5t-41.5 116.5q0 80 41.5 123.5t115.5 43.5q72 0 114 -43.5t42 -123.5q0 -72 -44 -114.5t-114 -42.5z" />
    <glyph glyph-name="one.inf" horiz-adv-x="294" 
d="M38 0zM265 -200v31h-98v337h-26q-8 -34 -28.5 -51.5t-52.5 -17.5v-31q29 1 47 13.5t28 28.5v-279h-97v-31h227z" />
    <glyph glyph-name="two.inf" horiz-adv-x="445" 
d="M48 0zM402 -200v31h-321q7 35 33 56t62 34q35 13 73.5 23.5t72.5 23.5q33 14 54 36t21 58q0 49 -39.5 80.5t-118.5 31.5q-84 0 -133 -38t-49 -116h33q0 68 39.5 96.5t109.5 28.5q65 0 95 -23t30 -60q0 -30 -21 -47t-54 -28q-34 -11 -72 -21.5t-74 -25.5
q-35 -15 -60.5 -40.5t-32.5 -68.5q-1 -6 -1.5 -12.5t-0.5 -14.5v-4h354z" />
    <glyph glyph-name="three.inf" horiz-adv-x="460" 
d="M48 0zM236 -209q84 0 130 30.5t46 79.5q0 41 -23 61.5t-66 27.5q39 8 58.5 28.5t19.5 52.5q0 49 -38.5 76t-121.5 27q-89 0 -135.5 -37t-46.5 -102h33q0 52 37 81t112 29q68 0 98 -19.5t30 -54.5q0 -33 -26 -50t-78 -17h-85v-30h84q56 0 84.5 -16t28.5 -57
q0 -37 -34.5 -59.5t-106.5 -22.5q-81 0 -118 25.5t-37 87.5h-33q0 -79 45.5 -110t142.5 -31z" />
    <glyph glyph-name="four.inf" horiz-adv-x="446" 
d="M25 0zM417 -99v28h-91v239h-29l-272 -240v-27h270v-101h31v101h91zM295 -71h-226l226 200v-200z" />
    <glyph glyph-name="five.inf" horiz-adv-x="475" 
d="M69 0zM240 -209q50 0 90.5 15t64.5 45q12 14 18 32.5t6 39.5q0 65 -43.5 96t-120.5 31q-46 0 -81.5 -14t-61.5 -36l23 138h232q15 0 22.5 7.5t7.5 22.5h-290l-31 -196l24 -13l2 2q22 26 60 44t92 18q64 0 98.5 -23t34.5 -77q0 -50 -39 -77t-108 -27q-73 0 -104.5 26
t-33.5 63h-33q2 -48 41 -82.5t130 -34.5z" />
    <glyph glyph-name="six.inf" horiz-adv-x="483" 
d="M58 0zM423 -86q0 61 -43 87.5t-115 26.5q-66 0 -112.5 -27t-59.5 -76q-2 14 -3.5 28.5t-1.5 30.5q0 77 40 119t124 42q51 0 80.5 -16.5t39.5 -41.5h39q-15 39 -55 63t-104 24q-94 0 -144 -49.5t-50 -140.5q0 -93 44 -143t143 -50q89 0 133.5 34.5t44.5 88.5zM245 -181
q-60 0 -94 20.5t-49 56.5q5 51 50.5 76t112.5 25q65 0 95.5 -21.5t30.5 -61.5q0 -42 -36 -68.5t-110 -26.5z" />
    <glyph glyph-name="seven.inf" horiz-adv-x="398" 
d="M33 0zM147 -200q11 52 39 105t63 101q34 48 67.5 84t55.5 52v26h-339v-29h298q-26 -24 -59.5 -61t-66.5 -83t-58 -96t-36 -99h36z" />
    <glyph glyph-name="eight.inf" horiz-adv-x="462" 
d="M48 0zM228 -209q87 0 136.5 24t49.5 83q0 42 -28 62t-67 27q34 8 57.5 29.5t23.5 55.5q0 53 -44 77.5t-123 24.5q-77 0 -121.5 -27t-44.5 -80q0 -35 19.5 -54.5t53.5 -27.5q-42 -8 -67 -31.5t-25 -61.5q0 -60 47 -80.5t133 -20.5zM209 0q-56 0 -83.5 18.5t-27.5 49.5
q0 43 39.5 60t95.5 17q61 0 98.5 -16t37.5 -58q0 -32 -32 -51.5t-88 -19.5h-40zM230 -181q-70 0 -109.5 14.5t-39.5 60.5q0 38 33.5 57.5t94.5 19.5h40q63 -1 97.5 -17.5t34.5 -54.5q0 -45 -40.5 -62.5t-110.5 -17.5z" />
    <glyph glyph-name="nine.inf" horiz-adv-x="480" 
d="M58 0zM211 -40q-60 0 -90.5 21.5t-30.5 63.5q0 47 37 74t108 27q61 0 95 -20.5t49 -56.5q-4 -52 -50.5 -80.5t-117.5 -28.5zM223 -208q101 0 150.5 49t49.5 140q0 93 -44.5 143t-143.5 50q-87 0 -132 -35t-45 -94q0 -63 42.5 -89t110.5 -26q69 0 116.5 30t60.5 79
q2 -13 3.5 -27.5t1.5 -30.5q0 -77 -39.5 -119t-130.5 -42q-52 0 -83.5 17t-42.5 44h-39q16 -41 58.5 -65t106.5 -24z" />
    <glyph glyph-name="plus.inf" horiz-adv-x="435" 
d="M47 0zM385 -42v27h-158v147h-27v-147h-153v-27h153v-159h27v159h158z" />
    <glyph glyph-name="minus.inf" horiz-adv-x="435" 
d="M47 -15zM385 -43v28h-338v-28h338z" />
    <glyph glyph-name="equal.inf" horiz-adv-x="435" 
d="M62 0zM370 45v28h-308v-28h308zM370 -123v28h-308v-28h308z" />
    <glyph glyph-name="parenleft.inf" horiz-adv-x="332" 
d="M84 0zM321 -300v28q-67 5 -113.5 39t-69.5 87q-12 27 -18 56t-6 60q0 66 21.5 118.5t67.5 85.5q23 17 52.5 26.5t65.5 12.5v30q-79 -6 -131.5 -43t-79.5 -96q-13 -30 -19.5 -63.5t-6.5 -70.5q0 -74 28 -133.5t81 -95.5q27 -18 59 -28.5t69 -12.5z" />
    <glyph glyph-name="parenright.inf" horiz-adv-x="332" 
d="M11 0zM11 -300q75 5 128 41.5t81 95.5q14 30 21 63.5t7 70.5q0 75 -26.5 134t-78.5 95q-27 18 -59.5 29t-72.5 14v-30q72 -6 117.5 -38.5t67.5 -85.5q11 -26 16.5 -55.5t5.5 -62.5q0 -63 -23.5 -116t-69.5 -87q-23 -17 -51.5 -27t-62.5 -13v-28z" />
    <glyph glyph-name="fraction" unicode="&#x2044;" 
d="M612 406l371 278l-34 36l-344 -306zM486 322l-402 -295l37 -43l373 330z" />
    <glyph glyph-name="uni215F" unicode="&#x215f;" 
d="M84 0zM612 406l371 278l-34 36l-344 -306zM486 322l-402 -295l37 -43l373 330zM358 337v31h-98v337h-26q-8 -34 -28.5 -51.5t-52.5 -17.5v-31q29 1 47 13.5t28 28.5v-279h-97v-31h227z" />
    <glyph glyph-name="onehalf" unicode="&#xbd;" 
d="M84 0zM612 406l371 278l-34 36l-344 -306zM486 322l-402 -295l37 -43l373 330zM358 337v31h-98v337h-26q-8 -34 -28.5 -51.5t-52.5 -17.5v-31q29 1 47 13.5t28 28.5v-279h-97v-31h227zM1001 0v31h-321q7 35 33 56t62 34q35 13 73.5 23.5t72.5 23.5q33 14 54 36t21 58
q0 49 -39.5 80.5t-118.5 31.5q-84 0 -133 -38t-49 -116h33q0 68 39.5 96.5t109.5 28.5q65 0 95 -23t30 -60q0 -30 -21 -47t-54 -28q-34 -11 -72 -21.5t-74 -25.5q-35 -15 -60.5 -40.5t-32.5 -68.5q-1 -6 -1.5 -12.5t-0.5 -14.5v-4h354z" />
    <glyph glyph-name="uni2153" unicode="&#x2153;" 
d="M84 0zM612 406l371 278l-34 36l-344 -306zM486 322l-402 -295l37 -43l373 330zM358 337v31h-98v337h-26q-8 -34 -28.5 -51.5t-52.5 -17.5v-31q29 1 47 13.5t28 28.5v-279h-97v-31h227zM820 -9q84 0 130 30.5t46 79.5q0 41 -23 61.5t-66 27.5q39 8 58.5 28.5t19.5 52.5
q0 49 -38.5 76t-121.5 27q-89 0 -135.5 -37t-46.5 -102h33q0 52 37 81t112 29q68 0 98 -19.5t30 -54.5q0 -33 -26 -50t-78 -17h-85v-30h84q56 0 84.5 -16t28.5 -57q0 -37 -34.5 -59.5t-106.5 -22.5q-81 0 -118 25.5t-37 87.5h-33q0 -79 45.5 -110t142.5 -31z" />
    <glyph glyph-name="uni2154" unicode="&#x2154;" 
d="M59 0zM612 406l371 278l-34 36l-344 -306zM486 322l-402 -295l37 -43l373 330zM413 335v31h-321q7 35 33 56t62 34q35 13 73.5 23.5t72.5 23.5q33 14 54 36t21 58q0 49 -39.5 80.5t-118.5 31.5q-84 0 -133 -38t-49 -116h33q0 68 39.5 96.5t109.5 28.5q65 0 95 -23t30 -60
q0 -30 -21 -47t-54 -28q-34 -11 -72 -21.5t-74 -25.5q-35 -15 -60.5 -40.5t-32.5 -68.5q-1 -6 -1.5 -12.5t-0.5 -14.5v-4h354zM820 -9q84 0 130 30.5t46 79.5q0 41 -23 61.5t-66 27.5q39 8 58.5 28.5t19.5 52.5q0 49 -38.5 76t-121.5 27q-89 0 -135.5 -37t-46.5 -102h33
q0 52 37 81t112 29q68 0 98 -19.5t30 -54.5q0 -33 -26 -50t-78 -17h-85v-30h84q56 0 84.5 -16t28.5 -57q0 -37 -34.5 -59.5t-106.5 -22.5q-81 0 -118 25.5t-37 87.5h-33q0 -79 45.5 -110t142.5 -31z" />
    <glyph glyph-name="onequarter" unicode="&#xbc;" 
d="M84 0zM612 406l371 278l-34 36l-344 -306zM486 322l-402 -295l37 -43l373 330zM357 337v31h-98v337h-26q-8 -34 -28.5 -51.5t-52.5 -17.5v-31q29 1 47 13.5t28 28.5v-279h-97v-31h227zM955 101v28h-91v239h-29l-272 -240v-27h270v-101h31v101h91zM833 129h-226l226 200
v-200z" />
    <glyph glyph-name="threequarters" unicode="&#xbe;" 
d="M68 0zM612 406l371 278l-34 36l-344 -306zM486 322l-402 -295l37 -43l373 330zM256 326q84 0 130 30.5t46 79.5q0 41 -23 61.5t-66 27.5q39 8 58.5 28.5t19.5 52.5q0 49 -38.5 76t-121.5 27q-89 0 -135.5 -37t-46.5 -102h33q0 52 37 81t112 29q68 0 98 -19.5t30 -54.5
q0 -33 -26 -50t-78 -17h-85v-30h84q56 0 84.5 -16t28.5 -57q0 -37 -34.5 -59.5t-106.5 -22.5q-81 0 -118 25.5t-37 87.5h-33q0 -79 45.5 -110t142.5 -31zM955 101v28h-91v239h-29l-272 -240v-27h270v-101h31v101h91zM833 129h-226l226 200v-200z" />
    <glyph glyph-name="uni2155" unicode="&#x2155;" 
d="M84 0zM612 406l371 278l-34 36l-344 -306zM486 322l-402 -295l37 -43l373 330zM357 337v31h-98v337h-26q-8 -34 -28.5 -51.5t-52.5 -17.5v-31q29 1 47 13.5t28 28.5v-279h-97v-31h227zM824 -9q50 0 90.5 15t64.5 45q12 14 18 32.5t6 39.5q0 65 -43.5 96t-120.5 31
q-46 0 -81.5 -14t-61.5 -36l23 138h232q15 0 22.5 7.5t7.5 22.5h-290l-31 -196l24 -13l2 2q22 26 60 44t92 18q64 0 98.5 -23t34.5 -77q0 -50 -39 -77t-108 -27q-73 0 -104.5 26t-33.5 63h-33q2 -48 41 -82.5t130 -34.5z" />
    <glyph glyph-name="uni2156" unicode="&#x2156;" 
d="M59 0zM612 406l371 278l-34 36l-344 -306zM486 322l-402 -295l37 -43l373 330zM413 335v31h-321q7 35 33 56t62 34q35 13 73.5 23.5t72.5 23.5q33 14 54 36t21 58q0 49 -39.5 80.5t-118.5 31.5q-84 0 -133 -38t-49 -116h33q0 68 39.5 96.5t109.5 28.5q65 0 95 -23t30 -60
q0 -30 -21 -47t-54 -28q-34 -11 -72 -21.5t-74 -25.5q-35 -15 -60.5 -40.5t-32.5 -68.5q-1 -6 -1.5 -12.5t-0.5 -14.5v-4h354zM824 -9q50 0 90.5 15t64.5 45q12 14 18 32.5t6 39.5q0 65 -43.5 96t-120.5 31q-46 0 -81.5 -14t-61.5 -36l23 138h232q15 0 22.5 7.5t7.5 22.5
h-290l-31 -196l24 -13l2 2q22 26 60 44t92 18q64 0 98.5 -23t34.5 -77q0 -50 -39 -77t-108 -27q-73 0 -104.5 26t-33.5 63h-33q2 -48 41 -82.5t130 -34.5z" />
    <glyph glyph-name="uni2157" unicode="&#x2157;" 
d="M68 0zM612 406l371 278l-34 36l-344 -306zM486 322l-402 -295l37 -43l373 330zM256 326q84 0 130 30.5t46 79.5q0 41 -23 61.5t-66 27.5q39 8 58.5 28.5t19.5 52.5q0 49 -38.5 76t-121.5 27q-89 0 -135.5 -37t-46.5 -102h33q0 52 37 81t112 29q68 0 98 -19.5t30 -54.5
q0 -33 -26 -50t-78 -17h-85v-30h84q56 0 84.5 -16t28.5 -57q0 -37 -34.5 -59.5t-106.5 -22.5q-81 0 -118 25.5t-37 87.5h-33q0 -79 45.5 -110t142.5 -31zM824 -9q50 0 90.5 15t64.5 45q12 14 18 32.5t6 39.5q0 65 -43.5 96t-120.5 31q-46 0 -81.5 -14t-61.5 -36l23 138h232
q15 0 22.5 7.5t7.5 22.5h-290l-31 -196l24 -13l2 2q22 26 60 44t92 18q64 0 98.5 -23t34.5 -77q0 -50 -39 -77t-108 -27q-73 0 -104.5 26t-33.5 63h-33q2 -48 41 -82.5t130 -34.5z" />
    <glyph glyph-name="uni2158" unicode="&#x2158;" 
d="M44 0zM612 406l371 278l-34 36l-344 -306zM486 322l-402 -295l37 -43l373 330zM436 438v28h-91v239h-29l-272 -240v-27h270v-101h31v101h91zM314 466h-226l226 200v-200zM824 -9q50 0 90.5 15t64.5 45q12 14 18 32.5t6 39.5q0 65 -43.5 96t-120.5 31q-46 0 -81.5 -14
t-61.5 -36l23 138h232q15 0 22.5 7.5t7.5 22.5h-290l-31 -196l24 -13l2 2q22 26 60 44t92 18q64 0 98.5 -23t34.5 -77q0 -50 -39 -77t-108 -27q-73 0 -104.5 26t-33.5 63h-33q2 -48 41 -82.5t130 -34.5z" />
    <glyph glyph-name="uni2159" unicode="&#x2159;" 
d="M84 0zM612 406l371 278l-34 36l-344 -306zM486 322l-402 -295l37 -43l373 330zM357 337v31h-98v337h-26q-8 -34 -28.5 -51.5t-52.5 -17.5v-31q29 1 47 13.5t28 28.5v-279h-97v-31h227zM1003 114q0 61 -43 87.5t-115 26.5q-66 0 -112.5 -27t-59.5 -76q-2 14 -3.5 28.5
t-1.5 30.5q0 77 40 119t124 42q51 0 80.5 -16.5t39.5 -41.5h39q-15 39 -55 63t-104 24q-94 0 -144 -49.5t-50 -140.5q0 -93 44 -143t143 -50q89 0 133.5 34.5t44.5 88.5zM825 19q-60 0 -94 20.5t-49 56.5q5 51 50.5 76t112.5 25q65 0 95.5 -21.5t30.5 -61.5q0 -42 -36 -68.5
t-110 -26.5z" />
    <glyph glyph-name="uni215A" unicode="&#x215a;" 
d="M83 0zM612 406l371 278l-34 36l-344 -306zM486 322l-402 -295l37 -43l373 330zM254 328q50 0 90.5 15t64.5 45q12 14 18 32.5t6 39.5q0 65 -43.5 96t-120.5 31q-46 0 -81.5 -14t-61.5 -36l23 138h232q15 0 22.5 7.5t7.5 22.5h-290l-31 -196l24 -13l2 2q22 26 60 44t92 18
q64 0 98.5 -23t34.5 -77q0 -50 -39 -77t-108 -27q-73 0 -104.5 26t-33.5 63h-33q2 -48 41 -82.5t130 -34.5zM1003 114q0 61 -43 87.5t-115 26.5q-66 0 -112.5 -27t-59.5 -76q-2 14 -3.5 28.5t-1.5 30.5q0 77 40 119t124 42q51 0 80.5 -16.5t39.5 -41.5h39q-15 39 -55 63
t-104 24q-94 0 -144 -49.5t-50 -140.5q0 -93 44 -143t143 -50q89 0 133.5 34.5t44.5 88.5zM825 19q-60 0 -94 20.5t-49 56.5q5 51 50.5 76t112.5 25q65 0 95.5 -21.5t30.5 -61.5q0 -42 -36 -68.5t-110 -26.5z" />
    <glyph glyph-name="uni215B" unicode="&#x215b;" 
d="M84 0zM612 406l371 278l-34 36l-344 -306zM486 322l-402 -295l37 -43l373 330zM357 337v31h-98v337h-26q-8 -34 -28.5 -51.5t-52.5 -17.5v-31q29 1 47 13.5t28 28.5v-279h-97v-31h227zM825 -9q87 0 136.5 24t49.5 83q0 42 -28 62t-67 27q34 8 57.5 29.5t23.5 55.5
q0 53 -44 77.5t-123 24.5q-77 0 -121.5 -27t-44.5 -80q0 -35 19.5 -54.5t53.5 -27.5q-42 -8 -67 -31.5t-25 -61.5q0 -60 47 -80.5t133 -20.5zM806 200q-56 0 -83.5 18.5t-27.5 49.5q0 43 39.5 60t95.5 17q61 0 98.5 -16t37.5 -58q0 -32 -32 -51.5t-88 -19.5h-40zM827 19
q-70 0 -109.5 14.5t-39.5 60.5q0 38 33.5 57.5t94.5 19.5h40q63 -1 97.5 -17.5t34.5 -54.5q0 -45 -40.5 -62.5t-110.5 -17.5z" />
    <glyph glyph-name="uni215C" unicode="&#x215c;" 
d="M68 0zM612 406l371 278l-34 36l-344 -306zM486 322l-402 -295l37 -43l373 330zM825 -9q87 0 136.5 24t49.5 83q0 42 -28 62t-67 27q34 8 57.5 29.5t23.5 55.5q0 53 -44 77.5t-123 24.5q-77 0 -121.5 -27t-44.5 -80q0 -35 19.5 -54.5t53.5 -27.5q-42 -8 -67 -31.5
t-25 -61.5q0 -60 47 -80.5t133 -20.5zM806 200q-56 0 -83.5 18.5t-27.5 49.5q0 43 39.5 60t95.5 17q61 0 98.5 -16t37.5 -58q0 -32 -32 -51.5t-88 -19.5h-40zM827 19q-70 0 -109.5 14.5t-39.5 60.5q0 38 33.5 57.5t94.5 19.5h40q63 -1 97.5 -17.5t34.5 -54.5
q0 -45 -40.5 -62.5t-110.5 -17.5zM256 326q84 0 130 30.5t46 79.5q0 41 -23 61.5t-66 27.5q39 8 58.5 28.5t19.5 52.5q0 49 -38.5 76t-121.5 27q-89 0 -135.5 -37t-46.5 -102h33q0 52 37 81t112 29q68 0 98 -19.5t30 -54.5q0 -33 -26 -50t-78 -17h-85v-30h84q56 0 84.5 -16
t28.5 -57q0 -37 -34.5 -59.5t-106.5 -22.5q-81 0 -118 25.5t-37 87.5h-33q0 -79 45.5 -110t142.5 -31z" />
    <glyph glyph-name="uni215D" unicode="&#x215d;" 
d="M83 0zM612 406l371 278l-34 36l-344 -306zM486 322l-402 -295l37 -43l373 330zM825 -9q87 0 136.5 24t49.5 83q0 42 -28 62t-67 27q34 8 57.5 29.5t23.5 55.5q0 53 -44 77.5t-123 24.5q-77 0 -121.5 -27t-44.5 -80q0 -35 19.5 -54.5t53.5 -27.5q-42 -8 -67 -31.5
t-25 -61.5q0 -60 47 -80.5t133 -20.5zM806 200q-56 0 -83.5 18.5t-27.5 49.5q0 43 39.5 60t95.5 17q61 0 98.5 -16t37.5 -58q0 -32 -32 -51.5t-88 -19.5h-40zM827 19q-70 0 -109.5 14.5t-39.5 60.5q0 38 33.5 57.5t94.5 19.5h40q63 -1 97.5 -17.5t34.5 -54.5
q0 -45 -40.5 -62.5t-110.5 -17.5zM254 328q50 0 90.5 15t64.5 45q12 14 18 32.5t6 39.5q0 65 -43.5 96t-120.5 31q-46 0 -81.5 -14t-61.5 -36l23 138h232q15 0 22.5 7.5t7.5 22.5h-290l-31 -196l24 -13l2 2q22 26 60 44t92 18q64 0 98.5 -23t34.5 -77q0 -50 -39 -77
t-108 -27q-73 0 -104.5 26t-33.5 63h-33q2 -48 41 -82.5t130 -34.5z" />
    <glyph glyph-name="uni215E" unicode="&#x215e;" 
d="M84 0zM612 406l371 278l-34 36l-344 -306zM486 322l-402 -295l37 -43l373 330zM825 -9q87 0 136.5 24t49.5 83q0 42 -28 62t-67 27q34 8 57.5 29.5t23.5 55.5q0 53 -44 77.5t-123 24.5q-77 0 -121.5 -27t-44.5 -80q0 -35 19.5 -54.5t53.5 -27.5q-42 -8 -67 -31.5
t-25 -61.5q0 -60 47 -80.5t133 -20.5zM806 200q-56 0 -83.5 18.5t-27.5 49.5q0 43 39.5 60t95.5 17q61 0 98.5 -16t37.5 -58q0 -32 -32 -51.5t-88 -19.5h-40zM827 19q-70 0 -109.5 14.5t-39.5 60.5q0 38 33.5 57.5t94.5 19.5h40q63 -1 97.5 -17.5t34.5 -54.5
q0 -45 -40.5 -62.5t-110.5 -17.5zM259 337q11 52 39 105t63 101q34 48 67.5 84t55.5 52v26h-339v-29h298q-26 -24 -59.5 -61t-66.5 -83t-58 -96t-36 -99h36z" />
    <glyph glyph-name="onesixteenth" horiz-adv-x="1378" 
d="M358 337v31h-98v337h-26q-8 -34 -28.5 -51.5t-52.5 -17.5v-31q29 1 47 13.5t28 28.5v-279h-97v-31h227zM861 0v31h-98v337h-26q-8 -34 -28.5 -51.5t-52.5 -17.5v-31q29 1 47 13.5t28 28.5v-279h-97v-31h227zM1306 114q0 61 -43 87.5t-115 26.5q-66 0 -112.5 -27
t-59.5 -76q-2 14 -3.5 28.5t-1.5 30.5q0 77 40 119t124 42q51 0 80.5 -16.5t39.5 -41.5h39q-15 39 -55 63t-104 24q-94 0 -144 -49.5t-50 -140.5q0 -93 44 -143t143 -50q89 0 133.5 34.5t44.5 88.5zM1128 19q-60 0 -94 20.5t-49 56.5q5 51 50.5 76t112.5 25q65 0 95.5 -21.5
t30.5 -61.5q0 -42 -36 -68.5t-110 -26.5zM612 406l371 278l-34 36l-344 -306zM486 322l-402 -295l37 -43l373 330z" />
    <glyph glyph-name="threesixteenths" horiz-adv-x="1378" 
d="M68 0zM612 406l371 278l-34 36l-344 -306zM486 322l-402 -295l37 -43l373 330zM1306 115q0 61 -43 87.5t-115 26.5q-66 0 -112.5 -27t-59.5 -76q-2 14 -3.5 28.5t-1.5 30.5q0 77 40 119t124 42q51 0 80.5 -16.5t39.5 -41.5h39q-15 39 -55 63t-104 24q-94 0 -144 -49.5
t-50 -140.5q0 -93 44 -143t143 -50q89 0 133.5 34.5t44.5 88.5zM1128 20q-60 0 -94 20.5t-49 56.5q5 51 50.5 76t112.5 25q65 0 95.5 -21.5t30.5 -61.5q0 -42 -36 -68.5t-110 -26.5zM256 326q84 0 130 30.5t46 79.5q0 41 -23 61.5t-66 27.5q39 8 58.5 28.5t19.5 52.5
q0 49 -38.5 76t-121.5 27q-89 0 -135.5 -37t-46.5 -102h33q0 52 37 81t112 29q68 0 98 -19.5t30 -54.5q0 -33 -26 -50t-78 -17h-85v-30h84q56 0 84.5 -16t28.5 -57q0 -37 -34.5 -59.5t-106.5 -22.5q-81 0 -118 25.5t-37 87.5h-33q0 -79 45.5 -110t142.5 -31zM861 0v31h-98
v337h-26q-8 -34 -28.5 -51.5t-52.5 -17.5v-31q29 1 47 13.5t28 28.5v-279h-97v-31h227z" />
    <glyph glyph-name="fivesixteenths" horiz-adv-x="1378" 
d="M83 0zM612 406l371 278l-34 36l-344 -306zM486 322l-402 -295l37 -43l373 330zM1306 115q0 61 -43 87.5t-115 26.5q-66 0 -112.5 -27t-59.5 -76q-2 14 -3.5 28.5t-1.5 30.5q0 77 40 119t124 42q51 0 80.5 -16.5t39.5 -41.5h39q-15 39 -55 63t-104 24q-94 0 -144 -49.5
t-50 -140.5q0 -93 44 -143t143 -50q89 0 133.5 34.5t44.5 88.5zM1128 20q-60 0 -94 20.5t-49 56.5q5 51 50.5 76t112.5 25q65 0 95.5 -21.5t30.5 -61.5q0 -42 -36 -68.5t-110 -26.5zM254 328q50 0 90.5 15t64.5 45q12 14 18 32.5t6 39.5q0 65 -43.5 96t-120.5 31
q-46 0 -81.5 -14t-61.5 -36l23 138h232q15 0 22.5 7.5t7.5 22.5h-290l-31 -196l24 -13l2 2q22 26 60 44t92 18q64 0 98.5 -23t34.5 -77q0 -50 -39 -77t-108 -27q-73 0 -104.5 26t-33.5 63h-33q2 -48 41 -82.5t130 -34.5zM861 0v31h-98v337h-26q-8 -34 -28.5 -51.5
t-52.5 -17.5v-31q29 1 47 13.5t28 28.5v-279h-97v-31h227z" />
    <glyph glyph-name="sevensixteenths" horiz-adv-x="1378" 
d="M84 0zM612 406l371 278l-34 36l-344 -306zM486 322l-402 -295l37 -43l373 330zM1306 115q0 61 -43 87.5t-115 26.5q-66 0 -112.5 -27t-59.5 -76q-2 14 -3.5 28.5t-1.5 30.5q0 77 40 119t124 42q51 0 80.5 -16.5t39.5 -41.5h39q-15 39 -55 63t-104 24q-94 0 -144 -49.5
t-50 -140.5q0 -93 44 -143t143 -50q89 0 133.5 34.5t44.5 88.5zM1128 20q-60 0 -94 20.5t-49 56.5q5 51 50.5 76t112.5 25q65 0 95.5 -21.5t30.5 -61.5q0 -42 -36 -68.5t-110 -26.5zM259 337q11 52 39 105t63 101q34 48 67.5 84t55.5 52v26h-339v-29h298q-26 -24 -59.5 -61
t-66.5 -83t-58 -96t-36 -99h36zM861 0v31h-98v337h-26q-8 -34 -28.5 -51.5t-52.5 -17.5v-31q29 1 47 13.5t28 28.5v-279h-97v-31h227z" />
    <glyph glyph-name="ninesixteenths" horiz-adv-x="1378" 
d="M71 0zM612 406l371 278l-34 36l-344 -306zM486 322l-402 -295l37 -43l373 330zM1306 115q0 61 -43 87.5t-115 26.5q-66 0 -112.5 -27t-59.5 -76q-2 14 -3.5 28.5t-1.5 30.5q0 77 40 119t124 42q51 0 80.5 -16.5t39.5 -41.5h39q-15 39 -55 63t-104 24q-94 0 -144 -49.5
t-50 -140.5q0 -93 44 -143t143 -50q89 0 133.5 34.5t44.5 88.5zM1128 20q-60 0 -94 20.5t-49 56.5q5 51 50.5 76t112.5 25q65 0 95.5 -21.5t30.5 -61.5q0 -42 -36 -68.5t-110 -26.5zM224 496q-60 0 -90.5 21.5t-30.5 63.5q0 47 37 74t108 27q61 0 95 -20.5t49 -56.5
q-4 -52 -50.5 -80.5t-117.5 -28.5zM236 328q101 0 150.5 49t49.5 140q0 93 -44.5 143t-143.5 50q-87 0 -132 -35t-45 -94q0 -63 42.5 -89t110.5 -26q69 0 116.5 30t60.5 79q2 -13 3.5 -27.5t1.5 -30.5q0 -77 -39.5 -119t-130.5 -42q-52 0 -83.5 17t-42.5 44h-39
q16 -41 58.5 -65t106.5 -24zM861 0v31h-98v337h-26q-8 -34 -28.5 -51.5t-52.5 -17.5v-31q29 1 47 13.5t28 28.5v-279h-97v-31h227z" />
    <glyph glyph-name="elevensixteenths" horiz-adv-x="1688" 
d="M668 337v31h-98v337h-26q-8 -34 -28.5 -51.5t-52.5 -17.5v-31q29 1 47 13.5t28 28.5v-279h-97v-31h227zM357 337v31h-98v337h-26q-8 -34 -28.5 -51.5t-52.5 -17.5v-31q29 1 47 13.5t28 28.5v-279h-97v-31h227zM921 406l371 278l-34 36l-344 -306zM795 322l-402 -295
l37 -43l373 330zM1171 0v31h-98v337h-26q-8 -34 -28.5 -51.5t-52.5 -17.5v-31q29 1 47 13.5t28 28.5v-279h-97v-31h227zM1616 114q0 61 -43 87.5t-115 26.5q-66 0 -112.5 -27t-59.5 -76q-2 14 -3.5 28.5t-1.5 30.5q0 77 40 119t124 42q51 0 80.5 -16.5t39.5 -41.5h39
q-15 39 -55 63t-104 24q-94 0 -144 -49.5t-50 -140.5q0 -93 44 -143t143 -50q89 0 133.5 34.5t44.5 88.5zM1438 19q-60 0 -94 20.5t-49 56.5q5 51 50.5 76t112.5 25q65 0 95.5 -21.5t30.5 -61.5q0 -42 -36 -68.5t-110 -26.5z" />
    <glyph glyph-name="thirteensixteenths" horiz-adv-x="1788" 
d="M357 337v31h-98v337h-26q-8 -34 -28.5 -51.5t-52.5 -17.5v-31q29 1 47 13.5t28 28.5v-279h-97v-31h227zM1022 406l371 278l-34 36l-344 -306zM896 322l-402 -295l37 -43l373 330zM1716 115q0 61 -43 87.5t-115 26.5q-66 0 -112.5 -27t-59.5 -76q-2 14 -3.5 28.5
t-1.5 30.5q0 77 40 119t124 42q51 0 80.5 -16.5t39.5 -41.5h39q-15 39 -55 63t-104 24q-94 0 -144 -49.5t-50 -140.5q0 -93 44 -143t143 -50q89 0 133.5 34.5t44.5 88.5zM1538 20q-60 0 -94 20.5t-49 56.5q5 51 50.5 76t112.5 25q65 0 95.5 -21.5t30.5 -61.5
q0 -42 -36 -68.5t-110 -26.5zM646 328q84 0 130 30.5t46 79.5q0 41 -23 61.5t-66 27.5q39 8 58.5 28.5t19.5 52.5q0 49 -38.5 76t-121.5 27q-89 0 -135.5 -37t-46.5 -102h33q0 52 37 81t112 29q68 0 98 -19.5t30 -54.5q0 -33 -26 -50t-78 -17h-85v-30h84q56 0 84.5 -16
t28.5 -57q0 -37 -34.5 -59.5t-106.5 -22.5q-81 0 -118 25.5t-37 87.5h-33q0 -79 45.5 -110t142.5 -31zM1271 0v31h-98v337h-26q-8 -34 -28.5 -51.5t-52.5 -17.5v-31q29 1 47 13.5t28 28.5v-279h-97v-31h227z" />
    <glyph glyph-name="fifteensixteenths" horiz-adv-x="1788" 
d="M357 337v31h-98v337h-26q-8 -34 -28.5 -51.5t-52.5 -17.5v-31q29 1 47 13.5t28 28.5v-279h-97v-31h227zM1022 406l371 278l-34 36l-344 -306zM896 322l-402 -295l37 -43l373 330zM1716 115q0 61 -43 87.5t-115 26.5q-66 0 -112.5 -27t-59.5 -76q-2 14 -3.5 28.5
t-1.5 30.5q0 77 40 119t124 42q51 0 80.5 -16.5t39.5 -41.5h39q-15 39 -55 63t-104 24q-94 0 -144 -49.5t-50 -140.5q0 -93 44 -143t143 -50q89 0 133.5 34.5t44.5 88.5zM1538 20q-60 0 -94 20.5t-49 56.5q5 51 50.5 76t112.5 25q65 0 95.5 -21.5t30.5 -61.5
q0 -42 -36 -68.5t-110 -26.5zM640 328q50 0 90.5 15t64.5 45q12 14 18 32.5t6 39.5q0 65 -43.5 96t-120.5 31q-46 0 -81.5 -14t-61.5 -36l23 138h232q15 0 22.5 7.5t7.5 22.5h-290l-31 -196l24 -13l2 2q22 26 60 44t92 18q64 0 98.5 -23t34.5 -77q0 -50 -39 -77t-108 -27
q-73 0 -104.5 26t-33.5 63h-33q2 -48 41 -82.5t130 -34.5zM1271 0v31h-98v337h-26q-8 -34 -28.5 -51.5t-52.5 -17.5v-31q29 1 47 13.5t28 28.5v-279h-97v-31h227z" />
    <glyph glyph-name="percent" unicode="%" horiz-adv-x="819" 
d="M215 416q71 0 116 41.5t45 110.5q0 68 -45.5 109.5t-115.5 41.5q-42 0 -78.5 -17.5t-59.5 -51.5q-12 -17 -17.5 -37.5t-5.5 -44.5q0 -49 22 -83t58 -51q19 -9 39 -13.5t42 -4.5zM49 0h45l673 706h-43zM215 448q-54 0 -90 31t-36 89t36 88.5t90 30.5q56 0 91.5 -33
t35.5 -86t-35.5 -86.5t-91.5 -33.5zM597 -18q71 0 116 41t45 110q0 68 -45.5 110t-115.5 42q-42 0 -78.5 -18t-59.5 -52q-12 -17 -17.5 -37.5t-5.5 -44.5q0 -49 22 -82.5t58 -51.5q19 -8 39 -12.5t42 -4.5zM597 14q-54 0 -90 30.5t-36 88.5t36 89t90 31q56 0 91.5 -33.5
t35.5 -86.5t-35.5 -86t-91.5 -33z" />
    <glyph glyph-name="perthousand" unicode="&#x2030;" horiz-adv-x="1236" 
d="M215 416q71 0 116 41.5t45 110.5q0 68 -45.5 109.5t-115.5 41.5q-42 0 -78.5 -17.5t-59.5 -51.5q-12 -17 -17.5 -37.5t-5.5 -44.5q0 -49 22 -83t58 -51q19 -9 39 -13.5t42 -4.5zM49 0h45l673 706h-43zM215 448q-54 0 -90 31t-36 89t36 88.5t90 30.5q56 0 91.5 -33
t35.5 -86t-35.5 -86.5t-91.5 -33.5zM597 -18q71 0 116 41t45 110q0 68 -45.5 110t-115.5 42q-42 0 -78.5 -18t-59.5 -52q-12 -17 -17.5 -37.5t-5.5 -44.5q0 -49 22 -82.5t58 -51.5q19 -8 39 -12.5t42 -4.5zM1021 -18q71 0 116 41t45 110q0 68 -45.5 110t-115.5 42
q-42 0 -79 -18t-59 -52q-12 -17 -17.5 -37.5t-5.5 -44.5q0 -49 22 -82.5t58 -51.5q19 -8 39 -12.5t42 -4.5zM597 14q-54 0 -90 30.5t-36 88.5t36 89t90 31q56 0 91.5 -33.5t35.5 -86.5t-35.5 -86t-91.5 -33zM1021 14q-54 0 -90 30.5t-36 88.5t36 89t90 31q56 0 91.5 -33.5
t35.5 -86.5t-35.5 -86t-91.5 -33z" />
    <glyph glyph-name="uni2116" unicode="&#x2116;" horiz-adv-x="1616" 
d="M1275 308q122 0 194 53t72 156q0 70 -35.5 118t-95.5 72q-30 13 -63 19t-70 6q-72 0 -132 -23.5t-96 -71.5q-18 -24 -27 -54t-9 -66q0 -103 70 -156t192 -53zM1275 338q-103 0 -167 44t-64 135q0 64 32.5 105t85.5 62q26 10 55 15t60 5q66 0 119 -21.5t84 -63.5
q16 -21 23.5 -46.5t7.5 -55.5q0 -60 -30 -100t-83 -59q-27 -10 -57.5 -15t-65.5 -5zM801 0h30v706h-35v-649l-626 649h-42v-706h35v663zM1513 148h-469v-33h469v33z" />
    <glyph glyph-name="currency" unicode="&#xa4;" horiz-adv-x="685" 
d="M348 146q-61 0 -109.5 29t-76.5 78q-14 25 -21 52t-7 57q0 60 28 109.5t77 78.5q24 14 51.5 21.5t57.5 7.5q61 0 109.5 -29t76.5 -79q14 -24 21 -51.5t7 -57.5q0 -60 -28 -109t-77 -78q-24 -14 -51 -21.5t-58 -7.5zM348 116q45 0 85.5 15t72.5 41l98 -98l21 23l-96 97
q30 33 47 76t17 92t-17 91.5t-46 75.5l97 102l-25 20l-96 -100q-31 27 -71.5 42t-86.5 15t-87.5 -15.5t-73.5 -43.5l-102 107l-22 -22l103 -106q-29 -33 -46 -75.5t-17 -90.5t16.5 -90t45.5 -75l-105 -107l25 -22l103 107q32 -28 73 -43.5t87 -15.5z" />
    <glyph glyph-name="uni2190" unicode="&#x2190;" horiz-adv-x="986" 
d="M938 356v33h-839q33 21 73.5 58t76.5 86q18 24 32 50t24 53h-40q-15 -38 -42 -77t-60 -74t-66.5 -61.5t-62.5 -40.5v-19q29 -13 62 -40t66 -63q33 -35 60 -74t43 -77h41q-22 53 -58 101.5t-76 86.5q-20 19 -38 33.5t-35 24.5h839z" />
    <glyph glyph-name="uni2192" unicode="&#x2192;" horiz-adv-x="986" 
d="M707 110q15 39 41.5 78t59.5 73q33 35 67 62t63 41v19q-28 13 -61.5 40t-66.5 62t-60 74t-43 77h-42q23 -52 58.5 -100t74.5 -86q20 -19 38 -33.5t34 -25.5h-836v-34h840q-33 -20 -74 -57t-77 -86q-18 -24 -32 -50t-24 -54h40z" />
    <glyph glyph-name="arrowup" unicode="&#x2191;" horiz-adv-x="986" 
d="M757 482v41q-39 15 -78 41.5t-74 59.5t-61.5 66.5t-40.5 62.5h-19q-13 -28 -40 -61.5t-62 -65.5q-35 -33 -74.5 -60t-77.5 -43v-42q53 22 101.5 57.5t85.5 75.5q19 19 34 37.5t25 34.5v-731h34v733q21 -33 58 -73t86 -76q24 -18 50 -32.5t53 -24.5z" />
    <glyph glyph-name="arrowdown" unicode="&#x2193;" horiz-adv-x="986" 
d="M503 -45q14 28 40.5 61.5t62.5 66.5q35 33 74 60t77 43v41q-52 -22 -100.5 -57.5t-86.5 -75.5q-19 -20 -33.5 -38t-25.5 -35v733h-33v-734q-20 33 -57.5 73.5t-86.5 76.5q-24 18 -50 32t-53 24v-40q38 -15 77 -42t74 -60t62 -66.5t40 -62.5h19z" />
    <glyph glyph-name="uni2196" unicode="&#x2196;" horiz-adv-x="986" 
d="M817 66l-594 592q39 -8 94 -10t115 7q30 4 58 12t54 20l-29 29q-37 -17 -83.5 -25.5t-94.5 -10.5q-48 -1 -90.5 4t-73.5 16l-13 -13q11 -30 15.5 -72.5t2.5 -90.5q-1 -48 -9.5 -95t-24.5 -85l30 -29q21 53 29.5 112t7.5 113q0 27 -2.5 50.5t-6.5 42.5l592 -591z" />
    <glyph glyph-name="uni2197" unicode="&#x2197;" horiz-adv-x="986" 
d="M803 316l28 29q-16 38 -25 84t-10 94t4 90.5t15 73.5l-13 13q-30 -10 -72.5 -15t-90.5 -3q-48 1 -94.5 9.5t-84.5 24.5l-30 -30q53 -21 112 -29.5t114 -7.5q27 0 50.5 2.5t42.5 6.5l-592 -592l25 -23l592 594q-9 -38 -11 -93.5t7 -115.5q5 -30 13 -58t20 -54z" />
    <glyph glyph-name="uni2198" unicode="&#x2198;" horiz-adv-x="986" 
d="M802 45l13 13q-10 30 -15 72.5t-3 90.5t10.5 94.5t24.5 84.5l-30 30q-21 -52 -30 -112t-7 -115q0 -27 2.5 -50.5t6.5 -42.5l-592 593l-23 -25l593 -592q-38 9 -93.5 11t-114.5 -7q-30 -4 -58 -12.5t-54 -20.5l28 -28q38 17 84 25.5t94 9.5t91 -3.5t73 -15.5z" />
    <glyph glyph-name="uni2199" unicode="&#x2199;" horiz-adv-x="986" 
d="M515 29l30 30q-52 21 -111.5 29.5t-114.5 7.5q-27 0 -50.5 -2.5t-42.5 -6.5l592 592l-25 23l-592 -594q9 39 11 94t-7 115q-4 30 -12.5 58t-20.5 54l-28 -29q17 -37 25.5 -83.5t9.5 -94.5t-3.5 -90.5t-15.5 -73.5l13 -13q30 11 72.5 15.5t90.5 2.5q48 -1 94.5 -9.5
t84.5 -24.5z" />
    <glyph glyph-name="uni25CB" unicode="&#x25cb;" horiz-adv-x="854" 
d="M427 -10q78 0 144.5 26.5t115.5 75.5t76 115.5t27 145.5q0 78 -26.5 144.5t-75.5 115.5t-115 76t-146 27q-78 0 -144.5 -26.5t-115.5 -75.5t-76 -115t-27 -146q0 -106 46.5 -188t128.5 -128q41 -24 88 -35.5t100 -11.5zM427 18q-73 0 -133.5 25.5t-105.5 70.5
q-44 46 -68.5 107t-24.5 132q0 72 25 133.5t71 106.5q45 45 105.5 70t130.5 25q72 0 132.5 -25.5t105.5 -70.5q44 -46 69 -107t25 -132t-25 -132t-70 -107q-46 -45 -106 -70.5t-131 -25.5z" />
    <glyph glyph-name="uni25CF" unicode="&#x25cf;" horiz-adv-x="854" 
d="M427 -10q78 0 144.5 26.5t115.5 75.5t76 115.5t27 145.5q0 78 -26.5 144.5t-75.5 115.5t-115 76t-146 27q-78 0 -144.5 -26.5t-115.5 -75.5t-76 -115t-27 -146q0 -106 46.5 -188t128.5 -128q41 -24 88 -35.5t100 -11.5z" />
    <glyph glyph-name="mediumwhitecircle" horiz-adv-x="710" 
d="M355 -10q83 0 148.5 38t104.5 103q19 33 28.5 70.5t9.5 79.5q0 85 -38.5 150.5t-104.5 103.5q-33 19 -70 28.5t-78 9.5q-82 0 -148 -38.5t-104 -104.5q-20 -33 -29.5 -70t-9.5 -79q0 -82 38 -148t104 -105q33 -19 70 -28.5t79 -9.5zM355 18q-75 0 -134 35.5t-93 94.5
q-17 30 -25.5 63.5t-8.5 69.5q0 74 34 133.5t93 95.5q29 17 62.5 26t71.5 9q75 0 134 -34t94 -94q17 -30 25.5 -64t8.5 -72q0 -74 -34.5 -134t-93.5 -94q-30 -18 -63.5 -26.5t-70.5 -8.5z" />
    <glyph glyph-name="mediumblackcircle" horiz-adv-x="710" 
d="M355 -10q83 0 148.5 38t104.5 103q19 33 28.5 70.5t9.5 79.5q0 85 -38.5 150.5t-104.5 103.5q-33 19 -70 28.5t-78 9.5q-82 0 -148 -38.5t-104 -104.5q-20 -33 -29.5 -70t-9.5 -79q0 -82 38 -148t104 -105q33 -19 70 -28.5t79 -9.5z" />
    <glyph glyph-name="uni25A0" unicode="&#x25a0;" horiz-adv-x="845" 
d="M72 0h702v706h-702v-706z" />
    <glyph glyph-name="uni25A1" unicode="&#x25a1;" horiz-adv-x="845" 
d="M72 0v706h702v-706h-702zM102 677v-648h641v648h-641z" />
    <glyph glyph-name="uni22A0" unicode="&#x22a0;" horiz-adv-x="845" 
d="M72 0h702v706h-702v-706zM102 677h641v-648h-641v648zM614 141l21 20l-189 195l184 190l-20 21l-184 -191l-187 192l-21 -20l188 -193l-193 -199l19 -21l193 200z" />
    <glyph glyph-name="uni25AA" unicode="&#x25aa;" horiz-adv-x="713" 
d="M75 0h563v563h-563v-563z" />
    <glyph glyph-name="uni25AB" unicode="&#x25ab;" horiz-adv-x="713" 
d="M75 0h563v563h-563v-563zM105 534h503v-505h-503v505z" />
    <glyph glyph-name="ballotboxwithx" horiz-adv-x="713" 
d="M75 0h563v563h-563v-563zM105 534h503v-505h-503v505zM485 136l19 19l-123 124l119 121l-18 22l-121 -123l-122 122l-19 -20l122 -122l-123 -125l18 -22l125 127z" />
    <glyph glyph-name="triagup" unicode="&#x25b2;" horiz-adv-x="817" 
d="M823 0l-414 718l-415 -718h829z" />
    <glyph glyph-name="triagdn" unicode="&#x25bc;" horiz-adv-x="817" 
d="M-6 706l415 -718l414 718h-829z" />
    <glyph glyph-name="triaglf" unicode="&#x25c4;" horiz-adv-x="817" 
d="M746 774l-718 -414l718 -415v829z" />
    <glyph glyph-name="triagrt" unicode="&#x25ba;" horiz-adv-x="817" 
d="M72 -55l717 415l-717 414v-829z" />
    <glyph glyph-name="uni25E4" unicode="&#x25e4;" horiz-adv-x="817" 
d="M804 -52l-215 800l-586 -586z" />
    <glyph glyph-name="uni25E5" unicode="&#x25e5;" horiz-adv-x="817" 
d="M818 158l-585 587l-215 -801z" />
    <glyph glyph-name="uni25E2" unicode="&#x25e2;" horiz-adv-x="817" 
d="M819 515l-800 215l214 -801z" />
    <glyph glyph-name="uni25E3" unicode="&#x25e3;" horiz-adv-x="817" 
d="M586 -71l215 801l-801 -215z" />
    <glyph glyph-name="uni25CE" unicode="&#x25ce;" horiz-adv-x="823" 
d="M409 -10q78 0 143 26.5t113 74.5q47 47 73 111.5t26 139.5q0 78 -26.5 143t-74.5 113q-47 47 -112 73.5t-142 26.5q-76 0 -140 -26.5t-111 -74.5q-47 -49 -73 -113.5t-26 -141.5q0 -76 26 -140.5t73 -111.5q47 -48 111 -74t140 -26zM409 116q-62 0 -113 30t-80 81
q-15 25 -22.5 54t-7.5 61q0 66 29.5 118.5t80.5 83.5q25 15 53.5 22.5t59.5 7.5q66 0 117.5 -31t81.5 -84q14 -26 21.5 -55.5t7.5 -61.5q0 -64 -29.5 -115t-80.5 -81q-26 -15 -55.5 -22.5t-62.5 -7.5zM410 179q48 0 86 21.5t59 57.5q11 19 16.5 39.5t5.5 43.5q0 47 -22 84.5
t-60 59.5q-19 11 -40 16.5t-45 5.5q-46 0 -83 -22t-58 -59q-11 -19 -16.5 -40t-5.5 -45q0 -47 21 -83.5t58 -57.5q18 -11 39 -16t45 -5zM410 287q-21 0 -35.5 16t-14.5 38q0 26 14.5 42t35.5 16q24 0 39 -16t15 -42q0 -22 -15 -38t-39 -16z" />
    <glyph glyph-name="uni2605" unicode="&#x2605;" horiz-adv-x="850" 
d="M537 303l187 134l-230 1l-71 218l-72 -218l-229 1l186 -135l-72 -219l186 135l187 -135z" />
    <glyph glyph-name="uni263C" unicode="&#x263c;" horiz-adv-x="878" 
d="M426 568h20l17 142h-54zM323 535l15 10l-55 133l-47 -28zM534 545l15 -10l87 115l-47 28zM248 455l10 15l-115 87l-28 -47zM614 471l10 -16l133 56l-30 46zM262 356q0 -47 23.5 -87t63.5 -63q20 -12 41.5 -18t45.5 -6q48 0 87.5 23.5t62.5 63.5q12 20 18 41.5t6 45.5
q0 48 -23.5 87.5t-63.5 62.5q-20 12 -41.5 18t-45.5 6q-47 0 -87 -23.5t-63 -63.5q-12 -20 -18 -41.5t-6 -45.5zM225 347v20l-142 17v-54zM647 367v-20l142 -17v54zM624 259l-10 -15l115 -87l28 47zM258 243l-10 16l-133 -56l30 -46zM549 179l-15 -10l55 -133l47 28z
M338 169l-15 10l-87 -115l47 -28zM446 146h-20l-17 -142h54z" />
    <glyph glyph-name="uni263E" unicode="&#x263e;" horiz-adv-x="737" 
d="M509 605q18 0 36 -3.5t35 -8.5q-38 27 -83.5 42t-94.5 15q-61 0 -114.5 -23t-94.5 -64t-64 -94.5t-23 -114.5t23 -114.5t64 -94.5t94.5 -64t114.5 -23q49 0 94.5 15t83.5 42q-17 -5 -35 -8.5t-36 -3.5q-66 0 -120 34t-87 91q-16 29 -24 60.5t-8 65.5q0 69 32.5 126
t86.5 91q27 17 57 25.5t63 8.5z" />
    <glyph glyph-name="uni267B" unicode="&#x267b;" horiz-adv-x="779" 
d="M325 680l14 -2.5t32 -12.5q9 -5 17 -13.5t14 -19.5l61 -106l-34 -20l145 -27l53 142l-37 -21l-24 41q-16 29 -35 34t-42 6h-164v-1zM152 527l127 -73l98 170q-8 17 -32 29t-53 14q-14 1 -27.5 -2t-26.5 -11q-10 -5 -18 -13t-11 -13zM665 467l-126 -72l98 -170
q18 0 40.5 14t38.5 38q8 12 12 25.5t4 28.5q0 11 -2.5 21.5t-5.5 15.5zM141 125l-4.5 14t-4.5 35q0 10 3 20.5t9 21.5q1 2 10 18l21 37l21 35.5l9 15.5l35 -21l-50 141l-148 -26l36 -21l-24 -42q-16 -28 -11.5 -47t15.5 -39l81 -142h2zM714 246l-10 -11t-28 -22
q-9 -5 -19.5 -8t-23.5 -3h-123v42l-95 -115l95 -115v42h49q33 0 47 14t27 33l82 142zM361 56v146h-196q-9 -15 -8 -41.5t14 -52.5q6 -13 15.5 -23t22.5 -18q10 -6 20.5 -8.5t17.5 -2.5h114z" />
    <glyph glyph-name="uni267C" unicode="&#x267c;" horiz-adv-x="779" 
d="M728 354q0 71 -26 132.5t-73 108.5q-46 46 -107 72.5t-131 26.5t-132 -26.5t-108 -72.5q-47 -47 -73.5 -108.5t-26.5 -132.5q0 -70 26.5 -131t73.5 -108q46 -46 108 -72t132 -26t131 26t107 72q47 47 73 108t26 131zM334 612h127q19 0 33 -4.5t27 -26.5l19 -32l28 16
l-40 -110l-113 21l27 16l-48 82q-9 17 -23.5 24.5t-25.5 10.5q-5 1 -8 1.5l-3 0.5v1zM249 570q2 5 8 11t13 10q20 12 42.5 10t40.5 -11q9 -5 15.5 -10.5t9.5 -11.5l-75 -132l-99 57zM646 370q3 -5 5.5 -12.5t2.5 -16.5q0 -23 -12.5 -42t-30.5 -31q-8 -5 -16 -8t-15 -3
l-77 132l99 57zM194 181l-63 109q-8 17 -12 31.5t9 36.5l19 32l-28 17l114 19l39 -109l-27 17l-48 -82q-9 -17 -9 -33.5t4 -26.5q1 -6 2 -8.5l1 -2.5h-1zM640 273l-64 -109q-9 -15 -20 -25.5t-37 -10.5h-37v-33l-75 89l75 88v-31h94q20 0 34 8.5t22 16.5q3 4 5 6l2 2z
M274 128q-5 0 -13 2t-16 6q-20 12 -30 32t-11 40q-1 10 0.5 18.5t5.5 14.5h153v-113h-89z" />
    <glyph glyph-name="uni267D" unicode="&#x267d;" horiz-adv-x="779" 
d="M728 354q0 71 -26 132.5t-73 108.5q-46 46 -107 72.5t-131 26.5t-132 -26.5t-108 -72.5q-47 -47 -73.5 -108.5t-26.5 -132.5q0 -70 26.5 -131t73.5 -108q46 -46 108 -72t132 -26t131 26t107 72q47 47 73 108t26 131zM711 354q0 -67 -25 -125t-69 -102t-102 -69t-124 -25
q-67 0 -125.5 25t-103.5 69q-44 44 -69 102t-25 125t25 125.5t69 103.5q45 44 103.5 69t125.5 25q66 0 124 -25t102 -69q44 -45 69 -103.5t25 -125.5zM334 611l11 -2.5t25 -10.5q7 -4 13 -10t11 -14l48 -82l-27 -16l113 -21l40 110l-28 -16l-19 32q-13 22 -27 26.5t-33 4.5
h-127v-1zM204 493l99 -57l75 132q-6 13 -24.5 22t-41.5 11q-11 1 -21.5 -1.5t-20.5 -8.5q-7 -4 -13 -10t-8 -11zM602 446l-99 -57l77 -132q14 0 31.5 11.5t29.5 30.5q7 9 10 20t3 22q0 9 -2.5 16.5t-5.5 12.5zM195 181l-3.5 10.5t-3.5 27.5q0 8 2 16.5t7 16.5l48 82l27 -17
l-39 109l-114 -19l28 -17l-19 -32q-13 -22 -9 -36.5t12 -31.5l63 -109h1zM639 274l-7.5 -8t-21.5 -17q-7 -4 -15.5 -6t-18.5 -2h-94v31l-75 -88l75 -89v33h37q26 0 37 10.5t20 25.5l64 109zM363 128v113h-153q-7 -12 -6 -32.5t11 -40.5q5 -10 12.5 -18t17.5 -14q8 -4 16 -6
t13 -2h89z" />
    <glyph glyph-name="house" unicode="&#x2302;" horiz-adv-x="802" 
d="M727 0v406l-326 313l-326 -313v-406h652z" />
    <glyph glyph-name="spade" unicode="&#x2660;" horiz-adv-x="852" 
d="M458 284q13 -34 36.5 -64t58.5 -49q17 -10 38 -14.5t45 -4.5q43 0 77.5 21t55.5 56q11 17 16 36.5t5 40.5q0 56 -22 103.5t-71 97.5q-24 25 -56.5 54t-73.5 61l-137 109h-1l-137 -109q-81 -64 -132 -114.5t-75 -98.5q-12 -23 -18 -49t-6 -54q0 -42 23 -77.5t61 -56.5
q19 -10 40 -15.5t44 -5.5q45 0 77.5 19t54.5 50q11 15 19.5 31t14.5 33q0 -59 -17.5 -114.5t-39.5 -100.5l-20 -39l-16 -30h254q-9 19 -25.5 49t-32.5 68q-17 37 -28.5 80t-11.5 87z" />
    <glyph glyph-name="club" unicode="&#x2663;" horiz-adv-x="852" 
d="M622 128q48 0 87.5 24t62.5 63q11 20 17 42t6 46q0 48 -23 87t-62 63q-19 11 -41 17t-46 6q-12 0 -23.5 -2t-21.5 -6q8 20 13 42.5t5 44.5q0 48 -23 86.5t-62 61.5q-20 12 -41.5 17.5t-45.5 5.5q-47 0 -86.5 -23t-63.5 -62q-11 -19 -17 -40.5t-6 -45.5q0 -22 5.5 -43.5
t14.5 -41.5l-20 4t-21 2q-48 0 -87.5 -23.5t-62.5 -62.5q-12 -19 -18 -41t-6 -46q0 -48 23.5 -87.5t63.5 -63.5q19 -12 41 -18t46 -6q57 0 100.5 33.5t63.5 84.5q-6 -52 -23 -100t-36 -86l-18 -34l-14 -26h254l-31 60t-39 86q-9 24 -15.5 48.5t-9.5 50.5q20 -51 62 -84
t98 -33z" />
    <glyph glyph-name="heart" unicode="&#x2665;" horiz-adv-x="852" 
d="M423 -17l138 154q82 91 132 160.5t73 127.5q12 30 17.5 59t5.5 57q0 51 -25.5 93t-67.5 67q-21 12 -44.5 18.5t-48.5 6.5q-50 0 -88.5 -20.5t-62.5 -56.5q-12 -18 -19 -38t-10 -42q-5 45 -29.5 80.5t-63.5 55.5q-19 11 -41 16t-47 5q-50 0 -91 -25t-65 -67
q-12 -21 -18 -44.5t-6 -48.5q0 -57 22 -115.5t71 -128.5q24 -35 56.5 -75t73.5 -85z" />
    <glyph glyph-name="diamond" unicode="&#x2666;" horiz-adv-x="852" 
d="M105 364l321 -374l320 374l-320 370z" />
    <glyph glyph-name="plus" unicode="+" horiz-adv-x="742" 
d="M628 335v32h-240v225h-33v-225h-229v-32h229v-227h33v227h240z" />
    <glyph glyph-name="minus" unicode="&#x2212;" horiz-adv-x="742" 
d="M661 335v32h-574v-32h574z" />
    <glyph glyph-name="plusminus" unicode="&#xb1;" horiz-adv-x="742" 
d="M613 450v32h-224v210h-33v-210h-214v-32h214v-212h33v212h224zM616 112v32h-469v-32h469z" />
    <glyph glyph-name="multiply" unicode="&#xd7;" horiz-adv-x="742" 
d="M576 122l23 25l-210 222l209 210l-24 25l-209 -210l-192 204l-22 -27l190 -201l-220 -221l22 -27l222 223z" />
    <glyph glyph-name="divide" unicode="&#xf7;" horiz-adv-x="742" 
d="M366 547q17 0 28 9t11 28q0 18 -10 29.5t-28 11.5q-20 0 -30.5 -10t-10.5 -30q0 -19 10 -28.5t30 -9.5zM661 335v32h-574v-32h574zM362 67q20 0 30 9.5t10 27.5t-9 29t-29 11t-30 -9.5t-10 -29.5q0 -19 9.5 -28.5t28.5 -9.5z" />
    <glyph glyph-name="equal" unicode="=" horiz-adv-x="742" 
d="M644 511v32h-542v-32h542zM644 178v32h-542v-32h542z" />
    <glyph glyph-name="notequal" unicode="&#x2260;" horiz-adv-x="742" 
d="M644 178v32h-301l91 301h210v32h-201l41 135h-38l-41 -135h-303v-32h294l-91 -301h-203v-32h194l-45 -149h38l45 149h310z" />
    </font>
</defs>
</svg>
